<svg width="36" height="36" viewBox="0 0 36 36" fill="none" xmlns="http://www.w3.org/2000/svg">
<path d="M20.205 11.1149L23.895 9.29993C24.345 9.07493 24.465 8.48993 24.12 8.12993C22.785 6.65993 21.435 5.42993 20.355 4.49993C19.86 4.07993 19.125 4.42493 19.125 5.06993V10.4399C19.125 10.9949 19.71 11.3549 20.205 11.1149Z" fill="url(#paint0_linear_100_1355)"/>
<path d="M19.125 29.61V32.085C19.125 32.535 19.53 32.91 19.98 32.835C24.075 32.16 27.495 29.415 29.115 25.725C29.4 25.095 28.71 24.465 28.08 24.765L19.545 28.95C19.29 29.07 19.125 29.325 19.125 29.61Z" fill="url(#paint1_linear_100_1355)"/>
<path d="M16.8752 5.03994C16.8752 4.39494 16.1402 4.04994 15.6452 4.45494C12.1052 7.42494 5.8202 13.6799 5.8502 20.8499C5.8502 26.8799 10.2602 31.8749 16.0202 32.8349C16.4702 32.9099 16.8752 32.5349 16.8752 32.0849V5.03994Z" fill="url(#paint2_linear_100_1355)"/>
<path d="M20.1599 18.7052L28.0949 15.3752C28.4999 15.1952 28.6949 14.7302 28.4999 14.3402C27.9449 13.2452 27.2999 12.1802 26.5949 11.1902C26.3849 10.8902 25.9949 10.8002 25.6649 10.9502L19.5299 13.9352C19.2749 14.0552 19.1099 14.3252 19.1099 14.6102V18.0152C19.1249 18.5402 19.6649 18.9152 20.1599 18.7052Z" fill="url(#paint3_linear_100_1355)"/>
<path d="M29.745 21.4651C29.985 21.3451 30.135 21.1201 30.135 20.8651C30.135 19.9051 30.015 18.9601 29.805 18.0301C29.7 17.5801 29.205 17.3401 28.785 17.5201L19.575 21.4501C19.305 21.5701 19.125 21.8401 19.125 22.1401V25.4401C19.125 25.9951 19.71 26.3551 20.205 26.1151L29.055 21.8101L29.745 21.4651Z" fill="url(#paint4_linear_100_1355)"/>
<defs>
<linearGradient id="paint0_linear_100_1355" x1="24.3195" y1="7.75324" x2="19.125" y2="7.75369" gradientUnits="userSpaceOnUse">
<stop stop-color="#24DCCD"/>
<stop offset="1" stop-color="#5AABA5"/>
</linearGradient>
<linearGradient id="paint1_linear_100_1355" x1="29.1812" y1="28.7663" x2="19.125" y2="28.7678" gradientUnits="userSpaceOnUse">
<stop stop-color="#24DCCD"/>
<stop offset="1" stop-color="#5AABA5"/>
</linearGradient>
<linearGradient id="paint2_linear_100_1355" x1="16.8752" y1="18.5627" x2="5.85009" y2="18.5631" gradientUnits="userSpaceOnUse">
<stop stop-color="#24DCCD"/>
<stop offset="1" stop-color="#5AABA5"/>
</linearGradient>
<linearGradient id="paint3_linear_100_1355" x1="28.5761" y1="14.8217" x2="19.1099" y2="14.823" gradientUnits="userSpaceOnUse">
<stop stop-color="#24DCCD"/>
<stop offset="1" stop-color="#5AABA5"/>
</linearGradient>
<linearGradient id="paint4_linear_100_1355" x1="30.135" y1="21.8253" x2="19.125" y2="21.8269" gradientUnits="userSpaceOnUse">
<stop stop-color="#24DCCD"/>
<stop offset="1" stop-color="#5AABA5"/>
</linearGradient>
</defs>
</svg>
