<svg width="35" height="35" viewBox="0 0 35 35" fill="none" xmlns="http://www.w3.org/2000/svg">
<g clip-path="url(#clip0_100_2182)">
<path d="M17.5 35C27.165 35 35 27.165 35 17.5C35 7.835 27.165 0 17.5 0C7.835 0 0 7.835 0 17.5C0 27.165 7.835 35 17.5 35Z" fill="#2AD6C9"/>
</g>
<g clip-path="url(#clip1_100_2182)">
<path d="M27.4783 11.8736C26.7539 12.1913 25.9821 12.4019 25.1774 12.5042C26.0052 12.0099 26.637 11.2332 26.9341 10.297C26.1623 10.7572 25.3101 11.0823 24.4019 11.2637C23.669 10.4833 22.6245 10 21.485 10C19.2743 10 17.4944 11.7944 17.4944 13.9943C17.4944 14.3108 17.5212 14.6151 17.587 14.9049C14.2671 14.743 11.3296 13.1518 9.35617 10.728C9.01165 11.3257 8.80957 12.0099 8.80957 12.7464C8.80957 14.1294 9.52174 15.3553 10.5833 16.065C9.94174 16.0529 9.31235 15.8666 8.77913 15.5732C8.77913 15.5854 8.77913 15.6012 8.77913 15.617C8.77913 17.5576 10.1633 19.1694 11.9784 19.5407C11.6534 19.6296 11.2991 19.6722 10.9315 19.6722C10.6758 19.6722 10.4177 19.6576 10.1755 19.604C10.6929 21.1854 12.161 22.348 13.9068 22.3857C12.5482 23.4485 10.8231 24.0889 8.95565 24.0889C8.62817 24.0889 8.31409 24.0743 8 24.0341C9.76887 25.1748 11.8652 25.8261 14.1259 25.8261C21.4741 25.8261 25.4915 19.7391 25.4915 14.463C25.4915 14.2864 25.4854 14.116 25.4769 13.9468C26.2694 13.3843 26.9353 12.6819 27.4783 11.8736Z" fill="#03000E"/>
</g>
<defs>
<clipPath id="clip0_100_2182">
<rect width="35" height="35" fill="white"/>
</clipPath>
<clipPath id="clip1_100_2182">
<rect width="19.4783" height="16" fill="white" transform="translate(8 10)"/>
</clipPath>
</defs>
</svg>
