<svg width="34" height="38" viewBox="0 0 34 38" fill="none" xmlns="http://www.w3.org/2000/svg">
<g clip-path="url(#clip0_100_2187)">
<path d="M31.2547 4.65454H3.42578V27.8453H31.2547V4.65454Z" fill="#03000E"/>
<path d="M13.6541 15.5823C12.5966 15.5823 11.7617 16.5099 11.7617 17.6416C11.7617 18.7733 12.6151 19.701 13.6541 19.701C14.7116 19.701 15.5464 18.7733 15.5464 17.6416C15.565 16.5099 14.7116 15.5823 13.6541 15.5823ZM20.4258 15.5823C19.3683 15.5823 18.5334 16.5099 18.5334 17.6416C18.5334 18.7733 19.3868 19.701 20.4258 19.701C21.4833 19.701 22.3182 18.7733 22.3182 17.6416C22.3182 16.5099 21.4833 15.5823 20.4258 15.5823Z" fill="#2AD6C9"/>
<path d="M29.4411 0.0168457H4.58063C2.48418 0.0168457 0.777344 1.72369 0.777344 3.83868V28.9218C0.777344 31.0368 2.48418 32.7436 4.58063 32.7436H25.6193L24.636 29.3114L27.0107 31.5192L29.2556 33.5971L33.2444 37.1221V3.83868C33.2444 1.72369 31.5376 0.0168457 29.4411 0.0168457ZM22.2798 24.2465C22.2798 24.2465 21.6119 23.4488 21.0553 22.7438C23.4857 22.0573 24.4134 20.536 24.4134 20.536C23.6527 21.0369 22.9292 21.3894 22.2798 21.6306C21.3522 22.0202 20.4617 22.28 19.5897 22.4284C17.8086 22.7623 16.176 22.6696 14.7846 22.4098C13.7271 22.2058 12.818 21.9089 12.0573 21.6121C11.6306 21.4451 11.1668 21.241 10.703 20.9813C10.6473 20.9442 10.5917 20.9256 10.536 20.8885C10.4989 20.87 10.4804 20.8514 10.4618 20.8329C10.1279 20.6473 9.94233 20.5175 9.94233 20.5175C9.94233 20.5175 10.8329 22.0017 13.189 22.7067C12.6325 23.4117 11.946 24.2465 11.946 24.2465C7.84589 24.1167 6.28747 21.4266 6.28747 21.4266C6.28747 15.4526 8.95904 10.6104 8.95904 10.6104C11.6306 8.6067 14.1723 8.66236 14.1723 8.66236L14.3579 8.88499C11.0184 9.84973 9.47851 11.3154 9.47851 11.3154C9.47851 11.3154 9.88667 11.0928 10.5731 10.7774C12.5582 9.90538 14.1352 9.6642 14.7846 9.60854C14.8959 9.58999 14.9886 9.57144 15.1 9.57144C16.2317 9.42302 17.5118 9.38591 18.8476 9.53433C20.6101 9.73841 22.5024 10.2579 24.4319 11.3154C24.4319 11.3154 22.9663 9.92394 19.8123 8.9592L20.0721 8.66236C20.0721 8.66236 22.6138 8.6067 25.2853 10.6104C25.2853 10.6104 27.9569 15.4526 27.9569 21.4266C27.9569 21.4266 26.3799 24.1167 22.2798 24.2465Z" fill="#2AD6C9"/>
</g>
<defs>
<clipPath id="clip0_100_2187">
<rect width="32.4671" height="37.1052" fill="white" transform="translate(0.777344 0.0168457)"/>
</clipPath>
</defs>
</svg>
