<svg width="36" height="36" viewBox="0 0 36 36" fill="none" xmlns="http://www.w3.org/2000/svg">
<g clip-path="url(#clip0_100_2179)">
<path d="M17.8906 35.3911C27.5556 35.3911 35.3906 27.5561 35.3906 17.8911C35.3906 8.22611 27.5556 0.391113 17.8906 0.391113C8.22563 0.391113 0.390625 8.22611 0.390625 17.8911C0.390625 27.5561 8.22563 35.3911 17.8906 35.3911Z" fill="#2AD6C9"/>
<path d="M8.3981 17.512L25.271 11.0064C26.0542 10.7235 26.7381 11.1974 26.4844 12.3816L26.4858 12.3801L23.6129 25.9149C23.4 26.8745 22.8298 27.1079 22.032 26.6557L17.657 23.4314L15.5469 25.4643C15.3135 25.6976 15.1167 25.8945 14.6645 25.8945L14.9752 21.4422L23.0835 14.117C23.4364 13.8064 23.0048 13.6314 22.5395 13.9406L12.5194 20.2493L8.19979 18.9018C7.26204 18.6043 7.24167 17.9641 8.3981 17.512Z" fill="#03000E"/>
</g>
<defs>
<clipPath id="clip0_100_2179">
<rect width="35" height="35" fill="white" transform="translate(0.390625 0.391113)"/>
</clipPath>
</defs>
</svg>
