<svg width="30" height="28" viewBox="0 0 30 28" fill="none" xmlns="http://www.w3.org/2000/svg">
<path d="M26.4747 10.0619C23.9105 10.0619 22.8622 8.24853 24.1372 6.02436C24.8738 4.73519 24.4347 3.09186 23.1455 2.35519L20.6947 0.952695C19.5755 0.286861 18.1305 0.683528 17.4647 1.8027L17.3088 2.07186C16.0338 4.29603 13.9372 4.29603 12.648 2.07186L12.4922 1.8027C11.8547 0.683528 10.4097 0.286861 9.29051 0.952695L6.83967 2.35519C5.55051 3.09186 5.11134 4.74936 5.84801 6.03853C7.13717 8.24853 6.08884 10.0619 3.52467 10.0619C2.05134 10.0619 0.833008 11.266 0.833008 12.7535V15.2469C0.833008 16.7202 2.03717 17.9385 3.52467 17.9385C6.08884 17.9385 7.13717 19.7519 5.84801 21.976C5.11134 23.2652 5.55051 24.9085 6.83967 25.6452L9.29051 27.0477C10.4097 27.7135 11.8547 27.3169 12.5205 26.1977L12.6763 25.9285C13.9513 23.7044 16.048 23.7044 17.3372 25.9285L17.493 26.1977C18.1588 27.3169 19.6038 27.7135 20.723 27.0477L23.1738 25.6452C24.463 24.9085 24.9022 23.251 24.1655 21.976C22.8763 19.7519 23.9247 17.9385 26.4888 17.9385C27.9622 17.9385 29.1805 16.7344 29.1805 15.2469V12.7535C29.1663 11.2802 27.9622 10.0619 26.4747 10.0619ZM14.9997 18.6044C12.4638 18.6044 10.3955 16.536 10.3955 14.0002C10.3955 11.4644 12.4638 9.39603 14.9997 9.39603C17.5355 9.39603 19.6038 11.4644 19.6038 14.0002C19.6038 16.536 17.5355 18.6044 14.9997 18.6044Z" fill="url(#paint0_linear_100_1353)"/>
<defs>
<linearGradient id="paint0_linear_100_1353" x1="29.1805" y1="14.0002" x2="0.832998" y2="14.0037" gradientUnits="userSpaceOnUse">
<stop stop-color="#24DCCD"/>
<stop offset="1" stop-color="#5AABA5"/>
</linearGradient>
</defs>
</svg>
