<svg width="30" height="30" viewBox="0 0 30 30" fill="none" xmlns="http://www.w3.org/2000/svg">
<path d="M20.9355 0.833496H9.06384C3.90717 0.833496 0.833008 3.90766 0.833008 9.06433V20.9218C0.833008 26.0927 3.90717 29.1668 9.06384 29.1668H20.9213C26.078 29.1668 29.1522 26.0927 29.1522 20.936V9.06433C29.1663 3.90766 26.0922 0.833496 20.9355 0.833496ZM22.4513 12.1102L19.1788 16.3318C18.768 16.856 18.1872 17.196 17.5213 17.2668C16.8555 17.3518 16.2038 17.1677 15.6797 16.7568L13.0872 14.7168V14.7168C12.9417 14.5921 12.6922 14.6343 12.5772 14.7877V14.7877L9.20551 19.1652C8.99301 19.4343 8.68134 19.576 8.36967 19.576C8.14301 19.576 7.91634 19.5052 7.71801 19.3493C7.25051 18.9952 7.16551 18.3293 7.51967 17.8618L10.8913 13.4843C11.3022 12.9602 11.883 12.6202 12.5488 12.5352C13.2005 12.4502 13.8663 12.6343 14.3905 13.0452L16.983 15.0852V15.0852C17.1289 15.2102 17.3777 15.1681 17.493 15.0143V15.0143L20.7655 10.7927C21.1197 10.3252 21.7997 10.2402 22.253 10.6085C22.7205 10.991 22.8055 11.6568 22.4513 12.1102Z" fill="url(#paint0_linear_100_1352)"/>
<defs>
<linearGradient id="paint0_linear_100_1352" x1="29.1522" y1="15.0002" x2="0.832998" y2="15.0035" gradientUnits="userSpaceOnUse">
<stop stop-color="#24DCCD"/>
<stop offset="1" stop-color="#5AABA5"/>
</linearGradient>
</defs>
</svg>
