<svg width="306" height="301" viewBox="0 0 306 301" fill="none" xmlns="http://www.w3.org/2000/svg">
<path d="M38.9718 66.2391C38.9718 66.2391 43.26 71.0855 49.1423 74.5758C50.2427 75.2252 51.3952 75.832 52.5935 76.3487C57.6649 78.5415 61.9655 77.1625 65.8414 75.9323C70.344 74.5093 74.2621 73.3087 78.0951 78.2179C79.1493 79.5687 80.1286 81.0071 81.2129 82.4664C84.5426 86.9689 88.7745 91.6525 98.7614 94.4442L103.197 88.0522C93.4709 85.7201 91.2307 85.1026 87.1353 74.878C86.77 73.9598 86.3877 72.9603 85.9751 71.8749C81.4064 59.6303 73.7789 62.3826 66.9924 64.4266C63.6654 65.4298 60.5487 66.256 58.0868 65.0641C57.0741 64.5732 56.1475 63.9835 55.3046 63.3243C50.2404 59.3671 48.163 53.0666 48.0722 52.7863C48.0569 53.136 47.3859 64.9422 38.9718 66.2391Z" fill="white"/>
<g opacity="0.3">
<path opacity="0.25" d="M49.1577 74.5735C50.2582 75.2229 51.4106 75.8296 52.6089 76.3464C57.6803 78.5392 61.981 77.1602 65.8568 75.93C65.1256 74.5313 64.746 72.9136 64.8663 71.0595C64.9898 69.1084 65.6558 66.9054 67.0122 64.4333C63.6852 65.4366 60.5685 66.2627 58.1067 65.0708C57.0939 64.5799 56.1673 63.9902 55.3244 63.3311C55.3315 67.1242 54.0707 71.5621 49.1577 74.5735Z" fill="#371A45"/>
</g>
<path d="M95.9106 94.8857C86.1719 91.5448 82.3811 86.2726 79.0044 81.5803C78.3569 80.6785 77.7445 79.8266 77.1049 79.0107C73.7857 74.761 70.5817 75.7762 66.1398 77.1747C62.1157 78.4447 57.5547 79.8854 52.0868 77.5189C44.3361 74.1578 38.2843 67.3698 38.0302 67.0863C37.7231 66.7394 37.6304 66.2469 37.7877 65.8101C37.9451 65.3732 38.3316 65.0528 38.7891 64.9832C46.1851 63.8429 46.8064 52.8352 46.8121 52.7314C46.844 52.1156 47.3021 51.6082 47.9075 51.5214C48.5106 51.4414 49.0883 51.8057 49.2695 52.3889C49.2932 52.4725 51.9816 60.6967 58.6347 63.9229C60.8139 64.98 63.9523 64.0254 67.2726 63.0199C73.9716 60.9912 82.3083 58.4596 87.1552 71.4187C91.874 84.0319 93.1933 84.3485 103.493 86.817C104.169 86.9811 104.584 87.6671 104.417 88.3499C104.25 89.0326 103.567 89.4552 102.891 89.2911C91.819 86.6332 89.8363 85.8096 84.7941 72.3304C80.7699 61.5714 74.5538 63.4562 67.9783 65.4518C64.1727 66.608 60.5784 67.6931 57.52 66.2136C53.0838 64.065 50.2487 60.1475 48.6205 57.1575C47.7429 60.6093 45.7691 65.1425 41.3611 66.9C43.5543 69.0493 47.9853 72.9781 53.0768 75.1778C57.6916 77.1762 61.5988 75.9416 65.3802 74.747C69.9503 73.3018 74.6776 71.8124 79.0664 77.4333C79.7413 78.2991 80.3647 79.1624 81.0276 80.0845C84.607 85.0577 88.3052 90.2077 99.0909 93.2205C99.7579 93.4116 100.148 94.1042 99.959 94.7869C99.772 95.4627 99.0756 95.8581 98.3996 95.6715C97.5362 95.4207 96.7065 95.1587 95.9106 94.8857Z" fill="#000072"/>
<g opacity="0.5">
<path d="M80.0006 70.8973C80.6273 70.1382 79.1434 66.4879 75.7387 65.9089C72.0592 65.2809 67.8193 67.3981 68.9575 68.2643C69.8938 68.9781 71.6077 67.7085 75.1539 69.2044C78.2723 70.5309 79.517 71.4789 80.0006 70.8973Z" fill="white"/>
</g>
<path d="M41.0144 91.9231C41.1674 91.6347 46.4728 81.7478 53.6242 82.0288C54.6505 82.0675 55.5984 82.111 56.4784 82.1523C61.3392 82.348 64.0986 82.2279 66.8834 79.1071C67.1049 78.8665 67.3235 78.6035 67.539 78.3181C69.4046 75.9135 72.0863 75.9292 76.5552 75.055C78.1216 74.7476 79.9055 74.3369 81.9489 73.6748L82.1323 69.331C80.0828 70.0737 78.0153 70.2206 75.884 70.3133C72.2726 70.4738 68.4835 70.4874 64.3237 72.9895C63.5145 73.4743 62.6951 74.0517 61.8575 74.7455C59.2685 76.8883 57.176 76.6397 55.0642 75.8693C53.0896 75.1547 51.1094 73.9792 48.7003 73.8927C39.8574 73.5769 34.0415 83.1906 34.0415 83.1906C34.0415 83.1906 43.348 83.1364 41.0144 91.9231Z" fill="white"/>
<g opacity="0.3">
<path opacity="0.25" d="M56.4892 82.2763C61.3501 82.472 64.1095 82.3518 66.8943 79.2311C65.1526 78.2344 63.9806 76.2722 64.3338 73.1078C63.5246 73.5927 62.7052 74.17 61.8677 74.8638C59.2786 77.0067 57.1861 76.758 55.0743 75.9877C56.3469 77.6913 57.424 79.9967 56.4892 82.2763Z" fill="#371A45"/>
</g>
<path d="M41.1489 93.0505C40.9827 93.0728 40.8168 93.0552 40.6496 92.9865C40.1787 92.7991 39.9229 92.2807 40.0544 91.7901C40.6463 89.5624 40.467 87.8087 39.5225 86.5738C37.8256 84.3574 34.0851 84.3131 34.0456 84.3127C33.6343 84.3167 33.262 84.0647 33.1136 83.6744C32.9761 83.3225 33.042 82.9319 33.2805 82.6491C33.3036 82.6118 33.3467 82.5547 33.3994 82.485C35.9788 78.7593 41.3986 72.5778 48.7562 73.0078C50.6669 73.1214 52.3292 73.821 53.7951 74.4445C56.4865 75.5814 58.4303 76.4028 61.2278 74.0895C66.3749 69.825 71.0597 69.6341 75.1939 69.4602C77.5055 69.3661 79.6873 69.2723 81.7963 68.5102C82.3124 68.3212 82.8847 68.5918 83.0678 69.1142C83.2564 69.6359 82.9898 70.2131 82.4674 70.3972C80.0682 71.2667 77.6332 71.366 75.2718 71.4669C71.2665 71.6348 67.1204 71.8046 62.4856 75.6412C58.7647 78.7226 55.7145 77.4345 53.0287 76.2969C51.6471 75.7133 50.2119 75.1085 48.6427 75.0174C42.9334 74.6793 38.4312 79.1249 35.8653 82.4897C37.4442 82.779 39.6853 83.5034 41.0953 85.3481C41.7318 86.18 42.1317 87.1405 42.2998 88.2233C44.6322 85.095 48.6736 80.9563 53.6587 81.1524C54.2319 81.178 54.7822 81.2009 55.3095 81.2212C61.3246 81.484 63.8166 81.5992 66.7499 77.8203C68.5102 75.5552 70.8484 75.1555 74.0853 74.6008C76.0925 74.2569 78.585 73.8308 81.6391 72.8391C82.163 72.6661 82.7217 72.9614 82.8944 73.4909C83.0616 74.0211 82.7762 74.5837 82.2522 74.7567C79.0627 75.7894 76.4877 76.2323 74.4195 76.5844C71.4139 77.0966 69.5999 77.4088 68.316 79.0628C64.7523 83.6501 61.37 83.5007 55.2237 83.227C54.7019 83.206 54.1509 83.1775 53.5784 83.1576C47.0224 82.8991 41.9338 92.4264 41.8849 92.5242C41.7389 92.823 41.4593 93.0087 41.1489 93.0505ZM33.3656 82.5693C33.3505 82.5827 33.3251 82.6032 33.2963 82.6413C33.3155 82.6159 33.3402 82.5898 33.3656 82.5693Z" fill="#000072"/>
<g opacity="0.5">
<path d="M48.5962 77.6104C48.4622 76.8649 45.5914 75.9459 43.5682 77.6822C41.3828 79.5543 40.5342 83.1043 41.6019 82.8639C42.4828 82.6601 42.5835 81.0169 45.2106 79.6609C47.5258 78.4609 48.7022 78.1888 48.5962 77.6104Z" fill="white"/>
</g>
<g clip-path="url(#clip0_100_1765)">
<path d="M191.925 227.514C191.925 227.514 221.337 239.267 247.05 221.906C272.524 204.724 261.965 168.869 257.252 156.281C252.598 143.753 253.97 126.273 264.172 123.708C265.604 123.35 267.274 123.29 269.124 123.588C283.859 125.975 269.661 148.585 284.993 153.656C291.794 155.923 306.052 149.003 303.726 125.557C301.936 107.719 287.141 98.1142 271.749 98.7108C259.877 99.1881 247.706 105.691 240.786 119.114C224.917 149.958 252.121 170.42 247.05 193.807C242.755 213.554 224.917 220.653 197.474 211.048L191.925 227.514Z" fill="white"/>
<path d="M264.172 123.708C265.604 123.35 267.274 123.29 269.124 123.588C283.859 125.975 269.661 148.585 284.993 153.656C291.794 155.923 306.052 149.003 303.726 125.557C301.936 107.719 287.141 98.1142 271.749 98.7108L273.24 102.231C274.075 104.199 273.121 106.466 271.152 107.302C268.885 108.256 268.05 111.06 269.482 113.089L269.899 113.745C270.973 115.296 270.734 117.444 269.362 118.756L264.172 123.708Z" fill="#00BCFF"/>
<path d="M214.715 233.301C224.261 233.301 236.55 231.332 248.124 223.457C274.195 205.917 264.471 170.182 259.101 155.625C255.403 145.662 255.999 133.73 260.354 128.361C262.442 125.855 265.246 124.901 268.826 125.438C274.314 126.333 274.732 130.389 274.911 137.489C275.15 144.171 275.388 152.523 284.397 155.506C288.215 156.759 293.226 155.565 297.164 152.403C301.041 149.301 307.246 141.725 305.635 125.378C304.203 110.881 294.36 100.202 279.922 97.3982C266.26 94.8329 248.363 100.262 239.056 118.219C229.391 137.012 235.178 152.344 240.249 165.886C243.829 175.312 247.17 184.201 245.201 193.389C243.53 201.145 239.712 206.752 233.806 210.034C225.394 214.747 213.045 214.448 198.13 209.198C197.116 208.841 196.042 209.377 195.684 210.392C195.326 211.406 195.863 212.48 196.877 212.838C212.866 218.446 226.289 218.684 235.715 213.434C242.457 209.676 247.05 202.994 248.959 194.224C251.167 183.963 247.647 174.537 243.888 164.574C238.817 151.151 233.627 137.25 242.516 120.009C250.868 103.782 266.976 98.8897 279.266 101.216C291.914 103.603 300.564 113.029 301.817 125.736C303.249 140.293 297.999 146.796 294.777 149.421C291.436 152.105 287.738 152.582 285.59 151.867C279.564 149.838 278.968 145.065 278.729 137.369C278.49 130.688 278.311 123.111 269.422 121.679C264.53 120.844 260.354 122.335 257.371 125.915C251.346 133.193 251.942 147.332 255.462 156.938C260.533 170.659 269.78 204.306 245.976 220.355C221.397 236.94 192.88 225.903 192.582 225.784C191.627 225.366 190.494 225.843 190.076 226.857C189.659 227.812 190.136 228.945 191.15 229.363C191.448 229.482 198.906 232.406 209.644 233.181C211.255 233.241 212.926 233.301 214.715 233.301Z" fill="#000072"/>
<g opacity="0.3">
<path d="M191.925 227.514C191.925 227.514 221.337 239.266 247.05 221.906C272.524 204.724 261.965 168.869 257.252 156.281C252.598 143.753 253.97 126.273 264.172 123.708C265.604 123.35 267.274 123.29 269.124 123.588C283.859 125.975 269.661 148.585 284.993 153.656C291.794 155.923 306.052 149.003 303.726 125.557C303.248 120.784 301.876 116.608 299.788 113.088C300.087 114.341 300.265 115.654 300.385 116.966C302.652 140.412 291.675 145.483 285.947 141.307C276.7 134.565 284.098 115.952 265.783 114.997C251.823 114.222 246.155 136.475 250.272 149.48C254.328 162.307 269.183 196.193 243.709 213.375C224.857 226.082 204.036 223.218 194.252 220.713L191.925 227.514Z" fill="#B3EBFF"/>
</g>
</g>
<path d="M230.125 269.62L195.997 273.457L199.958 259.014L212.403 213.767C218.53 214.794 223.588 216.946 227.508 220.043C239.268 229.333 240.775 247.229 230.125 269.62Z" fill="white"/>
<path d="M77.1346 277.28L47.2958 269.62C44.1982 265.235 41.6214 261.014 39.6065 256.972C28.7236 235.102 34.1103 218.206 60.4539 207.696L68.4996 221.44L71.1586 238.651L77.1346 277.28Z" fill="white"/>
<g opacity="0.3">
<path d="M230.125 269.62L195.997 273.457L199.958 259.014C203.096 257.356 206.29 255.739 209.415 254.204C233.072 242.529 227.686 220.741 227.508 220.042C239.268 229.333 240.775 247.229 230.125 269.62Z" fill="#00BCFF"/>
</g>
<g opacity="0.55">
<path d="M43.0742 260.055C44.6779 263.275 46.6379 266.605 48.9269 270.031L47.2958 269.62C44.1982 265.235 41.6214 261.014 39.6065 256.972C28.7236 235.102 34.1103 218.206 60.4539 207.696L62.5784 211.341C37.3998 221.878 32.3833 238.569 43.0742 260.055Z" fill="white"/>
</g>
<path d="M189.198 278.802C188.609 279.213 188.005 279.61 187.416 280.007L136.565 285.694L127.259 286.736C127.259 286.736 111.212 288.386 101.998 285.694C92.7833 283.002 80.6707 273.471 80.6707 273.471C52.5452 252.451 52.2025 206.052 78.7244 153.734C80.6844 149.829 82.8226 145.91 85.0842 141.95L198.628 162.902C200.615 168.259 202.383 173.384 203.946 178.263C204.837 181.072 205.659 183.799 206.427 186.457C222.244 241.475 209.703 264.619 189.198 278.802Z" fill="white"/>
<path d="M189.198 278.802C188.609 279.213 188.005 279.61 187.416 280.007L136.565 285.694L127.259 286.736C127.259 286.736 111.212 288.386 101.998 285.694C92.7833 283.002 80.6707 273.471 80.6707 273.471C52.5452 252.451 52.2025 206.052 78.7244 153.734C80.6844 149.829 82.8226 145.91 85.0842 141.95C85.0842 141.95 71.7194 194.806 85.0842 223.875C96.7459 249.239 109.207 267.918 136.565 273.471C185.093 283.32 198.628 162.902 198.628 162.902C200.615 168.259 202.383 173.384 203.946 178.263C204.837 181.072 205.659 183.799 206.427 186.457C222.244 241.475 209.703 264.619 189.198 278.802Z" fill="#00BCFF"/>
<path d="M79.9238 272.795C86.3868 279.954 108.262 293.675 135.705 286.516" stroke="#000070" stroke-width="3.7031"/>
<g opacity="0.3">
<path d="M77.1345 277.28L47.2957 269.62C44.1981 265.235 41.6213 261.014 39.6064 256.972C59.6452 259.356 61.2488 246.873 60.6732 240.021C63.0033 251.833 68.0746 261.823 75.9147 269.414L77.1345 277.28Z" fill="#B3EBFF"/>
</g>
<g opacity="0.55">
<path d="M84.906 155.967C58.6994 207.669 58.7131 253.574 85.8654 274.937L80.6707 273.457C52.5452 252.437 52.2025 206.038 78.7244 153.72C80.6844 149.815 82.8226 145.896 85.0842 141.936L198.628 162.887C198.779 163.285 198.916 163.682 199.067 164.08L91.2795 144.197C89.0042 148.129 86.866 152.062 84.906 155.967Z" fill="white"/>
</g>
<g clip-path="url(#clip1_100_1765)">
<path d="M224.848 106.785C226.016 113.381 229.384 119.83 229.153 121.959C228.654 126.267 219.024 121.132 219.024 121.132C219.024 121.132 218.453 122.483 220.374 126.34C221.796 129.212 223.061 131.317 222.465 132.85C221.833 134.493 219.036 134.821 215.765 134.444C213.48 134.176 211.534 134.468 209.005 137.206C208.494 137.729 207.984 138.362 207.449 139.092H207.436C199.849 147.853 190.633 155.921 178.4 161.64C167.056 166.945 117.106 184.382 72.7131 149.898C67.0591 145.505 61.9887 140.443 58.0978 134.237C57.1372 133.957 56.201 133.969 55.1796 134.079C51.9209 134.444 49.1122 134.103 48.4921 132.46C47.9084 130.927 48.9784 128.64 50.2795 125.695C51.3373 123.322 51.7507 121.825 51.9088 121.156C51.9453 120.986 51.8115 120.852 51.6656 120.913C49.9876 121.752 42.2909 125.379 41.8532 121.533C41.61 119.404 45.0267 112.967 46.2183 106.372C48.1759 95.615 49.708 88.0464 50.6929 83.4833C50.7172 83.3616 50.7415 83.2399 50.778 83.106C50.8023 82.9844 50.8266 82.8627 50.8509 82.7532C50.8753 82.6315 50.9117 82.522 50.9239 82.4124C51.2157 81.0861 51.544 79.7719 51.9088 78.4578C53.5867 72.398 55.9821 66.3868 59.0462 59.5848C54.6324 51.9188 36.0289 17.8598 46.1818 4.93714C51.9817 -2.449 91.6449 12.2989 100.314 15.6574C109.811 11.0943 120.584 8.28341 132.548 7.77234C134.968 7.66283 137.339 7.66283 139.649 7.76017C139.71 7.748 139.771 7.76017 139.832 7.76017C147.626 8.05221 154.605 10.06 161.305 12.4084C162.095 12.6883 162.873 12.9682 163.651 13.2481C166.837 14.404 169.84 15.7669 172.698 17.2758C181.489 14.2093 222.599 0.301028 228.156 7.86969C237.859 21.0722 218.319 54.3281 213.589 61.9941C214.732 64.5008 215.753 66.9709 216.653 69.4654C217.735 72.4466 218.623 75.4644 219.34 78.5794C219.34 78.5794 219.352 78.6281 219.377 78.7498C219.571 79.6137 220.532 83.824 222.04 91.6238C222.842 95.688 223.791 100.726 224.848 106.785Z" fill="white"/>
<path d="M62.5255 95.6159C58.0704 89.4098 51.8003 86.8637 49.2222 86.3664L54.791 65.1821H217.525L222.232 86.3609L217.525 88.455C215.669 89.9469 211.09 94.2434 207.625 99.4948C203.294 106.059 194.631 108.446 186.896 108.446C179.162 108.446 167.405 100.987 158.743 96.8094C150.08 92.6322 134.92 92.3339 125.639 92.9306C116.358 93.5273 96.5573 106.656 84.8009 108.446C73.0444 110.236 68.0944 103.374 62.5255 95.6159Z" fill="#00BCFF"/>
<path d="M213.283 77.7112C213.283 59.199 205.112 41.4449 190.568 28.3548C176.023 15.2646 156.296 7.91065 135.727 7.91064C115.158 7.91064 95.4312 15.2646 80.8866 28.3548C66.342 41.4449 58.1709 59.199 58.1709 77.7112L135.727 77.7112H213.283Z" fill="#00BCFF" fill-opacity="0.58"/>
<path d="M213.283 83.6766C213.283 65.1643 205.112 47.4103 190.568 34.3201C176.023 21.2299 156.296 13.876 135.727 13.876C115.158 13.876 95.4312 21.2299 80.8866 34.3201C66.342 47.4102 58.1709 65.1643 58.1709 83.6766L135.727 83.6766H213.283Z" fill="#00BCFF"/>
<g opacity="0.25">
<path d="M220.386 126.34C221.821 129.211 223.073 131.317 222.477 132.85C221.845 134.493 219.048 134.821 215.778 134.444C213.492 134.176 211.558 134.468 209.029 137.206C208.531 137.729 208.008 138.362 207.473 139.08H207.461C199.873 147.841 190.645 155.909 178.425 161.628C167.092 166.945 117.13 184.37 72.7496 149.885C67.0956 145.493 62.013 140.431 58.1221 134.225C57.1615 133.957 56.2253 133.957 55.2039 134.067C51.9453 134.432 49.1365 134.091 48.5164 132.448C47.9328 130.903 49.0028 128.627 50.3038 125.683C50.4862 125.257 50.6564 124.855 50.8023 124.478C51.9939 124.746 53.5381 124.734 55.2039 124.551C56.2253 124.442 57.1615 124.442 58.1221 124.709C62.013 130.927 67.0956 135.989 72.7496 140.37C117.143 174.855 167.092 157.418 178.425 152.112C190.645 146.381 199.873 138.326 207.461 129.564H207.473C208.008 128.834 208.531 128.214 209.029 127.678C211.558 124.953 213.504 124.648 215.778 124.916C217.249 125.086 218.623 125.111 219.754 124.94C219.924 125.378 220.131 125.841 220.386 126.34Z" fill="#B3EBFF"/>
</g>
<path d="M95.0616 163.843C91.2072 162.638 87.4743 161.056 83.8509 159.231C82.0513 158.306 80.2761 157.32 78.5252 156.274C76.7864 155.215 75.0841 154.108 73.4183 152.952C71.7647 151.772 70.1232 150.555 68.5425 149.253C66.9618 147.951 65.4298 146.576 63.9585 145.116C61.016 142.22 58.3775 138.971 56.128 135.454L57.4412 136.44C57.0035 136.318 56.5293 136.269 55.9335 136.306C55.7876 136.318 55.6295 136.33 55.4714 136.342L54.8756 136.403C54.4622 136.44 54.0367 136.464 53.6111 136.488C52.7478 136.513 51.8602 136.501 50.9118 136.355C50.4254 136.269 49.939 136.184 49.404 135.99C48.869 135.807 48.2975 135.564 47.7139 135.101C47.1424 134.663 46.5709 133.933 46.3034 133.154C46.0481 132.424 45.9995 131.718 46.0359 131.147C46.1211 129.966 46.4129 129.09 46.6925 128.275C46.9844 127.46 47.3127 126.729 47.6288 126.012L48.5407 123.955C48.8204 123.298 49.0879 122.629 49.3068 121.972C49.4162 121.643 49.5256 121.315 49.6107 121.01L49.6715 120.779L49.6958 120.682C49.7202 120.572 49.6472 120.864 49.6472 121.047C49.6472 121.242 49.6594 121.448 49.7202 121.643C49.8418 122.057 50.0849 122.471 50.5713 122.787C51.0334 123.116 51.8115 123.225 52.383 123.018C52.456 122.994 52.5289 122.969 52.6019 122.933C52.6505 122.909 52.6019 122.933 52.614 122.933L52.5897 122.945L52.5289 122.969L52.3952 123.03C50.9239 123.736 49.4405 124.357 47.8112 124.843C46.9965 125.087 46.1454 125.294 45.1848 125.403C44.7106 125.452 44.1878 125.476 43.6041 125.427C43.0205 125.367 42.3517 125.245 41.6222 124.831C40.8926 124.442 40.2239 123.639 39.9442 122.86C39.7861 122.471 39.7253 122.118 39.6767 121.765C39.6646 121.582 39.6646 121.4 39.6646 121.217V120.95C39.6646 120.864 39.6767 120.816 39.6889 120.743C39.8226 119.623 40.0901 118.857 40.3333 118.078C40.844 116.532 41.379 115.121 41.8897 113.697C42.4004 112.286 42.8746 110.874 43.2758 109.475C43.4704 108.769 43.6528 108.076 43.8108 107.37C43.9689 106.664 44.0905 105.983 44.2485 105.216L45.124 100.714L48.6745 82.5709L48.638 82.7169C48.8569 81.6217 49.1487 80.6118 49.404 79.5531L49.7931 77.9834L50.2309 76.4502C50.8388 74.4059 51.5076 72.386 52.2371 70.3904C53.6962 66.3992 55.3499 62.5297 57.0643 58.6967L57.1616 60.6437C54.7419 56.4213 52.5046 52.138 50.4376 47.7453C48.3705 43.3526 46.4737 38.8746 44.8687 34.2507C43.2637 29.6389 41.9505 24.869 41.3182 19.8678C41.0142 17.3733 40.9169 14.8058 41.2088 12.1896C41.5006 9.58563 42.2788 6.88427 43.8473 4.51146L44.4553 3.63535C44.5768 3.47716 44.7714 3.2703 44.9295 3.09994C45.0997 2.92959 45.2821 2.78357 45.4523 2.63755C46.1819 2.07781 46.9357 1.72493 47.6531 1.4694C49.1122 0.970499 50.4619 0.836648 51.7872 0.763639C54.4136 0.654124 56.9062 0.921826 59.3502 1.26254C64.2382 1.99263 68.9559 3.14862 73.6251 4.43845C82.9876 7.05463 92.0826 10.2062 101.093 13.6498L99.3903 13.7228C102.527 12.2261 105.75 10.9241 109.032 9.82899C112.328 8.74602 115.684 7.8699 119.088 7.20065C122.493 6.53139 125.922 6.08117 129.375 5.81347C132.816 5.55793 136.281 5.46059 139.746 5.61877L139.382 5.63094C139.637 5.60661 139.917 5.60661 140.172 5.64311L139.917 5.61877C142.908 5.74046 145.875 6.09334 148.793 6.65308C151.711 7.22499 154.568 7.96725 157.365 8.84336C158.763 9.28142 160.15 9.73165 161.524 10.2184C162.898 10.7051 164.235 11.1675 165.645 11.7029C168.406 12.7615 171.105 14.0027 173.707 15.3777L172.005 15.256C181.185 12.0801 190.45 9.17191 199.922 6.81126C204.664 5.64311 209.443 4.60881 214.379 3.96389C216.848 3.65968 219.352 3.44066 221.967 3.538C223.28 3.61101 224.617 3.73269 226.052 4.14642C226.757 4.35328 227.499 4.63315 228.241 5.09554C228.606 5.32674 228.982 5.60661 229.323 5.94732C229.493 6.10551 229.651 6.31237 229.809 6.49489C229.894 6.6044 229.943 6.66525 229.992 6.73826L230.138 6.95728C231.755 9.34226 232.545 12.0923 232.825 14.7206C233.117 17.3733 232.946 19.9652 232.594 22.484C231.852 27.5095 230.381 32.2794 228.63 36.8912C226.879 41.503 224.824 45.9687 222.599 50.325C220.374 54.6812 217.978 58.9401 215.413 63.1138L215.534 61.0939C218.027 66.5209 220.082 72.2157 221.419 78.0929L221.456 78.2755L224.265 91.8917L226.818 105.703L227.134 107.358C227.244 107.893 227.377 108.428 227.511 108.964C227.779 110.035 228.119 111.118 228.46 112.201C229.165 114.379 229.992 116.484 230.746 118.869C230.928 119.489 231.11 120.086 231.22 120.913C231.281 121.266 231.317 121.874 231.22 122.41C231.171 122.677 231.122 122.945 231.001 123.249C230.904 123.541 230.733 123.833 230.551 124.113C230.162 124.661 229.578 125.135 229.043 125.354C228.764 125.5 228.52 125.561 228.253 125.634C228.01 125.695 227.767 125.732 227.536 125.768C226.636 125.866 225.882 125.78 225.189 125.659C223.803 125.415 222.599 125.002 221.419 124.551C220.24 124.089 219.158 123.602 218.003 123.006L220.982 121.947L221.018 121.838L221.03 121.801L221.043 121.753L221.055 121.704L221.067 121.667C221.067 121.655 221.067 121.68 221.067 121.692C221.067 121.74 221.067 121.813 221.067 121.899C221.079 122.069 221.116 122.288 221.164 122.507C221.261 122.957 221.432 123.468 221.626 123.967C221.821 124.478 222.064 124.977 222.319 125.5L223.158 127.168C223.438 127.739 223.73 128.336 224.009 128.993C224.277 129.662 224.557 130.38 224.69 131.341C224.739 131.84 224.751 132.376 224.63 132.984C224.508 133.556 224.216 134.225 223.803 134.736C222.952 135.746 221.954 136.123 221.152 136.379C219.498 136.829 218.088 136.793 216.702 136.732C216.361 136.707 216.021 136.683 215.68 136.647L215.243 136.61C215.109 136.598 214.987 136.598 214.866 136.586C214.379 136.561 213.966 136.598 213.601 136.683C212.872 136.853 212.154 137.292 211.4 137.985C211.048 138.314 210.634 138.752 210.294 139.141C209.953 139.543 209.601 139.993 209.248 140.455L209.175 140.553L209.078 140.65C208.896 140.845 208.64 141.039 208.361 141.173C208.069 141.307 207.765 141.368 207.497 141.38L209.078 140.65C208.117 141.757 207.035 142.962 205.965 144.106C205.418 144.678 204.883 145.25 204.324 145.809C203.752 146.357 203.205 146.917 202.621 147.464C201.478 148.559 200.299 149.606 199.083 150.628C197.879 151.65 196.639 152.636 195.362 153.56C194.086 154.497 192.785 155.398 191.447 156.238C190.122 157.089 188.748 157.88 187.35 158.61C184.553 160.083 181.659 161.348 178.668 162.297C178.291 162.419 177.89 162.212 177.768 161.823C177.671 161.506 177.792 161.178 178.06 161.007C180.65 159.328 183.191 157.649 185.659 155.872C186.888 154.984 188.103 154.072 189.295 153.147C190.487 152.21 191.654 151.273 192.809 150.299C193.952 149.326 195.095 148.328 196.201 147.318C197.308 146.296 198.402 145.25 199.472 144.203C200.542 143.132 201.588 142.049 202.634 140.966C203.679 139.859 204.652 138.776 205.734 137.547L207.315 136.817C207.047 136.829 206.743 136.89 206.464 137.024C206.184 137.158 205.941 137.34 205.759 137.535L205.588 137.73C205.99 137.194 206.403 136.659 206.877 136.123C207.364 135.588 207.826 135.126 208.385 134.615C208.944 134.128 209.564 133.653 210.282 133.252C210.987 132.85 211.802 132.522 212.653 132.339C214.331 131.95 216.045 132.303 216.981 132.351C218.064 132.424 219.194 132.4 219.948 132.193C220.313 132.096 220.52 131.937 220.459 131.986C220.447 132.01 220.398 132.096 220.422 132.059C220.422 132.047 220.435 131.962 220.422 131.84C220.386 131.56 220.252 131.098 220.046 130.623C219.839 130.137 219.583 129.613 219.316 129.066L218.477 127.399C218.185 126.802 217.893 126.182 217.638 125.525C217.383 124.868 217.139 124.186 216.969 123.432C216.884 123.042 216.811 122.653 216.787 122.203C216.775 121.972 216.763 121.74 216.775 121.473C216.787 121.339 216.787 121.205 216.823 121.035C216.835 120.95 216.848 120.877 216.872 120.767L216.908 120.597L216.945 120.487L216.969 120.414L217.018 120.28L217.845 118.127L219.997 119.222C221.869 120.171 224.046 121.096 225.882 121.436C226.332 121.509 226.757 121.534 227.025 121.509C227.146 121.497 227.232 121.473 227.195 121.473C227.195 121.473 227.074 121.534 227.025 121.631C226.988 121.667 226.988 121.716 226.976 121.716C226.976 121.753 226.976 121.728 226.976 121.716C226.976 121.68 226.988 121.692 226.952 121.473C226.952 121.327 226.867 121.059 226.83 120.852L226.624 120.11C225.979 118.041 225.104 115.79 224.374 113.527C224.009 112.383 223.657 111.227 223.353 110.035C223.195 109.438 223.061 108.842 222.927 108.234L222.587 106.445L220.046 92.6948L217.2 78.8595L217.237 79.0421C215.972 73.4812 214.027 68.0906 211.631 62.8704L211.157 61.824L211.753 60.8505C214.246 56.7863 216.592 52.6126 218.769 48.3659C220.933 44.1191 222.927 39.7873 224.605 35.358C226.283 30.9409 227.669 26.4143 228.326 21.8756C228.642 19.6123 228.776 17.3368 228.533 15.183C228.302 13.0292 227.681 11.0093 226.575 9.37877C226.137 8.35663 223.912 7.89424 221.748 7.79689C219.535 7.69955 217.212 7.89424 214.89 8.18628C210.233 8.79469 205.564 9.80466 200.931 10.9485C191.654 13.2726 182.462 16.1443 173.391 19.2837L172.515 19.5879L171.689 19.1499C169.22 17.8479 166.679 16.6919 164.077 15.6819C162.8 15.1952 161.414 14.7085 160.089 14.2461C158.751 13.7837 157.414 13.3335 156.064 12.9197C153.377 12.0801 150.678 11.3744 147.942 10.8511C145.218 10.3279 142.47 9.99935 139.722 9.88983L139.503 9.87767C139.649 9.91417 139.795 9.91417 139.941 9.87767L139.576 9.88983C136.293 9.74381 132.998 9.82899 129.703 10.0845C126.42 10.3401 123.149 10.7659 119.915 11.3987C116.693 12.0436 113.507 12.8711 110.382 13.8932C107.257 14.9275 104.217 16.1565 101.251 17.5802L100.412 17.9817L99.5484 17.6532C90.6722 14.2582 81.6379 11.131 72.5064 8.58783C67.9467 7.32233 63.3506 6.20285 58.7544 5.52143C56.4685 5.19289 54.1704 4.97386 52.0061 5.05903C50.9482 5.11988 49.8904 5.24156 49.0757 5.5336C48.6745 5.66745 48.334 5.84997 48.1152 6.02033C48.0665 6.069 48.0179 6.10551 47.9692 6.15418C47.9328 6.20285 47.9085 6.22719 47.8477 6.3002L47.4342 6.90861C46.3521 8.53916 45.7198 10.5591 45.4766 12.7129C45.2334 14.8667 45.3064 17.1178 45.5861 19.3811C46.1575 23.9077 47.3978 28.4343 48.9298 32.8635C50.474 37.2928 52.3101 41.6612 54.3285 45.9322C56.3469 50.2154 58.5477 54.4257 60.8944 58.5264L61.4416 59.4755L60.9917 60.4733C59.3016 64.2455 57.6844 68.0298 56.2739 71.875C55.5687 73.7975 54.9243 75.7323 54.3528 77.6792L53.9394 79.1516L53.5746 80.6118C53.3436 81.5852 53.0518 82.5709 52.8694 83.52L52.8329 83.666L49.3554 101.493L48.4799 105.983C48.334 106.713 48.176 107.528 48.0057 108.319C47.8233 109.11 47.6166 109.876 47.4099 110.655C46.9722 112.188 46.4858 113.685 45.9751 115.145C45.4645 116.605 44.9295 118.054 44.4917 119.416C44.2729 120.086 44.0905 120.791 44.0418 121.193C44.0418 121.217 44.0297 121.254 44.0297 121.266C44.0297 121.266 44.0297 121.278 44.0418 121.278C44.0418 121.29 44.0418 121.302 44.0297 121.302C44.0418 121.327 44.0418 121.351 44.0297 121.315C44.0175 121.254 43.8716 121.071 43.8108 121.047C43.75 121.01 43.8351 121.059 44.0175 121.071C44.1878 121.083 44.4431 121.083 44.7228 121.047C45.2699 120.986 45.9144 120.828 46.5588 120.633C47.8477 120.232 49.1852 119.66 50.4619 119.027L50.5835 118.966L50.6564 118.93L50.6929 118.917L50.7415 118.893C50.8266 118.857 50.8996 118.82 50.9847 118.796C51.6413 118.552 52.5289 118.674 53.0639 119.063C53.6233 119.441 53.9272 119.94 54.0731 120.438C54.1461 120.682 54.1704 120.95 54.1704 121.181C54.1704 121.4 54.0975 121.74 54.1096 121.68L54.0731 121.862L53.988 122.191C53.8786 122.617 53.757 123.018 53.6233 123.42C53.3679 124.211 53.0761 124.977 52.7721 125.72L51.848 127.861C51.5562 128.543 51.2765 129.212 51.0455 129.845C50.8145 130.465 50.6686 131.061 50.6564 131.414C50.6443 131.597 50.6686 131.67 50.6686 131.658C50.6564 131.597 50.5713 131.499 50.5956 131.524C50.6199 131.572 51.1063 131.767 51.6413 131.84C52.2006 131.925 52.8451 131.937 53.5017 131.913C53.83 131.901 54.1704 131.877 54.5109 131.852L55.058 131.791C55.2769 131.767 55.5079 131.755 55.7389 131.731C56.663 131.67 57.733 131.731 58.7666 132.023L59.6299 132.266L60.0919 133.008C62.0982 136.245 64.5057 139.226 67.1564 142.013C68.4817 143.4 69.8922 144.726 71.3513 146.004C72.7982 147.294 74.306 148.523 75.8502 149.727C77.3944 150.932 78.9508 152.125 80.5558 153.244C82.1486 154.376 83.7779 155.483 85.4316 156.542C88.7267 158.683 92.1556 160.642 95.6453 162.528C95.9979 162.711 96.1316 163.149 95.9371 163.502C95.7425 163.806 95.3899 163.952 95.0616 163.843Z" fill="#000072"/>
<path d="M59.8582 59.0854C62.5195 53.1149 69.802 39.3093 77.6412 31.8508C85.4804 24.3923 95.6373 18.2398 99.7358 16.0959" stroke="#000072" stroke-width="3.7031"/>
<path d="M212.985 58.3221C210.101 52.4557 202.306 38.9331 194.192 31.774C186.079 24.615 175.698 18.848 171.522 16.8594" stroke="#000072" stroke-width="3.7031"/>
<path d="M65.8983 44.1044C69.9352 36.5236 74.1544 31.06 77.182 27.6407C79.4314 25.0976 78.8356 21.1429 75.9296 19.3785C69.2178 15.3143 61.752 12.8563 56.9735 11.5665C54.3106 10.8485 51.7086 12.8685 51.7207 15.6307C51.7451 20.3398 52.426 27.6894 55.5995 35.4162C57.2775 39.4926 58.919 42.3887 60.2929 44.3964C61.6791 46.4285 64.7432 46.2825 65.8983 44.1044Z" fill="#FF5399"/>
<path d="M64.9621 43.6048C66.7008 39.9909 68.6827 36.4742 70.92 33.1036C72.0387 31.4244 73.206 29.7695 74.4583 28.1633L75.4068 26.9708C75.5648 26.7883 75.7472 26.5571 75.8688 26.3989C75.9539 26.2529 76.0755 26.1312 76.1485 25.9852C76.4768 25.4133 76.6713 24.7684 76.6348 24.1235C76.6227 23.4785 76.4403 22.8336 76.0998 22.3104C75.9418 22.0427 75.7229 21.8115 75.504 21.5925C75.3824 21.4951 75.2608 21.3978 75.1393 21.3126C74.9933 21.2274 74.9204 21.1666 74.6772 21.0327C73.0236 20.0958 71.2848 19.2683 69.546 18.4774C66.0442 16.9077 62.3965 15.6422 58.7001 14.5349C57.776 14.2672 56.8276 13.9995 55.9278 13.7683C55.5509 13.6831 55.1861 13.7074 54.8456 13.9021C54.5173 14.0968 54.2498 14.401 54.1647 14.7539C54.1404 14.8391 54.1161 14.9364 54.1161 15.0338L54.1039 15.1068V15.1433V15.2285V15.5813C54.1039 16.0559 54.1161 16.5305 54.1161 17.005C54.2012 20.8015 54.6633 24.598 55.5266 28.3093C55.94 30.1711 56.475 31.9963 57.1072 33.7972C57.7274 35.5981 58.4447 37.4112 59.2473 39.1513C59.6485 40.0274 60.0619 40.8913 60.5118 41.7309C60.7307 42.1568 60.9617 42.5705 61.2049 42.9843L61.5575 43.5805C61.6304 43.7022 61.7156 43.8239 61.8007 43.9212C62.1654 44.3349 62.7612 44.5905 63.3814 44.554C64.0015 44.5175 64.5973 44.2011 64.9985 43.6292L64.9621 43.6048ZM66.8224 44.6026C66.2874 45.783 65.1201 46.7564 63.7826 47.0363C62.4451 47.3283 60.9495 46.9754 59.8431 46.0628C59.7093 45.9411 59.5755 45.8316 59.454 45.6978L59.1135 45.2962L58.6393 44.6635C58.3353 44.2498 58.0435 43.8239 57.7517 43.3858C57.1802 42.5219 56.633 41.6579 56.1345 40.7575C55.1253 38.9566 54.2255 37.1435 53.4109 35.2452C52.6084 33.347 51.9274 31.3879 51.356 29.4045C50.2373 25.4255 49.5807 21.3126 49.4105 17.1875C49.3983 16.6643 49.374 16.1532 49.374 15.63V15.2406V15.1433L49.3862 14.9973L49.3983 14.6931C49.4105 14.2915 49.4956 13.89 49.5929 13.5127C50.0063 11.943 51.0885 10.5802 52.4624 9.77708C53.8364 8.96181 55.5873 8.73061 57.1316 9.13216C58.1408 9.41203 59.1013 9.6919 60.0862 9.98394C63.9772 11.1764 67.783 12.661 71.455 14.474C73.2911 15.3745 75.0785 16.3966 76.8172 17.5039C77.0118 17.6134 77.3279 17.8568 77.5954 18.0393C77.8629 18.2462 78.1182 18.4896 78.3614 18.7207C78.8235 19.2196 79.2612 19.7551 79.5652 20.3635C80.2218 21.556 80.5258 22.9066 80.465 24.2451C80.4163 25.5836 79.9664 26.8978 79.2247 27.993C79.0545 28.2728 78.8235 28.5162 78.6168 28.7717C78.4222 29.0029 78.2763 29.1368 78.1061 29.3315L77.1334 30.4144C75.8323 31.8625 74.5921 33.3592 73.4005 34.9045C71.0173 37.9953 68.8408 41.2564 66.8467 44.6391L66.8224 44.6026Z" fill="#000072"/>
<path d="M204.375 44.6389C200.727 37.4596 196.921 32.2029 194.137 28.8444C191.972 26.2283 192.702 22.2858 195.657 20.6309C202.903 16.5545 210.953 14.3155 215.695 13.2447C218.042 12.7215 220.291 14.4494 220.364 16.8465C220.522 21.7138 219.72 30.1343 214.151 39.8446C212.935 41.974 211.804 43.7262 210.819 45.1378C209.19 47.4619 205.664 47.182 204.375 44.6389Z" fill="#FF5399"/>
<path d="M203.426 45.1136C201.505 41.7065 199.402 38.4211 197.104 35.306C195.948 33.7485 194.745 32.2396 193.48 30.7794L193.006 30.2318L192.763 29.952L192.459 29.5626C192.058 29.0515 191.754 28.4553 191.498 27.8469C191.024 26.6179 190.89 25.2428 191.109 23.9408C191.352 22.6388 191.924 21.3733 192.824 20.3512C193.273 19.8523 193.772 19.3777 194.343 19.0249C194.647 18.818 194.854 18.7085 195.073 18.5746L195.742 18.1853C197.529 17.1753 199.341 16.2505 201.213 15.4352C204.946 13.8047 208.788 12.4783 212.704 11.4684L214.175 11.0912C214.71 10.9816 215.026 10.8478 215.938 10.7261C217.543 10.5558 219.197 11.079 220.437 12.089C221.689 13.0746 222.516 14.6078 222.699 16.2018C222.711 16.3844 222.735 16.6155 222.747 16.7737V17.1753C222.747 17.443 222.759 17.6985 222.747 17.9662C222.747 18.4895 222.735 19.0249 222.699 19.5481C222.613 21.6532 222.297 23.7218 221.872 25.7539C221.434 27.786 220.887 29.7938 220.157 31.7285C219.44 33.6633 218.589 35.5494 217.653 37.3746C217.166 38.2751 216.668 39.1755 216.133 40.0394C215.61 40.9277 215.063 41.7552 214.503 42.607C213.944 43.4466 213.348 44.2618 212.752 45.0771L212.29 45.6855L212.059 45.9897L211.719 46.3791C211.245 46.878 210.685 47.3282 210.053 47.5959C208.788 48.1678 207.354 48.1678 206.126 47.7055C205.518 47.4621 204.958 47.097 204.484 46.6468C204.022 46.1966 203.669 45.649 203.402 45.0893L203.426 45.1136ZM205.311 44.1645C206.089 45.4178 207.779 45.7099 208.788 45.0284C209.044 44.8824 209.251 44.6634 209.433 44.42L209.555 44.2375L209.749 43.9333L210.126 43.3127C210.625 42.4853 211.087 41.6457 211.561 40.806C213.433 37.4233 215.002 33.9797 216.108 30.3657C217.215 26.776 217.896 23.0647 218.005 19.3656C218.029 18.9032 218.029 18.4408 218.029 17.9784C218.029 17.7472 218.017 17.516 218.017 17.2848L218.005 16.9441L217.993 16.7737C217.932 16.4087 217.762 16.068 217.458 15.8368C217.154 15.6056 216.789 15.5082 216.424 15.5326C216.364 15.5204 215.731 15.6664 215.294 15.7638L213.895 16.1045C210.175 17.0414 206.49 18.1609 202.928 19.5603C201.153 20.266 199.389 21.0083 197.699 21.8601L197.067 22.1764C196.86 22.286 196.617 22.3955 196.52 22.4685C196.24 22.6145 196.009 22.8214 195.778 23.0282C195.328 23.4663 195.024 24.0504 194.866 24.6709C194.72 25.3037 194.745 25.9729 194.939 26.5935C195.049 26.8977 195.182 27.2019 195.377 27.4818L195.511 27.6887L195.742 27.9929L196.204 28.5891C197.408 30.2075 198.55 31.8745 199.62 33.5781C201.773 36.973 203.682 40.5018 205.335 44.1402L205.311 44.1645Z" fill="#000072"/>
<g opacity="0.35">
<path d="M141.072 121.035C141.059 121.278 140.111 121.521 139.065 121.728C137.472 122.045 135.126 121.959 133.557 121.534C132.524 121.254 131.6 120.937 131.6 120.694C131.624 120.159 133.727 120.28 136.342 120.365C138.956 120.463 141.084 120.499 141.072 121.035Z" fill="white"/>
</g>
<g opacity="0.2">
<path d="M78.629 24.9875C76.72 26.3625 72.0266 33.5297 68.4275 39.2609C63.1261 31.1568 60.5119 18.8426 60.062 13.1356C60.062 13.0748 60.0498 13.014 60.0498 12.9531C65.181 14.4863 71.0052 16.6766 72.2454 18.1125C74.4827 20.68 81.8998 22.6269 78.629 24.9875Z" fill="#000072"/>
</g>
<g opacity="0.2">
<path d="M192.775 26.1311C194.635 27.567 199.098 34.8801 202.514 40.733C208.083 32.8115 211.087 20.5824 211.719 14.8998C211.731 14.839 211.731 14.7781 211.743 14.7173C206.563 16.0801 200.678 18.0879 199.39 19.4872C197.067 21.9696 189.589 23.6731 192.775 26.1311Z" fill="#390075"/>
</g>
</g>
<path d="M220.455 80.5418C163.948 74.9801 107.041 75.005 50.5342 80.6165C50.7037 79.7953 50.849 79.0487 50.9943 78.3644C51.0185 78.24 51.0427 78.1156 51.079 77.9911C51.1032 77.8667 51.1275 77.7423 51.1517 77.6303C51.1759 77.5059 51.2001 77.3939 51.2243 77.2819C51.5149 75.9133 51.8539 74.582 52.2051 73.2382C53.5006 68.4106 55.2441 63.6079 57.3872 58.432C109.524 53.679 161.95 53.679 214.087 58.4195C214.874 60.2983 215.6 62.1646 216.266 64.0434C217.332 67.0918 218.228 70.1774 218.942 73.3626C218.942 73.3626 218.942 73.4124 218.978 73.5368C219.124 74.1216 219.632 76.4483 220.455 80.5418Z" fill="white"/>
<g opacity="0.35">
<path d="M220.455 80.5418C219.911 80.492 219.354 80.4298 218.809 80.38C218.627 79.5588 218.518 79.0238 218.458 78.7625C218.433 78.6506 218.421 78.5884 218.421 78.5884C217.707 75.3907 216.823 72.3175 215.745 69.2691C215.733 69.2442 215.733 69.2318 215.721 69.2069C214.535 65.8226 211.435 63.5333 207.936 63.3715C186.796 62.4384 111.303 59.4522 70.6573 62.5006C61.7459 63.1724 54.118 69.4433 51.7207 78.2897C51.7085 78.3395 51.6964 78.4017 51.6722 78.4515C51.4906 79.1358 51.309 79.8326 51.1395 80.5293C50.9336 80.5542 50.7278 80.5667 50.522 80.5915C50.6915 79.7704 50.8368 79.0238 50.9821 78.3395C51.0063 78.2151 51.0305 78.0907 51.0668 77.9662C51.091 77.8418 51.1153 77.7174 51.1395 77.6054C51.1637 77.481 51.1879 77.369 51.2121 77.257C51.5027 75.8884 51.8417 74.5571 52.1929 73.2133C53.4884 68.3857 55.2319 63.583 57.375 58.4071C109.511 53.6541 161.938 53.6541 214.075 58.3946C214.862 60.2734 215.588 62.1397 216.254 64.0185C217.319 67.0669 218.215 70.1525 218.93 73.3377C218.93 73.3377 218.93 73.3875 218.966 73.5119C219.123 74.1216 219.644 76.4358 220.455 80.5418Z" fill="white"/>
</g>
<g opacity="0.3">
<path d="M220.455 80.5412C163.948 74.9795 107.041 75.0044 50.5342 80.6159C50.7037 79.7947 50.849 79.0481 50.9943 78.3638C51.0185 78.2394 51.0427 78.115 51.079 77.9906C51.1032 77.8661 51.1275 77.7417 51.1517 77.6297C51.1759 77.5053 51.2001 77.3933 51.2243 77.2814C51.5149 75.9127 51.8539 74.5814 52.2051 73.2376C52.3261 72.7773 52.4593 72.3169 52.5925 71.8565C107.804 66.5064 163.367 66.4939 218.579 71.8068C218.712 72.3293 218.833 72.8519 218.942 73.3745C218.942 73.3745 218.942 73.4243 218.978 73.5487C219.124 74.121 219.644 76.4353 220.455 80.5412Z" fill="#000072"/>
</g>
<path d="M47.8579 83.0797L48.4512 80.1682C48.6086 79.3595 48.766 78.613 48.9113 77.9286C48.9355 77.7669 48.9718 77.6176 49.0082 77.4558C49.0324 77.3687 49.0445 77.2692 49.0687 77.1821C49.0808 77.1074 49.105 77.0079 49.1292 76.9084L49.1534 76.7715C49.444 75.4277 49.7709 74.0715 50.1705 72.6158C51.4055 68.0246 53.0885 63.2344 55.4495 57.5358L55.9459 56.3289L57.2173 56.217C109.329 51.4765 162.144 51.464 214.195 56.1921H215.503L216.06 57.511C216.895 59.4893 217.622 61.3805 218.288 63.2717C219.414 66.4694 220.31 69.6048 221.036 72.8398L221.097 73.0886V73.1011C221.266 73.8725 221.775 76.1618 222.55 80.0936L223.131 82.9926L220.261 82.7064C164.008 77.1697 106.98 77.1945 50.7517 82.7811L47.8579 83.0797ZM53.3185 77.7047C53.3064 77.7793 53.2943 77.854 53.2701 77.9162L53.258 77.9908C53.2459 78.0406 53.2338 78.0904 53.2338 78.1402C107.84 72.902 163.173 72.8895 217.791 78.0779C217.319 75.7761 217.016 74.4324 216.92 73.9969C216.895 73.8849 216.883 73.7978 216.871 73.7356C216.193 70.6997 215.346 67.7633 214.292 64.7648C213.796 63.3464 213.263 61.9279 212.658 60.4598C161.659 55.8935 109.935 55.9059 58.876 60.4722C56.8419 65.4615 55.3769 69.7292 54.2751 73.7978C53.8997 75.1665 53.5849 76.448 53.3185 77.7047Z" fill="#000072"/>
<g opacity="0.5">
<path d="M149.45 202.53C142.583 198.515 135.73 198.515 128.863 202.53L125.738 270.154C125.738 270.154 135.785 285.104 136.319 283.953C136.854 282.802 146.064 270.154 146.064 270.154L149.45 202.53Z" fill="#E0E0ED"/>
</g>
<path d="M73.4614 292.97H50.1468C46.7477 292.97 43.5815 291.093 42.0601 288.051C36.646 277.307 49.6397 264.81 63.7573 267.386C74.1193 268.921 81.2055 274.306 82.4939 282.597C83.3437 288.051 78.9988 292.97 73.4614 292.97Z" fill="white"/>
<g opacity="0.3">
<path d="M73.4753 292.97H50.147C46.7478 292.97 43.5954 291.093 42.0602 288.051C41.5668 287.064 41.2104 286.05 41.0186 285.036C41.2104 285.05 41.3886 285.064 41.5805 285.064H64.9088C70.4462 285.064 74.7911 280.144 73.9276 274.677C73.6535 272.95 73.1326 271.347 72.3788 269.895C77.9573 272.539 81.6032 276.869 82.4941 282.584C83.3439 288.051 79.0127 292.97 73.4753 292.97Z" fill="#000070" fill-opacity="0.25"/>
</g>
<path d="M201.424 295.971H227.028C230.77 295.971 234.237 293.97 235.91 290.75C241.858 279.336 227.59 266.057 212.088 268.784C200.712 270.415 192.926 276.143 191.515 284.94C190.582 290.75 195.339 295.971 201.424 295.971Z" fill="white"/>
<g opacity="0.3">
<path d="M235.909 290.75C234.223 293.97 230.769 295.971 227.028 295.971H201.424C196.133 295.971 191.843 292.024 191.432 287.16C191.788 287.201 192.145 287.214 192.529 287.214H218.132C221.874 287.214 225.328 285.214 227.014 281.994C228.919 278.335 228.755 274.484 227.124 271.031C235.114 275.128 239.788 283.337 235.909 290.75Z" fill="#000070" fill-opacity="0.2"/>
</g>
<path d="M83.0328 278.231C82.6674 278.253 82.2935 278.137 81.9655 277.891C56.1852 257.958 54.3725 209.363 77.3512 154.095C77.7744 153.082 78.8175 152.676 79.6907 153.192C80.5639 153.707 80.9309 154.937 80.5077 155.95C69.5968 182.201 64.1936 207.317 64.8771 228.604C65.5503 249.551 72.1144 265.416 83.8606 274.498C84.6763 275.131 84.905 276.395 84.3912 277.337C84.0683 277.876 83.5595 278.198 83.0328 278.231Z" fill="#000070"/>
<path d="M189.46 283.948C188.668 284.007 187.864 283.692 187.349 283.038C186.537 282.016 186.742 280.543 187.81 279.756C202.273 269.094 209.503 257.11 211.266 240.888C213.482 220.475 206.557 193.702 190.135 159.008C189.582 157.837 190.124 156.454 191.346 155.915C192.567 155.377 194.002 155.89 194.57 157.06C211.365 192.52 218.424 220.091 216.121 241.348C214.234 258.72 206.191 272.092 190.775 283.461C190.361 283.751 189.923 283.914 189.46 283.948Z" fill="#000070"/>
<path d="M47.2959 271.84C46.5968 271.84 45.9115 271.511 45.4729 270.894C34.0007 254.697 29.8887 240.775 33.2194 229.511C36.1937 219.467 45.0754 211.423 59.6316 205.627C60.7692 205.175 62.0713 205.723 62.5237 206.874C62.976 208.011 62.4277 209.313 61.2764 209.765C48.0497 215.041 40.0452 222.112 37.4821 230.786C34.5489 240.679 38.4689 253.313 49.1051 268.346C49.8178 269.346 49.5711 270.73 48.5706 271.443C48.1868 271.717 47.7482 271.84 47.2959 271.84Z" fill="#000070"/>
<path d="M73.4615 295.19H50.147C45.8432 295.19 41.9779 292.833 40.0728 289.051C37.5645 284.09 38.2224 278.445 41.8546 273.58C46.7478 267.044 55.6843 263.673 64.1138 265.194C75.7779 266.934 83.2753 273.155 84.6871 282.254C85.1805 285.461 84.2485 288.736 82.124 291.216C79.9584 293.737 76.8059 295.19 73.4615 295.19ZM59.9333 269.25C53.5461 269.25 48.1869 272.525 45.4183 276.225C43.8968 278.267 41.6901 282.378 44.0476 287.037C45.1852 289.284 47.5839 290.736 50.1607 290.736H73.4752C75.5038 290.736 77.4227 289.846 78.7522 288.311C80.0406 286.817 80.6026 284.844 80.301 282.926C79.2045 275.869 73.0503 271.004 63.4285 269.579C63.401 269.579 63.3736 269.565 63.3599 269.565C62.1812 269.36 61.0435 269.25 59.9333 269.25Z" fill="#000070"/>
<path d="M53.121 281.651L55.3415 291.079C55.6293 292.312 54.8754 293.532 53.6419 293.833C52.4083 294.121 51.1884 293.367 50.8869 292.134C50.8046 291.778 50.8046 291.422 50.8869 291.079L53.121 281.651Z" fill="#000070"/>
<path d="M68.5131 281.651L70.7335 291.079C71.0214 292.312 70.2675 293.532 69.0339 293.833C67.8004 294.121 66.5805 293.367 66.279 292.134C66.1967 291.778 66.1967 291.422 66.279 291.079L68.5131 281.651Z" fill="#000070"/>
<path d="M230.126 271.84C229.81 271.84 229.481 271.771 229.166 271.621C228.056 271.1 227.59 269.771 228.111 268.661C235.69 252.697 237.116 238.61 232.099 228.991C228.495 222.071 221.559 217.562 212.033 215.959C210.827 215.753 210.005 214.602 210.21 213.396C210.416 212.191 211.567 211.368 212.773 211.574C223.725 213.41 231.77 218.727 236.047 226.935C241.721 237.829 240.337 253.327 232.127 270.565C231.757 271.374 230.962 271.84 230.126 271.84Z" fill="#000070"/>
<path d="M227.028 298.191H201.424C197.751 298.191 194.31 296.615 191.967 293.861C189.76 291.271 188.801 287.886 189.321 284.584C190.87 274.978 199.039 268.414 211.745 266.578C221.148 264.934 230.989 268.633 236.238 275.814C239.939 280.856 240.542 286.68 237.883 291.778C235.827 295.738 231.66 298.191 227.028 298.191ZM216.227 270.634C215.007 270.634 213.76 270.744 212.485 270.963C212.458 270.963 212.444 270.977 212.417 270.977C201.753 272.511 194.941 277.718 193.721 285.283C193.392 287.324 193.968 289.352 195.352 290.969C196.846 292.723 199.067 293.737 201.424 293.737H227.028C229.947 293.737 232.661 292.161 233.936 289.709C236.458 284.871 234.21 280.569 232.647 278.431C229.687 274.416 223.546 270.634 216.227 270.634Z" fill="#000070"/>
<path d="M224.19 283.954L226.411 293.97C226.685 295.204 225.904 296.41 224.684 296.684C223.45 296.958 222.244 296.177 221.97 294.957C221.901 294.628 221.901 294.286 221.97 293.97L224.19 283.954Z" fill="#000070"/>
<path d="M207.839 283.954L210.059 293.97C210.333 295.204 209.552 296.41 208.332 296.684C207.099 296.958 205.892 296.177 205.618 294.957C205.55 294.628 205.55 294.286 205.618 293.97L207.839 283.954Z" fill="#000070"/>
<g opacity="0.3">
<path opacity="0.15" d="M127.259 255.41C133.386 259.63 139.389 259.822 145.256 255.41L145.708 272.771L135.456 283.336L125.34 270.812" fill="#B3EBFF"/>
</g>
<ellipse cx="93.5934" cy="265.64" rx="20.1668" ry="9.68009" transform="rotate(39.4503 93.5934 265.64)" fill="#B3B3D5" fill-opacity="0.13"/>
<ellipse cx="91.9378" cy="267.511" rx="12.5373" ry="6.01791" transform="rotate(39.4503 91.9378 267.511)" fill="#B3B3D5" fill-opacity="0.06"/>
<path d="M26.1649 119.813C13.8304 141.798 4.56155 185.982 44.0106 209.045C72.4531 225.682 80.0537 184.334 74.1877 174.043C72.4756 169.219 60.1644 165.112 56.9941 158.17C48.897 140.41 62.3254 123.897 62.3254 123.897L59.0864 114.08" fill="white"/>
<path d="M16.5715 176.81C20.5525 192.064 30.3273 206.338 49.6024 215.388C49.9724 215.556 50.3101 215.717 50.6675 215.865C73.7435 225.923 81.7224 203.8 81.3066 187.729C81.1567 182.347 80.057 177.637 78.275 175.056C76.0107 170.084 62.5331 166.919 58.5016 159.83C48.1857 141.688 60.8693 122.752 60.8693 122.752L56.4887 112.603L32.102 119.268L22.109 121.996C15.9127 135.883 11.4504 157.178 16.5715 176.81Z" fill="#00BCFF" fill-opacity="0.54"/>
<path d="M17.8361 170.758C20.3329 184.659 28.1074 198.121 44.792 207.637C45.1126 207.815 45.4047 207.984 45.7155 208.143C72.4618 222.433 79.0913 183.548 73.4258 173.826C71.7429 169.223 59.8523 165.389 56.7311 158.765C48.7448 141.813 61.4888 125.88 61.4888 125.88L58.2708 116.502L26.7007 122.297C20.1462 134.215 14.6249 152.868 17.8361 170.758Z" fill="#00BCFF"/>
<path d="M62.361 219.203C71.9116 220.164 77.3045 215.597 80.249 211.081C87.6685 199.758 85.1769 179.695 79.7405 173.333C78.0553 170.781 74.4281 169.318 70.2444 167.628C66.211 165.999 61.6351 164.16 59.5656 161.381C48.8785 146.966 57.6794 129.074 57.7757 128.896L58.3238 127.807L52.4713 117.797C51.8426 116.731 50.4845 116.375 49.4189 117.004C48.3532 117.634 47.9972 118.993 48.626 120.06L53.2906 128.021C51.3167 132.541 45.1834 149.447 56.0083 164.048C58.8214 167.842 64.0143 169.932 68.6056 171.773C71.7058 173.026 75.2137 174.429 76.0888 175.849L76.3227 176.171C80.4036 180.751 83.0781 198.685 76.5465 208.655C72.4953 214.831 65.7586 216.41 56.4948 213.377C13.5626 199.261 14.9401 154.132 21.6831 132.255C22.0514 131.085 21.3794 129.826 20.209 129.473C19.0401 129.105 17.7822 129.778 17.4294 130.949C12.7765 146.061 12.4216 163.596 16.4492 177.889C21.943 197.377 35.313 211.12 55.1118 217.627C57.7534 218.457 60.1749 218.983 62.361 219.203Z" fill="#000072"/>
<path d="M26.9184 128.253C26.9184 128.253 27.6835 138.875 39.6536 138.013C43.447 139.722 49.5994 139.45 53.8551 137.661C58.1427 137.549 61.8086 135.888 64.04 132.406C67.7379 126.624 65.8252 115.73 59.8322 111.002C52.5481 105.252 38.4263 104.629 30.6322 110.252C24.9898 114.325 20.3835 121.512 18.1999 132.55" fill="white"/>
<path d="M22.8978 116.594L23.8721 116.115C23.4115 115.653 23.1104 115.919 22.8978 116.594Z" fill="#E2E2E2"/>
<path d="M136.618 200.032C170.408 200.032 178.636 169.538 178.636 169.538L136.664 167.04H136.618L94.6453 169.538C94.6453 169.538 102.828 200.032 136.618 200.032Z" fill="#65C660"/>
<path d="M136.618 200.032C170.408 200.032 178.636 169.538 178.636 169.538L136.664 167.04H136.618L94.6453 169.538C94.6453 169.538 102.828 200.032 136.618 200.032Z" fill="#65C660"/>
<path d="M94.6037 169.627C94.6037 169.627 95.0422 171.26 96.1498 173.778C99.7843 182.107 110.642 200.059 136.625 200.059C162.655 200.059 173.524 182.046 177.159 173.735C178.243 171.242 178.682 169.627 178.682 169.627L136.66 167.125H136.614L94.6037 169.627Z" fill="#65C660"/>
<path d="M94.6453 169.538C94.6453 169.538 95.0832 171.174 96.1896 173.697C107.461 178.301 120.818 181.173 136.595 181.173C152.418 181.173 165.821 178.275 177.115 173.654C178.198 171.156 178.636 169.538 178.636 169.538L136.664 167.031H136.618L94.6453 169.538Z" fill="#48A341"/>
<path d="M94.6453 169.537C94.6453 169.537 102.828 200.031 136.618 200.031C170.408 200.031 178.636 169.537 178.636 169.537L176.527 169.416C176.032 170.808 166.363 172.766 167.561 175.603C168.195 177.1 169.013 178.658 168.241 183.54C162.133 190.563 152.21 197.325 136.618 197.325C108.429 197.325 98.7941 175.22 96.7428 169.416L94.6453 169.537Z" fill="#48A341"/>
<path d="M85.5129 166.933C104.63 181.099 136.597 180.276 136.597 180.276C136.597 180.276 168.564 181.099 187.681 166.933C192.089 163.669 192.06 160.218 190.749 155.481C190.749 155.481 188.473 156.55 184.396 158.066C153.582 169.532 119.641 169.532 88.8263 158.066C84.7494 156.55 82.4588 155.481 82.4588 155.481C81.1334 160.218 81.1046 163.669 85.5129 166.933Z" fill="#FF1212"/>
<g opacity="0.5">
<path d="M81.8106 161.618C81.9402 160.709 82.1707 159.741 82.4588 158.716C82.4588 158.716 84.735 159.784 88.8263 161.301C119.641 172.767 153.582 172.767 184.396 161.301C188.473 159.784 190.749 158.716 190.749 158.716C191.037 159.741 191.254 160.709 191.398 161.618C191.729 159.799 191.398 157.792 190.749 155.481C190.749 155.481 188.473 156.55 184.396 158.066C153.582 169.532 119.641 169.532 88.8263 158.066C84.7494 156.55 82.4588 155.481 82.4588 155.481C81.8106 157.792 81.4792 159.799 81.8106 161.618Z" fill="white"/>
</g>
<g opacity="0.15">
<path d="M85.5132 166.933C104.616 181.1 136.597 180.276 136.597 180.276C136.597 180.276 168.564 181.085 187.681 166.933C191.297 164.261 191.931 161.46 191.311 157.907C190.894 159.683 189.799 161.286 187.681 162.861C168.579 177.027 136.597 176.204 136.597 176.204C136.597 176.204 104.63 177.027 85.5132 162.861C83.3955 161.286 82.3007 159.683 81.8829 157.907C81.2634 161.46 81.8973 164.261 85.5132 166.933Z" fill="#000072"/>
</g>
<path d="M135.401 182.356C136.006 182.356 136.424 182.341 136.597 182.341C138.542 182.384 169.659 182.861 188.905 168.593C194.754 164.275 193.948 159.279 192.723 154.932L192.075 152.593L189.871 153.618C189.842 153.632 187.594 154.672 183.662 156.131C153.308 167.423 119.886 167.423 89.5323 156.131C85.5994 154.672 83.3377 153.618 83.3233 153.603L81.1191 152.578L80.4709 154.918C79.2608 159.264 78.454 164.261 84.2885 168.579C101.821 181.576 129.178 182.356 135.401 182.356ZM136.597 178.211H136.539C136.222 178.225 105.048 178.832 86.7375 165.272C83.9571 163.207 83.3809 161.286 83.8851 158.355C84.9511 158.788 86.3629 159.365 88.0917 160.001C119.367 171.64 153.812 171.64 185.088 160.001C186.817 159.351 188.228 158.788 189.294 158.355C189.799 161.272 189.237 163.207 186.442 165.272C168.132 178.832 136.943 178.225 136.64 178.211H136.597Z" fill="#000072"/>
<path d="M136.598 197.156C130.667 197.156 125.859 192.336 125.859 186.39C125.859 180.444 130.667 175.625 136.598 175.625C142.53 175.625 147.338 180.444 147.338 186.39C147.338 192.336 142.53 197.156 136.598 197.156Z" fill="#48A341"/>
<path d="M130.156 192.066C126.597 188.498 126.597 182.714 130.156 179.146C133.715 175.579 139.485 175.579 143.044 179.146C146.603 182.714 146.603 188.498 143.044 192.066C139.485 195.633 133.715 195.633 130.156 192.066Z" fill="#FFC303"/>
<path d="M127.706 187.619C128.613 191.691 132.25 194.739 136.598 194.739C140.938 194.739 144.575 191.691 145.491 187.619C143.742 190.733 140.415 192.83 136.598 192.83C132.781 192.83 129.455 190.733 127.706 187.619Z" fill="#FF9F06"/>
<path d="M127.485 185.604C127.485 187.177 127.877 188.652 128.572 189.938H144.616C145.311 188.652 145.711 187.169 145.711 185.604C145.711 184.612 145.556 183.654 145.262 182.761H127.935C127.64 183.654 127.485 184.612 127.485 185.604Z" fill="#FF9F06"/>
<g opacity="0.5">
<path d="M127.485 185.563C128.539 181.507 132.226 178.517 136.598 178.517C140.979 178.517 144.657 181.515 145.711 185.579C145.695 180.549 141.625 176.477 136.598 176.477C131.572 176.468 127.51 180.54 127.485 185.563Z" fill="white"/>
</g>
<path d="M136.598 195.558C142.074 195.558 146.529 191.093 146.529 185.604C146.529 180.114 142.066 175.649 136.598 175.649C131.13 175.649 126.668 180.114 126.668 185.604C126.668 191.093 131.122 195.558 136.598 195.558ZM136.598 177.288C141.175 177.288 144.894 181.015 144.894 185.604C144.894 190.192 141.167 193.92 136.598 193.92C132.021 193.92 128.302 190.192 128.302 185.604C128.302 181.015 132.021 177.288 136.598 177.288Z" fill="#000072"/>
<path d="M134.825 190.085C134.589 189.08 135.209 188.074 136.21 187.837C137.212 187.6 138.216 188.222 138.452 189.226C138.689 190.23 138.068 191.236 137.067 191.473C136.065 191.71 135.062 191.089 134.825 190.085Z" fill="#000072"/>
<path d="M136.1 190.388H137.113V194.321H136.1V190.388Z" fill="#000072"/>
<path d="M128.449 187.963H144.739C146.038 187.963 147.084 186.906 147.084 185.612C147.084 184.309 146.03 183.26 144.739 183.26H128.449C127.15 183.26 126.104 184.317 126.104 185.612C126.104 186.906 127.15 187.963 128.449 187.963Z" fill="#FFC303"/>
<path d="M126.104 185.604C126.104 186.251 126.365 186.841 126.79 187.267C127.215 187.693 127.804 187.956 128.449 187.956H144.739C146.038 187.956 147.084 186.899 147.084 185.604C147.084 185.17 146.97 184.777 146.766 184.424C146.365 185.129 145.605 185.604 144.739 185.604H128.441C127.796 185.604 127.207 185.342 126.782 184.916C126.635 184.768 126.512 184.605 126.414 184.433C126.218 184.777 126.104 185.178 126.104 185.604Z" fill="#FF9F06"/>
<g opacity="0.5">
<path d="M126.104 185.603C126.104 185.882 126.153 186.144 126.243 186.39C126.561 185.48 127.428 184.825 128.449 184.825H144.739C145.384 184.825 145.973 185.087 146.398 185.513C146.643 185.759 146.831 186.054 146.946 186.39C147.035 186.144 147.084 185.874 147.084 185.603C147.084 184.956 146.823 184.366 146.398 183.94C145.973 183.514 145.384 183.252 144.739 183.252H128.441C127.15 183.252 126.104 184.309 126.104 185.603Z" fill="white"/>
</g>
<path d="M128.449 188.783H144.739C146.488 188.783 147.902 187.357 147.902 185.612C147.902 183.859 146.48 182.441 144.739 182.441H128.449C126.7 182.441 125.286 183.867 125.286 185.612C125.286 187.357 126.7 188.783 128.449 188.783ZM144.739 184.072C145.581 184.072 146.267 184.76 146.267 185.604C146.267 186.448 145.581 187.136 144.739 187.136H128.449C127.608 187.136 126.921 186.448 126.921 185.604C126.921 184.76 127.608 184.072 128.449 184.072H144.739Z" fill="#000072"/>
<g opacity="0.15">
<path d="M20.1268 183.174C25.5856 196.888 36.346 209.043 55.3871 215.284C55.752 215.399 56.0858 215.511 56.4367 215.608L52.3176 195.596C52.3176 195.596 35.9352 196.602 20.1268 183.174Z" fill="#000072" fill-opacity="0.4"/>
</g>
<g opacity="0.15">
<path d="M28.2088 127.969C28.2088 127.969 27.9126 138.393 39.6423 138.709C43.1697 140.746 49.1889 141.084 53.5233 139.775C57.7105 140.087 61.444 138.827 63.9589 135.654C65.2334 134.053 66.0426 131.933 66.3877 129.594C64.4571 132.261 60.6037 135.646 56.288 131.313C56.288 131.313 46.4877 138.785 37.6375 128.242C37.6375 128.242 33.1096 134.279 28.2088 127.969Z" fill="#000072"/>
</g>
<path d="M26.9815 127.935C26.9224 128.833 26.941 129.583 27.0481 130.389C27.1552 131.195 27.326 131.991 27.5929 132.766C28.1098 134.33 29.0086 135.839 30.2504 137.055C31.4736 138.3 33.0305 139.19 34.6185 139.77C36.2221 140.352 37.8737 140.612 39.4788 140.711L38.4885 140.425C39.7303 141.173 41.0311 141.647 42.3304 141.98C43.6297 142.314 44.9259 142.522 46.2329 142.622C48.8346 142.791 51.4565 142.602 54.0737 141.837L53.2339 141.924C55.3497 142.09 57.5928 141.926 59.7521 141.193C61.8943 140.473 63.9108 139.133 65.3855 137.411C66.927 135.649 67.8476 133.512 68.3397 131.426C68.8334 129.325 68.953 127.202 68.8025 125.113C68.6365 123.023 68.2003 120.969 67.4444 118.976C66.6869 116.998 65.6096 115.081 64.0822 113.431C61.0025 110.222 57.1698 108.418 53.2704 107.277C49.3524 106.166 45.2683 105.771 41.1795 106.201C39.1335 106.432 37.0984 106.866 35.1254 107.618C34.1459 108.003 33.1601 108.449 32.2427 108.996C31.3579 109.53 30.4855 110.097 29.6705 110.717C26.3935 113.208 23.7684 116.389 21.7317 119.8C20.7133 121.506 19.844 123.289 19.0678 125.081C18.3056 126.89 17.666 128.728 17.0714 130.585C16.7035 131.748 15.5215 138.601 16.7075 138.97C17.8779 139.337 20.9583 133.096 21.3278 131.917L21.3294 131.902L21.3325 131.871C22.4005 128.425 23.7853 125.104 25.6109 122.077C27.4349 119.065 29.7138 116.364 32.4444 114.316C33.1228 113.807 33.843 113.35 34.5618 112.908C35.2603 112.511 36.0008 112.164 36.7677 111.867C38.3153 111.29 39.9825 110.928 41.6932 110.757C45.116 110.4 48.6693 110.774 51.9912 111.731C53.6522 112.21 55.265 112.856 56.7351 113.674C58.2082 114.461 59.5789 115.488 60.6127 116.589C62.6757 118.839 63.8305 122.166 64.0803 125.449C64.3317 128.716 63.6533 132.186 61.8199 134.355C60.8746 135.492 59.6451 136.334 58.2465 136.833C56.8307 137.345 55.2303 137.511 53.6112 137.395L53.5802 137.392C53.2992 137.379 53.0291 137.414 52.7714 137.482C50.8465 138.068 48.6609 138.284 46.5249 138.163C44.4013 138.074 42.2669 137.625 40.6106 136.788L40.432 136.692C40.179 136.558 39.8872 136.497 39.6202 136.501C38.3023 136.509 37.0325 136.35 35.8403 136.043C34.6481 135.736 33.574 135.192 32.6286 134.457C31.6988 133.725 30.9351 132.744 30.3437 131.609C30.0565 131.034 29.819 130.434 29.6297 129.822C29.4403 129.211 29.2913 128.51 29.2214 127.958L29.2013 127.847C29.1206 127.246 28.5695 126.801 27.9656 126.881C27.4223 126.982 27.0172 127.424 26.9815 127.935Z" fill="#000072"/>
<path d="M37.693 124.311C37.1656 125.549 36.8166 126.774 36.5573 128.07C36.2995 129.351 36.1663 130.675 36.1911 132.031C36.1999 133.384 36.432 134.76 36.8587 136.125C37.2695 137.489 38.0084 138.793 38.8858 140.004C39.5225 140.882 40.7722 141.116 41.6866 140.516C42.6011 139.916 42.8337 138.725 42.197 137.846C42.1408 137.764 42.0831 137.696 42.0095 137.628L41.9214 137.542C41.1911 136.792 40.4844 135.968 40.0035 134.981C39.5211 134.01 39.1291 132.941 38.9378 131.8C38.729 130.672 38.6539 129.496 38.6776 128.299C38.7158 127.119 38.8558 125.888 39.1286 124.778L39.1332 124.732C39.2209 124.341 38.9689 123.962 38.5587 123.875C38.1964 123.793 37.8224 123.985 37.693 124.311Z" fill="#000072"/>
<path d="M55.3891 124.729C55.5892 125.99 55.631 127.362 55.5319 128.673C55.4327 129.983 55.1895 131.263 54.7891 132.479C54.4049 133.698 53.8036 134.798 53.0985 135.793C52.4241 136.807 51.4613 137.601 50.5371 138.335L50.4127 138.434C49.5419 139.126 49.4151 140.386 50.1306 141.237C50.8462 142.089 52.1412 142.219 53.012 141.527C53.0831 141.471 53.1558 141.399 53.2107 141.341C54.3249 140.18 55.3661 138.933 56.0493 137.506C56.7616 136.114 57.2715 134.622 57.5029 133.134C57.7506 131.648 57.8024 130.158 57.6892 128.683C57.5598 127.206 57.3238 125.815 56.8643 124.368C56.7405 123.974 56.3046 123.755 55.9165 123.875C55.5461 123.981 55.33 124.341 55.3922 124.697L55.3891 124.729Z" fill="#000072"/>
<path opacity="0.5" d="M71.2423 178.671C82.2217 216.068 120.844 243.969 120.844 243.969C120.844 243.969 158.104 274.165 192.458 271.523C198.951 271.031 202.014 267.644 204.209 262.057C202.248 264.19 199.627 265.462 195.817 265.763C161.468 268.439 124.203 238.209 124.203 238.209C124.203 238.209 85.5976 210.321 74.6012 172.912C73.3869 168.761 73.4101 165.499 74.3794 162.607C70.7144 167.069 69.1558 171.607 71.2423 178.671Z" fill="#B9B9DD"/>
<path d="M73.3514 175.163L73.3514 175.164C78.3275 193.87 90.234 210.512 100.957 222.513C106.31 228.505 111.352 233.322 115.054 236.639C116.905 238.297 118.42 239.581 119.471 240.448C119.997 240.882 120.406 241.211 120.684 241.432C120.822 241.542 120.928 241.625 120.998 241.68L121.078 241.742L121.097 241.757L121.102 241.761L121.103 241.762C121.103 241.762 121.103 241.762 120.913 242.085L121.103 241.762L121.12 241.775L121.137 241.79L120.932 242.1C121.137 241.79 121.137 241.79 121.137 241.79L121.138 241.791L121.143 241.794L121.161 241.81L121.238 241.876C121.307 241.934 121.41 242.021 121.546 242.135C121.819 242.363 122.225 242.698 122.755 243.124C123.815 243.977 125.37 245.197 127.345 246.656C131.295 249.575 136.921 253.453 143.62 257.284C157.038 264.956 174.676 272.392 191.754 271.659L191.754 271.659C195.591 271.497 198.141 270.265 200.045 268.201C201.816 266.283 203.084 263.59 204.263 260.163C203.846 260.072 203.292 259.948 202.612 259.787C200.949 259.393 198.526 258.776 195.482 257.887C149.446 244.446 109.69 212.046 83.5432 166.659C81.8135 163.657 80.5088 161.236 79.6355 159.564C79.2759 158.875 78.9894 158.313 78.7765 157.89C76.3227 160.28 74.5082 162.528 73.5001 165.07C72.4162 167.802 72.2316 170.961 73.3514 175.163Z" fill="#FFC303" stroke="#000070" stroke-width="1.58704"/>
<path d="M72.5102 175.569C82.6635 213.152 120.631 242.392 120.631 242.392C120.631 242.392 157.187 273.857 191.554 272.588C198.049 272.355 201.182 269.112 203.495 263.648C201.491 265.689 198.845 266.849 195.033 266.998C160.671 268.302 124.11 236.803 124.11 236.803C124.11 236.803 86.1599 207.576 75.9898 169.98C74.8673 165.809 74.9612 162.569 75.9921 159.735C72.2349 164.022 70.5798 168.469 72.5102 175.569Z" fill="#FDFDFD" fill-opacity="0.34"/>
<path opacity="0.5" d="M182.022 138.884C177.031 138.884 172.986 135.647 172.986 131.655C172.986 127.662 177.031 124.425 182.022 124.425C187.013 124.425 191.059 127.662 191.059 131.655C191.059 135.647 187.013 138.884 182.022 138.884Z" fill="#FFB6B9"/>
<path d="M175.411 131.142C177.239 131.4 179.041 131.801 180.83 132.222C181.724 132.432 182.619 132.649 183.513 132.88C184.407 133.104 185.295 133.349 186.183 133.6C186.347 133.647 186.446 133.824 186.4 134C186.354 134.163 186.203 134.258 186.045 134.231C185.137 134.082 184.23 133.905 183.329 133.722C182.428 133.546 181.527 133.355 180.626 133.152C178.831 132.751 177.036 132.33 175.273 131.767C175.109 131.713 175.017 131.529 175.063 131.359C175.115 131.21 175.267 131.115 175.411 131.142Z" fill="#000072"/>
<path d="M174.782 127.273C176.641 126.785 178.521 126.474 180.401 126.186C181.344 126.042 182.281 125.907 183.224 125.787C184.168 125.659 185.111 125.547 186.061 125.459C186.239 125.443 186.396 125.603 186.41 125.811C186.424 126.003 186.307 126.178 186.15 126.218C185.221 126.434 184.284 126.626 183.347 126.801C182.411 126.985 181.474 127.153 180.538 127.313C178.658 127.632 176.778 127.92 174.878 128.04C174.7 128.048 174.543 127.888 174.536 127.68C174.522 127.473 174.631 127.313 174.782 127.273Z" fill="#000072"/>
<path d="M174.674 122.774C176.047 121.795 177.487 120.944 178.941 120.114C179.668 119.702 180.402 119.291 181.136 118.901C181.869 118.504 182.61 118.113 183.364 117.745C183.527 117.667 183.717 117.737 183.799 117.908C183.867 118.064 183.819 118.248 183.683 118.34C182.984 118.809 182.277 119.263 181.564 119.695C180.85 120.142 180.137 120.575 179.417 120.994C177.976 121.845 176.522 122.668 174.994 123.363C174.831 123.441 174.641 123.363 174.566 123.186C174.498 123.044 174.545 122.866 174.674 122.774Z" fill="#000072"/>
<path opacity="0.5" d="M90.6246 138.883C85.6339 138.883 81.5881 135.647 81.5881 131.654C81.5881 127.661 85.6339 124.425 90.6246 124.425C95.6153 124.425 99.6611 127.661 99.6611 131.654C99.6611 135.647 95.6153 138.883 90.6246 138.883Z" fill="#FFB6B9"/>
<path d="M98.9232 134.348C97.1606 134.912 95.3651 135.333 93.5697 135.734C92.6686 135.931 91.7676 136.128 90.8665 136.304C89.9655 136.488 89.0579 136.658 88.1503 136.814C87.9793 136.841 87.8149 136.726 87.7886 136.549C87.7623 136.386 87.8609 136.23 88.0122 136.182C88.9001 135.924 89.7879 135.686 90.6824 135.462C91.5769 135.231 92.4713 135.007 93.3658 134.803C95.1613 134.382 96.9568 133.981 98.7851 133.723C98.9561 133.696 99.114 133.825 99.1403 134.002C99.1666 134.151 99.0679 134.301 98.9232 134.348Z" fill="#000072"/>
<path d="M99.3111 130.621C97.4126 130.501 95.5346 130.213 93.6566 129.892C92.7211 129.732 91.7787 129.564 90.8499 129.379C89.9143 129.203 88.9788 129.011 88.05 128.794C87.8725 128.754 87.7564 128.554 87.7905 128.346C87.8247 128.153 87.9749 128.025 88.1388 128.041C89.088 128.129 90.0304 128.241 90.9728 128.37C91.9152 128.49 92.8576 128.626 93.7932 128.77C95.6712 129.059 97.5492 129.379 99.4067 129.86C99.5842 129.908 99.6935 130.108 99.6525 130.317C99.6116 130.509 99.4681 130.629 99.3111 130.621Z" fill="#000072"/>
<path d="M99.2005 125.947C97.6794 125.25 96.2195 124.426 94.78 123.574C94.0602 123.147 93.3404 122.714 92.6342 122.273C91.9212 121.833 91.215 121.385 90.5156 120.916C90.3662 120.817 90.3187 120.604 90.4206 120.447C90.5088 120.305 90.6854 120.256 90.8348 120.327C91.5817 120.696 92.3286 121.087 93.062 121.485C93.8021 121.875 94.5287 122.288 95.2553 122.7C96.7084 123.531 98.148 124.376 99.5196 125.364C99.669 125.471 99.703 125.684 99.6079 125.84C99.5128 125.961 99.3431 126.011 99.2005 125.947Z" fill="#000072"/>
<path d="M142.269 105.625C142.311 108.254 137.734 110.262 134.504 110.506C131.281 110.747 126.626 108.5 126.583 105.871C126.541 103.242 130.043 102.671 134.381 102.601C138.712 102.534 142.227 102.996 142.269 105.625Z" fill="#000070"/>
<path d="M137.049 104.846C137.051 105.42 135.817 105.878 134.31 105.883C132.794 105.882 131.569 105.421 131.567 104.847C131.565 104.273 132.794 104.183 134.31 104.184C135.817 104.179 137.046 104.272 137.049 104.846Z" fill="white"/>
<g clip-path="url(#clip2_100_1765)">
<path d="M111.147 96.1622C111.147 89.3461 105.668 83.9185 98.7879 83.9185C91.9078 83.9185 86.4292 89.4723 86.4292 96.1622C86.4292 102.852 91.9078 108.406 98.7879 108.406C105.541 108.406 111.147 102.852 111.147 96.1622Z" fill="#000071"/>
<path d="M108.981 93.3852C108.981 89.8509 106.05 86.9478 102.483 86.9478C98.9153 86.9478 95.9849 89.8509 95.9849 93.3852C95.9849 96.9195 98.9153 99.8227 102.483 99.8227C106.178 99.6964 108.981 96.9195 108.981 93.3852Z" fill="white"/>
<path d="M89.208 88.7955C86.6419 88.6224 85.3589 86.7757 85.3006 86.6603C85.1256 86.3717 85.1839 86.0255 85.4755 85.7946C85.7671 85.6215 86.117 85.6792 86.3503 85.9678C86.3503 86.0255 87.3418 87.4105 89.2663 87.5259C89.6162 87.5259 89.8495 87.8145 89.8495 88.1607C89.8495 88.507 89.5579 88.7955 89.208 88.7955Z" fill="#000070"/>
<path d="M90.8171 87.7621C90.76 87.7621 90.7029 87.7621 90.7029 87.7621C88.249 87.1384 87.3359 85.0972 87.3359 84.9838C87.1647 84.7003 87.3359 84.3601 87.6212 84.19C87.9066 84.0766 88.3061 84.19 88.4202 84.5302C88.4773 84.5869 89.1621 86.1178 90.9312 86.5714C91.2736 86.6281 91.4448 86.9683 91.3877 87.3085C91.3307 87.592 91.1024 87.7621 90.8171 87.7621Z" fill="#000070"/>
<g clip-path="url(#clip3_100_1765)">
<path d="M179.942 103.254C179.385 103.254 178.828 102.833 178.689 102.271C177.296 97.3582 173.955 91.6029 166.574 91.4625H166.435C159.055 91.4625 155.852 97.3582 154.46 102.131C154.321 102.833 153.485 103.254 152.789 103.113C152.093 102.973 151.675 102.271 151.814 101.429C153.207 96.6563 156.827 88.7954 166.435 88.7954H166.574C176.182 88.9358 179.942 96.7967 181.195 101.429C181.474 102.131 181.056 102.833 180.221 103.113C180.221 103.254 180.081 103.254 179.942 103.254Z" fill="#000072"/>
<path d="M180.996 101.704C180.605 101.704 180.293 101.4 180.214 101.019C180.214 100.638 180.527 100.257 180.918 100.257C183.264 100.105 184.437 98.5046 184.437 98.4284C184.672 98.1237 185.141 97.9713 185.454 98.1999C185.923 98.4284 186.001 98.8856 185.766 99.1903C185.688 99.2665 184.124 101.476 180.996 101.704C181.075 101.704 181.075 101.704 180.996 101.704Z" fill="#000072"/>
<path d="M179.902 99.6391C179.589 99.6391 179.275 99.3935 179.197 99.066C179.119 98.6566 179.354 98.2473 179.745 98.0836C182.016 97.5105 182.877 95.5457 182.877 95.4638C183.033 95.0544 183.503 94.8907 183.894 95.0544C184.286 95.2182 184.442 95.7094 184.286 96.1187C184.208 96.2006 183.112 98.8204 180.137 99.6391C180.058 99.6391 179.98 99.6391 179.902 99.6391Z" fill="#000072"/>
</g>
</g>
<g clip-path="url(#clip4_100_1765)">
<path d="M137.947 123.673C123.495 123.673 111.966 119.853 111.316 119.521C110.667 119.355 110.342 118.69 110.504 118.026C110.829 117.361 111.479 117.029 112.128 117.195C112.453 117.361 138.596 125.999 160.68 117.195C161.33 117.029 161.979 117.195 162.142 117.86C162.304 118.524 162.142 119.188 161.492 119.355C153.535 122.677 145.416 123.673 137.947 123.673Z" fill="#000072"/>
<path d="M148.339 121.847V128.159C148.339 134.471 142.98 139.62 136.322 139.62C129.665 139.62 124.306 134.471 124.306 128.159V121.515C124.306 121.515 138.271 124.006 148.339 121.847Z" fill="#FFA7AC"/>
<path d="M136.323 140.949C129.016 140.949 123.17 135.301 123.17 128.159V121.514C123.17 121.182 123.332 120.85 123.657 120.518C123.982 120.352 124.307 120.186 124.631 120.186C124.631 120.186 131.451 121.348 138.921 121.348C142.493 121.348 145.579 121.016 148.177 120.518C148.501 120.518 148.989 120.518 149.151 120.85C149.313 121.182 149.476 121.514 149.476 121.847V128.159C149.476 135.301 143.63 140.949 136.323 140.949ZM125.606 123.009V128.325C125.606 133.972 130.477 138.623 136.323 138.623C142.169 138.623 147.04 133.972 147.04 128.325V123.342C144.604 123.84 141.844 124.006 138.759 124.006C133.238 124.006 128.041 123.342 125.606 123.009Z" fill="#000072"/>
<path d="M136.323 133.64C135.673 133.64 135.024 132.976 135.024 132.312V122.843C135.024 122.179 135.673 121.515 136.323 121.515C136.973 121.515 137.622 122.179 137.622 122.843V132.478C137.622 133.142 136.973 133.64 136.323 133.64Z" fill="#000072"/>
</g>
<path d="M198.628 203.236L198.244 206.343V206.386L191.199 264.725L191.062 265.828C190.802 268.047 190.418 270.251 189.842 272.399C186.334 285.398 178.206 293.229 166.679 297.238C152.712 299.514 142.72 296.164 138.622 290.681C134.537 285.241 136.278 277.71 145.708 271.554C145.502 270.738 145.79 263.365 146.256 253.616C147.298 232.213 149.299 199.356 149.299 199.356C149.299 199.356 161.89 220.007 171.522 220.765C181.154 221.523 198.628 203.236 198.628 203.236Z" fill="#00BCFF"/>
<path d="M191.199 264.725L191.062 265.828C190.801 268.047 190.418 270.251 189.842 272.399C186.333 285.398 178.205 293.229 166.678 297.238C138.827 301.79 126.792 283.924 145.707 271.554C145.502 270.738 145.79 263.365 146.256 253.616L146.269 253.601C158.112 240.459 184.14 248.691 191.199 264.725Z" fill="#00BCFF"/>
<ellipse cx="155.116" cy="284.029" rx="17.0027" ry="12.4659" fill="white"/>
<path d="M199.724 203.379L198.518 216.579L197.257 229.765L195.928 242.95C195.489 247.345 195.064 251.74 194.516 256.121L193.694 262.693L193.282 265.971C193.145 267.102 192.981 268.247 192.775 269.378C192.57 270.524 192.323 271.655 192.021 272.8C191.72 273.917 191.391 275.033 191.007 276.136C190.253 278.326 189.308 280.474 188.184 282.521C185.936 286.615 182.852 290.237 179.247 293.072C175.642 295.921 171.558 297.983 167.377 299.443C167.268 299.486 167.131 299.514 167.021 299.529C162.553 300.245 157.988 300.531 153.383 300.015C151.094 299.758 148.791 299.3 146.53 298.555C144.282 297.811 142.062 296.766 140.033 295.248C138.032 293.745 136.168 291.698 135.14 289.049C134.633 287.746 134.331 286.315 134.317 284.883C134.29 283.451 134.537 282.048 134.948 280.746C135.798 278.14 137.292 275.964 138.978 274.16C140.664 272.342 142.555 270.867 144.515 269.579L143.542 272.127C143.514 271.998 143.487 271.855 143.473 271.726L143.46 271.583L143.446 271.483C143.432 271.34 143.419 271.196 143.419 271.096L143.391 270.452C143.377 270.051 143.377 269.65 143.377 269.264L143.405 266.959C143.419 265.441 143.473 263.924 143.542 262.406C143.665 259.385 143.789 256.365 143.967 253.358L144.529 244.324L145.187 235.305C145.625 229.292 146.078 223.279 146.598 217.281C147.092 211.268 147.626 205.269 148.202 199.271C148.271 198.626 148.805 198.168 149.422 198.226C149.998 198.283 150.436 198.813 150.423 199.414C150.272 205.441 150.107 211.468 149.902 217.481C149.723 223.508 149.49 229.521 149.271 235.549L148.956 244.582L148.586 253.602C148.49 256.608 148.325 259.614 148.202 262.607L148.01 267.088L147.928 269.307L147.901 270.38V270.867V271.053V271.096C147.901 271.111 147.901 271.125 147.901 271.082C147.901 271.039 147.887 270.996 147.873 270.953L146.9 273.501C145.173 274.647 143.556 275.921 142.185 277.381C140.828 278.841 139.745 280.488 139.183 282.206C138.621 283.924 138.649 285.67 139.279 287.274C139.896 288.877 141.13 290.323 142.651 291.454C144.172 292.6 145.982 293.473 147.887 294.103C149.792 294.733 151.807 295.134 153.863 295.363C157.961 295.821 162.183 295.563 166.336 294.905L165.979 294.99C169.803 293.659 173.436 291.798 176.588 289.321C179.74 286.844 182.386 283.723 184.36 280.159C185.346 278.369 186.182 276.494 186.854 274.532C187.197 273.559 187.498 272.557 187.772 271.554C188.033 270.567 188.252 269.55 188.444 268.519C188.622 267.489 188.773 266.443 188.91 265.384L189.294 262.091L190.061 255.52C190.569 251.139 191.213 246.773 191.83 242.392L193.68 229.278L195.585 216.178L197.559 203.079C197.655 202.449 198.23 202.005 198.833 202.105C199.382 202.22 199.779 202.778 199.724 203.379Z" fill="#000070"/>
<path d="M144.337 269.807C146.79 268.748 149.381 268.018 152.04 267.76C154.685 267.502 157.399 267.717 159.962 268.462C162.525 269.206 164.951 270.494 166.994 272.227C169.05 273.959 170.722 276.149 171.928 278.54C172.202 279.099 171.996 279.772 171.476 280.072C170.968 280.344 170.352 280.158 170.05 279.671C168.83 277.61 167.227 275.835 165.363 274.489C163.499 273.143 161.388 272.212 159.195 271.754C157.002 271.296 154.726 271.296 152.52 271.683C150.313 272.069 148.161 272.857 146.16 273.916H146.146C145.077 274.474 143.775 274.031 143.24 272.914C142.706 271.797 143.131 270.437 144.2 269.879C144.241 269.85 144.296 269.822 144.337 269.807Z" fill="#000070"/>
<path d="M160.757 283.881C160.497 286.186 160.387 288.505 160.703 290.653C160.867 291.726 161.141 292.728 161.552 293.573C161.95 294.432 162.512 295.105 163.142 295.62C164.102 296.408 164.266 297.854 163.512 298.856C162.759 299.858 161.374 300.03 160.415 299.242C160.209 299.071 160.045 298.885 159.908 298.67L159.812 298.512C159.058 297.252 158.578 295.849 158.414 294.489C158.249 293.129 158.318 291.826 158.523 290.61C158.962 288.161 159.812 285.985 160.757 283.881Z" fill="#000070"/>
<path d="M148.134 282.593C147.873 284.898 147.764 287.217 148.079 289.364C148.244 290.438 148.518 291.44 148.929 292.285C149.326 293.144 149.888 293.817 150.519 294.332C151.478 295.12 151.643 296.566 150.889 297.568C150.135 298.57 148.751 298.742 147.791 297.954C147.586 297.783 147.421 297.596 147.284 297.382L147.188 297.224C146.434 295.964 145.955 294.561 145.79 293.201C145.626 291.841 145.694 290.538 145.9 289.322C146.338 286.873 147.188 284.683 148.134 282.593Z" fill="#000070"/>
<g opacity="0.3">
<path d="M198.244 206.343V206.386L191.199 264.725L191.062 265.828C190.801 268.047 190.418 270.251 189.842 272.399C186.333 285.398 178.205 293.229 166.678 297.238C152.711 299.514 142.719 296.164 138.621 290.681C166.938 293.673 179.768 269.507 181.783 226.4C182.235 216.593 189.047 208.361 198.244 206.343Z" fill="#000070" fill-opacity="0.4"/>
</g>
<path d="M80.731 179.084C80.6189 179.181 80.5184 179.247 80.4295 179.281C80.2458 179.352 80.0644 179.34 79.8853 179.246C79.7121 179.149 79.5822 178.988 79.4956 178.763C79.3726 178.443 79.3936 178.153 79.5586 177.892C79.7236 177.632 79.9765 177.361 80.3175 177.08L81.0148 176.506C81.2413 176.317 81.4079 176.113 81.5146 175.895C81.6235 175.683 81.6199 175.426 81.5037 175.124L81.4456 174.973L79.8991 175.568C79.431 175.748 79.0794 175.948 78.8442 176.167C78.754 176.127 78.6594 176.058 78.5605 175.96C78.4639 175.868 78.3871 175.748 78.3301 175.6C78.2549 175.404 78.2467 175.224 78.3055 175.058C78.3643 174.893 78.4855 174.775 78.6692 174.704L83.1308 172.988C83.5811 172.815 83.9328 172.615 84.1857 172.389C84.276 172.429 84.3694 172.495 84.466 172.587C84.5649 172.685 84.6429 172.808 84.6998 172.956C84.775 173.152 84.7821 173.329 84.721 173.489C84.6622 173.654 84.541 173.772 84.3573 173.843L81.8722 174.809L82.0041 174.993C82.2242 175.282 82.4991 175.493 82.8286 175.625C83.1604 175.762 83.499 175.829 83.8445 175.826C84.1922 175.828 84.4994 175.778 84.7661 175.675C84.926 175.614 85.0584 175.542 85.1633 175.461C85.2763 175.384 85.3574 175.312 85.4067 175.245C85.5438 175.39 85.6409 175.536 85.6979 175.684C85.9053 176.223 85.7156 176.606 85.1291 176.831C84.6847 177.002 84.1947 177.01 83.6592 176.856C83.1259 176.707 82.6223 176.371 82.1483 175.845C82.2427 176.197 82.257 176.491 82.1914 176.727C82.128 176.969 81.9865 177.193 81.7668 177.4L80.9785 178.162C80.7944 178.356 80.6734 178.501 80.6155 178.598C80.5576 178.695 80.5439 178.792 80.5745 178.889L80.5881 178.925C80.6109 178.984 80.6585 179.037 80.731 179.084Z" fill="black"/>
<path d="M82.8025 185.794C82.41 184.997 82.3721 184.266 82.6886 183.6C83.0079 182.941 83.683 182.357 84.7139 181.85C85.7392 181.346 86.6105 181.168 87.3278 181.317C88.048 181.472 88.6042 181.949 88.9967 182.746C89.3891 183.543 89.4256 184.272 89.1063 184.931C88.7898 185.596 88.119 186.181 87.0937 186.686C86.0628 187.193 85.1872 187.369 84.4671 187.214C83.7498 187.065 83.1949 186.592 82.8025 185.794ZM83.1955 185.601C83.3973 186.011 83.758 186.205 84.2777 186.183C84.8031 186.158 85.5385 185.912 86.4841 185.447C87.4296 184.982 88.0697 184.55 88.4043 184.152C88.7447 183.751 88.814 183.345 88.6122 182.935C88.4104 182.525 88.0454 182.33 87.5172 182.349C86.9918 182.374 86.2592 182.618 85.3194 183.08C84.3796 183.543 83.7395 183.975 83.3991 184.376C83.0615 184.782 82.9936 185.191 83.1955 185.601Z" fill="black"/>
<path d="M86.8692 192.985C86.7672 192.817 86.7244 192.642 86.741 192.461C87.0803 192.397 87.4861 192.221 87.9584 191.935L91.3291 189.89C91.7796 189.617 92.1426 189.371 92.4181 189.152C92.4812 189.158 92.5517 189.201 92.6294 189.28C92.7103 189.364 92.7821 189.458 92.8446 189.561C92.9269 189.697 92.9617 189.791 92.9489 189.843C92.8358 190.097 92.5473 190.803 92.0836 191.961C91.6597 193.012 91.3314 193.805 91.0988 194.34C90.8695 194.88 90.6608 195.288 90.4727 195.566L93.9654 193.08L94.0744 193.003C94.2535 192.894 94.4221 192.848 94.58 192.863C94.7412 192.884 94.8794 192.971 94.9944 193.124C95.1106 193.291 95.1642 193.459 95.1552 193.628C94.9007 193.686 94.5455 193.853 94.0896 194.13L90.5593 196.26C90.0762 196.553 89.717 196.793 89.4816 196.98C89.4206 196.965 89.3512 196.918 89.2735 196.839C89.1937 196.769 89.1242 196.684 89.0649 196.587C88.9958 196.473 88.96 196.383 88.9575 196.318C89.7817 193.821 90.5605 191.953 91.2938 190.713L87.8008 193.144C87.637 193.265 87.4608 193.305 87.2723 193.264C87.0892 193.219 86.9548 193.126 86.8692 192.985Z" fill="black"/>
<path d="M92.838 201.768C92.7359 201.599 92.6932 201.425 92.7097 201.244C93.0491 201.179 93.4549 201.004 93.9271 200.717L97.2978 198.673C97.7483 198.4 98.1113 198.153 98.3868 197.934C98.45 197.941 98.5204 197.983 98.5981 198.062C98.6791 198.147 98.7508 198.241 98.8134 198.344C98.8957 198.48 98.9304 198.574 98.9176 198.626C98.8045 198.88 98.5161 199.586 98.0524 200.743C97.6284 201.795 97.3002 202.588 97.0676 203.122C96.8382 203.662 96.6295 204.071 96.4414 204.349L99.9341 201.863L100.043 201.785C100.222 201.677 100.391 201.63 100.549 201.646C100.71 201.667 100.848 201.754 100.963 201.907C101.079 202.074 101.133 202.242 101.124 202.411C100.869 202.469 100.514 202.636 100.058 202.912L96.528 205.042C96.0449 205.335 95.6857 205.575 95.4503 205.763C95.3893 205.748 95.32 205.701 95.2423 205.622C95.1625 205.551 95.0929 205.467 95.0337 205.369C94.9645 205.256 94.9287 205.166 94.9262 205.101C95.7505 202.603 96.5292 200.735 97.2626 199.496L93.7696 201.926C93.6058 202.048 93.4296 202.088 93.241 202.047C93.0579 202.002 92.9236 201.909 92.838 201.768Z" fill="black"/>
<path d="M100.603 211.5C100.481 211.329 100.429 211.156 100.445 210.981C100.461 210.806 100.549 210.662 100.71 210.548L104.609 207.783C105.002 207.504 105.294 207.223 105.483 206.941C105.58 206.958 105.687 206.999 105.804 207.064C105.924 207.135 106.03 207.235 106.121 207.364C106.243 207.535 106.295 207.708 106.279 207.883C106.263 208.057 106.175 208.202 106.014 208.316L102.115 211.081C101.706 211.371 101.415 211.652 101.241 211.923C101.144 211.906 101.035 211.862 100.915 211.792C100.798 211.727 100.694 211.629 100.603 211.5Z" fill="black"/>
<path d="M105.631 217.562C105.096 216.909 104.913 216.209 105.082 215.464C105.255 214.723 105.766 214.005 106.616 213.309C107.465 212.613 108.274 212.263 109.041 212.258C109.813 212.249 110.475 212.581 111.026 213.254C111.251 213.529 111.432 213.82 111.569 214.126C111.705 214.433 111.771 214.719 111.767 214.985C111.767 215.256 111.679 215.464 111.502 215.608C111.35 215.733 111.161 215.773 110.936 215.728C110.715 215.679 110.509 215.532 110.316 215.287C110.983 214.618 111.113 214.036 110.707 213.54C110.405 213.172 109.988 213.058 109.455 213.199C108.927 213.336 108.27 213.726 107.484 214.37C106.699 215.013 106.182 215.58 105.935 216.07C105.693 216.555 105.72 216.98 106.018 217.343C106.235 217.608 106.511 217.744 106.844 217.75C107.177 217.756 107.56 217.623 107.993 217.35C108.059 217.411 108.106 217.458 108.135 217.493C108.279 217.67 108.36 217.858 108.376 218.058C108.396 218.263 108.33 218.428 108.178 218.553C107.962 218.73 107.703 218.794 107.401 218.746C107.099 218.698 106.79 218.566 106.473 218.349C106.165 218.134 105.884 217.871 105.631 217.562Z" fill="black"/>
<path d="M115.318 226.136C114.959 226.485 114.714 226.808 114.585 227.102C114.486 227.101 114.372 227.074 114.242 227.023C114.117 226.977 113.999 226.897 113.889 226.783C113.742 226.633 113.664 226.47 113.653 226.295C113.642 226.12 113.707 225.963 113.848 225.826L115.731 223.993L113.965 222.178L112.682 223.426C112.322 223.776 112.078 224.098 111.948 224.393C111.849 224.392 111.735 224.365 111.606 224.314C111.481 224.268 111.363 224.187 111.252 224.074C111.106 223.924 111.027 223.761 111.016 223.586C111.005 223.41 111.07 223.254 111.211 223.117L114.637 219.783C114.983 219.447 115.227 219.124 115.371 218.817C115.469 218.818 115.581 218.842 115.706 218.889C115.836 218.94 115.956 219.022 116.067 219.136C116.213 219.286 116.291 219.449 116.302 219.624C116.314 219.799 116.249 219.955 116.108 220.093L114.442 221.713L116.209 223.528L117.273 222.492C117.619 222.156 117.864 221.834 118.007 221.526C118.106 221.527 118.218 221.551 118.343 221.598C118.472 221.649 118.592 221.731 118.703 221.845C118.845 221.991 118.921 222.151 118.932 222.326C118.948 222.506 118.885 222.665 118.744 222.802L115.318 226.136Z" fill="black"/>
<path d="M119.043 231.685C118.886 231.546 118.796 231.389 118.773 231.215C118.749 231.041 118.803 230.881 118.934 230.734L122.112 227.163C122.432 226.803 122.653 226.464 122.774 226.147C122.873 226.141 122.986 226.157 123.114 226.194C123.247 226.236 123.373 226.31 123.491 226.415C123.648 226.555 123.738 226.711 123.761 226.885C123.785 227.059 123.731 227.22 123.601 227.367L120.422 230.937C120.089 231.312 119.868 231.651 119.76 231.954C119.661 231.959 119.546 231.941 119.413 231.9C119.285 231.862 119.161 231.791 119.043 231.685Z" fill="black"/>
<path d="M133.369 234.352C133.567 234.5 133.687 234.637 133.728 234.763C133.773 234.892 133.743 235.028 133.637 235.17C133.549 235.287 133.383 235.436 133.137 235.617L128.585 239.146C128.293 239.07 128.038 238.951 127.819 238.788C127.479 238.533 127.356 238.299 127.452 238.085L129.161 234.001L125.573 236.895C125.275 236.815 125.025 236.699 124.822 236.547C124.445 236.266 124.308 236.021 124.409 235.811L126.689 230.406C126.73 230.318 126.763 230.212 126.785 230.086C126.808 229.96 126.814 229.846 126.804 229.743C127.042 229.7 127.294 229.777 127.558 229.974C127.935 230.255 128.053 230.542 127.914 230.834L125.563 235.841L128.994 233.032C129.075 232.966 129.146 232.892 129.207 232.811C129.294 232.694 129.353 232.567 129.383 232.432C129.514 232.458 129.653 232.506 129.799 232.576C129.954 232.644 130.087 232.72 130.199 232.803C130.336 232.906 130.434 233.014 130.491 233.129C130.548 233.243 130.555 233.351 130.511 233.452L128.574 238.08L132.35 234.649C132.386 234.612 132.433 234.564 132.493 234.506C132.558 234.451 132.609 234.398 132.647 234.347C132.719 234.251 132.757 234.152 132.761 234.052C132.879 234.085 132.982 234.122 133.069 234.164C133.157 234.206 133.257 234.268 133.369 234.352Z" fill="black"/>
<path d="M139.642 245.64C139.573 245.902 139.559 246.123 139.6 246.303C139.36 246.381 139.102 246.337 138.824 246.171C138.655 246.069 138.532 245.948 138.455 245.805C138.383 245.666 138.374 245.52 138.428 245.367L138.883 243.775L137.038 242.668L136.137 243.56C136.014 243.679 135.923 243.787 135.864 243.885C135.795 244 135.773 244.105 135.797 244.201C135.671 244.177 135.559 244.147 135.462 244.111C135.368 244.084 135.26 244.034 135.141 243.963C134.934 243.838 134.802 243.712 134.747 243.582C134.697 243.456 134.719 243.314 134.814 243.156C134.892 243.025 135.038 242.861 135.253 242.664L139.726 238.851C140.084 238.932 140.413 239.063 140.712 239.242C141.039 239.438 141.162 239.671 141.082 239.941L139.642 245.64ZM139.076 243.102L140.045 239.708L137.532 242.177L139.076 243.102Z" fill="black"/>
<circle cx="136.622" cy="65.4806" r="8.6505" fill="#FF1212"/>
<defs>
<clipPath id="clip0_100_1765">
<rect width="115.857" height="136.499" fill="white" transform="matrix(-1 0 0 1 305.874 96.8013)"/>
</clipPath>
<clipPath id="clip1_100_1765">
<rect width="193.294" height="170.027" fill="white" transform="translate(39.6768 0.750977)"/>
</clipPath>
<clipPath id="clip2_100_1765">
<rect width="107.406" height="51.1209" fill="white" transform="translate(81.5879 79.5005)"/>
</clipPath>
<clipPath id="clip3_100_1765">
<rect width="37.1789" height="14.4584" fill="white" transform="translate(151.814 88.7954)"/>
</clipPath>
<clipPath id="clip4_100_1765">
<rect width="51.6373" height="23.7532" fill="white" transform="translate(110.504 117.195)"/>
</clipPath>
</defs>
</svg>
