<svg width="203" height="225" viewBox="0 0 203 225" fill="none" xmlns="http://www.w3.org/2000/svg">
<path d="M101.5 203.901C157.557 203.901 203 158.458 203 102.401C203 46.344 157.557 0.900879 101.5 0.900879C45.4431 0.900879 0 46.344 0 102.401C0 158.458 45.4431 203.901 101.5 203.901Z" fill="#FCB500"/>
<path d="M0.117188 97.237L96.3369 1.01733C92.5819 1.25202 88.827 1.60404 85.1895 2.19074L1.2906 86.2069C0.703893 89.8445 0.35187 93.4821 0.117188 97.237Z" fill="#FCCC20"/>
<path d="M170.496 28.006C159.466 17.7973 146.089 9.93543 131.304 5.35913L4.4585 132.205C9.0348 146.99 16.7793 160.249 27.1053 171.397L170.496 28.006Z" fill="#FCCC20"/>
<path d="M202.999 102.4C202.999 98.5278 202.765 94.6555 202.295 90.9006L90 203.196C93.7549 203.665 97.6272 203.9 101.499 203.9C102.321 203.9 103.142 203.9 103.964 203.9L202.999 104.864C202.882 103.925 202.999 103.221 202.999 102.4Z" fill="#FCCC20"/>
<path d="M50.8085 190.289L189.388 51.7092C187.628 48.6583 185.633 45.7248 183.639 42.7913L41.8906 184.539C44.7068 186.534 47.7577 188.529 50.8085 190.289Z" fill="#FCCC20"/>
<path d="M194.668 62.1521C193.847 60.2747 192.908 58.3972 191.97 56.5198L55.502 192.87C57.3794 193.809 59.2569 194.748 61.1343 195.569L194.668 62.1521Z" fill="#FCCC20"/>
<path d="M101.5 1.83961C157.354 1.83961 202.765 47.0159 203 102.87C203 102.753 203 102.518 203 102.401C203 46.3119 157.472 0.900879 101.5 0.900879C45.411 0.900879 0 46.3119 0 102.401C0 102.518 0 102.753 0 102.87C0.234682 47.0159 45.6457 1.83961 101.5 1.83961Z" fill="#FCD323"/>
<path d="M101.5 11.1091C50.339 11.1091 8.80029 52.5305 8.80029 103.691C8.80029 154.852 50.2217 196.273 101.382 196.273C152.543 196.273 193.964 154.852 193.964 103.691C193.964 52.5305 152.66 11.1091 101.5 11.1091ZM101.5 191.228C53.1552 191.228 13.9633 152.036 13.9633 103.691C13.9633 55.3467 53.1552 16.1548 101.5 16.1548C149.844 16.1548 189.036 55.3467 189.036 103.691C189.036 152.036 149.844 191.228 101.5 191.228Z" fill="#FCE96C"/>
<path d="M101.5 172.57C62.8947 172.57 31.4473 141.123 31.4473 102.518C31.4473 64.0299 62.8947 32.5825 101.5 32.5825C140.105 32.5825 171.552 64.0299 171.552 102.635C171.435 141.24 140.105 172.57 101.5 172.57ZM101.5 33.7559C63.4814 33.7559 32.6207 64.6166 32.6207 102.635C32.6207 140.654 63.4814 171.514 101.5 171.514C139.518 171.514 170.379 140.654 170.379 102.635C170.262 64.6166 139.401 33.7559 101.5 33.7559Z" fill="#FCF997"/>
<path d="M101.5 176.091C61.0173 176.091 28.0444 143.118 28.0444 102.635C28.0444 62.1525 61.0173 29.1797 101.5 29.1797C141.983 29.1797 174.955 62.1525 174.955 102.635C174.955 143.118 141.983 176.091 101.5 176.091ZM101.5 29.7664C61.3693 29.7664 28.6311 62.5045 28.6311 102.635C28.6311 142.766 61.3693 175.504 101.5 175.504C141.631 175.504 174.369 142.766 174.369 102.635C174.369 62.5045 141.631 29.7664 101.5 29.7664Z" fill="#FCF997"/>
<path d="M101.5 187.59C54.6812 187.59 16.5454 149.455 16.5454 102.636C16.5454 55.8165 54.6812 17.6807 101.5 17.6807C148.319 17.6807 186.455 55.8165 186.455 102.636C186.455 149.455 148.319 187.59 101.5 187.59ZM101.5 18.15C54.9159 18.15 17.0148 56.0512 17.0148 102.636C17.0148 149.22 54.9159 187.121 101.5 187.121C148.085 187.121 185.986 149.22 185.986 102.636C185.869 56.0512 148.085 18.15 101.5 18.15Z" fill="#FCF997"/>
<path d="M101.5 9.70117C50.339 9.70117 8.80029 51.2399 8.80029 102.401C8.80029 153.561 50.2217 194.983 101.382 194.983C152.543 194.983 193.964 153.561 193.964 102.401C193.964 51.2399 152.66 9.70117 101.5 9.70117ZM101.5 189.937C53.1552 189.937 13.9633 150.745 13.9633 102.401C13.9633 54.0561 53.1552 14.8642 101.5 14.8642C149.844 14.8642 189.036 54.0561 189.036 102.401C189.036 150.745 149.844 189.937 101.5 189.937Z" fill="#ED7300"/>
<path d="M101.499 172.336C62.8942 172.336 31.4468 140.888 31.4468 102.283C31.4468 63.6779 62.8942 32.2305 101.499 32.2305C140.105 32.2305 171.552 63.6779 171.552 102.283C171.435 141.006 140.105 172.336 101.499 172.336ZM101.499 33.5212C63.4809 33.5212 32.6202 64.3819 32.6202 102.4C32.6202 140.419 63.4809 171.28 101.499 171.28C139.518 171.28 170.379 140.419 170.379 102.4C170.261 64.3819 139.401 33.5212 101.499 33.5212Z" fill="#ED7300"/>
<path d="M101.499 175.856C61.0168 175.856 28.0439 142.883 28.0439 102.401C28.0439 61.9181 61.0168 28.9453 101.499 28.9453C141.982 28.9453 174.955 61.9181 174.955 102.401C174.955 142.883 141.982 175.856 101.499 175.856ZM101.499 29.532C61.3688 29.532 28.6307 62.2702 28.6307 102.401C28.6307 142.531 61.3688 175.27 101.499 175.27C141.63 175.27 174.368 142.531 174.368 102.401C174.368 62.1528 141.63 29.532 101.499 29.532Z" fill="#ED7300"/>
<path d="M101.5 187.356C54.6805 187.356 16.5447 149.22 16.5447 102.401C16.4274 55.4645 54.5632 17.3286 101.5 17.3286C148.319 17.3286 186.455 55.4645 186.455 102.284C186.455 149.22 148.319 187.356 101.5 187.356ZM101.5 17.9153C54.9152 17.9153 17.0141 55.8165 17.0141 102.401C17.0141 148.985 54.9152 186.886 101.5 186.886C148.084 186.886 185.985 148.985 185.985 102.401C185.868 55.8165 148.084 17.9153 101.5 17.9153Z" fill="#ED7300"/>
<path d="M26.8688 95.3645C27.1018 95.2871 27.2969 95.2506 27.4542 95.255C27.7792 95.2641 28.0482 95.3975 28.2613 95.6553C28.4639 95.9128 28.5597 96.2407 28.5485 96.6391C28.5326 97.2052 28.316 97.6346 27.8986 97.9271C27.4812 98.2197 26.9233 98.4716 26.2249 98.6829L24.7964 99.1149C24.3307 99.2593 23.9473 99.4636 23.6461 99.728C23.3452 99.9818 23.1873 100.376 23.1723 100.911L23.1648 101.178L25.901 101.255C26.7292 101.278 27.3925 101.197 27.8908 101.012C28.0029 101.13 28.1032 101.296 28.1917 101.508C28.2804 101.71 28.3212 101.942 28.3138 102.204C28.3041 102.55 28.2018 102.83 28.0069 103.045C27.8121 103.26 27.5521 103.363 27.2271 103.354L19.3329 103.132C18.5361 103.11 17.8729 103.191 17.3431 103.376C17.231 103.257 17.1306 103.097 17.0418 102.895C16.9533 102.683 16.9128 102.445 16.9201 102.183C16.9298 101.837 17.032 101.562 17.2265 101.358C17.4214 101.143 17.6814 101.04 18.0064 101.049L22.41 101.157L22.3257 100.793C22.1742 100.211 21.889 99.7154 21.4704 99.305C21.052 98.8841 20.5783 98.5665 20.0492 98.3524C19.5204 98.1277 19.0201 98.0087 18.5484 97.9955C18.2653 97.9876 18.018 98.0121 17.8066 98.0692C17.585 98.1154 17.4155 98.1736 17.2981 98.2438C17.1808 97.9362 17.1259 97.6514 17.1332 97.3893C17.1599 96.4353 17.6923 95.9728 18.7301 96.0019C19.5164 96.0239 20.2687 96.3231 20.987 96.8993C21.7056 97.465 22.2592 98.2989 22.648 99.401C22.7277 98.8052 22.8926 98.3481 23.1429 98.0299C23.3934 97.7012 23.7519 97.4489 24.2185 97.2732L25.9053 96.6122C26.3089 96.4347 26.5858 96.2903 26.7358 96.1791C26.8858 96.0679 26.9684 95.9286 26.9836 95.7611L26.9853 95.6982C26.9883 95.5934 26.9494 95.4821 26.8688 95.3645Z" fill="black"/>
<path d="M32.994 76.7512C32.4087 78.0978 31.5279 78.9271 30.3516 79.2392C29.1795 79.5416 27.7229 79.3145 25.982 78.5577C24.2507 77.8052 23.0958 76.8972 22.5174 75.8339C21.9431 74.7609 21.9486 73.5511 22.5339 72.2045C23.1193 70.8579 23.998 70.0334 25.1701 69.7309C26.3464 69.4189 27.8002 69.6391 29.5315 70.3917C31.2725 71.1484 32.4301 72.0633 33.0044 73.1362C33.5828 74.1996 33.5794 75.4046 32.994 76.7512ZM32.3304 76.4627C32.6314 75.7702 32.4902 75.1084 31.9068 74.4774C31.3137 73.8423 30.2189 73.1777 28.6222 72.4837C27.0255 71.7897 25.7975 71.4446 24.9382 71.4484C24.0692 71.4481 23.4842 71.7942 23.1832 72.4867C22.8822 73.1792 23.0261 73.8479 23.6149 74.4927C24.208 75.1278 25.298 75.7903 26.8851 76.4801C28.4721 77.17 29.7001 77.5151 30.5691 77.5154C31.4422 77.5061 32.0293 77.1552 32.3304 76.4627Z" fill="black"/>
<path d="M44.0213 57.3745C43.8157 57.6263 43.5676 57.7893 43.2769 57.8635C42.9886 57.3709 42.491 56.8361 41.7841 56.2591L36.7387 52.1407C36.0643 51.5902 35.4805 51.161 34.9872 50.8531C34.962 50.7513 34.9895 50.6181 35.0698 50.4535C35.1566 50.2807 35.2631 50.1171 35.3891 49.9628C35.5549 49.7596 35.682 49.6536 35.7706 49.6446C36.2289 49.6803 37.4871 49.7393 39.5453 49.8218C41.4167 49.9008 42.8329 49.9737 43.7937 50.0405C44.7612 50.0992 45.5129 50.1983 46.0488 50.3379L40.2485 46.2735L40.0679 46.1464C39.7998 45.9275 39.6342 45.6908 39.5712 45.4363C39.5148 45.1737 39.5739 44.9106 39.7485 44.6469C39.9445 44.3737 40.1764 44.1974 40.4441 44.1181C40.6748 44.4824 41.1313 44.9431 41.8138 45.5002L47.0809 49.8198C47.804 50.41 48.3764 50.8366 48.7981 51.0996C48.8085 51.2029 48.7736 51.3369 48.6934 51.5015C48.6279 51.6647 48.5354 51.8194 48.4161 51.9656C48.2768 52.1362 48.157 52.2415 48.0567 52.2815C43.7134 52.378 40.3745 52.1977 38.0399 51.7407L43.7539 55.8362C44.0338 56.0241 44.1935 56.2762 44.2329 56.5928C44.2643 56.9027 44.1938 57.1632 44.0213 57.3745Z" fill="black"/>
<path d="M63.784 39.7493C63.4963 39.9007 63.2042 39.9537 62.9077 39.9083C62.8349 39.3422 62.586 38.6554 62.161 37.848L59.1272 32.0848C58.7217 31.3145 58.3522 30.6913 58.0185 30.215C58.0351 30.1115 58.1125 29.9996 58.2508 29.8794C58.3983 29.7544 58.5602 29.6454 58.7365 29.5526C58.9685 29.4305 59.127 29.3826 59.212 29.409C59.6199 29.6209 60.7549 30.1672 62.617 31.0478C64.3086 31.8522 65.5836 32.473 66.4418 32.9101C67.3094 33.3423 67.9625 33.7274 68.4011 34.0654L64.6515 28.0568L64.535 27.8692C64.3738 27.563 64.3139 27.2804 64.3555 27.0215C64.4062 26.7577 64.5635 26.5386 64.8273 26.3642C65.1145 26.1894 65.3968 26.1178 65.6743 26.1495C65.7441 26.575 65.9843 27.1775 66.3946 27.957L69.5537 33.9921C69.9885 34.8181 70.3485 35.4345 70.6338 35.8414C70.603 35.9405 70.5185 36.0502 70.3803 36.1704C70.2562 36.2949 70.1107 36.4012 69.9436 36.4891C69.7487 36.5917 69.5973 36.6418 69.4894 36.6393C65.454 35.0301 62.4513 33.5588 60.4813 32.2254L64.1393 38.2289C64.3234 38.5112 64.3718 38.8058 64.2844 39.1125C64.1921 39.41 64.0253 39.6223 63.784 39.7493Z" fill="black"/>
<path d="M90.4766 30.0819C90.1423 30.1714 89.8444 30.1536 89.5828 30.0282C89.3212 29.9029 89.1483 29.6832 89.0641 29.3691L87.0202 21.7409C86.8139 20.971 86.5466 20.3585 86.2184 19.9036C86.3 19.7623 86.4248 19.6203 86.5928 19.4775C86.771 19.3321 86.9867 19.2254 87.24 19.1575C87.5743 19.068 87.8723 19.0858 88.1339 19.2112C88.3955 19.3365 88.5683 19.5562 88.6525 19.8703L90.6965 27.4985C90.9109 28.2988 91.1782 28.9113 91.4982 29.3358C91.4166 29.4771 91.2868 29.6205 91.1086 29.766C90.9405 29.9087 90.7299 30.014 90.4766 30.0819Z" fill="black"/>
<path d="M111.887 30.0007C110.512 29.7658 109.526 29.0919 108.929 27.9791C108.342 26.8681 108.201 25.4183 108.507 23.6298C108.812 21.8414 109.441 20.5283 110.393 19.6908C111.346 18.8429 112.531 18.54 113.947 18.7819C114.526 18.8808 115.067 19.0477 115.569 19.2825C116.072 19.5173 116.465 19.8025 116.748 20.1382C117.041 20.4756 117.156 20.8304 117.093 21.2025C117.038 21.523 116.846 21.7774 116.515 21.9657C116.187 22.1437 115.771 22.1843 115.266 22.0874C115.372 20.5309 114.903 19.6634 113.859 19.485C113.084 19.3526 112.44 19.6629 111.928 20.416C111.419 21.1588 111.022 22.3573 110.74 24.0113C110.457 25.6654 110.427 26.9317 110.649 27.8103C110.873 28.6784 111.368 29.1779 112.133 29.3086C112.691 29.4039 113.181 29.2749 113.603 28.9214C114.026 28.568 114.359 27.9865 114.604 27.1771C114.752 27.1812 114.862 27.1894 114.935 27.2018C115.307 27.2653 115.611 27.4131 115.848 27.6451C116.096 27.8789 116.192 28.156 116.137 28.4765C116.06 28.9314 115.806 29.2924 115.378 29.5597C114.949 29.8269 114.42 29.9972 113.79 30.0705C113.173 30.1352 112.538 30.112 111.887 30.0007Z" fill="black"/>
<path d="M139.174 36.8316C138.774 37.5568 138.541 38.1833 138.477 38.7111C138.321 38.7563 138.127 38.7694 137.898 38.7506C137.678 38.7368 137.453 38.6665 137.224 38.5397C136.921 38.3723 136.719 38.1527 136.617 37.8809C136.516 37.6092 136.544 37.331 136.701 37.0465L138.801 33.2462L135.139 31.2221L133.708 33.8106C133.307 34.5358 133.075 35.1623 133.011 35.6901C132.854 35.7353 132.661 35.7484 132.432 35.7296C132.212 35.7158 131.987 35.6455 131.758 35.5187C131.455 35.3513 131.253 35.1317 131.151 34.8599C131.05 34.5882 131.078 34.31 131.235 34.0254L135.055 27.1135C135.44 26.4158 135.673 25.7894 135.752 25.234C135.909 25.1888 136.097 25.1731 136.317 25.1869C136.547 25.2058 136.776 25.2786 137.005 25.4054C137.308 25.5728 137.511 25.7924 137.612 26.0642C137.713 26.336 137.686 26.6141 137.528 26.8987L135.672 30.2583L139.334 32.2824L140.521 30.1345C140.907 29.4369 141.139 28.8104 141.218 28.255C141.375 28.2099 141.564 28.1942 141.784 28.2079C142.013 28.2268 142.242 28.2996 142.472 28.4264C142.765 28.5888 142.963 28.8058 143.064 29.0776C143.175 29.3544 143.152 29.6351 142.994 29.9197L139.174 36.8316Z" fill="black"/>
<path d="M153.535 51.2216C153.32 50.9499 153.219 50.6692 153.231 50.3793C153.242 50.0895 153.376 49.8439 153.631 49.6424L159.83 44.7501C160.456 44.2563 160.913 43.7688 161.201 43.2875C161.363 43.3066 161.543 43.3651 161.741 43.4631C161.945 43.5693 162.128 43.7253 162.29 43.9311C162.505 44.2028 162.606 44.4835 162.594 44.7734C162.583 45.0632 162.449 45.3088 162.194 45.5103L155.994 50.4026C155.344 50.9159 154.887 51.4034 154.624 51.8652C154.462 51.8461 154.279 51.7835 154.075 51.6773C153.877 51.5793 153.697 51.4274 153.535 51.2216Z" fill="black"/>
<path d="M181.583 75.04C181.739 75.4181 181.792 75.7136 181.744 75.9264C181.7 76.1489 181.542 76.3161 181.27 76.4281C181.047 76.52 180.685 76.5901 180.183 76.6383L170.738 77.7932C170.388 77.4386 170.127 77.0528 169.955 76.6358C169.687 75.9862 169.711 75.5507 170.028 75.3292L175.91 70.9809L168.369 72.0484C168.015 71.6841 167.758 71.308 167.598 70.9202C167.302 70.2027 167.314 69.738 167.636 69.5262L175.445 63.7873C175.579 63.6983 175.715 63.5741 175.853 63.4149C175.992 63.2557 176.097 63.0987 176.169 62.9441C176.545 63.0843 176.837 63.4064 177.044 63.9106C177.34 64.6281 177.266 65.1353 176.821 65.4321L169.247 70.5462L176.493 69.4643C176.664 69.4391 176.827 69.3946 176.982 69.3306C177.205 69.2386 177.396 69.109 177.554 68.9418C177.717 69.0901 177.873 69.2754 178.021 69.4978C178.183 69.7259 178.308 69.9466 178.396 70.1599C178.504 70.4217 178.551 70.6578 178.535 70.8683C178.52 71.0788 178.438 71.2375 178.289 71.3442L171.625 76.2705L179.887 74.5993C179.968 74.577 180.076 74.5496 180.21 74.517C180.348 74.4941 180.466 74.4627 180.562 74.4227C180.747 74.3467 180.884 74.2391 180.974 74.0999C181.114 74.2464 181.228 74.3864 181.317 74.5199C181.406 74.6533 181.495 74.8267 181.583 75.04Z" fill="black"/>
<path d="M175.897 102.594C175.467 102.72 175.142 102.888 174.922 103.098C174.607 102.825 174.45 102.421 174.45 101.886C174.45 101.561 174.518 101.283 174.655 101.052C174.791 100.832 174.99 100.696 175.252 100.643L177.895 99.9355L177.895 96.3801L175.866 95.861C175.593 95.7876 175.363 95.7508 175.174 95.7508C174.954 95.7508 174.786 95.8085 174.67 95.9239C174.597 95.7246 174.545 95.5411 174.513 95.3733C174.471 95.216 174.45 95.0219 174.45 94.7912C174.45 94.3927 174.518 94.099 174.655 93.9102C174.791 93.7319 175.011 93.6428 175.315 93.6428C175.567 93.6428 175.924 93.711 176.385 93.8473L185.588 96.9465C185.777 97.5233 185.871 98.1001 185.871 98.6769C185.871 99.3062 185.646 99.6785 185.195 99.7939L175.897 102.594ZM179.012 99.6366L184.644 98.1263L179.012 96.6633L179.012 99.6366Z" fill="black"/>
<path d="M46.3383 90.2103C46.3383 90.2103 48.7906 92.9818 52.1546 94.9779C52.7839 95.3492 53.443 95.6962 54.1283 95.9918C57.0285 97.2458 59.488 96.4572 61.7045 95.7536C64.2795 94.9398 66.5201 94.2532 68.7122 97.0607C69.315 97.8332 69.8751 98.6558 70.4952 99.4904C72.3993 102.065 74.8195 104.744 80.5308 106.34L83.0674 102.685C77.5053 101.351 76.2242 100.998 73.8821 95.1507C73.6732 94.6256 73.4546 94.054 73.2186 93.4332C70.6058 86.4308 66.2438 88.0048 62.3627 89.1737C60.4601 89.7474 58.6777 90.2199 57.2698 89.5383C56.6906 89.2576 56.1607 88.9203 55.6787 88.5434C52.7826 86.2803 51.5945 82.6772 51.5426 82.5169C51.5339 82.7168 51.1502 89.4686 46.3383 90.2103Z" fill="white"/>
<g opacity="0.3">
<path opacity="0.25" d="M52.1631 94.9766C52.7925 95.348 53.4515 95.695 54.1368 95.9905C57.0371 97.2445 59.4965 96.4559 61.713 95.7523C61.2948 94.9525 61.0778 94.0273 61.1465 92.967C61.2172 91.8512 61.5981 90.5914 62.3738 89.1776C60.4711 89.7514 58.6887 90.2238 57.2809 89.5422C56.7017 89.2615 56.1718 88.9242 55.6897 88.5473C55.6938 90.7165 54.9728 93.2544 52.1631 94.9766Z" fill="#371A45"/>
</g>
<path d="M78.9004 106.593C73.331 104.682 71.1631 101.667 69.232 98.9838C68.8617 98.4681 68.5115 97.9809 68.1458 97.5143C66.2476 95.084 64.4153 95.6645 61.875 96.4643C59.5737 97.1906 56.9653 98.0145 53.8384 96.6611C49.4059 94.739 45.945 90.8571 45.7997 90.695C45.6241 90.4965 45.571 90.2149 45.661 89.9651C45.751 89.7153 45.972 89.532 46.2337 89.4922C50.4633 88.8401 50.8186 82.545 50.8219 82.4856C50.8401 82.1335 51.1021 81.8433 51.4483 81.7937C51.7932 81.7479 52.1236 81.9562 52.2272 82.2898C52.2408 82.3376 53.7782 87.0408 57.583 88.8858C58.8292 89.4904 60.624 88.9444 62.5228 88.3694C66.3539 87.2092 71.1215 85.7615 73.8933 93.1725C76.5919 100.386 77.3464 100.567 83.2365 101.979C83.6233 102.072 83.8607 102.465 83.7652 102.855C83.6698 103.246 83.279 103.487 82.8923 103.393C76.5604 101.873 75.4266 101.402 72.543 93.6939C70.2417 87.5411 66.6868 88.619 62.9264 89.7602C60.7501 90.4214 58.6946 91.042 56.9455 90.1958C54.4085 88.9671 52.7872 86.7268 51.8561 85.0168C51.3542 86.9909 50.2254 89.5833 47.7045 90.5884C48.9588 91.8175 51.4928 94.0644 54.4045 95.3223C57.0436 96.4652 59.2781 95.7591 61.4406 95.0759C64.0542 94.2495 66.7576 93.3977 69.2675 96.6122C69.6534 97.1073 70.0099 97.601 70.3891 98.1284C72.4361 100.972 74.551 103.918 80.7191 105.641C81.1006 105.75 81.3238 106.146 81.2156 106.536C81.1086 106.923 80.7104 107.149 80.3238 107.042C79.83 106.899 79.3556 106.749 78.9004 106.593Z" fill="#000072"/>
<g opacity="0.5">
<path d="M69.8023 92.8745C70.1607 92.4404 69.3121 90.3528 67.365 90.0217C65.2608 89.6626 62.836 90.8734 63.487 91.3688C64.0224 91.777 65.0026 91.0509 67.0306 91.9064C68.8139 92.665 69.5257 93.2071 69.8023 92.8745Z" fill="white"/>
</g>
<path d="M47.5062 104.899C47.5937 104.734 50.6277 99.0796 54.7175 99.2403C55.3044 99.2624 55.8465 99.2873 56.3497 99.3109C59.1296 99.4229 60.7076 99.3542 62.3002 97.5695C62.4269 97.4319 62.5518 97.2815 62.6751 97.1183C63.742 95.7431 65.2756 95.752 67.8313 95.2521C68.7271 95.0764 69.7473 94.8415 70.9159 94.4628L71.0207 91.9787C69.8487 92.4034 68.6663 92.4874 67.4475 92.5404C65.3822 92.6322 63.2152 92.64 60.8363 94.0709C60.3735 94.3482 59.905 94.6784 59.426 95.0751C57.9453 96.3006 56.7487 96.1584 55.541 95.7178C54.4117 95.3091 53.2793 94.6369 51.9016 94.5874C46.8445 94.4068 43.5185 99.9047 43.5185 99.9047C43.5185 99.9047 48.8407 99.8737 47.5062 104.899Z" fill="white"/>
<g opacity="0.3">
<path opacity="0.25" d="M56.356 99.3824C59.1358 99.4943 60.7139 99.4256 62.3064 97.6409C61.3104 97.0709 60.6402 95.9488 60.8422 94.1391C60.3794 94.4164 59.9108 94.7466 59.4318 95.1434C57.9512 96.3688 56.7545 96.2266 55.5468 95.7861C56.2746 96.7603 56.8905 98.0788 56.356 99.3824Z" fill="#371A45"/>
</g>
<path d="M47.5832 105.544C47.4882 105.556 47.3932 105.546 47.2976 105.507C47.0284 105.4 46.8821 105.103 46.9573 104.823C47.2958 103.549 47.1932 102.546 46.6531 101.84C45.6827 100.572 43.5436 100.547 43.521 100.547C43.2858 100.549 43.0728 100.405 42.988 100.182C42.9093 99.9803 42.947 99.7569 43.0834 99.5952C43.0966 99.5739 43.1213 99.5412 43.1514 99.5013C44.6265 97.3707 47.726 93.8356 51.9337 94.0815C53.0264 94.1465 53.977 94.5466 54.8153 94.9032C56.3545 95.5533 57.4661 96.0231 59.0659 94.7001C62.0094 92.2613 64.6886 92.1522 67.0529 92.0527C68.3748 91.9989 69.6226 91.9453 70.8287 91.5094C71.1239 91.4013 71.4511 91.5561 71.5558 91.8549C71.6637 92.1532 71.5112 92.4833 71.2124 92.5886C69.8404 93.0858 68.4479 93.1426 67.0974 93.2003C64.8069 93.2964 62.4358 93.3934 59.7852 95.5875C57.6573 97.3497 55.913 96.6131 54.377 95.9625C53.5869 95.6288 52.7662 95.2829 51.8687 95.2308C48.6037 95.0374 46.029 97.5798 44.5616 99.5041C45.4646 99.6695 46.7462 100.084 47.5526 101.139C47.9165 101.614 48.1452 102.164 48.2413 102.783C49.5753 100.994 51.8865 98.6271 54.7373 98.7393C55.0651 98.7539 55.3798 98.767 55.6814 98.7786C59.1213 98.9289 60.5464 98.9948 62.2239 96.8337C63.2306 95.5383 64.5678 95.3097 66.4189 94.9925C67.5668 94.7959 68.9922 94.5522 70.7388 93.985C71.0384 93.8861 71.3579 94.055 71.4567 94.3578C71.5523 94.661 71.389 94.9828 71.0894 95.0817C69.2654 95.6723 67.7928 95.9256 66.61 96.1269C64.8912 96.4198 63.8538 96.5984 63.1195 97.5443C61.0815 100.168 59.1473 100.082 55.6323 99.9257C55.3339 99.9137 55.0188 99.8974 54.6914 99.886C50.9421 99.7382 48.0321 105.187 48.0041 105.243C47.9206 105.413 47.7607 105.52 47.5832 105.544ZM43.1321 99.5496C43.1234 99.5572 43.1089 99.569 43.0925 99.5907C43.1034 99.5762 43.1175 99.5613 43.1321 99.5496Z" fill="#000072"/>
<g opacity="0.5">
<path d="M51.8421 96.7137C51.7655 96.2874 50.1237 95.7618 48.9667 96.7548C47.7169 97.8254 47.2316 99.8556 47.8422 99.7181C48.346 99.6015 48.4036 98.6618 49.906 97.8864C51.23 97.2001 51.9027 97.0445 51.8421 96.7137Z" fill="white"/>
</g>
<g clip-path="url(#clip0_100_4737)">
<path d="M133.81 182.44C133.81 182.44 150.63 189.161 165.335 179.233C179.903 169.407 173.864 148.902 171.169 141.704C168.508 134.539 169.292 124.542 175.126 123.075C175.945 122.871 176.901 122.837 177.958 123.007C186.385 124.372 178.265 137.302 187.034 140.202C190.923 141.499 199.077 137.541 197.746 124.133C196.723 113.932 188.262 108.439 179.459 108.78C172.67 109.053 165.71 112.772 161.752 120.448C152.677 138.087 168.235 149.79 165.335 163.164C162.878 174.457 152.677 178.517 136.983 173.024L133.81 182.44Z" fill="white"/>
<path d="M175.126 123.075C175.945 122.871 176.901 122.837 177.958 123.007C186.385 124.372 178.265 137.302 187.034 140.202C190.923 141.499 199.077 137.541 197.746 124.133C196.723 113.932 188.262 108.439 179.459 108.78L180.312 110.793C180.79 111.919 180.244 113.215 179.118 113.693C177.822 114.239 177.344 115.842 178.163 117.002L178.402 117.378C179.016 118.265 178.879 119.493 178.095 120.244L175.126 123.075Z" fill="#00BCFF"/>
<path d="M146.843 185.75C152.301 185.75 159.33 184.624 165.948 180.12C180.858 170.09 175.297 149.653 172.226 141.328C170.111 135.631 170.452 128.807 172.943 125.737C174.137 124.304 175.74 123.758 177.787 124.065C180.926 124.577 181.165 126.897 181.267 130.957C181.404 134.778 181.54 139.554 186.692 141.26C188.875 141.977 191.741 141.294 193.993 139.486C196.211 137.712 199.759 133.379 198.838 124.031C198.019 115.74 192.39 109.633 184.133 108.03C176.32 106.563 166.085 109.667 160.763 119.937C155.235 130.684 158.545 139.452 161.445 147.197C163.492 152.587 165.403 157.671 164.277 162.925C163.321 167.36 161.138 170.567 157.76 172.444C152.95 175.139 145.887 174.968 137.358 171.966C136.778 171.761 136.164 172.068 135.959 172.648C135.754 173.228 136.061 173.843 136.641 174.047C145.785 177.254 153.461 177.391 158.852 174.388C162.707 172.239 165.334 168.418 166.426 163.403C167.688 157.534 165.675 152.144 163.526 146.446C160.626 138.77 157.658 130.82 162.741 120.96C167.518 111.68 176.73 108.883 183.758 110.213C190.991 111.578 195.938 116.968 196.654 124.235C197.473 132.56 194.471 136.279 192.628 137.78C190.718 139.315 188.603 139.588 187.374 139.179C183.928 138.019 183.587 135.29 183.451 130.888C183.314 127.067 183.212 122.734 178.128 121.915C175.331 121.438 172.943 122.291 171.237 124.338C167.791 128.5 168.132 136.586 170.145 142.079C173.045 149.926 178.333 169.168 164.72 178.346C150.664 187.831 134.355 181.519 134.185 181.451C133.639 181.212 132.991 181.485 132.752 182.065C132.513 182.611 132.786 183.259 133.366 183.498C133.537 183.566 137.801 185.238 143.943 185.681C144.864 185.715 145.819 185.75 146.843 185.75Z" fill="#000072"/>
<g opacity="0.3">
<path d="M133.81 182.44C133.81 182.44 150.63 189.161 165.335 179.233C179.903 169.407 173.864 148.902 171.169 141.703C168.508 134.539 169.292 124.542 175.126 123.075C175.945 122.87 176.901 122.836 177.958 123.007C186.385 124.372 178.265 137.302 187.034 140.202C190.923 141.499 199.077 137.541 197.746 124.133C197.474 121.403 196.689 119.015 195.495 117.002C195.665 117.719 195.768 118.469 195.836 119.22C197.132 132.628 190.855 135.528 187.579 133.14C182.291 129.285 186.522 118.64 176.048 118.094C168.064 117.65 164.823 130.376 167.177 137.814C169.497 145.149 177.992 164.528 163.424 174.354C152.643 181.621 140.736 179.983 135.141 178.55L133.81 182.44Z" fill="#B3EBFF"/>
</g>
</g>
<path d="M155.655 206.52L136.138 208.715L138.403 200.455L145.52 174.579C149.024 175.167 151.916 176.397 154.158 178.168C160.884 183.481 161.746 193.716 155.655 206.52Z" fill="white"/>
<path d="M68.1631 210.901L51.0989 206.521C49.3274 204.013 47.8538 201.599 46.7015 199.288C40.4778 186.781 43.5583 177.118 58.6238 171.108L63.2249 178.968L64.7456 188.81L68.1631 210.901Z" fill="white"/>
<g opacity="0.3">
<path d="M155.655 206.521L136.138 208.715L138.403 200.455C140.198 199.507 142.024 198.583 143.812 197.705C157.341 191.028 154.26 178.568 154.158 178.168C160.884 183.482 161.746 193.716 155.655 206.521Z" fill="#00BCFF"/>
</g>
<g opacity="0.55">
<path d="M48.6846 201.051C49.6017 202.892 50.7226 204.797 52.0317 206.756L51.0989 206.521C49.3274 204.013 47.8538 201.599 46.7015 199.288C40.4778 186.781 43.5583 177.118 58.6238 171.108L59.8387 173.192C45.4395 179.218 42.5707 188.763 48.6846 201.051Z" fill="white"/>
</g>
<path d="M132.25 211.771C131.913 212.006 131.568 212.233 131.231 212.46L102.15 215.712L96.8277 216.308C96.8277 216.308 87.6509 217.252 82.3814 215.712C77.1118 214.173 70.1849 208.722 70.1849 208.722C54.1005 196.701 53.9045 170.167 69.0718 140.247C70.1927 138.014 71.4155 135.772 72.7089 133.508L137.642 145.49C138.779 148.554 139.79 151.484 140.684 154.274C141.193 155.881 141.664 157.44 142.102 158.96C151.148 190.424 143.976 203.66 132.25 211.771Z" fill="white"/>
<path d="M132.25 211.771C131.913 212.006 131.568 212.233 131.231 212.46L102.15 215.712L96.8277 216.308C96.8277 216.308 87.6509 217.252 82.3814 215.712C77.1118 214.173 70.1849 208.722 70.1849 208.722C54.1005 196.701 53.9045 170.167 69.0718 140.247C70.1927 138.014 71.4155 135.772 72.7089 133.508C72.7089 133.508 65.0658 163.735 72.7089 180.359C79.378 194.864 86.504 205.547 102.15 208.722C129.902 214.355 137.642 145.49 137.642 145.49C138.779 148.554 139.79 151.484 140.684 154.274C141.193 155.881 141.664 157.44 142.102 158.96C151.148 190.424 143.976 203.66 132.25 211.771Z" fill="#00BCFF"/>
<path d="M69.7583 208.336C73.4544 212.43 85.9642 220.277 101.658 216.183" stroke="#000070" stroke-width="2.11773"/>
<g opacity="0.3">
<path d="M68.1628 210.901L51.0985 206.52C49.327 204.013 47.8534 201.599 46.7012 199.287C58.161 200.651 59.078 193.512 58.7488 189.594C60.0814 196.349 62.9816 202.061 67.4652 206.403L68.1628 210.901Z" fill="#B3EBFF"/>
</g>
<g opacity="0.55">
<path d="M72.607 141.525C57.6199 171.092 57.6277 197.344 73.1557 209.561L70.1849 208.715C54.1005 196.694 53.9045 170.159 69.0718 140.24C70.1927 138.006 71.4155 135.765 72.7089 133.5L137.642 145.482C137.729 145.71 137.807 145.937 137.893 146.164L76.2519 134.793C74.9507 137.042 73.7279 139.291 72.607 141.525Z" fill="white"/>
</g>
<g clip-path="url(#clip1_100_4737)">
<path d="M152.638 113.399C153.305 117.17 155.231 120.858 155.099 122.076C154.814 124.54 149.307 121.603 149.307 121.603C149.307 121.603 148.98 122.375 150.079 124.581C150.892 126.224 151.615 127.427 151.275 128.304C150.913 129.244 149.314 129.432 147.443 129.216C146.136 129.063 145.023 129.23 143.577 130.796C143.285 131.095 142.993 131.457 142.687 131.874H142.68C138.341 136.884 133.07 141.498 126.075 144.769C119.587 147.803 91.0218 157.775 65.6343 138.054C62.4009 135.541 59.5012 132.647 57.2761 129.098C56.7267 128.938 56.1913 128.944 55.6072 129.007C53.7436 129.216 52.1374 129.021 51.7827 128.082C51.449 127.205 52.0609 125.897 52.8049 124.212C53.4099 122.856 53.6463 122 53.7367 121.617C53.7575 121.519 53.6811 121.443 53.5976 121.478C52.638 121.958 48.2364 124.032 47.9861 121.833C47.847 120.615 49.8009 116.934 50.4824 113.162C51.6019 107.01 52.4781 102.682 53.0413 100.072C53.0552 100.003 53.0691 99.9332 53.09 99.8567C53.1039 99.7871 53.1178 99.7175 53.1317 99.6549C53.1456 99.5853 53.1665 99.5227 53.1734 99.46C53.3403 98.7015 53.5281 97.95 53.7367 97.1984C54.6963 93.733 56.0661 90.2953 57.8184 86.4053C55.2943 82.0213 44.6553 62.5436 50.4615 55.1534C53.7784 50.9294 76.461 59.3634 81.4189 61.2841C86.8497 58.6745 93.0105 57.067 99.8529 56.7748C101.237 56.7121 102.593 56.7121 103.914 56.7678C103.949 56.7609 103.983 56.7678 104.018 56.7678C108.475 56.9348 112.467 58.083 116.298 59.4261C116.75 59.5861 117.195 59.7462 117.64 59.9062C119.462 60.5673 121.18 61.3467 122.814 62.2096C127.841 60.456 151.351 52.5021 154.529 56.8304C160.078 64.3807 148.903 83.3991 146.199 87.7832C146.852 89.2167 147.436 90.6293 147.951 92.0559C148.57 93.7608 149.077 95.4866 149.488 97.268C149.488 97.268 149.495 97.2959 149.508 97.3654C149.62 97.8595 150.169 100.267 151.031 104.728C151.49 107.052 152.033 109.933 152.638 113.399Z" fill="white"/>
<path d="M59.8081 107.011C57.2604 103.462 53.6746 102.006 52.2002 101.721L55.3849 89.6064H148.449L151.141 101.718L148.449 102.916C147.388 103.769 144.769 106.226 142.788 109.229C140.311 112.983 135.357 114.348 130.933 114.348C126.51 114.348 119.787 110.082 114.833 107.693C109.879 105.305 101.209 105.134 95.9016 105.475C90.5937 105.817 79.2703 113.324 72.547 114.348C65.8237 115.372 62.9928 111.447 59.8081 107.011Z" fill="#00BCFF"/>
<path d="M146.024 96.7712C146.024 86.1843 141.351 76.0311 133.033 68.5451C124.715 61.0591 113.434 56.8535 101.671 56.8535C89.9077 56.8535 78.6263 61.0591 70.3085 68.5451C61.9908 76.0311 57.3179 86.1843 57.3179 96.7712L101.671 96.7712H146.024Z" fill="#00BCFF" fill-opacity="0.58"/>
<path d="M146.024 100.183C146.024 89.5957 141.351 79.4425 133.033 71.9565C124.715 64.4705 113.434 60.2649 101.671 60.2649C89.9077 60.2649 78.6263 64.4705 70.3085 71.9565C61.9908 79.4425 57.3179 89.5957 57.3179 100.183L101.671 100.183H146.024Z" fill="#00BCFF"/>
<g opacity="0.25">
<path d="M150.086 124.581C150.906 126.223 151.622 127.427 151.282 128.304C150.92 129.243 149.321 129.431 147.45 129.216C146.143 129.063 145.037 129.23 143.591 130.795C143.306 131.094 143.007 131.456 142.701 131.867H142.694C138.355 136.877 133.077 141.491 126.089 144.762C119.608 147.803 91.0356 157.768 65.6551 138.046C62.4216 135.534 59.515 132.639 57.2899 129.09C56.7406 128.937 56.2051 128.937 55.621 129C53.7575 129.209 52.1512 129.014 51.7966 128.074C51.4628 127.191 52.0747 125.889 52.8187 124.205C52.923 123.962 53.0204 123.732 53.1038 123.516C53.7853 123.669 54.6684 123.662 55.621 123.558C56.2051 123.495 56.7406 123.495 57.2899 123.649C59.515 127.205 62.4216 130.099 65.6551 132.605C91.0426 152.326 119.608 142.354 126.089 139.32C133.077 136.042 138.355 131.435 142.694 126.425H142.701C143.007 126.008 143.306 125.653 143.591 125.347C145.037 123.788 146.15 123.614 147.45 123.767C148.291 123.864 149.077 123.878 149.724 123.781C149.821 124.031 149.939 124.296 150.086 124.581Z" fill="#B3EBFF"/>
</g>
<path d="M78.4149 146.028C76.2106 145.339 74.0759 144.435 72.0037 143.391C70.9746 142.862 69.9594 142.298 68.958 141.7C67.9637 141.094 66.9902 140.461 66.0375 139.8C65.0918 139.125 64.1531 138.429 63.2491 137.685C62.3452 136.94 61.469 136.154 60.6276 135.319C58.9449 133.662 57.4359 131.804 56.1495 129.793L56.9005 130.357C56.6502 130.287 56.379 130.26 56.0383 130.28C55.9548 130.287 55.8644 130.294 55.774 130.301L55.4333 130.336C55.1969 130.357 54.9535 130.371 54.7101 130.385C54.2164 130.399 53.7088 130.392 53.1664 130.308C52.8883 130.26 52.6102 130.211 52.3042 130.1C51.9982 129.995 51.6714 129.856 51.3376 129.592C51.0108 129.341 50.684 128.924 50.531 128.478C50.385 128.061 50.3572 127.657 50.3781 127.33C50.4267 126.655 50.5936 126.154 50.7535 125.688C50.9204 125.221 51.1082 124.804 51.289 124.393L51.8105 123.217C51.9704 122.842 52.1234 122.459 52.2486 122.083C52.3112 121.895 52.3737 121.707 52.4224 121.533L52.4572 121.401L52.4711 121.345C52.485 121.283 52.4433 121.45 52.4433 121.554C52.4433 121.665 52.4502 121.784 52.485 121.895C52.5545 122.132 52.6936 122.368 52.9717 122.549C53.236 122.737 53.681 122.8 54.0078 122.681C54.0495 122.668 54.0913 122.654 54.133 122.633C54.1608 122.619 54.133 122.633 54.1399 122.633L54.126 122.64L54.0913 122.654L54.0148 122.688C53.1734 123.092 52.3251 123.447 51.3933 123.725C50.9274 123.864 50.4406 123.983 49.8913 124.045C49.6201 124.073 49.3211 124.087 48.9873 124.059C48.6536 124.025 48.2711 123.955 47.8539 123.718C47.4367 123.496 47.0542 123.036 46.8943 122.591C46.8039 122.368 46.7691 122.167 46.7413 121.965C46.7344 121.86 46.7344 121.756 46.7344 121.652V121.498C46.7344 121.45 46.7413 121.422 46.7483 121.38C46.8248 120.74 46.9778 120.302 47.1168 119.856C47.4089 118.972 47.7148 118.165 48.0069 117.351C48.2989 116.544 48.5701 115.737 48.7996 114.936C48.9108 114.533 49.0152 114.136 49.1055 113.732C49.1959 113.329 49.2655 112.939 49.3559 112.501L49.8565 109.926L51.887 99.5504L51.8661 99.6339C51.9913 99.0076 52.1582 98.4301 52.3042 97.8246L52.5267 96.927L52.777 96.0501C53.1247 94.8811 53.5072 93.7259 53.9244 92.5847C54.7588 90.3022 55.7045 88.0893 56.685 85.8973L56.7406 87.0107C55.3568 84.596 54.0774 82.1465 52.8953 79.6343C51.7131 77.1222 50.6284 74.5614 49.7105 71.917C48.7926 69.2796 48.0416 66.5518 47.6801 63.6917C47.5062 62.2652 47.4506 60.7969 47.6175 59.3007C47.7844 57.8115 48.2294 56.2667 49.1264 54.9097L49.4741 54.4087C49.5436 54.3182 49.6549 54.1999 49.7453 54.1025C49.8426 54.0051 49.9469 53.9216 50.0443 53.8381C50.4615 53.518 50.8926 53.3162 51.3029 53.17C52.1373 52.8847 52.9092 52.8082 53.6671 52.7664C55.1691 52.7038 56.5946 52.8569 57.9922 53.0517C60.7876 53.4693 63.4856 54.1303 66.1557 54.868C71.51 56.3641 76.7113 58.1664 81.8639 60.1358L80.8904 60.1775C82.6844 59.3216 84.5271 58.577 86.4046 57.9507C88.289 57.3314 90.2082 56.8304 92.1552 56.4476C94.1022 56.0649 96.0631 55.8074 98.0379 55.6543C100.006 55.5082 101.988 55.4525 103.969 55.543L103.761 55.5499C103.907 55.536 104.067 55.536 104.213 55.5569L104.067 55.543C105.777 55.6126 107.474 55.8144 109.143 56.1345C110.812 56.4615 112.446 56.886 114.045 57.3871C114.845 57.6376 115.637 57.8951 116.423 58.1734C117.209 58.4518 117.974 58.7162 118.78 59.0224C120.359 59.6278 121.903 60.3376 123.391 61.1239L122.417 61.0543C127.667 59.2381 132.966 57.5749 138.383 56.2249C141.095 55.5569 143.827 54.9654 146.65 54.5966C148.062 54.4226 149.494 54.2974 150.99 54.353C151.74 54.3948 152.505 54.4644 153.326 54.701C153.729 54.8193 154.153 54.9793 154.578 55.2438C154.786 55.376 155.002 55.536 155.196 55.7309C155.294 55.8213 155.384 55.9396 155.475 56.044C155.523 56.1066 155.551 56.1414 155.579 56.1832L155.662 56.3084C156.587 57.6724 157.039 59.2451 157.199 60.7482C157.366 62.2652 157.269 63.7474 157.067 65.1879C156.643 68.0619 155.801 70.7897 154.8 73.4271C153.799 76.0645 152.624 78.6184 151.351 81.1096C150.079 83.6009 148.709 86.0364 147.242 88.4233L147.311 87.2681C148.737 90.3718 149.912 93.6285 150.677 96.9896L150.697 97.094L152.304 104.881L153.764 112.779L153.945 113.725C154.007 114.032 154.084 114.338 154.16 114.644C154.313 115.256 154.508 115.876 154.703 116.495C155.106 117.741 155.579 118.945 156.01 120.309C156.114 120.663 156.219 121.004 156.281 121.478C156.316 121.679 156.337 122.027 156.281 122.334C156.253 122.487 156.226 122.64 156.156 122.814C156.1 122.981 156.003 123.148 155.899 123.308C155.676 123.621 155.342 123.892 155.036 124.018C154.877 124.101 154.737 124.136 154.585 124.178C154.445 124.212 154.306 124.233 154.174 124.254C153.66 124.31 153.229 124.261 152.832 124.192C152.039 124.052 151.351 123.816 150.677 123.558C150.002 123.294 149.383 123.015 148.723 122.675L150.426 122.069L150.447 122.006L150.454 121.986L150.461 121.958L150.468 121.93L150.475 121.909C150.475 121.902 150.475 121.916 150.475 121.923C150.475 121.951 150.475 121.993 150.475 122.041C150.482 122.139 150.503 122.264 150.531 122.389C150.586 122.647 150.684 122.939 150.795 123.224C150.906 123.517 151.045 123.802 151.191 124.101L151.671 125.054C151.831 125.381 151.998 125.722 152.158 126.098C152.311 126.481 152.471 126.892 152.547 127.441C152.575 127.727 152.582 128.033 152.512 128.381C152.443 128.708 152.276 129.091 152.04 129.383C151.553 129.96 150.983 130.176 150.524 130.322C149.578 130.58 148.771 130.559 147.979 130.524C147.784 130.51 147.589 130.496 147.395 130.475L147.144 130.454C147.068 130.447 146.998 130.447 146.929 130.441C146.65 130.427 146.414 130.447 146.205 130.496C145.788 130.594 145.378 130.844 144.947 131.241C144.745 131.429 144.509 131.679 144.314 131.902C144.119 132.132 143.918 132.389 143.716 132.653L143.674 132.709L143.619 132.765C143.514 132.876 143.368 132.987 143.208 133.064C143.042 133.141 142.868 133.175 142.715 133.182L143.619 132.765C143.069 133.398 142.451 134.087 141.839 134.741C141.526 135.068 141.22 135.395 140.9 135.715C140.573 136.028 140.26 136.349 139.926 136.662C139.273 137.288 138.598 137.886 137.903 138.471C137.214 139.056 136.505 139.619 135.775 140.148C135.045 140.684 134.301 141.199 133.536 141.679C132.778 142.166 131.992 142.618 131.193 143.036C129.593 143.878 127.938 144.602 126.228 145.144C126.012 145.214 125.783 145.096 125.713 144.873C125.658 144.692 125.727 144.504 125.88 144.407C127.361 143.447 128.815 142.486 130.226 141.47C130.928 140.962 131.624 140.44 132.305 139.911C132.987 139.376 133.654 138.84 134.315 138.283C134.968 137.726 135.622 137.156 136.255 136.578C136.888 135.994 137.513 135.395 138.125 134.797C138.737 134.184 139.335 133.565 139.933 132.946C140.531 132.312 141.088 131.693 141.706 130.99L142.61 130.573C142.457 130.58 142.284 130.614 142.124 130.691C141.964 130.768 141.825 130.872 141.72 130.983L141.623 131.095C141.852 130.788 142.089 130.482 142.36 130.176C142.638 129.87 142.902 129.605 143.222 129.313C143.542 129.035 143.897 128.763 144.307 128.534C144.71 128.304 145.176 128.116 145.663 128.012C146.623 127.789 147.603 127.991 148.139 128.019C148.757 128.061 149.404 128.047 149.835 127.928C150.044 127.873 150.162 127.782 150.127 127.81C150.12 127.824 150.092 127.873 150.106 127.852C150.106 127.845 150.113 127.796 150.106 127.727C150.086 127.567 150.009 127.302 149.891 127.031C149.773 126.752 149.627 126.453 149.474 126.14L148.994 125.187C148.827 124.846 148.66 124.491 148.514 124.115C148.368 123.739 148.229 123.35 148.132 122.918C148.083 122.695 148.041 122.473 148.027 122.215C148.02 122.083 148.013 121.951 148.02 121.798C148.027 121.721 148.027 121.645 148.048 121.547C148.055 121.498 148.062 121.457 148.076 121.394L148.097 121.297L148.118 121.234L148.132 121.192L148.159 121.116L148.632 119.884L149.863 120.51C150.934 121.053 152.179 121.582 153.229 121.777C153.486 121.819 153.729 121.832 153.882 121.819C153.952 121.812 154 121.798 153.98 121.798C153.98 121.798 153.91 121.832 153.882 121.888C153.861 121.909 153.861 121.937 153.854 121.937C153.854 121.958 153.854 121.944 153.854 121.937C153.854 121.916 153.861 121.923 153.84 121.798C153.84 121.714 153.792 121.561 153.771 121.443L153.653 121.018C153.284 119.835 152.784 118.548 152.366 117.254C152.158 116.599 151.956 115.938 151.782 115.256C151.692 114.915 151.615 114.574 151.539 114.227L151.344 113.204L149.891 105.34L148.264 97.428L148.285 97.5324C147.561 94.3522 146.449 91.2695 145.079 88.2841L144.808 87.6857L145.148 87.129C146.574 84.8047 147.916 82.4179 149.161 79.9892C150.398 77.5606 151.539 75.0833 152.498 72.5503C153.458 70.0242 154.251 67.4356 154.626 64.8399C154.807 63.5456 154.884 62.2443 154.744 61.0126C154.612 59.7809 154.258 58.6257 153.625 57.6932C153.375 57.1087 152.102 56.8443 150.864 56.7886C149.599 56.7329 148.271 56.8443 146.943 57.0113C144.279 57.3592 141.609 57.9368 138.96 58.5909C133.654 59.9201 128.397 61.5623 123.21 63.3577L122.709 63.5317L122.236 63.2812C120.825 62.5366 119.372 61.8755 117.883 61.2979C117.153 61.0196 116.361 60.7412 115.603 60.4768C114.838 60.2123 114.073 59.9549 113.301 59.7183C111.764 59.2381 110.221 58.8345 108.656 58.5353C107.098 58.236 105.527 58.0481 103.955 57.9855L103.83 57.9786C103.914 57.9994 103.997 57.9994 104.081 57.9786L103.872 57.9855C101.995 57.902 100.11 57.9507 98.2257 58.0969C96.3482 58.243 94.4777 58.4866 92.6281 58.8484C90.7854 59.2172 88.9635 59.6904 87.1764 60.275C85.3894 60.8665 83.651 61.5693 81.9543 62.3835L81.4745 62.6131L80.9808 62.4252C75.9047 60.4837 70.7382 58.6953 65.516 57.2409C62.9084 56.5172 60.28 55.877 57.6515 55.4873C56.3442 55.2994 55.03 55.1742 53.7923 55.2229C53.1873 55.2577 52.5823 55.3273 52.1165 55.4943C51.887 55.5708 51.6923 55.6752 51.5671 55.7726C51.5393 55.8005 51.5115 55.8213 51.4837 55.8492C51.4628 55.877 51.4489 55.8909 51.4141 55.9327L51.1777 56.2806C50.5588 57.2131 50.1973 58.3683 50.0582 59.6C49.9191 60.8317 49.9608 62.119 50.1208 63.4134C50.4476 66.0021 51.1569 68.5907 52.033 71.1237C52.9161 73.6567 53.9661 76.1549 55.1204 78.5975C56.2747 81.047 57.5333 83.4547 58.8753 85.7998L59.1883 86.3426L58.931 86.9132C57.9644 89.0705 57.0396 91.2347 56.233 93.4336C55.8297 94.5331 55.4611 95.6396 55.1343 96.753L54.8979 97.595L54.6893 98.4301C54.5572 98.9868 54.3903 99.5504 54.286 100.093L54.2651 100.177L52.2764 110.371L51.7757 112.939C51.6923 113.357 51.6019 113.823 51.5045 114.275C51.4002 114.728 51.282 115.166 51.1638 115.611C50.9135 116.488 50.6353 117.344 50.3433 118.179C50.0512 119.014 49.7453 119.842 49.4949 120.622C49.3698 121.004 49.2655 121.408 49.2377 121.638C49.2377 121.652 49.2307 121.672 49.2307 121.679C49.2307 121.679 49.2307 121.686 49.2377 121.686C49.2377 121.693 49.2377 121.7 49.2307 121.7C49.2377 121.714 49.2377 121.728 49.2307 121.707C49.2238 121.672 49.1403 121.568 49.1055 121.554C49.0708 121.533 49.1195 121.561 49.2238 121.568C49.3211 121.575 49.4671 121.575 49.6271 121.554C49.94 121.519 50.3085 121.429 50.6771 121.318C51.4141 121.088 52.179 120.761 52.9092 120.399L52.9787 120.364L53.0204 120.343L53.0413 120.336L53.0691 120.322C53.1178 120.302 53.1595 120.281 53.2082 120.267C53.5837 120.128 54.0913 120.197 54.3972 120.42C54.7171 120.636 54.8909 120.921 54.9744 121.206C55.0161 121.345 55.03 121.498 55.03 121.631C55.03 121.756 54.9883 121.951 54.9952 121.916L54.9744 122.02L54.9257 122.208C54.8631 122.452 54.7936 122.681 54.7171 122.911C54.5711 123.363 54.4042 123.802 54.2303 124.226L53.7019 125.451C53.535 125.841 53.3751 126.223 53.2429 126.585C53.1108 126.94 53.0274 127.281 53.0204 127.483C53.0135 127.587 53.0274 127.629 53.0274 127.622C53.0204 127.587 52.9717 127.532 52.9857 127.546C52.9996 127.573 53.2777 127.685 53.5837 127.727C53.9035 127.775 54.2721 127.782 54.6476 127.768C54.8353 127.761 55.03 127.747 55.2247 127.734L55.5376 127.699C55.6628 127.685 55.7949 127.678 55.927 127.664C56.4555 127.629 57.0674 127.664 57.6585 127.831L58.1522 127.97L58.4164 128.395C59.5637 130.246 60.9406 131.951 62.4564 133.544C63.2144 134.337 64.021 135.096 64.8554 135.827C65.6829 136.564 66.5451 137.267 67.4283 137.956C68.3114 138.645 69.2014 139.327 70.1193 139.967C71.0302 140.614 71.962 141.248 72.9077 141.853C74.7921 143.078 76.753 144.198 78.7487 145.277C78.9503 145.381 79.0268 145.632 78.9156 145.833C78.8043 146.007 78.6027 146.091 78.4149 146.028Z" fill="#000072"/>
<path d="M58.2829 86.1191C59.8048 82.7047 63.9695 74.8095 68.4526 70.5442C72.9357 66.2788 78.7443 62.7603 81.0881 61.5343" stroke="#000072" stroke-width="2.11773"/>
<path d="M145.854 85.6832C144.204 82.3283 139.746 74.595 135.106 70.5008C130.466 66.4067 124.53 63.1087 122.142 61.9714" stroke="#000072" stroke-width="2.11773"/>
<path d="M61.7373 77.5519C64.0459 73.2166 66.4588 70.0921 68.1902 68.1367C69.4766 66.6823 69.1359 64.4207 67.474 63.4117C63.6356 61.0874 59.3661 59.6817 56.6334 58.9441C55.1105 58.5335 53.6225 59.6887 53.6294 61.2684C53.6433 63.9614 54.0327 68.1645 55.8476 72.5834C56.8072 74.9146 57.7459 76.5708 58.5317 77.719C59.3244 78.8811 61.0767 78.7976 61.7373 77.5519Z" fill="#FF5399"/>
<path d="M61.2016 77.2664C62.196 75.1996 63.3294 73.1885 64.6089 71.2609C65.2486 70.3006 65.9161 69.3542 66.6324 68.4357L67.1747 67.7537C67.2651 67.6493 67.3694 67.5171 67.439 67.4266C67.4877 67.3431 67.5572 67.2735 67.5989 67.19C67.7867 66.863 67.8979 66.4942 67.8771 66.1253C67.8701 65.7565 67.7658 65.3877 67.5711 65.0885C67.4807 64.9354 67.3555 64.8032 67.2304 64.6779C67.1608 64.6222 67.0913 64.5666 67.0218 64.5179C66.9383 64.4691 66.8966 64.4344 66.7575 64.3578C65.8118 63.822 64.8175 63.3488 63.8231 62.8965C61.8205 61.9988 59.7344 61.2751 57.6205 60.6418C57.092 60.4887 56.5497 60.3356 56.0351 60.2034C55.8195 60.1547 55.6109 60.1686 55.4162 60.2799C55.2285 60.3913 55.0755 60.5653 55.0268 60.7671C55.0129 60.8158 54.999 60.8714 54.999 60.9271L54.9921 60.9689V60.9897V61.0385V61.2403C54.9921 61.5117 54.999 61.7831 54.999 62.0544C55.0477 64.2256 55.3119 66.3967 55.8056 68.5192C56.042 69.5839 56.348 70.6277 56.7096 71.6576C57.0642 72.6875 57.4745 73.7243 57.9334 74.7195C58.1629 75.2205 58.3993 75.7146 58.6566 76.1947C58.7818 76.4383 58.9139 76.6749 59.053 76.9115L59.2546 77.2525C59.2963 77.322 59.345 77.3916 59.3937 77.4473C59.6023 77.6839 59.943 77.83 60.2976 77.8092C60.6523 77.7883 60.993 77.6074 61.2225 77.2803L61.2016 77.2664ZM62.2655 77.837C61.9596 78.512 61.292 79.0687 60.5271 79.2288C59.7622 79.3958 58.9069 79.194 58.2741 78.6721C58.1977 78.6025 58.1212 78.5398 58.0516 78.4633L57.8569 78.2336L57.5857 77.8718C57.4119 77.6352 57.245 77.3916 57.0781 77.1411C56.7513 76.647 56.4384 76.153 56.1533 75.638C55.5762 74.6081 55.0616 73.5713 54.5957 72.4857C54.1368 71.4001 53.7474 70.2797 53.4205 69.1455C52.7808 66.8699 52.4053 64.5179 52.308 62.1588C52.301 61.8596 52.2871 61.5673 52.2871 61.2681V61.0454V60.9897L52.2941 60.9062L52.301 60.7323C52.308 60.5026 52.3566 60.273 52.4123 60.0573C52.6487 59.1596 53.2676 58.3802 54.0533 57.9209C54.8391 57.4547 55.8404 57.3225 56.7235 57.5521C57.3006 57.7122 57.85 57.8722 58.4132 58.0392C60.6384 58.7212 62.8148 59.5702 64.9148 60.607C65.9648 61.122 66.987 61.7065 67.9814 62.3398C68.0926 62.4024 68.2734 62.5416 68.4264 62.6459C68.5794 62.7642 68.7254 62.9034 68.8645 63.0356C69.1287 63.3209 69.379 63.6271 69.5529 63.9751C69.9284 64.657 70.1022 65.4295 70.0674 66.1949C70.0396 66.9604 69.7823 67.7119 69.3582 68.3382C69.2608 68.4983 69.1287 68.6375 69.0105 68.7836C68.8992 68.9158 68.8158 68.9924 68.7184 69.1037L68.1622 69.723C67.4181 70.5511 66.7089 71.4071 66.0274 72.2908C64.6645 74.0584 63.4198 75.9233 62.2794 77.8579L62.2655 77.837Z" fill="#000072"/>
<path d="M140.929 77.8577C138.843 73.752 136.666 70.7458 135.074 68.8252C133.836 67.3291 134.254 65.0744 135.943 64.128C140.088 61.7968 144.691 60.5164 147.403 59.904C148.745 59.6048 150.031 60.5929 150.073 61.9638C150.163 64.7473 149.704 69.5628 146.52 75.116C145.824 76.3337 145.178 77.3358 144.614 78.143C143.683 79.4722 141.666 79.3121 140.929 77.8577Z" fill="#FF5399"/>
<path d="M140.387 78.1295C139.288 76.1811 138.085 74.3022 136.771 72.5207C136.11 71.63 135.422 70.7671 134.699 69.9321L134.427 69.6189L134.288 69.4589L134.115 69.2362C133.885 68.9439 133.711 68.6029 133.565 68.255C133.294 67.5522 133.217 66.7658 133.343 66.0212C133.482 65.2766 133.809 64.5529 134.323 63.9684C134.58 63.6831 134.865 63.4117 135.192 63.2099C135.366 63.0916 135.484 63.0289 135.61 62.9524L135.992 62.7297C137.014 62.1521 138.05 61.6233 139.121 61.157C141.256 60.2245 143.453 59.466 145.692 58.8885L146.534 58.6727C146.84 58.6101 147.02 58.5336 147.542 58.464C148.46 58.3665 149.405 58.6658 150.115 59.2434C150.831 59.807 151.304 60.6838 151.408 61.5954C151.415 61.6998 151.429 61.832 151.436 61.9225V62.1521C151.436 62.3052 151.443 62.4514 151.436 62.6045C151.436 62.9037 151.429 63.2099 151.408 63.5091C151.359 64.713 151.179 65.896 150.935 67.0581C150.685 68.2202 150.372 69.3684 149.955 70.4749C149.545 71.5813 149.058 72.6599 148.522 73.7037C148.244 74.2187 147.959 74.7336 147.653 75.2277C147.354 75.7357 147.041 76.2089 146.721 76.696C146.401 77.1762 146.061 77.6424 145.72 78.1087L145.456 78.4566L145.324 78.6306L145.129 78.8533C144.858 79.1386 144.538 79.396 144.176 79.5491C143.453 79.8762 142.633 79.8762 141.93 79.6118C141.583 79.4726 141.263 79.2638 140.992 79.0063C140.727 78.7489 140.526 78.4357 140.373 78.1156L140.387 78.1295ZM141.464 77.5867C141.909 78.3035 142.876 78.4705 143.453 78.0808C143.599 77.9973 143.717 77.8721 143.822 77.7329L143.891 77.6285L144.003 77.4545L144.218 77.0996C144.503 76.6264 144.767 76.1463 145.039 75.6661C146.109 73.7316 147.006 71.7622 147.639 69.6955C148.272 67.6426 148.661 65.5202 148.724 63.4047C148.738 63.1403 148.738 62.8758 148.738 62.6114C148.738 62.4792 148.731 62.347 148.731 62.2148L148.724 62.0199L148.717 61.9225C148.682 61.7137 148.585 61.5189 148.411 61.3867C148.237 61.2545 148.029 61.1988 147.82 61.2127C147.785 61.2057 147.424 61.2892 147.173 61.3449L146.374 61.5398C144.246 62.0756 142.139 62.7158 140.102 63.5161C139.086 63.9197 138.078 64.3442 137.112 64.8313L136.75 65.0122C136.632 65.0748 136.493 65.1375 136.437 65.1792C136.277 65.2627 136.145 65.381 136.013 65.4993C135.756 65.7498 135.582 66.0839 135.491 66.4388C135.408 66.8006 135.422 67.1833 135.533 67.5382C135.596 67.7122 135.672 67.8862 135.783 68.0462L135.86 68.1645L135.992 68.3385L136.256 68.6795C136.945 69.605 137.598 70.5584 138.21 71.5326C139.441 73.4741 140.533 75.4922 141.478 77.5728L141.464 77.5867Z" fill="#000072"/>
<g opacity="0.35">
<path d="M104.727 121.547C104.72 121.686 104.178 121.825 103.58 121.944C102.669 122.125 101.327 122.076 100.43 121.832C99.839 121.672 99.3105 121.491 99.3105 121.352C99.3245 121.046 100.527 121.115 102.022 121.164C103.517 121.22 104.734 121.241 104.727 121.547Z" fill="white"/>
</g>
<g opacity="0.2">
<path d="M69.0177 66.6193C67.9259 67.4057 65.2419 71.5044 63.1836 74.782C60.1518 70.1474 58.6568 63.1051 58.3995 59.8414C58.3995 59.8066 58.3926 59.7719 58.3926 59.7371C61.327 60.6139 64.6578 61.8665 65.367 62.6876C66.6465 64.1559 70.8882 65.2693 69.0177 66.6193Z" fill="#000072"/>
</g>
<g opacity="0.2">
<path d="M134.295 67.2732C135.359 68.0943 137.911 72.2766 139.865 75.6238C143.05 71.0936 144.768 64.1 145.129 60.8502C145.136 60.8154 145.136 60.7806 145.143 60.7458C142.181 61.5252 138.815 62.6734 138.078 63.4737C136.75 64.8933 132.474 65.8675 134.295 67.2732Z" fill="#390075"/>
</g>
</g>
<path d="M150.125 98.3904C117.81 95.2098 85.2656 95.2241 52.9502 98.4331C53.0471 97.9635 53.1302 97.5366 53.2133 97.1452C53.2272 97.0741 53.241 97.0029 53.2618 96.9318C53.2756 96.8606 53.2895 96.7895 53.3033 96.7254C53.3172 96.6543 53.331 96.5902 53.3449 96.5262C53.5111 95.7435 53.7049 94.9821 53.9057 94.2137C54.6466 91.4529 55.6437 88.7063 56.8693 85.7463C86.6851 83.0282 116.667 83.0281 146.483 85.7391C146.933 86.8136 147.348 87.8809 147.729 88.9553C148.339 90.6986 148.851 92.4633 149.259 94.2848C149.259 94.2848 149.259 94.3133 149.28 94.3844C149.363 94.7189 149.654 96.0495 150.125 98.3904Z" fill="white"/>
<g opacity="0.35">
<path d="M150.125 98.3903C149.813 98.3618 149.495 98.3262 149.183 98.2978C149.079 97.8282 149.017 97.5222 148.983 97.3728C148.969 97.3087 148.962 97.2731 148.962 97.2731C148.553 95.4445 148.048 93.6869 147.432 91.9437C147.425 91.9294 147.425 91.9223 147.418 91.9081C146.739 89.9727 144.967 88.6634 142.965 88.5709C130.876 88.0373 87.703 86.3296 64.4584 88.0728C59.3621 88.4571 54.9999 92.0433 53.6289 97.1024C53.6219 97.1308 53.615 97.1664 53.6012 97.1949C53.4973 97.5862 53.3934 97.9847 53.2965 98.3832C53.1788 98.3974 53.0611 98.4045 52.9434 98.4187C53.0403 97.9491 53.1234 97.5222 53.2065 97.1308C53.2203 97.0597 53.2342 96.9885 53.255 96.9174C53.2688 96.8462 53.2826 96.7751 53.2965 96.711C53.3103 96.6399 53.3242 96.5758 53.338 96.5118C53.5042 95.7291 53.6981 94.9677 53.8989 94.1993C54.6398 91.4385 55.6369 88.6919 56.8625 85.7319C86.6783 83.0137 116.66 83.0137 146.476 85.7247C146.926 86.7992 147.342 87.8665 147.722 88.9409C148.332 90.6842 148.844 92.4489 149.253 94.2704C149.253 94.2704 149.253 94.2989 149.273 94.37C149.363 94.7187 149.661 96.0422 150.125 98.3903Z" fill="white"/>
</g>
<g opacity="0.3">
<path d="M150.125 98.3901C117.81 95.2095 85.2656 95.2238 52.9502 98.4328C53.0471 97.9632 53.1302 97.5363 53.2133 97.1449C53.2272 97.0738 53.241 97.0026 53.2618 96.9315C53.2756 96.8603 53.2895 96.7892 53.3033 96.7251C53.3172 96.654 53.331 96.5899 53.3449 96.5259C53.5111 95.7432 53.7049 94.9818 53.9057 94.2134C53.975 93.9501 54.0511 93.6868 54.1273 93.4235C85.7019 90.3639 117.477 90.3568 149.052 93.3951C149.128 93.6939 149.197 93.9928 149.259 94.2916C149.259 94.2916 149.259 94.3201 149.28 94.3912C149.363 94.7186 149.661 96.042 150.125 98.3901Z" fill="#000072"/>
</g>
<path d="M51.4199 99.8414L51.7592 98.1764C51.8492 97.7139 51.9392 97.287 52.0223 96.8956C52.0362 96.8031 52.057 96.7177 52.0777 96.6252C52.0916 96.5754 52.0985 96.5185 52.1123 96.4687C52.1193 96.426 52.1331 96.3691 52.147 96.3121L52.1608 96.2339C52.327 95.4654 52.514 94.6898 52.7425 93.8573C53.4487 91.2317 54.4112 88.4922 55.7614 85.2333L56.0453 84.5431L56.7724 84.4791C86.5743 81.7681 116.778 81.761 146.545 84.4649H147.293L147.611 85.2191C148.089 86.3505 148.505 87.432 148.886 88.5136C149.529 90.3423 150.042 92.1354 150.457 93.9854L150.492 94.1277V94.1348C150.589 94.576 150.88 95.8852 151.323 98.1337L151.655 99.7916L150.014 99.6279C117.844 96.4616 85.231 96.4758 53.0748 99.6706L51.4199 99.8414ZM54.5428 96.7675C54.5358 96.8102 54.5289 96.8529 54.5151 96.8885L54.5081 96.9312C54.5012 96.9596 54.4943 96.9881 54.4943 97.0166C85.7226 94.021 117.366 94.0138 148.602 96.981C148.332 95.6646 148.158 94.8962 148.103 94.6471C148.089 94.5831 148.082 94.5333 148.075 94.4977C147.688 92.7615 147.203 91.0823 146.601 89.3674C146.317 88.5563 146.012 87.7451 145.666 86.9055C116.501 84.2941 86.9205 84.3012 57.721 86.9126C56.5577 89.7659 55.7199 92.2065 55.0898 94.5333C54.8751 95.316 54.6951 96.0489 54.5428 96.7675Z" fill="#000072"/>
<g opacity="0.5">
<path d="M109.518 168.153C105.591 165.857 101.672 165.857 97.7452 168.153L95.958 206.826C95.958 206.826 101.704 215.376 102.009 214.717C102.315 214.059 107.582 206.826 107.582 206.826L109.518 168.153Z" fill="#E0E0ED"/>
</g>
<path d="M66.0623 219.873H52.7291C50.7852 219.873 48.9745 218.8 48.1044 217.06C45.0083 210.916 52.4391 203.769 60.5127 205.243C66.4385 206.12 70.491 209.2 71.2278 213.941C71.7138 217.06 69.229 219.873 66.0623 219.873Z" fill="white"/>
<g opacity="0.3">
<path d="M66.0697 219.873H52.7287C50.7848 219.873 48.9819 218.8 48.104 217.06C47.8218 216.496 47.618 215.916 47.5083 215.336C47.618 215.344 47.7199 215.352 47.8297 215.352H61.1707C64.3374 215.352 66.8222 212.538 66.3284 209.412C66.1716 208.424 65.8737 207.507 65.4426 206.677C68.6329 208.189 70.7179 210.666 71.2274 213.933C71.7134 217.06 69.2364 219.873 66.0697 219.873Z" fill="#000070" fill-opacity="0.25"/>
</g>
<path d="M139.242 221.59H153.884C156.024 221.59 158.007 220.446 158.963 218.604C162.365 212.077 154.206 204.483 145.34 206.043C138.834 206.975 134.382 210.251 133.575 215.282C133.042 218.604 135.762 221.59 139.242 221.59Z" fill="white"/>
<g opacity="0.3">
<path d="M158.963 218.604C157.999 220.445 156.024 221.59 153.884 221.59H139.242C136.216 221.59 133.762 219.333 133.527 216.551C133.731 216.574 133.935 216.582 134.154 216.582H148.797C150.936 216.582 152.912 215.438 153.876 213.596C154.965 211.504 154.871 209.302 153.939 207.327C158.508 209.67 161.181 214.364 158.963 218.604Z" fill="#000070" fill-opacity="0.2"/>
</g>
<path d="M71.5362 211.444C71.3272 211.457 71.1133 211.391 70.9258 211.25C56.1825 199.85 55.1459 172.06 68.287 140.453C68.529 139.874 69.1255 139.642 69.6249 139.937C70.1243 140.232 70.3341 140.935 70.0921 141.514C63.8523 156.527 60.7624 170.89 61.1532 183.064C61.5383 195.043 65.2922 204.116 72.0095 209.31C72.476 209.672 72.6068 210.394 72.313 210.933C72.1283 211.241 71.8374 211.426 71.5362 211.444Z" fill="#000070"/>
<path d="M132.4 214.715C131.947 214.748 131.487 214.568 131.193 214.194C130.728 213.61 130.846 212.767 131.456 212.317C139.727 206.22 143.862 199.366 144.87 190.089C146.137 178.415 142.177 163.104 132.786 143.263C132.47 142.594 132.78 141.803 133.478 141.495C134.177 141.187 134.997 141.481 135.322 142.15C144.927 162.429 148.964 178.196 147.647 190.352C146.568 200.287 141.968 207.934 133.152 214.436C132.915 214.602 132.665 214.695 132.4 214.715Z" fill="#000070"/>
<path d="M51.0986 207.79C50.6988 207.79 50.3069 207.602 50.0561 207.249C43.4953 197.987 41.1438 190.025 43.0485 183.583C44.7495 177.839 49.8288 173.239 58.1532 169.924C58.8038 169.666 59.5484 169.979 59.8071 170.637C60.0657 171.288 59.7522 172.032 59.0938 172.291C51.5297 175.308 46.9521 179.352 45.4863 184.312C43.8088 189.97 46.0506 197.195 52.1333 205.792C52.5409 206.364 52.3998 207.155 51.8276 207.563C51.6081 207.72 51.3573 207.79 51.0986 207.79Z" fill="#000070"/>
<path d="M66.062 221.144H52.7289C50.2676 221.144 48.0572 219.796 46.9676 217.633C45.5332 214.796 45.9094 211.567 47.9866 208.785C50.7849 205.047 55.8956 203.12 60.7162 203.989C67.3867 204.985 71.6743 208.542 72.4817 213.746C72.7639 215.58 72.2309 217.453 71.0159 218.871C69.7774 220.313 67.9746 221.144 66.062 221.144ZM58.3255 206.309C54.6728 206.309 51.608 208.182 50.0246 210.298C49.1545 211.465 47.8926 213.816 49.2408 216.481C49.8914 217.766 51.2631 218.597 52.7367 218.597H66.0699C67.23 218.597 68.3273 218.087 69.0877 217.21C69.8245 216.355 70.1458 215.227 69.9734 214.13C69.3463 210.094 65.8269 207.312 60.3243 206.497C60.3086 206.497 60.2929 206.489 60.2851 206.489C59.611 206.372 58.9604 206.309 58.3255 206.309Z" fill="#000070"/>
<path d="M54.4301 213.401L55.6999 218.792C55.8646 219.498 55.4334 220.195 54.728 220.368C54.0225 220.532 53.3249 220.101 53.1525 219.396C53.1054 219.192 53.1054 218.988 53.1525 218.792L54.4301 213.401Z" fill="#000070"/>
<path d="M63.2324 213.401L64.5022 218.792C64.6668 219.498 64.2357 220.195 63.5302 220.368C62.8248 220.532 62.1272 220.101 61.9547 219.396C61.9077 219.192 61.9077 218.988 61.9547 218.792L63.2324 213.401Z" fill="#000070"/>
<path d="M155.655 207.79C155.475 207.79 155.287 207.751 155.107 207.665C154.472 207.367 154.205 206.607 154.503 205.972C158.838 196.843 159.653 188.787 156.784 183.286C154.723 179.328 150.756 176.75 145.309 175.833C144.619 175.716 144.148 175.057 144.266 174.368C144.384 173.678 145.042 173.208 145.732 173.325C151.995 174.375 156.596 177.416 159.042 182.11C162.287 188.34 161.495 197.203 156.8 207.061C156.588 207.524 156.133 207.79 155.655 207.79Z" fill="#000070"/>
<path d="M153.884 222.86H139.242C137.141 222.86 135.174 221.959 133.833 220.384C132.571 218.902 132.023 216.967 132.321 215.078C133.206 209.585 137.878 205.831 145.144 204.781C150.521 203.841 156.149 205.957 159.151 210.063C161.268 212.947 161.613 216.277 160.092 219.192C158.916 221.457 156.533 222.86 153.884 222.86ZM147.707 207.101C147.01 207.101 146.296 207.163 145.567 207.289C145.552 207.289 145.544 207.297 145.528 207.297C139.43 208.174 135.534 211.152 134.837 215.478C134.649 216.646 134.978 217.805 135.769 218.73C136.624 219.733 137.894 220.313 139.242 220.313H153.884C155.554 220.313 157.106 219.412 157.835 218.009C159.277 215.243 157.991 212.782 157.098 211.56C155.405 209.264 151.893 207.101 147.707 207.101Z" fill="#000070"/>
<path d="M152.262 214.717L153.531 220.446C153.688 221.151 153.241 221.841 152.544 221.997C151.838 222.154 151.149 221.707 150.992 221.01C150.953 220.822 150.953 220.626 150.992 220.446L152.262 214.717Z" fill="#000070"/>
<path d="M142.91 214.717L144.18 220.446C144.337 221.151 143.89 221.841 143.192 221.997C142.487 222.154 141.797 221.707 141.64 221.01C141.601 220.822 141.601 220.626 141.64 220.446L142.91 214.717Z" fill="#000070"/>
<g opacity="0.3">
<path opacity="0.15" d="M96.8278 198.394C100.332 200.808 103.765 200.917 107.12 198.394L107.378 208.323L101.515 214.365L95.7305 207.202" fill="#B3EBFF"/>
</g>
<ellipse cx="77.575" cy="204.245" rx="11.533" ry="5.53586" transform="rotate(39.4503 77.575 204.245)" fill="#B3B3D5" fill-opacity="0.13"/>
<ellipse cx="76.6284" cy="205.314" rx="7.16986" ry="3.44153" transform="rotate(39.4503 76.6284 205.314)" fill="#B3B3D5" fill-opacity="0.06"/>
<path d="M39.0141 120.849C31.9602 133.422 26.6595 158.69 49.2197 171.879C65.4854 181.394 69.8321 157.747 66.4774 151.862C65.4983 149.104 58.4578 146.755 56.6447 142.785C52.0141 132.628 59.6936 123.185 59.6936 123.185L57.8413 117.571" fill="white"/>
<path d="M33.5278 153.444C35.8044 162.168 41.3945 170.331 52.4175 175.506C52.6291 175.602 52.8222 175.694 53.0266 175.779C66.2233 181.531 70.7863 168.879 70.5485 159.689C70.4628 156.611 69.8339 153.917 68.8148 152.441C67.5199 149.598 59.8123 147.788 57.5068 143.734C51.6074 133.358 58.8608 122.529 58.8608 122.529L56.3557 116.725L42.4094 120.537L36.6945 122.097C33.151 130.039 30.5991 142.217 33.5278 153.444Z" fill="#00BCFF" fill-opacity="0.54"/>
<path d="M34.251 149.983C35.6789 157.933 40.125 165.631 49.6666 171.074C49.85 171.175 50.017 171.272 50.1947 171.363C65.4904 179.535 69.2817 157.298 66.0417 151.738C65.0793 149.105 58.2793 146.913 56.4943 143.125C51.9271 133.43 59.2152 124.319 59.2152 124.319L57.3748 118.955L39.3205 122.269C35.5721 129.085 32.4146 139.752 34.251 149.983Z" fill="#00BCFF"/>
<path d="M59.7143 177.687C65.1761 178.237 68.2602 175.625 69.9441 173.042C74.1871 166.567 72.7622 155.093 69.6533 151.455C68.6895 149.995 66.6152 149.159 64.2226 148.192C61.916 147.261 59.2992 146.209 58.1156 144.62C52.0039 136.377 57.037 126.144 57.092 126.042L57.4055 125.419L54.0586 119.695C53.699 119.085 52.9223 118.882 52.3129 119.242C51.7035 119.602 51.4999 120.379 51.8595 120.989L54.5271 125.542C53.3983 128.127 49.8907 137.795 56.0813 146.145C57.6901 148.315 60.6597 149.51 63.2855 150.563C65.0584 151.279 67.0645 152.082 67.5649 152.894L67.6987 153.078C70.0325 155.697 71.562 165.953 67.8267 171.655C65.5099 175.187 61.6573 176.09 56.3595 174.356C31.8074 166.283 32.5951 140.474 36.4514 127.963C36.662 127.294 36.2776 126.574 35.6083 126.372C34.9399 126.162 34.2205 126.547 34.0187 127.216C31.3578 135.859 31.1548 145.887 33.4581 154.061C36.6 165.205 44.246 173.065 55.5686 176.786C57.0792 177.261 58.4641 177.561 59.7143 177.687Z" fill="#000072"/>
<path d="M39.4453 125.676C39.4453 125.676 39.8828 131.75 46.7283 131.257C48.8977 132.234 52.4161 132.079 54.8499 131.056C57.3018 130.992 59.3983 130.042 60.6744 128.051C62.7891 124.744 61.6953 118.514 58.268 115.81C54.1024 112.522 46.0264 112.165 41.5691 115.381C38.3423 117.71 35.7081 121.821 34.4593 128.133" fill="white"/>
<path d="M37.1455 119.007L37.7026 118.733C37.4393 118.469 37.267 118.621 37.1455 119.007Z" fill="#E2E2E2"/>
<path d="M102.18 166.724C121.504 166.724 126.21 149.285 126.21 149.285L102.207 147.857H102.18L78.1771 149.285C78.1771 149.285 82.8565 166.724 102.18 166.724Z" fill="#65C660"/>
<path d="M102.18 166.724C121.504 166.724 126.21 149.285 126.21 149.285L102.207 147.857H102.18L78.1771 149.285C78.1771 149.285 82.8565 166.724 102.18 166.724Z" fill="#65C660"/>
<path d="M78.1528 149.336C78.1528 149.336 78.4035 150.269 79.037 151.71C81.1155 156.473 87.3246 166.739 102.184 166.739C117.07 166.739 123.286 156.438 125.364 151.685C125.985 150.26 126.235 149.336 126.235 149.336L102.204 147.905H102.178L78.1528 149.336Z" fill="#65C660"/>
<path d="M78.1771 149.285C78.1771 149.285 78.4276 150.221 79.0603 151.664C85.506 154.297 93.1446 155.939 102.167 155.939C111.216 155.939 118.881 154.282 125.34 151.639C125.96 150.211 126.21 149.285 126.21 149.285L102.207 147.852H102.18L78.1771 149.285Z" fill="#48A341"/>
<path d="M78.1771 149.285C78.1771 149.285 82.8565 166.724 102.18 166.724C121.504 166.724 126.21 149.285 126.21 149.285L125.004 149.215C124.72 150.012 119.191 151.131 119.876 152.754C120.239 153.61 120.707 154.501 120.265 157.293C116.772 161.309 111.098 165.176 102.18 165.176C86.0596 165.176 80.5498 152.535 79.3766 149.215L78.1771 149.285Z" fill="#48A341"/>
<path d="M72.9544 147.795C83.887 155.897 102.168 155.426 102.168 155.426C102.168 155.426 120.45 155.897 131.382 147.795C133.903 145.929 133.887 143.955 133.137 141.246C133.137 141.246 131.835 141.857 129.504 142.725C111.882 149.282 92.4716 149.282 74.8493 142.725C72.5178 141.857 71.2079 141.246 71.2079 141.246C70.4499 143.955 70.4334 145.929 72.9544 147.795Z" fill="#FF1212"/>
<g opacity="0.5">
<path d="M70.8373 144.756C70.9114 144.236 71.0432 143.683 71.208 143.096C71.208 143.096 72.5097 143.707 74.8495 144.575C92.4717 151.132 111.882 151.132 129.504 144.575C131.836 143.707 133.137 143.096 133.137 143.096C133.302 143.683 133.426 144.236 133.508 144.756C133.698 143.716 133.508 142.568 133.137 141.246C133.137 141.246 131.836 141.857 129.504 142.725C111.882 149.282 92.4717 149.282 74.8495 142.725C72.5179 141.857 71.208 141.246 71.208 141.246C70.8373 142.568 70.6478 143.716 70.8373 144.756Z" fill="white"/>
</g>
<g opacity="0.15">
<path d="M72.9544 147.796C83.8787 155.897 102.168 155.427 102.168 155.427C102.168 155.427 120.45 155.889 131.382 147.796C133.45 146.268 133.813 144.666 133.458 142.634C133.219 143.65 132.593 144.567 131.382 145.467C120.458 153.568 102.168 153.098 102.168 153.098C102.168 153.098 83.8869 153.568 72.9544 145.467C71.7433 144.567 71.1172 143.65 70.8782 142.634C70.524 144.666 70.8865 146.268 72.9544 147.796Z" fill="#000072"/>
</g>
<path d="M101.484 156.615C101.83 156.615 102.069 156.607 102.168 156.607C103.28 156.632 121.076 156.904 132.082 148.745C135.427 146.276 134.966 143.418 134.266 140.932L133.895 139.594L132.634 140.181C132.618 140.189 131.333 140.784 129.084 141.618C111.725 148.076 92.6114 148.076 75.2527 141.618C73.0036 140.784 71.7102 140.181 71.7019 140.173L70.4414 139.586L70.0707 140.924C69.3786 143.41 68.9173 146.267 72.2539 148.737C82.2802 156.169 97.9253 156.615 101.484 156.615ZM102.168 154.245H102.135C101.954 154.253 84.1257 154.6 73.6545 146.845C72.0644 145.664 71.7349 144.566 72.0232 142.89C72.6329 143.137 73.4403 143.468 74.4289 143.831C92.3148 150.487 112.013 150.487 129.899 143.831C130.888 143.459 131.695 143.137 132.305 142.89C132.593 144.558 132.272 145.664 130.674 146.845C120.202 154.6 102.366 154.253 102.193 154.245H102.168Z" fill="#000072"/>
<path d="M102.169 165.08C98.7772 165.08 96.0274 162.323 96.0274 158.923C96.0274 155.523 98.7772 152.766 102.169 152.766C105.561 152.766 108.311 155.523 108.311 158.923C108.311 162.323 105.561 165.08 102.169 165.08Z" fill="#48A341"/>
<path d="M98.485 162.168C96.4498 160.128 96.4498 156.82 98.485 154.78C100.52 152.74 103.82 152.74 105.855 154.78C107.891 156.82 107.891 160.128 105.855 162.168C103.82 164.208 100.52 164.208 98.485 162.168Z" fill="#FFC303"/>
<path d="M97.0835 159.625C97.6023 161.954 99.6823 163.697 102.169 163.697C104.651 163.697 106.731 161.954 107.254 159.625C106.254 161.406 104.352 162.605 102.169 162.605C99.9861 162.605 98.0837 161.406 97.0835 159.625Z" fill="#FF9F06"/>
<path d="M96.9575 158.473C96.9575 159.372 97.1819 160.216 97.5792 160.951H106.755C107.152 160.216 107.381 159.367 107.381 158.473C107.381 157.906 107.292 157.357 107.124 156.847H97.2146C97.0463 157.357 96.9575 157.906 96.9575 158.473Z" fill="#FF9F06"/>
<g opacity="0.5">
<path d="M96.9575 158.449C97.5605 156.13 99.6685 154.419 102.169 154.419C104.675 154.419 106.778 156.134 107.381 158.458C107.372 155.581 105.044 153.253 102.169 153.253C99.2946 153.248 96.9716 155.577 96.9575 158.449Z" fill="white"/>
</g>
<path d="M102.17 164.165C105.301 164.165 107.849 161.612 107.849 158.473C107.849 155.333 105.297 152.78 102.17 152.78C99.0426 152.78 96.4905 155.333 96.4905 158.473C96.4905 161.612 99.0379 164.165 102.17 164.165ZM102.17 153.717C104.787 153.717 106.914 155.849 106.914 158.473C106.914 161.097 104.782 163.228 102.17 163.228C99.552 163.228 97.4253 161.097 97.4253 158.473C97.4253 155.849 99.552 153.717 102.17 153.717Z" fill="#000072"/>
<path d="M101.155 161.035C101.02 160.461 101.374 159.885 101.947 159.75C102.52 159.614 103.094 159.97 103.229 160.544C103.364 161.118 103.01 161.693 102.437 161.829C101.864 161.965 101.29 161.609 101.155 161.035Z" fill="#000072"/>
<path d="M101.884 161.209H102.463V163.458H101.884V161.209Z" fill="#000072"/>
<path d="M97.509 159.822H106.825C107.568 159.822 108.166 159.218 108.166 158.477C108.166 157.732 107.563 157.133 106.825 157.133H97.509C96.7658 157.133 96.1675 157.737 96.1675 158.477C96.1675 159.218 96.7658 159.822 97.509 159.822Z" fill="#FFC303"/>
<path d="M96.1675 158.473C96.1675 158.843 96.3171 159.18 96.5601 159.424C96.8032 159.668 97.1397 159.818 97.509 159.818H106.825C107.568 159.818 108.166 159.213 108.166 158.473C108.166 158.224 108.101 158 107.984 157.798C107.755 158.201 107.32 158.473 106.825 158.473H97.5043C97.135 158.473 96.7985 158.323 96.5555 158.079C96.4713 157.995 96.4012 157.901 96.3451 157.803C96.2329 158 96.1675 158.229 96.1675 158.473Z" fill="#FF9F06"/>
<g opacity="0.5">
<path d="M96.1675 158.473C96.1675 158.632 96.1955 158.782 96.247 158.922C96.4293 158.402 96.9247 158.028 97.509 158.028H106.825C107.194 158.028 107.53 158.177 107.773 158.421C107.914 158.562 108.021 158.73 108.087 158.922C108.138 158.782 108.166 158.627 108.166 158.473C108.166 158.103 108.016 157.765 107.773 157.522C107.53 157.278 107.194 157.128 106.825 157.128H97.5043C96.7658 157.128 96.1675 157.732 96.1675 158.473Z" fill="white"/>
</g>
<path d="M97.5093 160.291H106.825C107.825 160.291 108.634 159.475 108.634 158.477C108.634 157.475 107.82 156.664 106.825 156.664H97.5093C96.5091 156.664 95.7004 157.479 95.7004 158.477C95.7004 159.475 96.5091 160.291 97.5093 160.291ZM106.825 157.596C107.306 157.596 107.699 157.99 107.699 158.473C107.699 158.955 107.306 159.349 106.825 159.349H97.5093C97.0279 159.349 96.6353 158.955 96.6353 158.473C96.6353 157.99 97.0279 157.596 97.5093 157.596H106.825Z" fill="#000072"/>
<g opacity="0.15">
<path d="M35.5613 157.083C38.6831 164.926 44.8368 171.877 55.726 175.447C55.9347 175.512 56.1256 175.576 56.3263 175.632L53.9706 164.187C53.9706 164.187 44.6018 164.763 35.5613 157.083Z" fill="#000072" fill-opacity="0.4"/>
</g>
<g opacity="0.15">
<path d="M40.1838 125.513C40.1838 125.513 40.0144 131.474 46.7224 131.655C48.7396 132.819 52.1819 133.013 54.6607 132.265C57.0552 132.443 59.1904 131.722 60.6286 129.907C61.3575 128.992 61.8202 127.78 62.0176 126.442C60.9135 127.967 58.7098 129.903 56.2418 127.425C56.2418 127.425 50.6372 131.698 45.5759 125.669C45.5759 125.669 42.9865 129.121 40.1838 125.513Z" fill="#000072"/>
</g>
<path d="M39.4817 125.493C39.448 126.007 39.4586 126.436 39.5198 126.897C39.5811 127.357 39.6787 127.813 39.8314 128.256C40.127 129.15 40.641 130.013 41.3512 130.709C42.0507 131.421 42.9411 131.93 43.8492 132.262C44.7662 132.595 45.7108 132.743 46.6287 132.8L46.0623 132.636C46.7725 133.064 47.5164 133.335 48.2595 133.525C49.0025 133.716 49.7438 133.835 50.4913 133.893C51.9791 133.989 53.4785 133.881 54.9752 133.444L54.495 133.493C55.705 133.588 56.9878 133.494 58.2226 133.075C59.4477 132.663 60.6009 131.897 61.4443 130.912C62.3258 129.904 62.8523 128.683 63.1337 127.49C63.4161 126.288 63.4845 125.074 63.3984 123.88C63.3034 122.684 63.054 121.509 62.6217 120.369C62.1885 119.238 61.5724 118.142 60.6989 117.199C58.9377 115.364 56.7459 114.332 54.5159 113.68C52.2752 113.044 49.9396 112.818 47.6013 113.064C46.4312 113.196 45.2674 113.444 44.1391 113.874C43.5789 114.094 43.0152 114.35 42.4905 114.662C41.9845 114.968 41.4856 115.292 41.0195 115.646C39.1455 117.071 37.6442 118.89 36.4795 120.841C35.8971 121.816 35.3999 122.836 34.956 123.861C34.5201 124.896 34.1544 125.947 33.8143 127.009C33.6039 127.674 32.928 131.593 33.6062 131.804C34.2756 132.014 36.0372 128.445 36.2485 127.771L36.2494 127.762L36.2512 127.744C36.862 125.773 37.6539 123.874 38.6979 122.143C39.741 120.42 41.0443 118.876 42.6059 117.705C42.9938 117.414 43.4057 117.152 43.8168 116.9C44.2162 116.672 44.6397 116.474 45.0782 116.304C45.9633 115.975 46.9168 115.767 47.8951 115.67C49.8525 115.466 51.8846 115.679 53.7843 116.227C54.7342 116.501 55.6566 116.87 56.4972 117.338C57.3397 117.788 58.1235 118.375 58.7148 119.005C59.8945 120.291 60.555 122.194 60.6979 124.071C60.8416 125.94 60.4536 127.924 59.4052 129.165C58.8645 129.815 58.1614 130.297 57.3616 130.582C56.5519 130.874 55.6367 130.97 54.7108 130.903L54.693 130.901C54.5323 130.894 54.3779 130.914 54.2305 130.953C53.1297 131.288 51.8797 131.412 50.6582 131.342C49.4438 131.291 48.2231 131.035 47.2759 130.556L47.1738 130.501C47.0291 130.424 46.8623 130.39 46.7096 130.392C45.9559 130.397 45.2297 130.306 44.5479 130.13C43.8661 129.955 43.2518 129.643 42.7112 129.223C42.1795 128.804 41.7427 128.243 41.4045 127.594C41.2403 127.266 41.1045 126.922 40.9962 126.573C40.8879 126.223 40.8026 125.822 40.7627 125.506L40.7512 125.443C40.705 125.099 40.3899 124.845 40.0445 124.89C39.7338 124.948 39.5021 125.201 39.4817 125.493Z" fill="#000072"/>
<path d="M45.6073 123.421C45.3056 124.129 45.1061 124.83 44.9578 125.571C44.8104 126.304 44.7342 127.061 44.7483 127.836C44.7534 128.61 44.8862 129.397 45.1302 130.178C45.3651 130.957 45.7877 131.703 46.2894 132.395C46.6536 132.898 47.3682 133.031 47.8912 132.688C48.4141 132.345 48.5472 131.664 48.183 131.162C48.1509 131.115 48.1179 131.076 48.0758 131.037L48.0254 130.988C47.6078 130.559 47.2036 130.087 46.9286 129.523C46.6527 128.968 46.4286 128.357 46.3191 127.704C46.1997 127.059 46.1568 126.386 46.1704 125.702C46.1922 125.027 46.2722 124.323 46.4283 123.688L46.4309 123.662C46.481 123.439 46.337 123.222 46.1024 123.172C45.8952 123.125 45.6813 123.235 45.6073 123.421Z" fill="#000072"/>
<path d="M55.7273 123.659C55.8418 124.38 55.8657 125.165 55.8089 125.915C55.7522 126.664 55.6131 127.396 55.3842 128.092C55.1644 128.788 54.8206 129.418 54.4173 129.987C54.0317 130.567 53.481 131.021 52.9525 131.44L52.8814 131.497C52.3834 131.893 52.3109 132.613 52.7201 133.1C53.1293 133.587 53.8699 133.662 54.3679 133.266C54.4086 133.234 54.4501 133.192 54.4815 133.159C55.1187 132.495 55.7142 131.782 56.1048 130.966C56.5122 130.17 56.8038 129.317 56.9362 128.466C57.0778 127.616 57.1074 126.764 57.0427 125.92C56.9687 125.076 56.8337 124.28 56.5709 123.453C56.5001 123.228 56.2509 123.102 56.0289 123.171C55.8171 123.232 55.6935 123.438 55.7291 123.641L55.7273 123.659Z" fill="#000072"/>
<path opacity="0.5" d="M64.7934 154.509C71.0723 175.895 93.1599 191.851 93.1599 191.851C93.1599 191.851 114.468 209.119 134.114 207.609C137.828 207.327 139.579 205.391 140.835 202.195C139.713 203.415 138.214 204.142 136.035 204.315C116.392 205.845 95.0808 188.557 95.0808 188.557C95.0808 188.557 73.0029 172.609 66.7142 151.215C66.0198 148.841 66.033 146.976 66.5874 145.322C64.4915 147.873 63.6001 150.469 64.7934 154.509Z" fill="#B9B9DD"/>
<path d="M65.9998 152.503L65.9997 152.502C65.3594 150.099 65.465 148.293 66.0848 146.73C66.6613 145.277 67.699 143.991 69.1023 142.624C69.2241 142.866 69.3879 143.187 69.5935 143.581C70.093 144.538 70.8391 145.922 71.8283 147.639C86.7813 173.595 109.517 192.124 135.844 199.81L65.9998 152.503ZM65.9998 152.503C68.8455 163.2 75.6546 172.718 81.7867 179.581C84.8484 183.008 87.7315 185.762 89.8488 187.659C90.9073 188.608 91.7738 189.341 92.3749 189.837C92.6755 190.085 92.9096 190.274 93.0682 190.4C93.1474 190.463 93.2078 190.511 93.2481 190.542L93.2935 190.578L93.3046 190.586L93.3072 190.588L93.3077 190.589L93.0779 190.982M65.9998 152.503L133.712 207.687M93.0779 190.982L93.3078 190.589L93.3178 190.596L93.3275 190.605L93.0779 190.982ZM93.0779 190.982L93.3276 190.605L93.3281 190.605L93.3306 190.607L93.3414 190.617L93.3853 190.654C93.4246 190.687 93.4836 190.737 93.5616 190.802C93.7176 190.933 93.9499 191.124 94.253 191.368C94.8591 191.856 95.7484 192.553 96.8778 193.388C99.1368 195.057 102.354 197.275 106.185 199.465C113.859 203.853 123.945 208.106 133.712 207.687L133.712 207.687M133.712 207.687C135.906 207.594 137.364 206.889 138.454 205.709M133.712 207.687L138.454 205.709M138.454 205.709C139.466 204.612 140.191 203.072 140.866 201.112M138.454 205.709L140.866 201.112M140.866 201.112C140.627 201.06 140.311 200.989 139.921 200.897C138.97 200.672 137.585 200.319 135.844 199.81L140.866 201.112Z" fill="#FFC303" stroke="#000070" stroke-width="0.907601"/>
<path d="M65.5181 152.735C71.3246 174.227 93.0373 190.949 93.0373 190.949C93.0373 190.949 113.943 208.944 133.597 208.218C137.312 208.084 139.103 206.23 140.426 203.105C139.28 204.272 137.767 204.936 135.587 205.021C115.936 205.767 95.0272 187.753 95.0272 187.753C95.0272 187.753 73.324 171.039 67.508 149.538C66.866 147.153 66.9197 145.3 67.5093 143.679C65.3606 146.131 64.4141 148.674 65.5181 152.735Z" fill="#FDFDFD" fill-opacity="0.34"/>
<path opacity="0.5" d="M128.145 131.755C125.291 131.755 122.977 129.904 122.977 127.62C122.977 125.337 125.291 123.486 128.145 123.486C130.999 123.486 133.313 125.337 133.313 127.62C133.313 129.904 130.999 131.755 128.145 131.755Z" fill="#FFB6B9"/>
<path d="M124.365 127.327C125.411 127.475 126.441 127.704 127.464 127.945C127.975 128.065 128.487 128.189 128.998 128.321C129.51 128.449 130.017 128.589 130.525 128.733C130.619 128.76 130.676 128.861 130.649 128.962C130.623 129.055 130.536 129.109 130.446 129.094C129.927 129.008 129.408 128.907 128.893 128.803C128.378 128.702 127.863 128.593 127.347 128.476C126.321 128.247 125.294 128.007 124.286 127.684C124.192 127.653 124.14 127.549 124.166 127.451C124.196 127.366 124.282 127.312 124.365 127.327Z" fill="#000072"/>
<path d="M124.005 125.114C125.068 124.836 126.143 124.657 127.218 124.493C127.758 124.411 128.293 124.333 128.833 124.264C129.372 124.191 129.912 124.127 130.455 124.077C130.557 124.068 130.647 124.159 130.655 124.278C130.662 124.388 130.596 124.488 130.506 124.511C129.974 124.634 129.439 124.744 128.903 124.845C128.368 124.95 127.832 125.046 127.296 125.137C126.221 125.32 125.146 125.484 124.059 125.553C123.958 125.557 123.868 125.466 123.864 125.347C123.856 125.228 123.919 125.137 124.005 125.114Z" fill="#000072"/>
<path d="M123.943 122.541C124.728 121.981 125.552 121.494 126.383 121.02C126.799 120.784 127.218 120.549 127.638 120.326C128.058 120.099 128.481 119.876 128.912 119.665C129.006 119.62 129.115 119.661 129.161 119.758C129.2 119.847 129.173 119.953 129.095 120.006C128.695 120.273 128.291 120.533 127.883 120.78C127.475 121.036 127.067 121.283 126.655 121.523C125.831 122.01 125 122.48 124.126 122.878C124.032 122.922 123.924 122.878 123.881 122.776C123.842 122.695 123.869 122.594 123.943 122.541Z" fill="#000072"/>
<path opacity="0.5" d="M75.8771 131.755C73.023 131.755 70.7093 129.904 70.7093 127.621C70.7093 125.337 73.023 123.486 75.8771 123.486C78.7312 123.486 81.0449 125.337 81.0449 127.621C81.0449 129.904 78.7312 131.755 75.8771 131.755Z" fill="#FFB6B9"/>
<path d="M80.623 129.161C79.615 129.483 78.5882 129.724 77.5613 129.953C77.0461 130.066 76.5308 130.179 76.0155 130.28C75.5002 130.385 74.9812 130.482 74.4621 130.571C74.3643 130.587 74.2703 130.52 74.2552 130.419C74.2402 130.326 74.2966 130.237 74.3831 130.21C74.8909 130.062 75.3987 129.926 75.9102 129.798C76.4217 129.666 76.9332 129.538 77.4447 129.421C78.4716 129.18 79.4984 128.951 80.544 128.803C80.6418 128.788 80.732 128.862 80.7471 128.963C80.7621 129.048 80.7057 129.134 80.623 129.161Z" fill="#000072"/>
<path d="M80.8447 127.029C79.759 126.961 78.6851 126.796 77.6111 126.612C77.076 126.521 76.5371 126.424 76.006 126.319C75.4709 126.218 74.9359 126.108 74.4047 125.985C74.3032 125.962 74.2368 125.847 74.2563 125.728C74.2759 125.618 74.3618 125.545 74.4555 125.554C74.9984 125.604 75.5373 125.668 76.0762 125.742C76.6152 125.81 77.1541 125.888 77.6892 125.971C78.7632 126.136 79.8371 126.319 80.8994 126.594C81.0009 126.621 81.0634 126.736 81.04 126.855C81.0166 126.965 80.9346 127.034 80.8447 127.029Z" fill="#000072"/>
<path d="M80.7815 124.356C79.9116 123.958 79.0767 123.487 78.2535 122.999C77.8418 122.755 77.4302 122.507 77.0264 122.255C76.6186 122.003 76.2148 121.747 75.8148 121.479C75.7293 121.422 75.7022 121.301 75.7604 121.211C75.8109 121.13 75.9119 121.101 75.9973 121.142C76.4244 121.353 76.8516 121.577 77.271 121.804C77.6943 122.028 78.1098 122.264 78.5253 122.499C79.3563 122.975 80.1796 123.458 80.964 124.023C81.0494 124.084 81.0688 124.206 81.0145 124.295C80.9601 124.364 80.863 124.393 80.7815 124.356Z" fill="#000072"/>
<path d="M105.412 112.735C105.436 114.238 102.819 115.387 100.971 115.526C99.1281 115.664 96.4656 114.379 96.4415 112.875C96.4174 111.372 98.4198 111.045 100.901 111.005C103.377 110.967 105.388 111.231 105.412 112.735Z" fill="#000070"/>
<path d="M102.427 112.288C102.428 112.616 101.723 112.878 100.861 112.881C99.9937 112.881 99.2933 112.617 99.292 112.289C99.2908 111.961 99.9935 111.909 100.861 111.91C101.722 111.907 102.426 111.96 102.427 112.288Z" fill="white"/>
<g clip-path="url(#clip2_100_4737)">
<path d="M87.6134 107.323C87.6134 103.425 84.4803 100.321 80.5457 100.321C76.6111 100.321 73.478 103.497 73.478 107.323C73.478 111.149 76.6111 114.325 80.5457 114.325C84.4074 114.325 87.6134 111.149 87.6134 107.323Z" fill="#000071"/>
<path d="M86.3749 105.735C86.3749 103.714 84.699 102.054 82.6589 102.054C80.6187 102.054 78.9429 103.714 78.9429 105.735C78.9429 107.756 80.6187 109.417 82.6589 109.417C84.7719 109.344 86.3749 107.756 86.3749 105.735Z" fill="white"/>
<path d="M75.0672 103.109C73.5997 103.01 72.866 101.954 72.8326 101.888C72.7326 101.723 72.7659 101.525 72.9327 101.393C73.0995 101.294 73.2996 101.327 73.433 101.492C73.433 101.525 74 102.317 75.1006 102.383C75.3007 102.383 75.4341 102.548 75.4341 102.746C75.4341 102.944 75.2673 103.109 75.0672 103.109Z" fill="#000070"/>
<path d="M75.9874 102.52C75.9548 102.52 75.9221 102.52 75.9221 102.52C74.5188 102.163 73.9966 100.996 73.9966 100.931C73.8987 100.769 73.9966 100.574 74.1598 100.477C74.3229 100.412 74.5514 100.477 74.6167 100.671C74.6493 100.704 75.0409 101.579 76.0527 101.839C76.2485 101.871 76.3464 102.066 76.3138 102.26C76.2811 102.422 76.1506 102.52 75.9874 102.52Z" fill="#000070"/>
<g clip-path="url(#clip3_100_4737)">
<path d="M126.956 111.379C126.637 111.379 126.319 111.138 126.239 110.817C125.443 108.007 123.532 104.716 119.311 104.635H119.232C115.011 104.635 113.18 108.007 112.383 110.736C112.304 111.138 111.826 111.379 111.428 111.298C111.03 111.218 110.791 110.817 110.87 110.335C111.667 107.606 113.737 103.11 119.232 103.11H119.311C124.806 103.19 126.956 107.686 127.673 110.335C127.832 110.736 127.593 111.138 127.115 111.298C127.115 111.379 127.036 111.379 126.956 111.379Z" fill="#000072"/>
<path d="M127.56 110.492C127.336 110.492 127.157 110.318 127.112 110.1C127.112 109.882 127.291 109.664 127.515 109.664C128.856 109.577 129.527 108.662 129.527 108.619C129.661 108.444 129.93 108.357 130.109 108.488C130.377 108.619 130.422 108.88 130.287 109.054C130.243 109.098 129.348 110.361 127.56 110.492C127.604 110.492 127.604 110.492 127.56 110.492Z" fill="#000072"/>
<path d="M126.933 109.311C126.754 109.311 126.575 109.171 126.531 108.984C126.486 108.749 126.62 108.515 126.844 108.422C128.142 108.094 128.635 106.97 128.635 106.924C128.724 106.689 128.993 106.596 129.217 106.689C129.441 106.783 129.53 107.064 129.441 107.298C129.396 107.345 128.769 108.843 127.068 109.311C127.023 109.311 126.978 109.311 126.933 109.311Z" fill="#000072"/>
</g>
</g>
<g clip-path="url(#clip4_100_4737)">
<path d="M102.94 123.057C94.6749 123.057 88.0816 120.872 87.7101 120.682C87.3387 120.587 87.153 120.207 87.2458 119.827C87.4316 119.447 87.803 119.257 88.1745 119.352C88.3602 119.447 103.311 124.387 115.94 119.352C116.312 119.257 116.683 119.352 116.776 119.732C116.869 120.112 116.776 120.492 116.405 120.587C111.855 122.487 107.211 123.057 102.94 123.057Z" fill="#000072"/>
<path d="M108.883 122.011V125.621C108.883 129.231 105.818 132.176 102.011 132.176C98.2036 132.176 95.1392 129.231 95.1392 125.621V121.821C95.1392 121.821 103.125 123.246 108.883 122.011Z" fill="#FFA7AC"/>
<path d="M102.011 132.935C97.8323 132.935 94.4893 129.705 94.4893 125.621V121.821C94.4893 121.631 94.5821 121.441 94.7678 121.251C94.9536 121.156 95.1393 121.061 95.325 121.061C95.325 121.061 99.2253 121.726 103.497 121.726C105.54 121.726 107.304 121.536 108.79 121.251C108.976 121.251 109.254 121.251 109.347 121.441C109.44 121.631 109.533 121.821 109.533 122.011V125.621C109.533 129.705 106.19 132.935 102.011 132.935ZM95.8822 122.676V125.716C95.8822 128.945 98.6681 131.605 102.011 131.605C105.354 131.605 108.14 128.945 108.14 125.716V122.866C106.747 123.151 105.168 123.246 103.404 123.246C100.247 123.246 97.2751 122.866 95.8822 122.676Z" fill="#000072"/>
<path d="M102.011 128.756C101.64 128.756 101.268 128.376 101.268 127.996V122.581C101.268 122.201 101.64 121.821 102.011 121.821C102.382 121.821 102.754 122.201 102.754 122.581V128.091C102.754 128.471 102.382 128.756 102.011 128.756Z" fill="#000072"/>
</g>
<path d="M137.643 168.557L137.423 170.334V170.358L133.394 203.721L133.316 204.352C133.167 205.621 132.947 206.882 132.618 208.11C130.612 215.544 125.963 220.022 119.371 222.315C111.384 223.617 105.67 221.701 103.326 218.565C100.99 215.454 101.986 211.147 107.379 207.627C107.261 207.16 107.426 202.944 107.692 197.368C108.288 185.128 109.432 166.338 109.432 166.338C109.432 166.338 116.633 178.148 122.141 178.581C127.65 179.015 137.643 168.557 137.643 168.557Z" fill="#00BCFF"/>
<path d="M133.394 203.722L133.316 204.352C133.167 205.621 132.947 206.882 132.618 208.11C130.612 215.544 125.963 220.023 119.371 222.315C103.444 224.919 96.5614 214.701 107.378 207.627C107.261 207.16 107.425 202.944 107.692 197.368L107.7 197.36C114.472 189.844 129.357 194.552 133.394 203.722Z" fill="#00BCFF"/>
<ellipse cx="112.759" cy="214.761" rx="9.72353" ry="7.129" fill="white"/>
<path d="M138.27 168.639L137.58 176.188L136.859 183.729L136.099 191.269C135.848 193.783 135.605 196.296 135.291 198.801L134.821 202.559L134.586 204.434C134.507 205.081 134.413 205.736 134.296 206.383C134.178 207.038 134.037 207.685 133.865 208.34C133.692 208.978 133.504 209.617 133.285 210.247C132.854 211.5 132.313 212.728 131.67 213.899C130.384 216.24 128.621 218.312 126.559 219.933C124.498 221.562 122.162 222.741 119.771 223.576C119.709 223.601 119.63 223.617 119.567 223.625C117.012 224.035 114.402 224.198 111.768 223.904C110.459 223.756 109.142 223.494 107.849 223.069C106.563 222.643 105.294 222.045 104.134 221.177C102.989 220.318 101.923 219.147 101.335 217.632C101.045 216.887 100.873 216.068 100.865 215.25C100.849 214.431 100.99 213.629 101.226 212.884C101.712 211.394 102.566 210.149 103.53 209.117C104.494 208.078 105.576 207.234 106.697 206.498L106.14 207.955C106.125 207.881 106.109 207.799 106.101 207.726L106.093 207.644L106.085 207.586C106.078 207.505 106.07 207.423 106.07 207.365L106.054 206.997C106.046 206.768 106.046 206.538 106.046 206.317L106.062 204.999C106.07 204.131 106.101 203.264 106.14 202.396C106.211 200.668 106.281 198.941 106.383 197.221L106.705 192.055L107.081 186.897C107.332 183.458 107.59 180.02 107.888 176.589C108.17 173.151 108.476 169.72 108.805 166.29C108.844 165.921 109.15 165.659 109.503 165.692C109.832 165.725 110.083 166.028 110.075 166.372C109.989 169.818 109.895 173.265 109.777 176.704C109.675 180.151 109.542 183.589 109.417 187.036L109.236 192.202L109.025 197.36C108.97 199.08 108.876 200.799 108.805 202.51L108.696 205.073L108.649 206.342L108.633 206.956V207.234V207.341V207.365C108.633 207.374 108.633 207.382 108.633 207.357C108.633 207.333 108.625 207.308 108.617 207.283L108.061 208.741C107.073 209.396 106.148 210.124 105.364 210.96C104.588 211.795 103.969 212.736 103.648 213.719C103.326 214.701 103.342 215.7 103.702 216.617C104.055 217.534 104.761 218.361 105.631 219.008C106.501 219.663 107.535 220.162 108.625 220.522C109.715 220.883 110.867 221.112 112.043 221.243C114.386 221.505 116.8 221.357 119.176 220.981L118.972 221.03C121.159 220.269 123.236 219.204 125.039 217.788C126.841 216.371 128.354 214.587 129.483 212.548C130.047 211.525 130.526 210.452 130.91 209.33C131.106 208.774 131.278 208.2 131.435 207.627C131.584 207.062 131.709 206.481 131.819 205.892C131.921 205.302 132.007 204.704 132.085 204.099L132.305 202.216L132.744 198.458C133.034 195.952 133.402 193.455 133.755 190.95L134.813 183.45L135.903 175.959L137.031 168.467C137.086 168.107 137.416 167.853 137.76 167.911C138.074 167.976 138.301 168.296 138.27 168.639Z" fill="#000070"/>
<path d="M106.594 206.628C107.998 206.022 109.479 205.605 111 205.457C112.512 205.31 114.064 205.433 115.53 205.859C116.996 206.284 118.383 207.021 119.551 208.012C120.727 209.002 121.683 210.255 122.373 211.622C122.53 211.942 122.412 212.326 122.115 212.498C121.825 212.654 121.472 212.548 121.299 212.269C120.602 211.09 119.685 210.075 118.619 209.305C117.553 208.536 116.345 208.004 115.091 207.742C113.837 207.48 112.536 207.48 111.274 207.701C110.012 207.922 108.781 208.372 107.637 208.978H107.629C107.018 209.297 106.273 209.043 105.967 208.405C105.662 207.766 105.905 206.988 106.516 206.669C106.54 206.653 106.571 206.636 106.594 206.628Z" fill="#000070"/>
<path d="M115.985 214.676C115.836 215.994 115.773 217.321 115.953 218.549C116.047 219.163 116.204 219.736 116.439 220.219C116.667 220.71 116.988 221.095 117.349 221.39C117.897 221.84 117.991 222.667 117.56 223.24C117.129 223.813 116.337 223.911 115.789 223.461C115.671 223.363 115.577 223.256 115.499 223.134L115.444 223.043C115.013 222.323 114.738 221.521 114.644 220.743C114.55 219.965 114.589 219.22 114.707 218.524C114.958 217.124 115.444 215.88 115.985 214.676Z" fill="#000070"/>
<path d="M108.766 213.939C108.617 215.257 108.554 216.584 108.735 217.812C108.829 218.426 108.985 218.999 109.221 219.482C109.448 219.973 109.769 220.358 110.13 220.653C110.679 221.103 110.773 221.93 110.341 222.503C109.91 223.076 109.119 223.174 108.57 222.724C108.452 222.626 108.358 222.52 108.28 222.397L108.225 222.307C107.794 221.586 107.52 220.784 107.426 220.006C107.332 219.228 107.371 218.483 107.488 217.787C107.739 216.387 108.225 215.135 108.766 213.939Z" fill="#000070"/>
<g opacity="0.3">
<path d="M137.423 170.334V170.359L133.394 203.722L133.316 204.352C133.167 205.621 132.948 206.882 132.618 208.11C130.612 215.544 125.964 220.023 119.371 222.315C111.384 223.617 105.67 221.701 103.326 218.565C119.52 220.277 126.857 206.456 128.009 181.804C128.268 176.196 132.164 171.488 137.423 170.334Z" fill="#000070" fill-opacity="0.4"/>
</g>
<path d="M69.9574 154.846C69.8932 154.901 69.8358 154.939 69.7849 154.959C69.6799 154.999 69.5762 154.992 69.4737 154.938C69.3747 154.883 69.3004 154.791 69.2509 154.662C69.1805 154.479 69.1925 154.313 69.2869 154.164C69.3812 154.015 69.5259 153.86 69.7209 153.7L70.1197 153.371C70.2492 153.263 70.3445 153.147 70.4055 153.022C70.4678 152.901 70.4657 152.754 70.3992 152.581L70.366 152.495L69.4816 152.835C69.2139 152.938 69.0128 153.052 68.8783 153.178C68.8267 153.155 68.7726 153.115 68.7161 153.059C68.6608 153.007 68.6169 152.938 68.5843 152.853C68.5413 152.741 68.5366 152.638 68.5703 152.544C68.6039 152.449 68.6732 152.381 68.7783 152.341L71.3298 151.36C71.5873 151.261 71.7884 151.146 71.9331 151.017C71.9847 151.04 72.0381 151.078 72.0933 151.13C72.1499 151.186 72.1945 151.257 72.2271 151.341C72.2701 151.453 72.2741 151.555 72.2392 151.646C72.2055 151.741 72.1362 151.808 72.0312 151.848L70.61 152.401L70.6854 152.506C70.8113 152.672 70.9685 152.792 71.1569 152.867C71.3467 152.946 71.5403 152.984 71.7379 152.982C71.9368 152.984 72.1125 152.955 72.2649 152.896C72.3564 152.861 72.4321 152.82 72.4921 152.774C72.5567 152.73 72.6031 152.688 72.6313 152.65C72.7097 152.733 72.7652 152.817 72.7978 152.901C72.9164 153.21 72.808 153.428 72.4725 153.557C72.2184 153.655 71.9382 153.66 71.6319 153.571C71.327 153.487 71.039 153.294 70.7679 152.994C70.8218 153.195 70.8301 153.363 70.7925 153.498C70.7563 153.636 70.6753 153.764 70.5497 153.883L70.0989 154.319C69.9936 154.429 69.9244 154.512 69.8913 154.568C69.8582 154.623 69.8504 154.679 69.8678 154.734L69.8756 154.755C69.8887 154.788 69.9159 154.819 69.9574 154.846Z" fill="black"/>
<path d="M71.1521 158.706C70.9277 158.25 70.906 157.832 71.087 157.451C71.2696 157.074 71.6557 156.741 72.2453 156.45C72.8316 156.162 73.3299 156.06 73.7401 156.146C74.1519 156.234 74.4701 156.507 74.6945 156.963C74.9189 157.419 74.9398 157.835 74.7572 158.212C74.5762 158.593 74.1925 158.927 73.6062 159.216C73.0166 159.506 72.5159 159.607 72.1041 159.518C71.6939 159.433 71.3765 159.162 71.1521 158.706ZM71.3769 158.595C71.4923 158.83 71.6986 158.941 71.9958 158.928C72.2963 158.914 72.7168 158.774 73.2576 158.507C73.7983 158.241 74.1643 157.994 74.3557 157.767C74.5504 157.537 74.59 157.305 74.4746 157.071C74.3592 156.836 74.1505 156.725 73.8484 156.736C73.5479 156.75 73.129 156.89 72.5915 157.154C72.0541 157.418 71.688 157.665 71.4933 157.895C71.3003 158.127 71.2615 158.361 71.3769 158.595Z" fill="black"/>
<path d="M73.4897 162.84C73.4314 162.744 73.4069 162.644 73.4164 162.54C73.6105 162.503 73.8425 162.403 74.1126 162.239L76.0402 161.07C76.2979 160.914 76.5055 160.773 76.663 160.648C76.6991 160.651 76.7394 160.676 76.7838 160.721C76.8301 160.769 76.8712 160.823 76.9069 160.882C76.954 160.96 76.9739 161.013 76.9665 161.043C76.9019 161.189 76.7369 161.592 76.4717 162.254C76.2293 162.855 76.0416 163.309 75.9085 163.615C75.7774 163.924 75.658 164.157 75.5505 164.316L77.5479 162.894L77.6102 162.85C77.7127 162.788 77.809 162.761 77.8994 162.77C77.9916 162.782 78.0706 162.832 78.1364 162.92C78.2028 163.015 78.2335 163.111 78.2283 163.208C78.0828 163.241 77.8797 163.336 77.6189 163.494L75.6 164.713C75.3237 164.88 75.1183 165.017 74.9837 165.125C74.9488 165.116 74.9091 165.089 74.8647 165.044C74.819 165.004 74.7793 164.956 74.7454 164.9C74.7059 164.835 74.6854 164.783 74.684 164.746C75.1553 163.318 75.6007 162.25 76.0201 161.541L74.0225 162.931C73.9288 163 73.828 163.023 73.7202 162.999C73.6155 162.974 73.5387 162.921 73.4897 162.84Z" fill="black"/>
<path d="M76.9033 167.863C76.8449 167.767 76.8205 167.667 76.8299 167.564C77.024 167.527 77.2561 167.426 77.5262 167.262L79.4538 166.093C79.7114 165.937 79.919 165.796 80.0766 165.671C80.1127 165.675 80.153 165.699 80.1974 165.744C80.2437 165.793 80.2847 165.846 80.3205 165.905C80.3676 165.983 80.3874 166.037 80.3801 166.066C80.3154 166.212 80.1505 166.615 79.8853 167.277C79.6429 167.879 79.4551 168.332 79.3221 168.638C79.191 168.947 79.0716 169.18 78.964 169.339L80.9614 167.917L81.0238 167.873C81.1262 167.811 81.2226 167.785 81.3129 167.793C81.4051 167.805 81.4841 167.855 81.5499 167.943C81.6164 168.038 81.647 168.134 81.6419 168.231C81.4964 168.264 81.2932 168.36 81.0325 168.518L79.0136 169.736C78.7373 169.903 78.5319 170.041 78.3973 170.148C78.3624 170.139 78.3227 170.112 78.2783 170.067C78.2326 170.027 78.1929 169.979 78.159 169.923C78.1194 169.858 78.099 169.806 78.0975 169.769C78.5689 168.341 79.0143 167.273 79.4336 166.564L77.4361 167.954C77.3424 168.023 77.2416 168.046 77.1338 168.023C77.0291 167.997 76.9522 167.944 76.9033 167.863Z" fill="black"/>
<path d="M81.3543 173.445C81.285 173.347 81.255 173.248 81.2642 173.148C81.2734 173.048 81.3239 172.966 81.4157 172.901L83.6455 171.319C83.8706 171.16 84.0372 170.999 84.1454 170.838C84.201 170.847 84.2622 170.871 84.3287 170.908C84.3974 170.948 84.4579 171.006 84.5104 171.08C84.5797 171.177 84.6098 171.276 84.6006 171.376C84.5914 171.476 84.5409 171.559 84.4491 171.624L82.2192 173.205C81.9853 173.371 81.8187 173.532 81.7194 173.687C81.6637 173.677 81.6016 173.652 81.5329 173.612C81.4664 173.574 81.4068 173.519 81.3543 173.445Z" fill="black"/>
<path d="M84.2421 176.928C83.9361 176.554 83.8314 176.154 83.928 175.728C84.0269 175.304 84.3193 174.894 84.8052 174.496C85.2911 174.098 85.7534 173.897 86.1923 173.895C86.6339 173.889 87.0123 174.079 87.3275 174.464C87.4563 174.621 87.5597 174.788 87.6377 174.963C87.7157 175.139 87.7536 175.302 87.7514 175.454C87.7514 175.609 87.7009 175.728 87.5998 175.811C87.5127 175.882 87.4047 175.905 87.2757 175.879C87.1495 175.851 87.0314 175.767 86.9215 175.627C87.3027 175.245 87.3771 174.911 87.1448 174.628C86.9723 174.417 86.7336 174.352 86.429 174.433C86.1271 174.511 85.7514 174.734 85.3021 175.102C84.8527 175.47 84.5573 175.794 84.416 176.074C84.2774 176.352 84.2932 176.595 84.4635 176.803C84.5877 176.954 84.7451 177.032 84.9356 177.035C85.1262 177.039 85.3453 176.963 85.593 176.807C85.6308 176.842 85.6578 176.869 85.6739 176.888C85.7567 176.989 85.8027 177.097 85.812 177.212C85.8235 177.329 85.7858 177.423 85.6987 177.495C85.5751 177.596 85.427 177.633 85.2543 177.605C85.0816 177.578 84.9047 177.502 84.7235 177.378C84.5475 177.255 84.387 177.105 84.2421 176.928Z" fill="black"/>
<path d="M89.7977 181.848C89.5921 182.048 89.4523 182.232 89.3781 182.401C89.3216 182.4 89.2564 182.385 89.1823 182.356C89.1108 182.329 89.0434 182.283 88.9801 182.218C88.8965 182.133 88.8516 182.039 88.8452 181.939C88.8389 181.839 88.8761 181.75 88.9567 181.671L90.0338 180.623L89.0236 179.585L88.2899 180.299C88.0844 180.499 87.9445 180.683 87.8703 180.852C87.8139 180.851 87.7486 180.836 87.6745 180.807C87.603 180.78 87.5356 180.734 87.4723 180.669C87.3888 180.583 87.3438 180.49 87.3375 180.39C87.3311 180.29 87.3683 180.2 87.4489 180.122L89.4081 178.215C89.6058 178.023 89.7457 177.839 89.8276 177.663C89.8841 177.663 89.9481 177.677 90.0196 177.704C90.0937 177.733 90.1624 177.78 90.2257 177.845C90.3092 177.931 90.3542 178.024 90.3605 178.124C90.3668 178.225 90.3297 178.314 90.249 178.392L89.2968 179.319L90.307 180.357L90.9158 179.765C91.1136 179.572 91.2534 179.388 91.3354 179.212C91.3919 179.213 91.4559 179.226 91.5274 179.253C91.6015 179.282 91.6701 179.329 91.7334 179.395C91.8144 179.478 91.8581 179.57 91.8645 179.67C91.8733 179.773 91.8374 179.863 91.7568 179.942L89.7977 181.848Z" fill="black"/>
<path d="M91.9425 185.035C91.853 184.956 91.8015 184.866 91.788 184.767C91.7745 184.667 91.8051 184.575 91.88 184.491L93.6975 182.449C93.881 182.243 94.0073 182.05 94.0764 181.868C94.1328 181.865 94.1976 181.874 94.2709 181.895C94.3468 181.919 94.4187 181.961 94.4865 182.022C94.576 182.101 94.6275 182.191 94.641 182.29C94.6545 182.39 94.6238 182.482 94.549 182.566L92.7314 184.608C92.5408 184.822 92.4145 185.016 92.3525 185.189C92.2961 185.192 92.23 185.182 92.154 185.158C92.0808 185.137 92.0103 185.096 91.9425 185.035Z" fill="black"/>
<path d="M100.154 186.576C100.267 186.661 100.336 186.739 100.359 186.811C100.385 186.885 100.368 186.963 100.307 187.044C100.257 187.111 100.162 187.196 100.021 187.3L97.4184 189.318C97.2513 189.275 97.1053 189.207 96.9802 189.113C96.7854 188.967 96.7154 188.834 96.7704 188.712L97.7476 186.376L95.6953 188.031C95.5254 187.985 95.3822 187.919 95.2659 187.832C95.0507 187.671 94.972 187.531 95.0299 187.411L96.3337 184.32C96.3575 184.27 96.3759 184.209 96.3889 184.137C96.4018 184.065 96.4053 184 96.3994 183.941C96.5359 183.916 96.6797 183.96 96.831 184.073C97.0462 184.234 97.114 184.398 97.0344 184.565L95.6899 187.428L97.6519 185.822C97.6983 185.784 97.7389 185.742 97.7737 185.695C97.8237 185.628 97.8573 185.556 97.8746 185.478C97.9494 185.493 98.0286 185.521 98.1122 185.561C98.2008 185.6 98.2771 185.643 98.3411 185.691C98.4196 185.75 98.4753 185.812 98.5081 185.877C98.5409 185.942 98.5446 186.004 98.5193 186.062L97.4119 188.708L99.5715 186.746C99.5918 186.725 99.6189 186.698 99.653 186.664C99.69 186.633 99.7193 186.603 99.7411 186.574C99.7824 186.519 99.804 186.462 99.8061 186.405C99.8737 186.424 99.9325 186.445 99.9827 186.469C100.033 186.493 100.09 186.529 100.154 186.576Z" fill="black"/>
<path d="M103.765 193.048C103.726 193.198 103.718 193.324 103.741 193.427C103.604 193.472 103.456 193.447 103.298 193.351C103.201 193.294 103.131 193.224 103.086 193.142C103.045 193.063 103.04 192.979 103.071 192.892L103.332 191.981L102.276 191.349L101.761 191.859C101.69 191.927 101.638 191.989 101.605 192.045C101.566 192.11 101.553 192.17 101.567 192.225C101.494 192.211 101.43 192.194 101.375 192.174C101.321 192.158 101.26 192.13 101.191 192.089C101.073 192.018 100.998 191.945 100.966 191.871C100.937 191.799 100.95 191.718 101.004 191.627C101.049 191.553 101.133 191.459 101.255 191.346L103.813 189.165C104.018 189.212 104.206 189.287 104.377 189.389C104.564 189.501 104.635 189.635 104.589 189.789L103.765 193.048ZM103.442 191.597L103.996 189.656L102.559 191.067L103.442 191.597Z" fill="black"/>
<circle cx="102.182" cy="89.7771" r="4.94706" fill="#FF1212"/>
<defs>
<clipPath id="clip0_100_4737">
<rect width="66.2565" height="78.0612" fill="white" transform="matrix(-1 0 0 1 198.975 107.689)"/>
</clipPath>
<clipPath id="clip1_100_4737">
<rect width="110.541" height="97.2353" fill="white" transform="translate(46.7412 52.7593)"/>
</clipPath>
<clipPath id="clip2_100_4737">
<rect width="61.4232" height="29.2351" fill="white" transform="translate(70.7095 97.7944)"/>
</clipPath>
<clipPath id="clip3_100_4737">
<rect width="21.2619" height="8.26851" fill="white" transform="translate(110.871 103.11)"/>
</clipPath>
<clipPath id="clip4_100_4737">
<rect width="29.5304" height="13.584" fill="white" transform="translate(87.2461 119.352)"/>
</clipPath>
</defs>
</svg>
