<svg width="102" height="113" viewBox="0 0 102 113" fill="none" xmlns="http://www.w3.org/2000/svg">
<path d="M51 102C79.1665 102 102 79.1665 102 51C102 22.8335 79.1665 0 51 0C22.8335 0 0 22.8335 0 51C0 79.1665 22.8335 102 51 102Z" fill="#FCB500"/>
<path d="M0.059082 48.4059L48.4059 0.059082C46.5192 0.177001 44.6325 0.35388 42.8048 0.648677L0.648677 42.8637C0.35388 44.6915 0.177001 46.5192 0.059082 48.4059Z" fill="#FCCC20"/>
<path d="M85.6685 13.6194C80.1263 8.48995 73.4049 4.53966 65.976 2.24023L2.24072 65.9755C4.54014 73.4044 8.43147 80.0668 13.6199 85.668L85.6685 13.6194Z" fill="#FCCC20"/>
<path d="M102 50.9997C102 49.0541 101.882 47.1084 101.646 45.2217L45.2222 101.646C47.1089 101.882 49.0545 102 51.0002 102C51.4129 102 51.8256 102 52.2384 102L102 52.2379C101.941 51.7662 102 51.4124 102 50.9997Z" fill="#FCCC20"/>
<path d="M25.5298 95.1605L95.161 25.5293C94.2766 23.9963 93.2743 22.5223 92.2719 21.0483L21.0488 92.2715C22.4639 93.2738 23.9968 94.2761 25.5298 95.1605Z" fill="#FCCC20"/>
<path d="M97.8142 30.7768C97.4015 29.8335 96.9298 28.8901 96.4581 27.9468L27.8882 96.4578C28.8315 96.9294 29.7749 97.4011 30.7182 97.8138L97.8142 30.7768Z" fill="#FCCC20"/>
<path d="M51 0.471676C79.0647 0.471676 101.882 23.1711 102 51.2358C102 51.1769 102 51.059 102 51C102 22.8173 79.1237 0 51 0C22.8173 0 0 22.8173 0 51C0 51.059 0 51.1769 0 51.2358C0.117919 23.1711 22.9353 0.471676 51 0.471676Z" fill="#FCD323"/>
<path d="M50.9999 5.12939C25.2936 5.12939 4.42188 25.9421 4.42188 51.6485C4.42188 77.3548 25.2346 98.1676 50.941 98.1676C76.6473 98.1676 97.46 77.3548 97.46 51.6485C97.46 25.9421 76.7063 5.12939 50.9999 5.12939ZM50.9999 95.6323C26.7086 95.6323 7.01609 75.9398 7.01609 51.6485C7.01609 27.3571 26.7086 7.66465 50.9999 7.66465C75.2912 7.66465 94.9837 27.3571 94.9837 51.6485C94.9837 75.9398 75.2912 95.6323 50.9999 95.6323Z" fill="#FCE96C"/>
<path d="M51.0001 86.2577C31.6024 86.2577 15.8013 70.4565 15.8013 51.0588C15.8013 31.7201 31.6024 15.9189 51.0001 15.9189C70.3978 15.9189 86.199 31.7201 86.199 51.1178C86.14 70.5155 70.3978 86.2577 51.0001 86.2577ZM51.0001 16.5085C31.8972 16.5085 16.3909 32.0149 16.3909 51.1178C16.3909 70.2207 31.8972 85.727 51.0001 85.727C70.103 85.727 85.6094 70.2207 85.6094 51.1178C85.5504 32.0149 70.044 16.5085 51.0001 16.5085Z" fill="#FCF997"/>
<path d="M51 88.0268C30.6589 88.0268 14.0913 71.4592 14.0913 51.1181C14.0913 30.7771 30.6589 14.2095 51 14.2095C71.341 14.2095 87.9087 30.7771 87.9087 51.1181C87.9087 71.4592 71.341 88.0268 51 88.0268ZM51 14.5043C30.8358 14.5043 14.3861 30.954 14.3861 51.1181C14.3861 71.2823 30.8358 87.732 51 87.732C71.1641 87.732 87.6139 71.2823 87.6139 51.1181C87.6139 30.954 71.1641 14.5043 51 14.5043Z" fill="#FCF997"/>
<path d="M51.0002 93.8046C27.4753 93.8046 8.31348 74.6427 8.31348 51.1179C8.31348 27.593 27.4753 8.43115 51.0002 8.43115C74.525 8.43115 93.6869 27.593 93.6869 51.1179C93.6869 74.6427 74.525 93.8046 51.0002 93.8046ZM51.0002 8.66699C27.5932 8.66699 8.54931 27.7109 8.54931 51.1179C8.54931 74.5248 27.5932 93.5687 51.0002 93.5687C74.4071 93.5687 93.451 74.5248 93.451 51.1179C93.3921 27.7109 74.4071 8.66699 51.0002 8.66699Z" fill="#FCF997"/>
<path d="M50.9999 4.42188C25.2936 4.42188 4.42188 25.2936 4.42188 50.9999C4.42188 76.7063 25.2346 97.519 50.941 97.519C76.6473 97.519 97.46 76.7063 97.46 50.9999C97.46 25.2936 76.7063 4.42188 50.9999 4.42188ZM50.9999 94.9837C26.7086 94.9837 7.01609 75.2912 7.01609 50.9999C7.01609 26.7086 26.7086 7.01609 50.9999 7.01609C75.2912 7.01609 94.9837 26.7086 94.9837 50.9999C94.9837 75.2912 75.2912 94.9837 50.9999 94.9837Z" fill="#ED7300"/>
<path d="M50.9996 86.1399C31.6019 86.1399 15.8008 70.3387 15.8008 50.941C15.8008 31.5433 31.6019 15.7422 50.9996 15.7422C70.3973 15.7422 86.1985 31.5433 86.1985 50.941C86.1395 70.3977 70.3973 86.1399 50.9996 86.1399ZM50.9996 16.3907C31.8967 16.3907 16.3904 31.8971 16.3904 51C16.3904 70.1029 31.8967 85.6092 50.9996 85.6092C70.1025 85.6092 85.6089 70.1029 85.6089 51C85.5499 31.8971 70.0436 16.3907 50.9996 16.3907Z" fill="#ED7300"/>
<path d="M51 87.9087C30.6589 87.9087 14.0913 71.341 14.0913 51C14.0913 30.6589 30.6589 14.0913 51 14.0913C71.341 14.0913 87.9087 30.6589 87.9087 51C87.9087 71.341 71.341 87.9087 51 87.9087ZM51 14.3861C30.8358 14.3861 14.3861 30.8358 14.3861 51C14.3861 71.1641 30.8358 87.6139 51 87.6139C71.1641 87.6139 87.6139 71.1641 87.6139 51C87.6139 30.7769 71.1641 14.3861 51 14.3861Z" fill="#ED7300"/>
<path d="M50.9998 93.6868C27.475 93.6868 8.31312 74.5249 8.31312 51.0001C8.25416 27.4162 27.416 8.25439 50.9998 8.25439C74.5247 8.25439 93.6865 27.4162 93.6865 50.9411C93.6865 74.5249 74.5247 93.6868 50.9998 93.6868ZM50.9998 8.54919C27.5929 8.54919 8.54896 27.5931 8.54896 51.0001C8.54896 74.407 27.5929 93.4509 50.9998 93.4509C74.4068 93.4509 93.4507 74.407 93.4507 51.0001C93.3917 27.5931 74.4068 8.54919 50.9998 8.54919Z" fill="#ED7300"/>
<path d="M13.9585 47.4774C14.0755 47.4385 14.1736 47.4202 14.2526 47.4224C14.4159 47.427 14.5511 47.494 14.6581 47.6236C14.76 47.7529 14.8081 47.9177 14.8024 48.1179C14.7945 48.4023 14.6856 48.6181 14.4759 48.7651C14.2662 48.9121 13.9859 49.0386 13.6349 49.1448L12.9172 49.3619C12.6832 49.4344 12.4905 49.5371 12.3392 49.6699C12.188 49.7975 12.1086 49.9956 12.1011 50.2642L12.0973 50.3985L13.4722 50.4371C13.8883 50.4488 14.2216 50.408 14.472 50.3149C14.5283 50.3744 14.5787 50.4576 14.6232 50.5642C14.6678 50.6657 14.6882 50.7822 14.6845 50.9139C14.6796 51.0877 14.6283 51.2286 14.5303 51.3366C14.4324 51.4446 14.3018 51.4963 14.1385 51.4917L10.1719 51.3805C9.7716 51.3693 9.43833 51.41 9.17215 51.5027C9.11583 51.4431 9.06536 51.3626 9.02076 51.2612C8.9763 51.1545 8.95592 51.0354 8.95961 50.9037C8.96449 50.7298 9.01581 50.5916 9.11358 50.4889C9.2115 50.3809 9.34211 50.3292 9.50541 50.3338L11.7181 50.3879L11.6757 50.2049C11.5996 49.9128 11.4563 49.6636 11.246 49.4574C11.0357 49.2459 10.7977 49.0863 10.5319 48.9787C10.2662 48.8658 10.0148 48.8061 9.77774 48.7994C9.63552 48.7954 9.51128 48.8078 9.40504 48.8364C9.29368 48.8597 9.20852 48.8889 9.14954 48.9242C9.09061 48.7696 9.06299 48.6265 9.06668 48.4948C9.08012 48.0155 9.34759 47.7831 9.86909 47.7977C10.2642 47.8088 10.6422 47.9591 11.0031 48.2486C11.3641 48.5329 11.6423 48.9519 11.8377 49.5056C11.8777 49.2062 11.9606 48.9766 12.0863 48.8167C12.2122 48.6515 12.3924 48.5248 12.6268 48.4365L13.4743 48.1044C13.6772 48.0152 13.8163 47.9426 13.8916 47.8867C13.967 47.8309 14.0085 47.7609 14.0161 47.6767L14.017 47.6451C14.0185 47.5924 13.999 47.5365 13.9585 47.4774Z" fill="black"/>
<path d="M16.9983 38.2949C16.7042 38.9715 16.2616 39.3882 15.6706 39.545C15.0816 39.697 14.3498 39.5829 13.475 39.2026C12.6051 38.8245 12.0248 38.3683 11.7342 37.834C11.4456 37.2948 11.4484 36.687 11.7425 36.0104C12.0366 35.3337 12.4781 34.9195 13.0671 34.7675C13.6581 34.6107 14.3886 34.7213 15.2585 35.0995C16.1333 35.4797 16.7149 35.9394 17.0035 36.4785C17.2941 37.0128 17.2924 37.6183 16.9983 38.2949ZM16.6648 38.1499C16.8161 37.802 16.7451 37.4695 16.452 37.1524C16.154 36.8333 15.6039 36.4994 14.8016 36.1506C13.9994 35.8019 13.3823 35.6285 12.9505 35.6304C12.5139 35.6303 12.22 35.8042 12.0687 36.1522C11.9175 36.5001 11.9898 36.8361 12.2857 37.1601C12.5836 37.4792 13.1313 37.8121 13.9288 38.1587C14.7262 38.5053 15.3432 38.6787 15.7799 38.6789C16.2186 38.6742 16.5136 38.4979 16.6648 38.1499Z" fill="black"/>
<path d="M22.4741 28.6659C22.3708 28.7925 22.2461 28.8744 22.1001 28.9116C21.9552 28.6641 21.7052 28.3954 21.35 28.1055L18.8148 26.0361C18.476 25.7595 18.1827 25.5439 17.9348 25.3892C17.9221 25.338 17.936 25.2711 17.9763 25.1884C18.0199 25.1016 18.0734 25.0194 18.1367 24.9418C18.22 24.8397 18.2839 24.7865 18.3284 24.782C18.5587 24.7999 19.1909 24.8295 20.2251 24.871C21.1654 24.9107 21.877 24.9473 22.3598 24.9809C22.8459 25.0104 23.2236 25.0602 23.4928 25.1303L20.5784 23.0881L20.4877 23.0242C20.353 22.9143 20.2698 22.7953 20.2381 22.6674C20.2098 22.5355 20.2395 22.4033 20.3272 22.2708C20.4257 22.1335 20.5422 22.0449 20.6767 22.0051C20.7926 22.1881 21.022 22.4196 21.3649 22.6995L24.0114 24.87C24.3748 25.1666 24.6624 25.3809 24.8742 25.513C24.8795 25.5649 24.862 25.6322 24.8216 25.715C24.7887 25.797 24.7423 25.8747 24.6823 25.9482C24.6123 26.0339 24.5521 26.0868 24.5017 26.1069C22.3194 26.1554 20.6417 26.0648 19.4687 25.8351L22.3397 27.893C22.4804 27.9874 22.5606 28.1141 22.5804 28.2731C22.5962 28.4289 22.5608 28.5598 22.4741 28.6659Z" fill="black"/>
<path d="M32.2628 19.9253C32.1183 20.0014 31.9715 20.028 31.8225 20.0052C31.7859 19.7207 31.6609 19.3756 31.4473 18.97L29.923 16.0741C29.7192 15.6871 29.5335 15.3739 29.3659 15.1346C29.3742 15.0826 29.4131 15.0264 29.4826 14.966C29.5567 14.9032 29.638 14.8485 29.7266 14.8018C29.8432 14.7404 29.9229 14.7164 29.9656 14.7296C30.1705 14.8361 30.7408 15.1106 31.6764 15.5531C32.5264 15.9573 33.167 16.2692 33.5983 16.4888C34.0342 16.706 34.3623 16.8995 34.5828 17.0693L32.6987 14.0502L32.6402 13.956C32.5592 13.8021 32.5291 13.6601 32.5499 13.53C32.5755 13.3975 32.6545 13.2874 32.787 13.1998C32.9313 13.1119 33.0732 13.0759 33.2126 13.0919C33.2477 13.3057 33.3684 13.6084 33.5746 14.0001L35.1619 17.0325C35.3803 17.4475 35.5612 17.7572 35.7046 17.9617C35.6891 18.0115 35.6467 18.0666 35.5772 18.127C35.5149 18.1896 35.4417 18.243 35.3578 18.2871C35.2599 18.3387 35.1838 18.3639 35.1295 18.3626C33.1019 17.554 31.5932 16.8148 30.6033 16.1448L32.4413 19.1613C32.5339 19.3032 32.5582 19.4512 32.5142 19.6053C32.4679 19.7548 32.3841 19.8614 32.2628 19.9253Z" fill="black"/>
<path d="M45.5797 15.1052C45.4117 15.1502 45.262 15.1412 45.1305 15.0783C44.9991 15.0153 44.9122 14.9049 44.8699 14.7471L43.8429 10.9142C43.7393 10.5273 43.605 10.2196 43.4401 9.99101C43.4811 9.92001 43.5438 9.84865 43.6282 9.77692C43.7177 9.70383 43.8261 9.65024 43.9534 9.61614C44.1214 9.57113 44.2711 9.58012 44.4025 9.6431C44.534 9.70608 44.6208 9.81647 44.6631 9.97427L45.6901 13.8072C45.7979 14.2093 45.9322 14.517 46.093 14.7303C46.052 14.8013 45.9867 14.8734 45.8972 14.9465C45.8128 15.0182 45.7069 15.0711 45.5797 15.1052Z" fill="black"/>
<path d="M56.142 15.0733C55.4512 14.9553 54.9557 14.6167 54.6556 14.0575C54.3607 13.4993 54.29 12.7708 54.4435 11.8722C54.5971 10.9735 54.9129 10.3138 55.3911 9.89294C55.8702 9.46691 56.4656 9.31468 57.1772 9.43626C57.4681 9.48596 57.7398 9.5698 57.9923 9.68778C58.2448 9.80576 58.4422 9.94908 58.5844 10.1177C58.7319 10.2873 58.7897 10.4655 58.7577 10.6525C58.7302 10.8136 58.6335 10.9414 58.4677 11.036C58.3027 11.1254 58.0934 11.1458 57.8397 11.0971C57.8932 10.315 57.6576 9.87918 57.1329 9.78955C56.7433 9.72299 56.42 9.87892 56.1629 10.2573C55.9066 10.6306 55.7075 11.2327 55.5656 12.0639C55.4236 12.895 55.4084 13.5312 55.5201 13.9727C55.6327 14.4089 55.8812 14.6598 56.2656 14.7255C56.5461 14.7734 56.7924 14.7086 57.0045 14.531C57.2166 14.3534 57.3841 14.0612 57.5071 13.6546C57.5816 13.6566 57.637 13.6607 57.6734 13.6669C57.8604 13.6989 58.0134 13.7731 58.1325 13.8897C58.2568 14.0072 58.3052 14.1464 58.2776 14.3074C58.2386 14.536 58.1114 14.7174 57.896 14.8517C57.6806 14.986 57.4147 15.0715 57.0983 15.1084C56.788 15.1409 56.4693 15.1292 56.142 15.0733Z" fill="black"/>
<path d="M69.7084 18.4549C69.507 18.8192 69.3903 19.134 69.3581 19.3992C69.2793 19.4219 69.1823 19.4285 69.0672 19.4191C68.9566 19.4121 68.8436 19.3768 68.7283 19.3131C68.5761 19.229 68.4745 19.1186 68.4236 18.9821C68.3726 18.8455 68.3866 18.7058 68.4656 18.5628L69.5209 16.6533L67.6807 15.6363L66.9618 16.9369C66.7605 17.3013 66.6437 17.6161 66.6115 17.8813C66.5327 17.904 66.4358 17.9106 66.3206 17.9011C66.21 17.8942 66.0971 17.8589 65.9818 17.7952C65.8296 17.711 65.728 17.6007 65.677 17.4642C65.626 17.3276 65.64 17.1878 65.7191 17.0449L67.6385 13.5718C67.8322 13.2213 67.949 12.9065 67.9888 12.6275C68.0676 12.6048 68.1622 12.5969 68.2728 12.6038C68.388 12.6133 68.5032 12.6499 68.6186 12.7136C68.7708 12.7977 68.8723 12.9081 68.9233 13.0446C68.9743 13.1812 68.9603 13.3209 68.8813 13.4639L67.9483 15.152L69.7886 16.1691L70.3851 15.0898C70.5788 14.7393 70.6956 14.4245 70.7354 14.1454C70.8142 14.1227 70.9088 14.1149 71.0194 14.1218C71.1346 14.1312 71.2498 14.1678 71.3651 14.2316C71.5127 14.3131 71.612 14.4222 71.663 14.5587C71.7186 14.6978 71.7069 14.8389 71.6278 14.9819L69.7084 18.4549Z" fill="black"/>
<path d="M76.7854 25.5685C76.6777 25.4319 76.6268 25.2909 76.6327 25.1452C76.6386 24.9996 76.7057 24.8762 76.8339 24.775L79.9489 22.3168C80.2633 22.0687 80.4929 21.8237 80.6377 21.5819C80.7191 21.5915 80.8094 21.6209 80.9087 21.6701C81.0112 21.7234 81.1033 21.8018 81.1849 21.9052C81.2926 22.0417 81.3435 22.1828 81.3376 22.3285C81.3317 22.4741 81.2647 22.5975 81.1364 22.6987L78.0214 25.1569C77.6946 25.4148 77.465 25.6598 77.3326 25.8918C77.2512 25.8822 77.1592 25.8508 77.0567 25.7974C76.9575 25.7482 76.867 25.6719 76.7854 25.5685Z" fill="black"/>
<path d="M90.8149 37.4269C90.8933 37.6169 90.9203 37.7654 90.896 37.8723C90.8737 37.9841 90.7943 38.0681 90.6579 38.1244C90.5459 38.1706 90.3637 38.2058 90.1115 38.23L85.366 38.8103C85.1899 38.6321 85.0586 38.4382 84.9723 38.2288C84.8377 37.9023 84.85 37.6835 85.0093 37.5722L87.9646 35.3874L84.1757 35.9237C83.9976 35.7407 83.8683 35.5517 83.788 35.3568C83.6393 34.9963 83.6456 34.7629 83.807 34.6564L87.731 31.7729C87.798 31.7281 87.8663 31.6657 87.936 31.5857C88.0056 31.5057 88.0586 31.4269 88.0949 31.3492C88.2836 31.4196 88.4301 31.5815 88.5346 31.8348C88.6832 32.1953 88.6458 32.4501 88.4223 32.5993L84.6168 35.1689L88.2574 34.6253C88.3434 34.6127 88.4254 34.5903 88.5033 34.5581C88.6154 34.5119 88.7111 34.4468 88.7904 34.3628C88.8724 34.4373 88.9507 34.5304 89.0253 34.6421C89.1068 34.7567 89.1696 34.8676 89.2138 34.9748C89.268 35.1064 89.2913 35.225 89.2836 35.3308C89.276 35.4366 89.2347 35.5163 89.1599 35.5699L85.8114 38.0452L89.9626 37.2055C90.0036 37.1943 90.0578 37.1805 90.1251 37.1641C90.1945 37.1526 90.2535 37.1368 90.3023 37.1167C90.3948 37.0786 90.4637 37.0245 90.509 36.9545C90.5792 37.0282 90.6368 37.0985 90.6815 37.1655C90.7263 37.2326 90.7707 37.3197 90.8149 37.4269Z" fill="black"/>
<path d="M87.9242 51.097C87.7081 51.1603 87.5448 51.2446 87.4341 51.35C87.276 51.213 87.197 51.0101 87.197 50.7413C87.197 50.578 87.2312 50.4383 87.2997 50.3224C87.3682 50.2117 87.4683 50.1432 87.6001 50.1169L88.9281 49.7612L88.9281 47.9747L87.9084 47.7139C87.7714 47.677 87.6554 47.6585 87.5606 47.6585C87.4499 47.6585 87.3656 47.6875 87.3076 47.7455C87.2707 47.6454 87.2444 47.5531 87.2286 47.4688C87.2075 47.3898 87.197 47.2923 87.197 47.1764C87.197 46.9761 87.2312 46.8285 87.2997 46.7337C87.3682 46.6441 87.4789 46.5993 87.6317 46.5993C87.7582 46.5993 87.9374 46.6336 88.1692 46.7021L92.7934 48.2593C92.8883 48.5491 92.9357 48.839 92.9357 49.1288C92.9357 49.445 92.8224 49.6321 92.5958 49.69L87.9242 51.097ZM89.4893 49.611L92.3191 48.8521L89.4893 48.117L89.4893 49.611Z" fill="black"/>
<path d="M23.2835 44.8749C23.2835 44.8749 24.5157 46.2675 26.206 47.2704C26.5222 47.457 26.8533 47.6314 27.1977 47.7798C28.6549 48.4099 29.8907 48.0137 31.0045 47.6602C32.2983 47.2513 33.4241 46.9063 34.5256 48.3169C34.8285 48.7051 35.1099 49.1184 35.4214 49.5378C36.3782 50.8315 37.5942 52.1774 40.464 52.9796L41.7385 51.1428C38.9438 50.4727 38.3 50.2953 37.1232 47.3572C37.0183 47.0934 36.9084 46.8062 36.7899 46.4943C35.477 42.9758 33.2853 43.7667 31.3352 44.354C30.3792 44.6423 29.4836 44.8797 28.7762 44.5372C28.4852 44.3962 28.2189 44.2267 27.9767 44.0373C26.5215 42.9002 25.9246 41.0897 25.8985 41.0092C25.8941 41.1097 25.7013 44.5022 23.2835 44.8749Z" fill="white"/>
<g opacity="0.3">
<path opacity="0.25" d="M26.21 47.2695C26.5263 47.4561 26.8574 47.6305 27.2017 47.779C28.659 48.4091 29.8948 48.0128 31.0085 47.6593C30.7984 47.2574 30.6893 46.7926 30.7239 46.2598C30.7594 45.6992 30.9508 45.0661 31.3405 44.3558C30.3845 44.644 29.4889 44.8814 28.7815 44.539C28.4905 44.3979 28.2242 44.2285 27.982 44.039C27.9841 45.129 27.6218 46.4042 26.21 47.2695Z" fill="#371A45"/>
</g>
<path d="M39.6446 53.1064C36.8462 52.1464 35.7569 50.6314 34.7866 49.2831C34.6006 49.024 34.4246 48.7792 34.2408 48.5447C33.287 47.3236 32.3664 47.6153 31.09 48.0171C29.9337 48.3821 28.6231 48.796 27.0519 48.116C24.8247 47.1502 23.0858 45.1997 23.0127 45.1183C22.9245 45.0185 22.8978 44.877 22.9431 44.7515C22.9883 44.626 23.0993 44.5339 23.2308 44.5139C25.356 44.1863 25.5346 41.0232 25.5362 40.9934C25.5454 40.8164 25.677 40.6706 25.851 40.6457C26.0243 40.6227 26.1903 40.7274 26.2423 40.8949C26.2491 40.919 27.0217 43.2822 28.9334 44.2092C29.5596 44.513 30.4614 44.2387 31.4155 43.9498C33.3405 43.3668 35.736 42.6394 37.1288 46.3631C38.4847 49.9875 38.8638 50.0785 41.8234 50.7878C42.0177 50.835 42.137 51.0321 42.089 51.2283C42.0411 51.4245 41.8447 51.5459 41.6504 51.4988C38.4689 50.735 37.8992 50.4984 36.4503 46.6251C35.2939 43.5335 33.5078 44.0751 31.6183 44.6486C30.5248 44.9808 29.4919 45.2926 28.6131 44.8675C27.3384 44.2501 26.5237 43.1244 26.0558 42.2652C25.8037 43.2571 25.2365 44.5597 23.9699 45.0647C24.6001 45.6823 25.8733 46.8113 27.3364 47.4433C28.6624 48.0176 29.7852 47.6628 30.8717 47.3195C32.1849 46.9043 33.5433 46.4763 34.8044 48.0915C34.9984 48.3402 35.1775 48.5883 35.368 48.8533C36.3965 50.2823 37.4592 51.7621 40.5585 52.6279C40.7501 52.6828 40.8623 52.8818 40.8079 53.078C40.7542 53.2722 40.5541 53.3858 40.3598 53.3322C40.1117 53.2601 39.8733 53.1848 39.6446 53.1064Z" fill="#000072"/>
<g opacity="0.5">
<path d="M35.073 46.2134C35.2531 45.9953 34.8267 44.9464 33.8484 44.78C32.7911 44.5996 31.5727 45.208 31.8998 45.4569C32.1688 45.662 32.6613 45.2972 33.6803 45.727C34.5764 46.1082 34.9341 46.3806 35.073 46.2134Z" fill="white"/>
</g>
<path d="M23.8705 52.2554C23.9145 52.1726 25.439 49.3315 27.4939 49.4123C27.7888 49.4234 28.0612 49.4359 28.3141 49.4478C29.7108 49.504 30.5037 49.4695 31.304 48.5728C31.3676 48.5036 31.4304 48.4281 31.4923 48.346C32.0284 47.6551 32.799 47.6596 34.0831 47.4084C34.5332 47.3201 35.0458 47.2021 35.633 47.0118L35.6857 45.7636C35.0968 45.977 34.5027 46.0192 33.8903 46.0459C32.8525 46.092 31.7637 46.0959 30.5684 46.8149C30.3359 46.9542 30.1004 47.1201 29.8598 47.3194C29.1158 47.9352 28.5145 47.8637 27.9077 47.6424C27.3403 47.437 26.7713 47.0992 26.079 47.0744C23.5381 46.9837 21.8669 49.7461 21.8669 49.7461C21.8669 49.7461 24.5411 49.7306 23.8705 52.2554Z" fill="white"/>
<g opacity="0.3">
<path opacity="0.25" d="M28.3168 49.4834C29.7135 49.5397 30.5064 49.5052 31.3067 48.6084C30.8062 48.322 30.4694 47.7582 30.5709 46.8489C30.3384 46.9882 30.1029 47.1541 29.8622 47.3535C29.1183 47.9692 28.517 47.8978 27.9102 47.6764C28.2759 48.166 28.5854 48.8284 28.3168 49.4834Z" fill="#371A45"/>
</g>
<path d="M23.9089 52.5794C23.8611 52.5858 23.8134 52.5808 23.7654 52.561C23.6301 52.5072 23.5565 52.3582 23.5943 52.2172C23.7644 51.5771 23.7129 51.0732 23.4415 50.7183C22.9539 50.0814 21.8791 50.0687 21.8677 50.0686C21.7495 50.0697 21.6425 49.9973 21.5999 49.8852C21.5604 49.7841 21.5793 49.6718 21.6479 49.5906C21.6545 49.5799 21.6669 49.5634 21.682 49.5434C22.4232 48.4728 23.9806 46.6966 26.0948 46.8201C26.6438 46.8528 27.1215 47.0538 27.5427 47.233C28.3161 47.5597 28.8746 47.7957 29.6785 47.131C31.1575 45.9056 32.5037 45.8507 33.6917 45.8008C34.3559 45.7737 34.9828 45.7467 35.5888 45.5278C35.7372 45.4734 35.9016 45.5512 35.9542 45.7013C36.0084 45.8512 35.9318 46.0171 35.7817 46.07C35.0923 46.3198 34.3926 46.3484 33.714 46.3774C32.5631 46.4256 31.3717 46.4744 30.0399 47.5769C28.9707 48.4623 28.0943 48.0922 27.3225 47.7653C26.9255 47.5976 26.5131 47.4238 26.0622 47.3976C24.4216 47.3004 23.1279 48.5779 22.3906 49.5448C22.8443 49.6279 23.4883 49.8361 23.8935 50.3661C24.0763 50.6052 24.1912 50.8812 24.2395 51.1923C24.9098 50.2934 26.0711 49.1042 27.5035 49.1605C27.6682 49.1678 27.8264 49.1744 27.9779 49.1803C29.7063 49.2558 30.4224 49.2889 31.2653 48.203C31.7711 47.5521 32.443 47.4373 33.3731 47.2779C33.9498 47.1791 34.6661 47.0566 35.5437 46.7717C35.6942 46.722 35.8548 46.8068 35.9044 46.959C35.9524 47.1113 35.8704 47.273 35.7198 47.3227C34.8033 47.6194 34.0634 47.7467 33.4691 47.8479C32.6055 47.9951 32.0842 48.0848 31.7153 48.5601C30.6913 49.8782 29.7194 49.8353 27.9532 49.7566C27.8033 49.7506 27.6449 49.7424 27.4805 49.7367C25.5966 49.6624 24.1344 52.4001 24.1203 52.4282C24.0784 52.514 23.998 52.5674 23.9089 52.5794ZM21.6723 49.5676C21.668 49.5715 21.6607 49.5774 21.6524 49.5883C21.6579 49.581 21.665 49.5735 21.6723 49.5676Z" fill="#000072"/>
<g opacity="0.5">
<path d="M26.0492 48.1428C26.0107 47.9285 25.1858 47.6644 24.6044 48.1634C23.9764 48.7013 23.7326 49.7214 24.0394 49.6523C24.2925 49.5938 24.3214 49.1216 25.0763 48.732C25.7416 48.3871 26.0796 48.3089 26.0492 48.1428Z" fill="white"/>
</g>
<g clip-path="url(#clip0_100_1003)">
<path d="M67.2345 91.2172C67.2345 91.2172 75.6859 94.5943 83.0745 89.6058C90.3945 84.6686 87.3602 74.3658 86.0059 70.7486C84.6687 67.1486 85.063 62.1258 87.9945 61.3886C88.4059 61.2858 88.8859 61.2686 89.4173 61.3543C93.6516 62.0401 89.5716 68.5372 93.9773 69.9943C95.9316 70.6458 100.029 68.6572 99.3602 61.9201C98.8459 56.7943 94.5945 54.0343 90.1716 54.2058C86.7602 54.3429 83.263 56.2115 81.2745 60.0686C76.7145 68.9315 84.5316 74.8115 83.0745 81.5315C81.8402 87.2058 76.7145 89.2458 68.8287 86.4858L67.2345 91.2172Z" fill="white"/>
<path d="M87.9945 61.3886C88.4059 61.2858 88.8859 61.2686 89.4173 61.3543C93.6516 62.0401 89.5716 68.5372 93.9773 69.9943C95.9316 70.6458 100.029 68.6572 99.3602 61.9201C98.8459 56.7943 94.5945 54.0343 90.1716 54.2058L90.6002 55.2172C90.8402 55.7829 90.5659 56.4343 90.0002 56.6743C89.3487 56.9486 89.1087 57.7543 89.5202 58.3372L89.6402 58.5258C89.9487 58.9715 89.8802 59.5886 89.4859 59.9658L87.9945 61.3886Z" fill="#00BCFF"/>
<path d="M73.7831 92.88C76.5259 92.88 80.0574 92.3143 83.3831 90.0515C90.8745 85.0115 88.0802 74.7429 86.5374 70.56C85.4745 67.6972 85.6459 64.2686 86.8974 62.7258C87.4973 62.0058 88.3031 61.7315 89.3316 61.8858C90.9088 62.1429 91.0288 63.3086 91.0802 65.3486C91.1488 67.2686 91.2174 69.6686 93.8059 70.5258C94.9031 70.8858 96.3431 70.5429 97.4745 69.6343C98.5888 68.7429 100.372 66.5658 99.9088 61.8686C99.4973 57.7029 96.6688 54.6343 92.5202 53.8286C88.5945 53.0915 83.4516 54.6515 80.7774 59.8115C78.0002 65.2115 79.6631 69.6172 81.1202 73.5086C82.1488 76.2172 83.1088 78.7715 82.5431 81.4115C82.0631 83.64 80.9659 85.2515 79.2688 86.1943C76.8516 87.5486 73.3031 87.4629 69.0174 85.9543C68.7259 85.8515 68.4174 86.0058 68.3145 86.2972C68.2116 86.5886 68.3659 86.8972 68.6574 87C73.2516 88.6115 77.1088 88.68 79.8174 87.1715C81.7545 86.0915 83.0745 84.1715 83.6231 81.6515C84.2574 78.7029 83.2459 75.9943 82.1659 73.1315C80.7088 69.2743 79.2174 65.28 81.7716 60.3258C84.1716 55.6629 88.8002 54.2572 92.3316 54.9258C95.9659 55.6115 98.4516 58.32 98.8116 61.9715C99.2231 66.1543 97.7145 68.0229 96.7888 68.7772C95.8288 69.5486 94.7659 69.6858 94.1488 69.48C92.4173 68.8972 92.2459 67.5258 92.1773 65.3143C92.1088 63.3943 92.0573 61.2172 89.5031 60.8058C88.0974 60.5658 86.8974 60.9943 86.0402 62.0229C84.3088 64.1143 84.4802 68.1772 85.4916 70.9372C86.9488 74.88 89.6059 84.5486 82.7659 89.16C75.7031 93.9258 67.5088 90.7543 67.4231 90.72C67.1488 90.6 66.8231 90.7372 66.7031 91.0286C66.5831 91.3029 66.7202 91.6286 67.0116 91.7486C67.0974 91.7829 69.2402 92.6229 72.3259 92.8458C72.7888 92.8629 73.2688 92.88 73.7831 92.88Z" fill="#000072"/>
<g opacity="0.3">
<path d="M67.2345 91.2169C67.2345 91.2169 75.6859 94.5941 83.0745 89.6055C90.3945 84.6683 87.3602 74.3655 86.0059 70.7483C84.6687 67.1483 85.063 62.1255 87.9945 61.3883C88.4059 61.2855 88.8859 61.2683 89.4173 61.3541C93.6516 62.0398 89.5716 68.5369 93.9773 69.9941C95.9316 70.6455 100.029 68.6569 99.3602 61.9198C99.223 60.5483 98.8287 59.3483 98.2287 58.3369C98.3145 58.6969 98.3659 59.0741 98.4002 59.4512C99.0516 66.1883 95.8973 67.6455 94.2516 66.4455C91.5945 64.5083 93.7202 59.1598 88.4573 58.8855C84.4459 58.6626 82.8173 65.0569 84.0002 68.7941C85.1659 72.4798 89.4345 82.2169 82.1145 87.1541C76.6973 90.8055 70.7145 89.9826 67.903 89.2626L67.2345 91.2169Z" fill="#B3EBFF"/>
</g>
</g>
<path d="M78.2112 103.317L68.4043 104.419L69.5425 100.269L73.1187 87.2671C74.8792 87.5624 76.3325 88.1806 77.459 89.0705C80.8382 91.7401 81.2714 96.8826 78.2112 103.317Z" fill="white"/>
<path d="M34.2493 105.518L25.6752 103.317C24.785 102.057 24.0446 100.844 23.4656 99.6824C20.3385 93.398 21.8863 88.543 29.4561 85.5229L31.768 89.4723L32.5321 94.4179L34.2493 105.518Z" fill="white"/>
<g opacity="0.3">
<path d="M78.2112 103.316L68.4043 104.419L69.5425 100.269C70.4445 99.7923 71.3621 99.3276 72.2601 98.8866C79.058 95.5318 77.5102 89.2711 77.459 89.0703C80.8382 91.74 81.2714 96.8824 78.2112 103.316Z" fill="#00BCFF"/>
</g>
<g opacity="0.55">
<path d="M24.4621 100.568C24.9229 101.494 25.4861 102.45 26.1438 103.435L25.6752 103.317C24.785 102.057 24.0446 100.844 23.4656 99.6824C20.3385 93.398 21.8863 88.543 29.4561 85.5229L30.0666 86.5703C22.8315 89.5983 21.39 94.3942 24.4621 100.568Z" fill="white"/>
</g>
<path d="M66.4507 105.955C66.2814 106.073 66.1081 106.187 65.9387 106.301L51.3268 107.935L48.6526 108.234C48.6526 108.234 44.0415 108.709 41.3938 107.935C38.7461 107.162 35.2655 104.423 35.2655 104.423C27.1837 98.3827 27.0852 85.0502 34.7063 70.0167C35.2695 68.8945 35.8839 67.7683 36.5337 66.6304L69.1604 72.6509C69.7315 74.1905 70.2396 75.6631 70.6886 77.0649C70.9446 77.8721 71.1809 78.6556 71.4014 79.4195C75.9465 95.2288 72.3428 101.879 66.4507 105.955Z" fill="white"/>
<path d="M66.4507 105.955C66.2814 106.073 66.1081 106.187 65.9387 106.301L51.3268 107.935L48.6526 108.234C48.6526 108.234 44.0415 108.709 41.3938 107.935C38.7461 107.162 35.2655 104.423 35.2655 104.423C27.1837 98.3827 27.0852 85.0502 34.7063 70.0167C35.2695 68.8945 35.8839 67.7683 36.5337 66.6304C36.5337 66.6304 32.6934 81.8186 36.5337 90.1714C39.8847 97.4598 43.4653 102.827 51.3268 104.423C65.2712 107.253 69.1604 72.6509 69.1604 72.6509C69.7315 74.1905 70.2396 75.6631 70.6886 77.0649C70.9446 77.8721 71.1809 78.6556 71.4014 79.4195C75.9465 95.2288 72.3428 101.879 66.4507 105.955Z" fill="#00BCFF"/>
<path d="M35.0513 104.229C36.9084 106.286 43.1941 110.229 51.0798 108.171" stroke="#000070" stroke-width="1.06408"/>
<g opacity="0.3">
<path d="M34.2495 105.517L25.6753 103.316C24.7852 102.056 24.0448 100.843 23.4658 99.6818C29.2239 100.367 29.6847 96.7798 29.5193 94.811C30.1889 98.2052 31.6461 101.076 33.899 103.257L34.2495 105.517Z" fill="#B3EBFF"/>
</g>
<g opacity="0.55">
<path d="M36.4825 70.6585C28.9521 85.5149 28.956 98.7057 36.7582 104.844L35.2655 104.419C27.1837 98.3788 27.0852 85.0463 34.7063 70.0128C35.2695 68.8906 35.8839 67.7644 36.5337 66.6265L69.1604 72.647C69.2038 72.7612 69.2431 72.8754 69.2865 72.9895L38.3139 67.2762C37.6601 68.4062 37.0457 69.5363 36.4825 70.6585Z" fill="white"/>
</g>
<g clip-path="url(#clip1_100_1003)">
<path d="M76.695 56.5259C77.0304 58.421 77.9982 60.2742 77.9318 60.8861C77.7886 62.1239 75.0214 60.6483 75.0214 60.6483C75.0214 60.6483 74.8572 61.0364 75.4092 62.1448C75.818 62.97 76.1814 63.5749 76.0102 64.0155C75.8285 64.4875 75.0249 64.5819 74.085 64.4735C73.4282 64.3966 72.8691 64.4805 72.1424 65.2672C71.9956 65.4176 71.8489 65.5994 71.6952 65.8092H71.6917C69.5115 68.3267 66.8631 70.6449 63.3482 72.2883C60.0884 73.8128 45.7353 78.8233 32.979 68.9141C31.3544 67.6519 29.8974 66.1973 28.7793 64.4141C28.5033 64.3337 28.2343 64.3372 27.9408 64.3686C27.0044 64.4735 26.1973 64.3756 26.0191 63.9036C25.8514 63.463 26.1589 62.8057 26.5327 61.9595C26.8367 61.2777 26.9555 60.8476 27.0009 60.6553C27.0114 60.6064 26.973 60.5679 26.9311 60.5854C26.4489 60.8266 24.2372 61.8686 24.1115 60.7637C24.0416 60.1518 25.0234 58.3021 25.3658 56.407C25.9283 53.3161 26.3685 51.1412 26.6515 49.83C26.6585 49.7951 26.6655 49.7601 26.676 49.7216C26.683 49.6867 26.69 49.6517 26.697 49.6202C26.7039 49.5853 26.7144 49.5538 26.7179 49.5223C26.8018 49.1412 26.8961 48.7636 27.0009 48.386C27.4831 46.6447 28.1714 44.9174 29.0519 42.9628C27.7836 40.76 22.4379 30.9732 25.3553 27.2599C27.0219 25.1375 38.4191 29.3753 40.9102 30.3403C43.639 29.0291 46.7346 28.2214 50.1726 28.0746C50.8679 28.0431 51.5492 28.0431 52.2131 28.0711C52.2305 28.0676 52.248 28.0711 52.2655 28.0711C54.5051 28.155 56.5106 28.7319 58.4357 29.4067C58.6628 29.4872 58.8865 29.5676 59.1101 29.648C60.0255 29.9802 60.8885 30.3718 61.7095 30.8054C64.2356 29.9242 76.0486 25.9277 77.6453 28.1025C80.4335 31.8963 74.8187 41.4523 73.4596 43.6551C73.788 44.3754 74.0815 45.0852 74.3401 45.802C74.651 46.6587 74.9061 47.5258 75.1122 48.4209C75.1122 48.4209 75.1157 48.4349 75.1227 48.4699C75.1786 48.7181 75.4546 49.9279 75.8879 52.1692C76.1185 53.3371 76.391 54.7846 76.695 56.5259Z" fill="white"/>
<path d="M30.0517 53.3164C28.7715 51.5331 26.9698 50.8015 26.229 50.6586L27.8292 44.5713H74.5907L75.9433 50.657L74.5907 51.2587C74.0573 51.6874 72.7415 52.922 71.7459 54.431C70.5013 56.3172 68.0121 57.0031 65.7896 57.0031C63.5671 57.0031 60.1889 54.8597 57.6996 53.6594C55.2104 52.4591 50.8543 52.3733 48.1873 52.5448C45.5203 52.7163 39.8307 56.4887 36.4525 57.0031C33.0743 57.5175 31.6519 55.5456 30.0517 53.3164Z" fill="#00BCFF"/>
<path d="M73.3717 48.1714C73.3717 42.8519 71.0238 37.7503 66.8444 33.9889C62.665 30.2274 56.9965 28.1143 51.086 28.1143C45.1755 28.1143 39.507 30.2274 35.3276 33.9889C31.1482 37.7503 28.8003 42.8519 28.8003 48.1714L51.086 48.1714H73.3717Z" fill="#00BCFF" fill-opacity="0.58"/>
<path d="M73.3717 49.8853C73.3717 44.5658 71.0238 39.4642 66.8444 35.7027C62.665 31.9413 56.9965 29.8281 51.086 29.8281C45.1755 29.8281 39.507 31.9413 35.3276 35.7027C31.1482 39.4642 28.8003 44.5658 28.8003 49.8853L51.086 49.8853H73.3717Z" fill="#00BCFF"/>
<g opacity="0.25">
<path d="M75.4125 62.1448C75.8248 62.97 76.1847 63.5749 76.0135 64.0155C75.8318 64.4875 75.0282 64.5819 74.0883 64.4735C73.4315 64.3966 72.8759 64.4805 72.1492 65.2672C72.006 65.4176 71.8557 65.5994 71.702 65.8057H71.6985C69.5183 68.3232 66.8664 70.6414 63.355 72.2848C60.0987 73.8128 45.7421 78.8198 32.9893 68.9106C31.3647 67.6484 29.9042 66.1938 28.7861 64.4106C28.5101 64.3337 28.2411 64.3337 27.9476 64.3651C27.0112 64.47 26.2041 64.3721 26.0259 63.9001C25.8582 63.456 26.1657 62.8022 26.5396 61.956C26.592 61.8336 26.6409 61.7183 26.6828 61.6099C27.0252 61.6868 27.4689 61.6833 27.9476 61.6308C28.2411 61.5994 28.5101 61.5994 28.7861 61.6763C29.9042 63.463 31.3647 64.9176 32.9893 66.1763C45.7456 76.0855 60.0987 71.075 63.355 69.5505C66.8664 67.9036 69.5183 65.5889 71.6985 63.0714H71.702C71.8557 62.8616 72.006 62.6833 72.1492 62.5295C72.8759 61.7462 73.435 61.6588 74.0883 61.7357C74.5111 61.7847 74.9059 61.7917 75.2308 61.7427C75.2798 61.8686 75.3391 62.0015 75.4125 62.1448Z" fill="#B3EBFF"/>
</g>
<path d="M39.4007 72.9215C38.2932 72.5753 37.2205 72.1208 36.1793 71.5963C35.6622 71.3306 35.1521 71.0473 34.649 70.7466C34.1494 70.4424 33.6602 70.1242 33.1815 69.7921C32.7064 69.4529 32.2347 69.1033 31.7805 68.7291C31.3263 68.355 30.886 67.9599 30.4633 67.5403C29.6177 66.7081 28.8596 65.7745 28.2132 64.764L28.5905 65.0473C28.4648 65.0123 28.3285 64.9983 28.1573 65.0088C28.1154 65.0123 28.0699 65.0158 28.0245 65.0193L27.8533 65.0368C27.7345 65.0473 27.6122 65.0543 27.4899 65.0613C27.2419 65.0682 26.9868 65.0648 26.7143 65.0228C26.5745 64.9983 26.4348 64.9738 26.2811 64.9179C26.1273 64.8655 25.9631 64.7955 25.7954 64.6626C25.6312 64.5368 25.467 64.327 25.3901 64.1032C25.3167 63.8934 25.3028 63.6906 25.3132 63.5263C25.3377 63.1871 25.4215 62.9354 25.5019 62.7011C25.5858 62.4668 25.6801 62.257 25.7709 62.0507L26.033 61.4598C26.1133 61.271 26.1902 61.0787 26.2531 60.8899C26.2845 60.7955 26.316 60.7011 26.3404 60.6137L26.3579 60.5472L26.3649 60.5192C26.3719 60.4878 26.3509 60.5717 26.3509 60.6241C26.3509 60.6801 26.3544 60.7395 26.3719 60.7955C26.4068 60.9144 26.4767 61.0332 26.6165 61.1242C26.7492 61.2186 26.9728 61.25 27.1371 61.1906C27.158 61.1836 27.179 61.1766 27.2 61.1661C27.2139 61.1591 27.2 61.1661 27.2034 61.1661L27.1965 61.1696L27.179 61.1766L27.1406 61.1941C26.7178 61.3969 26.2915 61.5752 25.8233 61.7151C25.5893 61.785 25.3447 61.8444 25.0687 61.8759C24.9324 61.8899 24.7822 61.8969 24.6145 61.8829C24.4467 61.8654 24.2546 61.8305 24.0449 61.7116C23.8353 61.5997 23.6431 61.3689 23.5628 61.1451C23.5174 61.0332 23.4999 60.9318 23.4859 60.8304C23.4824 60.778 23.4824 60.7255 23.4824 60.6731V60.5962C23.4824 60.5717 23.4859 60.5577 23.4894 60.5367C23.5278 60.215 23.6047 59.9948 23.6746 59.771C23.8213 59.3269 23.9751 58.9213 24.1218 58.5122C24.2686 58.1066 24.4048 57.701 24.5201 57.2989C24.576 57.0961 24.6284 56.8968 24.6738 56.694C24.7193 56.4912 24.7542 56.2954 24.7996 56.0751L25.0512 54.7814L26.0714 49.5681L26.0609 49.61C26.1238 49.2954 26.2077 49.0051 26.2811 48.7009L26.3929 48.2499L26.5186 47.8093C26.6933 47.2219 26.8855 46.6415 27.0951 46.0681C27.5144 44.9212 27.9896 43.8093 28.4822 42.7079L28.5102 43.2673C27.8149 42.054 27.172 40.8232 26.578 39.561C25.9841 38.2987 25.439 37.012 24.9778 35.6833C24.5166 34.3581 24.1393 32.9875 23.9576 31.5504C23.8702 30.8336 23.8423 30.0959 23.9261 29.3441C24.01 28.5958 24.2336 27.8196 24.6843 27.1378L24.859 26.886C24.894 26.8406 24.9499 26.7811 24.9953 26.7322C25.0442 26.6832 25.0966 26.6413 25.1455 26.5993C25.3552 26.4385 25.5718 26.3371 25.7779 26.2637C26.1972 26.1203 26.585 26.0818 26.9659 26.0609C27.7205 26.0294 28.4368 26.1063 29.1391 26.2042C30.5436 26.414 31.8993 26.7462 33.2409 27.1168C35.9313 27.8686 38.5447 28.7742 41.1337 29.7637L40.6446 29.7847C41.546 29.3546 42.4719 28.9805 43.4152 28.6658C44.3621 28.3546 45.3264 28.1028 46.3047 27.9105C47.283 27.7182 48.2683 27.5888 49.2606 27.5119C50.2494 27.4385 51.2451 27.4105 52.2409 27.456L52.1361 27.4595C52.2094 27.4525 52.2898 27.4525 52.3632 27.463L52.2898 27.456C53.1493 27.4909 54.0018 27.5923 54.8404 27.7532C55.6789 27.9175 56.5 28.1308 57.3036 28.3826C57.7054 28.5084 58.1037 28.6378 58.4985 28.7777C58.8933 28.9175 59.2776 29.0504 59.6829 29.2042C60.4761 29.5084 61.2517 29.8651 61.9994 30.2602L61.5103 30.2252C64.1482 29.3126 66.8105 28.477 69.5323 27.7986C70.8949 27.463 72.268 27.1658 73.6866 26.9804C74.3958 26.893 75.1156 26.8301 75.8668 26.8581C76.2441 26.879 76.6285 26.914 77.0407 27.0329C77.2434 27.0923 77.4565 27.1728 77.6696 27.3056C77.7745 27.3721 77.8828 27.4525 77.9806 27.5504C78.0295 27.5958 78.0749 27.6553 78.1204 27.7077C78.1448 27.7392 78.1588 27.7567 78.1728 27.7777L78.2147 27.8406C78.6794 28.5259 78.9065 29.3161 78.9869 30.0714C79.0707 30.8336 79.0218 31.5784 78.9205 32.3022C78.7073 33.7463 78.2846 35.1169 77.7814 36.4421C77.2783 37.7673 76.6879 39.0505 76.0485 40.3023C75.4091 41.554 74.7208 42.7778 73.9836 43.9771L74.0185 43.3967C74.7348 44.9562 75.3252 46.5925 75.7096 48.2814L75.72 48.3338L76.5271 52.2464L77.2609 56.215L77.3517 56.6905C77.3831 56.8444 77.4216 56.9982 77.46 57.1521C77.5369 57.4598 77.6347 57.771 77.7325 58.0822C77.9352 58.708 78.1728 59.3129 78.3894 59.9983C78.4418 60.1766 78.4942 60.3479 78.5257 60.5857C78.5431 60.6871 78.5536 60.8619 78.5257 61.0158C78.5117 61.0927 78.4977 61.1696 78.4628 61.257C78.4348 61.3409 78.3859 61.4249 78.3335 61.5053C78.2217 61.6626 78.054 61.799 77.9002 61.8619C77.8199 61.9039 77.75 61.9214 77.6731 61.9423C77.6033 61.9598 77.5334 61.9703 77.467 61.9808C77.2084 62.0088 76.9918 61.9843 76.7927 61.9493C76.3944 61.8794 76.0485 61.7605 75.7096 61.6311C75.3706 61.4983 75.0597 61.3584 74.7278 61.1871L75.5838 60.8829L75.5943 60.8514L75.5977 60.8409L75.6012 60.8269L75.6047 60.813L75.6082 60.8025C75.6082 60.799 75.6082 60.806 75.6082 60.8095C75.6082 60.8235 75.6082 60.8444 75.6082 60.8689C75.6117 60.9179 75.6222 60.9808 75.6362 61.0437C75.6641 61.1731 75.713 61.32 75.769 61.4633C75.8249 61.6102 75.8947 61.7535 75.9681 61.9039L76.2092 62.3829C76.2895 62.5472 76.3734 62.7186 76.4538 62.9074C76.5306 63.0997 76.611 63.306 76.6494 63.5822C76.6634 63.7256 76.6669 63.8794 76.6319 64.0542C76.597 64.2186 76.5132 64.4109 76.3944 64.5578C76.1498 64.848 75.8633 64.9564 75.6327 65.0298C75.1575 65.1592 74.7522 65.1487 74.3539 65.1312C74.2561 65.1242 74.1583 65.1172 74.0604 65.1067L73.9346 65.0962C73.8962 65.0927 73.8613 65.0927 73.8263 65.0892C73.6866 65.0822 73.5678 65.0927 73.463 65.1172C73.2533 65.1661 73.0472 65.292 72.8306 65.4913C72.7292 65.5857 72.6104 65.7116 72.5126 65.8235C72.4148 65.9389 72.3135 66.0683 72.2121 66.2011L72.1912 66.2291L72.1632 66.2571C72.1108 66.313 72.0374 66.369 71.9571 66.4074C71.8732 66.4459 71.7859 66.4634 71.709 66.4669L72.1632 66.2571C71.8872 66.5753 71.5762 66.9214 71.2688 67.2501C71.1116 67.4144 70.9578 67.5788 70.7971 67.7396C70.6329 67.8969 70.4757 68.0578 70.3079 68.2151C69.9795 68.5298 69.6406 68.8305 69.2912 69.1242C68.9453 69.4179 68.5889 69.7012 68.2221 69.9669C67.8552 70.2361 67.4814 70.4949 67.097 70.7361C66.7162 70.9809 66.3214 71.2082 65.9196 71.418C65.116 71.841 64.2844 72.2047 63.4249 72.4774C63.3166 72.5124 63.2013 72.4529 63.1664 72.341C63.1384 72.2501 63.1734 72.1557 63.2502 72.1068C63.9944 71.6243 64.7247 71.1417 65.4339 70.6312C65.7868 70.376 66.1362 70.1138 66.4786 69.848C66.821 69.5788 67.1564 69.3096 67.4884 69.0298C67.8168 68.7501 68.1452 68.4634 68.4632 68.1732C68.7811 67.8795 69.0956 67.5788 69.403 67.2781C69.7105 66.9704 70.011 66.6592 70.3114 66.348C70.6119 66.0298 70.8914 65.7186 71.2024 65.3655L71.6566 65.1557C71.5797 65.1592 71.4924 65.1766 71.412 65.2151C71.3317 65.2536 71.2618 65.306 71.2094 65.362L71.1605 65.4179C71.2758 65.2641 71.3946 65.1102 71.5308 64.9564C71.6706 64.8025 71.8033 64.6696 71.9641 64.5228C72.1248 64.3829 72.303 64.2466 72.5091 64.1312C72.7118 64.0158 72.9459 63.9214 73.1904 63.8689C73.6726 63.757 74.1652 63.8584 74.4343 63.8724C74.7452 63.8934 75.0702 63.8864 75.2868 63.827C75.3916 63.799 75.451 63.7536 75.4335 63.7675C75.43 63.7745 75.4161 63.799 75.4231 63.7885C75.4231 63.785 75.4265 63.7605 75.4231 63.7256C75.4126 63.6452 75.3741 63.5123 75.3147 63.3759C75.2553 63.2361 75.182 63.0857 75.1051 62.9284L74.864 62.4493C74.7802 62.278 74.6963 62.0997 74.6229 61.9109C74.5496 61.7221 74.4797 61.5263 74.4308 61.3095C74.4063 61.1976 74.3854 61.0857 74.3784 60.9563C74.3749 60.8899 74.3714 60.8234 74.3749 60.7465C74.3784 60.7081 74.3784 60.6696 74.3889 60.6207C74.3923 60.5962 74.3958 60.5752 74.4028 60.5437L74.4133 60.4948L74.4238 60.4633L74.4308 60.4423L74.4448 60.4039L74.6823 59.785L75.3008 60.0997C75.8388 60.3724 76.4642 60.6381 76.9918 60.736C77.1211 60.757 77.2434 60.764 77.3203 60.757C77.3552 60.7535 77.3796 60.7465 77.3692 60.7465C77.3692 60.7465 77.3342 60.764 77.3203 60.792C77.3098 60.8025 77.3098 60.8165 77.3063 60.8165C77.3063 60.8269 77.3063 60.82 77.3063 60.8165C77.3063 60.806 77.3098 60.8095 77.2993 60.7465C77.2993 60.7046 77.2748 60.6276 77.2643 60.5682L77.205 60.3549C77.0198 59.7605 76.7682 59.1136 76.5586 58.4633C76.4538 58.1346 76.3524 57.8024 76.2651 57.4598C76.2197 57.2884 76.1812 57.1171 76.1428 56.9423L76.045 56.4283L75.3147 52.4772L74.4972 48.5016L74.5076 48.5541C74.1443 46.9562 73.5852 45.4072 72.8969 43.9072L72.7607 43.6065L72.9319 43.3268C73.6481 42.1589 74.3225 40.9596 74.9479 39.7393C75.5698 38.519 76.1428 37.2743 76.625 36.0015C77.1071 34.7323 77.5054 33.4316 77.6941 32.1274C77.7849 31.477 77.8234 30.8231 77.7535 30.2043C77.6871 29.5854 77.5089 29.0049 77.191 28.5364C77.0652 28.2427 76.4258 28.1098 75.8039 28.0819C75.168 28.0539 74.5007 28.1098 73.8333 28.1937C72.4951 28.3686 71.1535 28.6588 69.8223 28.9875C67.1564 29.6553 64.515 30.4805 61.9086 31.3826L61.657 31.47L61.4194 31.3441C60.7101 30.97 59.9799 30.6378 59.2322 30.3476C58.8654 30.2078 58.4671 30.0679 58.0862 29.935C57.7019 29.8022 57.3176 29.6728 56.9297 29.5539C56.1576 29.3126 55.3819 29.1098 54.5958 28.9595C53.8132 28.8091 53.0235 28.7147 52.2339 28.6833L52.171 28.6798C52.2129 28.6903 52.2549 28.6903 52.2968 28.6798L52.192 28.6833C51.2486 28.6413 50.3018 28.6658 49.3549 28.7392C48.4115 28.8126 47.4717 28.935 46.5423 29.1168C45.6164 29.3021 44.701 29.5399 43.8031 29.8336C42.9051 30.1308 42.0316 30.484 41.1791 30.8931L40.9381 31.0085L40.69 30.9141C38.1394 29.9385 35.5434 29.0399 32.9195 28.3091C31.6093 27.9455 30.2886 27.6238 28.9679 27.428C28.311 27.3336 27.6507 27.2707 27.0288 27.2951C26.7248 27.3126 26.4208 27.3476 26.1867 27.4315C26.0714 27.47 25.9736 27.5224 25.9107 27.5714C25.8967 27.5853 25.8827 27.5958 25.8688 27.6098C25.8583 27.6238 25.8513 27.6308 25.8338 27.6518L25.715 27.8266C25.4041 28.2951 25.2224 28.8756 25.1525 29.4945C25.0826 30.1133 25.1036 30.7602 25.184 31.4106C25.3482 32.7113 25.7046 34.012 26.1448 35.2847C26.5885 36.5575 27.1161 37.8127 27.6961 39.04C28.2761 40.2708 28.9085 41.4806 29.5828 42.6589L29.74 42.9317L29.6108 43.2184C29.1251 44.3023 28.6604 45.3897 28.2551 46.4946C28.0525 47.0471 27.8673 47.603 27.7031 48.1625L27.5843 48.5856L27.4795 49.0051C27.4131 49.2849 27.3292 49.5681 27.2768 49.8408L27.2663 49.8828L26.2671 55.0052L26.0155 56.2954C25.9736 56.5052 25.9282 56.7395 25.8793 56.9668C25.8268 57.194 25.7674 57.4143 25.708 57.6381C25.5823 58.0787 25.4425 58.5087 25.2958 58.9283C25.149 59.3479 24.9953 59.764 24.8695 60.1556C24.8066 60.3479 24.7542 60.5507 24.7402 60.6661C24.7402 60.6731 24.7367 60.6836 24.7367 60.6871C24.7367 60.6871 24.7367 60.6906 24.7402 60.6906C24.7402 60.6941 24.7402 60.6976 24.7367 60.6976C24.7402 60.7046 24.7402 60.7116 24.7367 60.7011C24.7332 60.6836 24.6913 60.6311 24.6738 60.6241C24.6564 60.6137 24.6808 60.6276 24.7332 60.6311C24.7822 60.6346 24.8555 60.6346 24.9359 60.6241C25.0931 60.6067 25.2783 60.5612 25.4635 60.5053C25.8338 60.3899 26.2182 60.2255 26.585 60.0437L26.62 60.0262L26.6409 60.0158L26.6514 60.0123L26.6654 60.0053C26.6898 59.9948 26.7108 59.9843 26.7353 59.9773C26.9239 59.9074 27.179 59.9423 27.3327 60.0542C27.4934 60.1626 27.5808 60.306 27.6227 60.4493C27.6437 60.5192 27.6507 60.5962 27.6507 60.6626C27.6507 60.7255 27.6297 60.8234 27.6332 60.806L27.6227 60.8584L27.5983 60.9528C27.5668 61.0752 27.5319 61.1906 27.4934 61.306C27.4201 61.5332 27.3362 61.7535 27.2489 61.9668L26.9833 62.5822C26.8995 62.778 26.8191 62.9703 26.7527 63.1521C26.6863 63.3305 26.6444 63.5018 26.6409 63.6032C26.6374 63.6556 26.6444 63.6766 26.6444 63.6731C26.6409 63.6556 26.6165 63.6277 26.6235 63.6347C26.6304 63.6487 26.7702 63.7046 26.9239 63.7256C27.0847 63.7501 27.2698 63.7536 27.4585 63.7466C27.5528 63.7431 27.6507 63.7361 27.7485 63.7291L27.9057 63.7116C27.9686 63.7046 28.035 63.7011 28.1014 63.6941C28.3669 63.6766 28.6744 63.6941 28.9714 63.778L29.2194 63.848L29.3522 64.0612C29.9287 64.9913 30.6205 65.848 31.3822 66.6487C31.763 67.0473 32.1683 67.4284 32.5876 67.7955C33.0034 68.1662 33.4366 68.5193 33.8803 68.8655C34.3241 69.2117 34.7713 69.5543 35.2325 69.876C35.6902 70.2012 36.1584 70.5194 36.6335 70.8236C37.5804 71.4389 38.5657 72.0019 39.5684 72.5438C39.6698 72.5963 39.7082 72.7222 39.6523 72.8236C39.5964 72.911 39.4951 72.9529 39.4007 72.9215Z" fill="#000072"/>
<path d="M29.285 42.819C30.0497 41.1034 32.1423 37.1363 34.3949 34.9931C36.6475 32.85 39.5661 31.082 40.7438 30.466" stroke="#000072" stroke-width="1.06408"/>
<path d="M73.2856 42.5998C72.4571 40.9141 70.2171 37.0284 67.8856 34.9713C65.5542 32.9141 62.5714 31.257 61.3714 30.6855" stroke="#000072" stroke-width="1.06408"/>
<path d="M31.0207 38.5143C32.1807 36.3359 33.3931 34.766 34.2631 33.7835C34.9094 33.0527 34.7382 31.9163 33.9032 31.4093C31.9745 30.2415 29.8293 29.5352 28.4562 29.1645C27.691 28.9582 26.9433 29.5387 26.9468 30.3324C26.9538 31.6855 27.1494 33.7974 28.0614 36.0177C28.5435 37.1891 29.0152 38.0213 29.41 38.5982C29.8083 39.1821 30.6888 39.1402 31.0207 38.5143Z" fill="#FF5399"/>
<path d="M30.7517 38.3712C31.2513 37.3328 31.8208 36.3223 32.4637 35.3537C32.7851 34.8712 33.1205 34.3957 33.4804 33.9341L33.7529 33.5915C33.7984 33.539 33.8508 33.4726 33.8857 33.4271C33.9102 33.3852 33.9451 33.3502 33.9661 33.3082C34.0604 33.1439 34.1163 32.9586 34.1058 32.7733C34.1023 32.588 34.0499 32.4026 33.9521 32.2523C33.9067 32.1754 33.8438 32.1089 33.7809 32.046C33.746 32.018 33.711 31.99 33.6761 31.9656C33.6342 31.9411 33.6132 31.9236 33.5433 31.8851C33.0681 31.6159 32.5685 31.3781 32.0689 31.1509C31.0626 30.6998 30.0145 30.3362 28.9523 30.018C28.6868 29.9411 28.4142 29.8641 28.1557 29.7977C28.0474 29.7732 27.9426 29.7802 27.8447 29.8362C27.7504 29.8921 27.6735 29.9795 27.6491 30.0809C27.6421 30.1054 27.6351 30.1334 27.6351 30.1614L27.6316 30.1823V30.1928V30.2173V30.3187C27.6316 30.4551 27.6351 30.5914 27.6351 30.7278C27.6595 31.8187 27.7923 32.9096 28.0404 33.9761C28.1592 34.511 28.3129 35.0355 28.4946 35.553C28.6728 36.0705 28.8789 36.5915 29.1095 37.0915C29.2248 37.3432 29.3436 37.5915 29.4729 37.8328C29.5358 37.9551 29.6022 38.074 29.672 38.1929L29.7734 38.3642C29.7943 38.3992 29.8188 38.4342 29.8432 38.4621C29.9481 38.581 30.1193 38.6544 30.2975 38.644C30.4756 38.6335 30.6469 38.5426 30.7621 38.3782L30.7517 38.3712ZM31.2862 38.6579C31.1325 38.9971 30.7971 39.2768 30.4128 39.3573C30.0284 39.4412 29.5987 39.3398 29.2807 39.0775C29.2423 39.0426 29.2039 39.0111 29.1689 38.9726L29.0711 38.8572L28.9348 38.6754C28.8475 38.5565 28.7636 38.4342 28.6798 38.3083C28.5156 38.06 28.3583 37.8118 28.2151 37.553C27.9251 37.0355 27.6665 36.5146 27.4324 35.9691C27.2018 35.4236 27.0062 34.8607 26.842 34.2908C26.5205 33.1474 26.3319 31.9656 26.2829 30.7802C26.2794 30.6299 26.2725 30.483 26.2725 30.3327V30.2208V30.1928L26.276 30.1509L26.2794 30.0634C26.2829 29.9481 26.3074 29.8327 26.3354 29.7243C26.4541 29.2732 26.7651 28.8816 27.1599 28.6508C27.5547 28.4166 28.0579 28.3501 28.5016 28.4655C28.7916 28.546 29.0676 28.6264 29.3506 28.7103C30.4687 29.0529 31.5623 29.4795 32.6174 30.0005C33.145 30.2593 33.6586 30.553 34.1582 30.8711C34.2141 30.9026 34.305 30.9725 34.3819 31.025C34.4587 31.0844 34.5321 31.1544 34.602 31.2208C34.7347 31.3642 34.8605 31.518 34.9479 31.6928C35.1365 32.0355 35.2239 32.4236 35.2064 32.8082C35.1924 33.1929 35.0632 33.5705 34.85 33.8852C34.8011 33.9656 34.7347 34.0355 34.6753 34.1089C34.6194 34.1754 34.5775 34.2138 34.5286 34.2698L34.2491 34.581C33.8752 34.9971 33.5189 35.4271 33.1764 35.8712C32.4916 36.7593 31.8662 37.6964 31.2932 38.6684L31.2862 38.6579Z" fill="#000072"/>
<path d="M70.8117 38.6682C69.7636 36.6052 68.67 35.0947 67.8699 34.1297C67.2479 33.3779 67.4576 32.245 68.3066 31.7695C70.389 30.5981 72.702 29.9548 74.0646 29.6471C74.7389 29.4967 75.3853 29.9932 75.4063 30.6821C75.4517 32.0807 75.2211 34.5003 73.6209 37.2905C73.2715 37.9024 72.9465 38.4059 72.6635 38.8115C72.1953 39.4794 71.1821 39.3989 70.8117 38.6682Z" fill="#FF5399"/>
<path d="M70.5394 38.8049C69.9874 37.8259 69.3829 36.8818 68.7226 35.9867C68.3907 35.5391 68.0448 35.1056 67.6814 34.686L67.5451 34.5286L67.4753 34.4482L67.3879 34.3363C67.2726 34.1895 67.1853 34.0181 67.1119 33.8433C66.9756 33.4902 66.9372 33.0951 67.0001 32.7209C67.07 32.3468 67.2342 31.9832 67.4927 31.6894C67.622 31.5461 67.7653 31.4097 67.9295 31.3083C68.0168 31.2489 68.0762 31.2174 68.1391 31.1789L68.3313 31.0671C68.8449 30.7768 69.3655 30.5111 69.9035 30.2768C70.9762 29.8083 72.0802 29.4272 73.2053 29.137L73.6281 29.0286C73.7818 28.9971 73.8726 28.9586 74.1347 28.9237C74.5959 28.8747 75.071 29.0251 75.4274 29.3153C75.7873 29.5985 76.0249 30.0391 76.0773 30.4971C76.0808 30.5496 76.0878 30.616 76.0913 30.6615V30.7768C76.0913 30.8538 76.0948 30.9272 76.0913 31.0041C76.0913 31.1545 76.0878 31.3083 76.0773 31.4587C76.0528 32.0636 75.962 32.658 75.8397 33.2419C75.7139 33.8258 75.5567 34.4028 75.3471 34.9587C75.1409 35.5147 74.8963 36.0566 74.6273 36.5811C74.4876 36.8398 74.3443 37.0986 74.1906 37.3468C74.0403 37.6021 73.8831 37.8399 73.7224 38.0846C73.5617 38.3259 73.3905 38.5601 73.2193 38.7944L73.0865 38.9692L73.0201 39.0567L72.9223 39.1685C72.786 39.3119 72.6253 39.4413 72.4436 39.5182C72.0802 39.6825 71.668 39.6825 71.3151 39.5497C71.1404 39.4797 70.9797 39.3748 70.8434 39.2455C70.7106 39.1161 70.6093 38.9587 70.5324 38.7979L70.5394 38.8049ZM71.081 38.5322C71.3046 38.8923 71.7903 38.9762 72.0802 38.7804C72.1536 38.7385 72.213 38.6755 72.2654 38.6056L72.3004 38.5531L72.3563 38.4657L72.4646 38.2874C72.6078 38.0496 72.7406 37.8084 72.8769 37.5671C73.4149 36.5951 73.8656 35.6056 74.1836 34.5671C74.5015 33.5356 74.6972 32.4692 74.7286 31.4062C74.7356 31.2734 74.7356 31.1405 74.7356 31.0076C74.7356 30.9412 74.7321 30.8748 74.7321 30.8083L74.7286 30.7104L74.7251 30.6615C74.7077 30.5566 74.6588 30.4587 74.5714 30.3922C74.4841 30.3258 74.3792 30.2978 74.2744 30.3048C74.257 30.3013 74.0753 30.3433 73.9495 30.3712L73.5477 30.4692C72.4786 30.7384 71.4199 31.0601 70.3962 31.4622C69.8861 31.665 69.3794 31.8783 68.8938 32.123L68.7121 32.2139C68.6527 32.2454 68.5828 32.2769 68.5549 32.2978C68.4745 32.3398 68.4081 32.3992 68.3418 32.4587C68.2125 32.5846 68.1251 32.7524 68.0797 32.9307C68.0378 33.1125 68.0448 33.3048 68.1007 33.4832C68.1321 33.5706 68.1706 33.658 68.2265 33.7384L68.2649 33.7979L68.3313 33.8853L68.464 34.0566C68.8099 34.5216 69.1384 35.0007 69.4458 35.4902C70.0643 36.4657 70.6128 37.4797 71.088 38.5252L71.081 38.5322Z" fill="#000072"/>
<g opacity="0.35">
<path d="M52.6217 60.6202C52.6182 60.6902 52.3456 60.7601 52.0452 60.8195C51.5875 60.9104 50.9131 60.886 50.4624 60.7636C50.1654 60.6832 49.8999 60.5922 49.8999 60.5223C49.9069 60.3685 50.5113 60.4034 51.2625 60.4279C52.0137 60.4559 52.6252 60.4664 52.6217 60.6202Z" fill="white"/>
</g>
<g opacity="0.2">
<path d="M34.6786 33.0211C34.13 33.4162 32.7814 35.4756 31.7472 37.1225C30.2238 34.7938 29.4726 31.2553 29.3433 29.6154C29.3433 29.598 29.3398 29.5805 29.3398 29.563C30.8143 30.0036 32.4879 30.6329 32.8442 31.0455C33.4871 31.7833 35.6184 32.3427 34.6786 33.0211Z" fill="#000072"/>
</g>
<g opacity="0.2">
<path d="M67.4784 33.3501C68.013 33.7627 69.2953 35.8641 70.277 37.5459C71.8773 35.2697 72.7403 31.7556 72.9219 30.1228C72.9254 30.1053 72.9254 30.0878 72.9289 30.0703C71.4405 30.4619 69.7495 31.0389 69.3791 31.441C68.7118 32.1543 66.563 32.6438 67.4784 33.3501Z" fill="#390075"/>
</g>
</g>
<path d="M75.4322 48.9849C59.1949 47.3868 42.8428 47.3939 26.6055 49.0064C26.6542 48.7704 26.6959 48.5559 26.7377 48.3593C26.7446 48.3235 26.7516 48.2878 26.762 48.252C26.769 48.2163 26.7759 48.1805 26.7829 48.1483C26.7899 48.1126 26.7968 48.0804 26.8038 48.0482C26.8873 47.6549 26.9847 47.2724 27.0856 46.8863C27.4579 45.4991 27.9589 44.119 28.5747 42.6317C43.556 41.2659 58.6208 41.2659 73.6022 42.6281C73.8283 43.168 74.0371 43.7043 74.2284 44.2441C74.5346 45.1201 74.792 46.0067 74.9973 46.922C74.9973 46.922 74.9973 46.9363 75.0077 46.9721C75.0495 47.1401 75.1956 47.8087 75.4322 48.9849Z" fill="white"/>
<g opacity="0.35">
<path d="M75.4318 48.9848C75.2752 48.9705 75.1152 48.9526 74.9586 48.9383C74.9064 48.7023 74.8751 48.5486 74.8577 48.4735C74.8508 48.4413 74.8473 48.4234 74.8473 48.4234C74.642 47.5046 74.388 46.6215 74.0784 45.7456C74.0749 45.7384 74.0749 45.7348 74.0714 45.7277C73.7305 44.7552 72.8398 44.0974 71.8343 44.0509C65.7597 43.7828 44.067 42.9247 32.3874 43.8006C29.8268 43.9937 27.6349 45.7956 26.946 48.3376C26.9425 48.3519 26.939 48.3698 26.9321 48.3841C26.8799 48.5808 26.8277 48.781 26.779 48.9812C26.7199 48.9883 26.6607 48.9919 26.6016 48.9991C26.6503 48.7631 26.692 48.5486 26.7338 48.3519C26.7407 48.3162 26.7477 48.2804 26.7581 48.2447C26.7651 48.2089 26.772 48.1732 26.779 48.141C26.786 48.1052 26.7929 48.0731 26.7999 48.0409C26.8834 47.6476 26.9808 47.2651 27.0817 46.8789C27.454 45.4917 27.955 44.1117 28.5708 42.6244C43.5521 41.2586 58.6169 41.2586 73.5983 42.6208C73.8244 43.1607 74.0331 43.6969 74.2245 44.2368C74.5307 45.1128 74.7881 45.9994 74.9934 46.9147C74.9934 46.9147 74.9934 46.929 75.0038 46.9647C75.0491 47.1399 75.1987 47.8049 75.4318 48.9848Z" fill="white"/>
</g>
<g opacity="0.3">
<path d="M75.4322 48.9847C59.1949 47.3866 42.8428 47.3937 26.6055 49.0062C26.6542 48.7702 26.6959 48.5557 26.7377 48.359C26.7446 48.3233 26.7516 48.2875 26.762 48.2518C26.769 48.216 26.7759 48.1803 26.7829 48.1481C26.7899 48.1123 26.7968 48.0802 26.8038 48.048C26.8873 47.6547 26.9847 47.2721 27.0856 46.886C27.1204 46.7537 27.1587 46.6215 27.1969 46.4892C43.062 44.9518 59.0279 44.9482 74.8929 46.4749C74.9312 46.625 74.966 46.7752 74.9973 46.9253C74.9973 46.9253 74.9973 46.9397 75.0077 46.9754C75.0495 47.1399 75.1991 47.8049 75.4322 48.9847Z" fill="#000072"/>
</g>
<path d="M25.8364 49.714L26.0069 48.8774C26.0521 48.645 26.0974 48.4305 26.1391 48.2339C26.1461 48.1874 26.1565 48.1445 26.1669 48.098C26.1739 48.073 26.1774 48.0444 26.1843 48.0194C26.1878 47.9979 26.1948 47.9693 26.2017 47.9407L26.2087 47.9014C26.2922 47.5153 26.3861 47.1256 26.5009 46.7073C26.8558 45.388 27.3394 44.0115 28.0179 42.374L28.1605 42.0272L28.5258 41.9951C43.5002 40.6329 58.6764 40.6293 73.6333 41.9879H74.0091L74.1691 42.3669C74.4092 42.9354 74.6179 43.4788 74.8093 44.0222C75.1329 44.9411 75.3903 45.842 75.5991 46.7716L75.6165 46.8431V46.8467C75.6652 47.0684 75.8113 47.7262 76.034 48.856L76.201 49.689L75.3764 49.6068C59.2122 48.0158 42.8252 48.023 26.6679 49.6282L25.8364 49.714ZM27.4055 48.1695C27.4021 48.191 27.3986 48.2124 27.3916 48.2303L27.3881 48.2518C27.3847 48.2661 27.3812 48.2804 27.3812 48.2947C43.0723 46.7895 58.9721 46.7859 74.6666 48.2768C74.531 47.6154 74.444 47.2292 74.4162 47.1041C74.4092 47.0719 74.4057 47.0469 74.4022 47.029C74.2074 46.1567 73.9639 45.3129 73.6612 44.4513C73.5185 44.0437 73.3654 43.6361 73.1915 43.2142C58.5372 41.9021 43.6742 41.9057 29.0025 43.2178C28.418 44.6515 27.997 45.8778 27.6804 47.0469C27.5725 47.4402 27.4821 47.8084 27.4055 48.1695Z" fill="#000072"/>
<g opacity="0.5">
<path d="M55.029 84.0381C53.0558 82.8844 51.0865 82.8844 49.1133 84.0381L48.2153 103.47C48.2153 103.47 51.1023 107.766 51.2559 107.435C51.4095 107.104 54.0562 103.47 54.0562 103.47L55.029 84.0381Z" fill="#E0E0ED"/>
</g>
<path d="M33.1936 110.026H26.4942C25.5174 110.026 24.6076 109.486 24.1704 108.612C22.6147 105.525 26.3484 101.934 30.4051 102.674C33.3826 103.115 35.4189 104.663 35.7891 107.045C36.0333 108.612 34.7848 110.026 33.1936 110.026Z" fill="white"/>
<g opacity="0.3">
<path d="M33.1975 110.026H26.4941C25.5174 110.026 24.6115 109.486 24.1704 108.612C24.0286 108.329 23.9262 108.037 23.8711 107.746C23.9262 107.75 23.9774 107.754 24.0326 107.754H30.7359C32.3271 107.754 33.5756 106.34 33.3275 104.769C33.2487 104.273 33.099 103.812 32.8824 103.395C34.4854 104.155 35.533 105.399 35.7891 107.041C36.0332 108.612 34.7887 110.026 33.1975 110.026Z" fill="#000070" fill-opacity="0.25"/>
</g>
<path d="M69.9637 110.888H77.3209C78.3961 110.888 79.3925 110.313 79.873 109.388C81.5823 106.108 77.4823 102.293 73.0279 103.076C69.7589 103.545 67.5218 105.191 67.1162 107.719C66.8483 109.388 68.215 110.888 69.9637 110.888Z" fill="white"/>
<g opacity="0.3">
<path d="M79.8733 109.388C79.3888 110.313 78.3963 110.888 77.3211 110.888H69.964C68.4437 110.888 67.2109 109.754 67.0928 108.356C67.1952 108.368 67.2976 108.372 67.4079 108.372H74.765C75.8402 108.372 76.8327 107.797 77.3172 106.872C77.8646 105.82 77.8174 104.714 77.3487 103.722C79.6448 104.899 80.9879 107.258 79.8733 109.388Z" fill="#000070" fill-opacity="0.2"/>
</g>
<path d="M35.9441 105.79C35.839 105.797 35.7316 105.763 35.6374 105.693C28.2294 99.9649 27.7085 86.0012 34.3114 70.12C34.433 69.8289 34.7328 69.7124 34.9837 69.8605C35.2346 70.0087 35.34 70.3621 35.2184 70.6531C32.0832 78.1964 30.5306 85.4133 30.727 91.5302C30.9205 97.5492 32.8067 102.108 36.1819 104.718C36.4163 104.9 36.482 105.263 36.3344 105.534C36.2416 105.688 36.0954 105.781 35.9441 105.79Z" fill="#000070"/>
<path d="M66.5258 107.433C66.2983 107.45 66.0672 107.36 65.9193 107.172C65.686 106.878 65.745 106.455 66.0518 106.229C70.2077 103.165 72.2853 99.7215 72.7918 95.0599C73.4284 89.1943 71.4386 81.5011 66.7197 71.5318C66.5608 71.1953 66.7167 70.798 67.0677 70.6433C67.4187 70.4885 67.831 70.6361 67.9942 70.9722C72.8201 81.1616 74.8487 89.0841 74.1869 95.1921C73.6447 100.184 71.3336 104.027 66.9037 107.293C66.7848 107.377 66.6588 107.423 66.5258 107.433Z" fill="#000070"/>
<path d="M25.6749 103.954C25.4741 103.954 25.2772 103.86 25.1511 103.682C21.8546 99.0281 20.673 95.0276 21.6301 91.7909C22.4847 88.9047 25.0369 86.5934 29.2196 84.9278C29.5465 84.7979 29.9207 84.9554 30.0506 85.2861C30.1806 85.6129 30.0231 85.987 29.6922 86.1169C25.8916 87.6329 23.5915 89.6647 22.855 92.1571C22.0121 95 23.1385 98.6304 26.1948 102.95C26.3996 103.237 26.3287 103.635 26.0412 103.84C25.9309 103.919 25.8049 103.954 25.6749 103.954Z" fill="#000070"/>
<path d="M33.1939 110.664H26.4945C25.2578 110.664 24.1472 109.987 23.5997 108.9C22.8789 107.475 23.068 105.852 24.1117 104.455C25.5178 102.576 28.0857 101.608 30.5079 102.045C33.8595 102.545 36.0139 104.332 36.4196 106.947C36.5614 107.868 36.2935 108.809 35.6831 109.522C35.0608 110.247 34.1549 110.664 33.1939 110.664ZM29.3066 103.21C27.4713 103.21 25.9313 104.151 25.1357 105.215C24.6985 105.801 24.0644 106.982 24.7419 108.321C25.0688 108.967 25.758 109.384 26.4984 109.384H33.1979C33.7808 109.384 34.3322 109.128 34.7142 108.687C35.0844 108.258 35.2459 107.691 35.1593 107.14C34.8442 105.112 33.0758 103.714 30.3109 103.305C30.3031 103.305 30.2952 103.301 30.2912 103.301C29.9525 103.242 29.6256 103.21 29.3066 103.21Z" fill="#000070"/>
<path d="M27.3492 106.773L27.9872 109.482C28.0699 109.837 27.8533 110.187 27.4988 110.274C27.1444 110.357 26.7938 110.14 26.7072 109.786C26.6835 109.683 26.6835 109.581 26.7072 109.482L27.3492 106.773Z" fill="#000070"/>
<path d="M31.772 106.773L32.41 109.482C32.4928 109.837 32.2761 110.187 31.9217 110.274C31.5672 110.357 31.2167 110.14 31.13 109.786C31.1064 109.683 31.1064 109.581 31.13 109.482L31.772 106.773Z" fill="#000070"/>
<path d="M78.2112 103.954C78.1206 103.954 78.0261 103.935 77.9355 103.891C77.6165 103.742 77.4826 103.36 77.6323 103.041C79.8103 98.4536 80.2199 94.4058 78.7784 91.6416C77.7425 89.6531 75.7496 88.3577 73.0124 87.897C72.6658 87.8379 72.4295 87.5072 72.4885 87.1607C72.5476 86.8142 72.8785 86.5779 73.2251 86.637C76.3719 87.1646 78.6838 88.6924 79.9127 91.051C81.5432 94.1813 81.1454 98.6347 78.7862 103.588C78.6799 103.82 78.4515 103.954 78.2112 103.954Z" fill="#000070"/>
<path d="M77.321 111.527H69.9639C68.9083 111.527 67.9198 111.074 67.2463 110.282C66.6122 109.538 66.3365 108.565 66.4862 107.617C66.9312 104.856 69.2786 102.97 72.9296 102.443C75.6314 101.97 78.4593 103.033 79.9677 105.097C81.0311 106.546 81.2044 108.219 80.4403 109.684C79.8496 110.822 78.6522 111.527 77.321 111.527ZM74.2175 103.608C73.8669 103.608 73.5085 103.64 73.1423 103.703C73.1344 103.703 73.1304 103.707 73.1226 103.707C70.0584 104.148 68.101 105.644 67.7504 107.817C67.6559 108.404 67.8213 108.987 68.2191 109.451C68.6484 109.955 69.2864 110.247 69.9639 110.247H77.321C78.1599 110.247 78.9398 109.794 79.306 109.089C80.0307 107.699 79.3848 106.463 78.9358 105.849C78.0851 104.695 76.3206 103.608 74.2175 103.608Z" fill="#000070"/>
<path d="M76.5058 107.435L77.1439 110.313C77.2226 110.668 76.9981 111.014 76.6476 111.093C76.2932 111.172 75.9466 110.947 75.8678 110.597C75.8481 110.502 75.8481 110.404 75.8678 110.313L76.5058 107.435Z" fill="#000070"/>
<path d="M71.8071 107.435L72.4451 110.313C72.5239 110.668 72.2994 111.014 71.9489 111.093C71.5944 111.172 71.2478 110.947 71.1691 110.597C71.1494 110.502 71.1494 110.404 71.1691 110.313L71.8071 107.435Z" fill="#000070"/>
<g opacity="0.3">
<path opacity="0.15" d="M48.6525 99.2329C50.413 100.446 52.1381 100.501 53.8237 99.2329L53.9537 104.222L51.0077 107.258L48.1011 103.659" fill="#B3EBFF"/>
</g>
<ellipse cx="38.9788" cy="102.173" rx="5.79493" ry="2.78156" transform="rotate(39.4503 38.9788 102.173)" fill="#B3B3D5" fill-opacity="0.13"/>
<ellipse cx="38.5029" cy="102.71" rx="3.60259" ry="1.72924" transform="rotate(39.4503 38.5029 102.71)" fill="#B3B3D5" fill-opacity="0.06"/>
<path d="M19.6032 60.2698C16.0589 66.5872 13.3955 79.2835 24.7312 85.9105C32.9041 90.6913 35.0881 78.8098 33.4025 75.8528C32.9106 74.4666 29.373 73.2863 28.462 71.2916C26.1353 66.1882 29.9939 61.4433 29.9939 61.4433L29.0632 58.6224" fill="white"/>
<path d="M16.8465 76.6475C17.9905 81.0308 20.7993 85.1322 26.3379 87.7327C26.4443 87.7811 26.5413 87.8273 26.644 87.87C33.2749 90.7599 35.5676 84.403 35.4481 79.785C35.405 78.2384 35.089 76.885 34.577 76.1434C33.9263 74.7148 30.0536 73.8054 28.8951 71.7683C25.9309 66.5551 29.5755 61.1138 29.5755 61.1138L28.3167 58.1976L21.3092 60.1128L18.4377 60.8968C16.6572 64.8872 15.375 71.0061 16.8465 76.6475Z" fill="#00BCFF" fill-opacity="0.54"/>
<path d="M17.2101 74.9085C17.9275 78.9029 20.1615 82.771 24.9558 85.5056C25.048 85.5567 25.1319 85.6053 25.2212 85.651C32.9067 89.7572 34.8117 78.5836 33.1837 75.7901C32.7001 74.4674 29.2834 73.3657 28.3865 71.4623C26.0916 66.5912 29.7536 62.0129 29.7536 62.0129L28.8289 59.3181L19.7573 60.9832C17.8739 64.4077 16.2873 69.7677 17.2101 74.9085Z" fill="#00BCFF"/>
<path d="M30.0041 88.8287C32.7485 89.1049 34.2981 87.7925 35.1442 86.4949C37.2762 83.2413 36.5602 77.4762 34.9981 75.648C34.5138 74.9147 33.4716 74.4945 32.2694 74.0087C31.1104 73.5408 29.7955 73.0121 29.2008 72.2136C26.1299 68.0717 28.6589 62.9304 28.6865 62.8791L28.844 62.5661L27.1623 59.69C26.9816 59.3836 26.5914 59.2812 26.2852 59.4621C25.979 59.643 25.8767 60.0336 26.0574 60.34L27.3977 62.6278C26.8305 63.9264 25.0681 68.7846 28.1787 72.9801C28.987 74.0703 30.4792 74.6708 31.7985 75.2C32.6893 75.5598 33.6973 75.963 33.9488 76.3712L34.016 76.4635C35.1886 77.7796 35.9571 82.9329 34.0803 85.7978C32.9162 87.5724 30.9804 88.0262 28.3184 87.1548C15.9819 83.0984 16.3777 70.1306 18.3154 63.8443C18.4212 63.5081 18.2281 63.1464 17.8917 63.045C17.5559 62.9391 17.1944 63.1325 17.093 63.4691C15.756 67.8116 15.654 72.8503 16.8114 76.9573C18.39 82.557 22.2319 86.5063 27.9211 88.3759C28.6801 88.6144 29.3759 88.7655 30.0041 88.8287Z" fill="#000072"/>
<path d="M19.8198 62.6947C19.8198 62.6947 20.0396 65.7469 23.4792 65.499C24.5693 65.9902 26.3372 65.9121 27.56 65.3981C28.7921 65.3659 29.8455 64.8886 30.4867 63.888C31.5492 62.2265 30.9996 59.0963 29.2775 57.7377C27.1845 56.0854 23.1266 55.9064 20.8869 57.522C19.2656 58.6924 17.942 60.7578 17.3145 63.9293" fill="white"/>
<path d="M18.6644 59.3443L18.9443 59.2065C18.812 59.0739 18.7255 59.1504 18.6644 59.3443Z" fill="#E2E2E2"/>
<path d="M51.3415 83.32C61.0511 83.32 63.4155 74.5575 63.4155 74.5575L51.3548 73.8398H51.3415L39.2808 74.5575C39.2808 74.5575 41.632 83.32 51.3415 83.32Z" fill="#65C660"/>
<path d="M51.3415 83.32C61.0511 83.32 63.4155 74.5575 63.4155 74.5575L51.3548 73.8398H51.3415L39.2808 74.5575C39.2808 74.5575 41.632 83.32 51.3415 83.32Z" fill="#65C660"/>
<path d="M39.2685 74.5835C39.2685 74.5835 39.3945 75.0527 39.7128 75.7764C40.7571 78.1697 43.877 83.3282 51.3434 83.3282C58.8231 83.3282 61.9462 78.1523 62.9906 75.7639C63.3022 75.0477 63.4282 74.5835 63.4282 74.5835L51.3533 73.8647H51.3401L39.2685 74.5835Z" fill="#65C660"/>
<path d="M39.2808 74.5576C39.2808 74.5576 39.4066 75.0277 39.7246 75.7529C42.9633 77.0758 46.8014 77.901 51.3349 77.901C55.8817 77.901 59.7331 77.0683 62.9784 75.7404C63.2897 75.0227 63.4155 74.5576 63.4155 74.5576L51.3548 73.8374H51.3415L39.2808 74.5576Z" fill="#48A341"/>
<path d="M39.2808 74.558C39.2808 74.558 41.632 83.3204 51.3415 83.3204C61.0511 83.3204 63.4155 74.558 63.4155 74.558L62.8095 74.5229C62.6671 74.9231 59.8887 75.4857 60.2331 76.3009C60.4152 76.7311 60.6504 77.1787 60.4285 78.5816C58.6734 80.5996 55.8221 82.5427 51.3415 82.5427C43.2414 82.5427 40.473 76.1909 39.8835 74.5229L39.2808 74.558Z" fill="#48A341"/>
<path d="M36.6568 73.8092C42.15 77.88 51.3357 77.6434 51.3357 77.6434C51.3357 77.6434 60.5214 77.88 66.0146 73.8092C67.2813 72.8714 67.273 71.8796 66.8963 70.5186C66.8963 70.5186 66.2423 70.8256 65.0708 71.2613C56.2162 74.5561 46.4634 74.5561 37.6089 71.2613C36.4374 70.8256 35.7792 70.5186 35.7792 70.5186C35.3983 71.8796 35.39 72.8714 36.6568 73.8092Z" fill="#FF1212"/>
<g opacity="0.5">
<path d="M35.5929 72.2821C35.6302 72.0207 35.6964 71.7427 35.7792 71.4481C35.7792 71.4481 36.4333 71.7551 37.6089 72.1908C46.4635 75.4856 56.2163 75.4856 65.0709 72.1908C66.2424 71.7551 66.8964 71.4481 66.8964 71.4481C66.9792 71.7427 67.0413 72.0207 67.0827 72.2821C67.1779 71.7593 67.0827 71.1825 66.8964 70.5186C66.8964 70.5186 66.2424 70.8256 65.0709 71.2613C56.2163 74.5561 46.4635 74.5561 37.6089 71.2613C36.4374 70.8256 35.7792 70.5186 35.7792 70.5186C35.5929 71.1825 35.4977 71.7593 35.5929 72.2821Z" fill="white"/>
</g>
<g opacity="0.15">
<path d="M36.6567 73.8093C42.1458 77.8801 51.3356 77.6436 51.3356 77.6436C51.3356 77.6436 60.5214 77.876 66.0146 73.8093C67.0536 73.0417 67.2357 72.2366 67.0577 71.2158C66.9377 71.7262 66.6231 72.1868 66.0146 72.6391C60.5255 76.7099 51.3356 76.4734 51.3356 76.4734C51.3356 76.4734 42.1499 76.7099 36.6567 72.6391C36.0482 72.1868 35.7336 71.7262 35.6135 71.2158C35.4355 72.2366 35.6177 73.0417 36.6567 73.8093Z" fill="#000072"/>
</g>
<path d="M50.9922 78.2411C51.1661 78.2411 51.2861 78.2369 51.3358 78.2369C51.8947 78.2494 60.8361 78.3863 66.3666 74.2865C68.0473 73.0458 67.8155 71.61 67.4636 70.361L67.2773 69.6887L66.644 69.9833C66.6357 69.9875 65.9899 70.2863 64.8598 70.7054C56.1377 73.9504 46.5339 73.9504 37.8118 70.7054C36.6817 70.2863 36.0318 69.9833 36.0277 69.9792L35.3943 69.6846L35.208 70.3568C34.8603 71.6058 34.6285 73.0416 36.305 74.2823C41.3429 78.017 49.2039 78.2411 50.9922 78.2411ZM51.3358 77.0501H51.3193C51.2282 77.0543 42.2701 77.2286 37.0087 73.3321C36.2098 72.7387 36.0442 72.1868 36.1891 71.3444C36.4954 71.4689 36.9011 71.6349 37.3979 71.8175C46.3849 75.1621 56.2826 75.1621 65.2696 71.8175C65.7664 71.6307 66.172 71.4689 66.4784 71.3444C66.6233 72.1826 66.4618 72.7387 65.6587 73.3321C60.3973 77.2286 51.4352 77.0543 51.3482 77.0501H51.3358Z" fill="#000072"/>
<path d="M51.3363 82.4937C49.632 82.4937 48.2503 81.1087 48.2503 79.4002C48.2503 77.6917 49.632 76.3066 51.3363 76.3066C53.0407 76.3066 54.4224 77.6917 54.4224 79.4002C54.4224 81.1087 53.0407 82.4937 51.3363 82.4937Z" fill="#48A341"/>
<path d="M49.4851 81.0305C48.4624 80.0053 48.4624 78.3433 49.4851 77.3182C50.5077 76.293 52.1657 76.293 53.1884 77.3182C54.211 78.3433 54.211 80.0053 53.1884 81.0305C52.1657 82.0556 50.5077 82.0556 49.4851 81.0305Z" fill="#FFC303"/>
<path d="M48.7811 79.7534C49.0418 80.9235 50.0869 81.7993 51.3363 81.7993C52.5834 81.7993 53.6286 80.9235 53.8916 79.7534C53.389 80.648 52.4331 81.2507 51.3363 81.2507C50.2396 81.2507 49.2837 80.648 48.7811 79.7534Z" fill="#FF9F06"/>
<path d="M48.7173 79.1744C48.7173 79.6264 48.83 80.0501 49.0296 80.4198H53.6399C53.8395 80.0501 53.9546 79.624 53.9546 79.1744C53.9546 78.8895 53.91 78.614 53.8254 78.3574H48.8464C48.7619 78.614 48.7173 78.8895 48.7173 79.1744Z" fill="#FF9F06"/>
<g opacity="0.5">
<path d="M48.7173 79.1622C49.0202 77.9968 50.0794 77.1375 51.3359 77.1375C52.5948 77.1375 53.6516 77.9992 53.9546 79.1669C53.9499 77.7213 52.7803 76.5513 51.3359 76.5513C49.8915 76.5489 48.7243 77.719 48.7173 79.1622Z" fill="white"/>
</g>
<path d="M51.3364 82.0344C52.91 82.0344 54.1899 80.7513 54.1899 79.1739C54.1899 77.5966 52.9076 76.3135 51.3364 76.3135C49.7652 76.3135 48.4829 77.5966 48.4829 79.1739C48.4829 80.7513 49.7629 82.0344 51.3364 82.0344ZM51.3364 76.7843C52.6516 76.7843 53.7202 77.8555 53.7202 79.1739C53.7202 80.4923 52.6493 81.5635 51.3364 81.5635C50.0212 81.5635 48.9526 80.4923 48.9526 79.1739C48.9526 77.8555 50.0212 76.7843 51.3364 76.7843Z" fill="#000072"/>
<path d="M50.8264 80.4616C50.7584 80.1731 50.9367 79.884 51.2245 79.8159C51.5123 79.7478 51.8007 79.9264 51.8686 80.2149C51.9366 80.5034 51.7584 80.7925 51.4706 80.8607C51.1828 80.9288 50.8944 80.7501 50.8264 80.4616Z" fill="#000072"/>
<path d="M51.1932 80.5488H51.4844V81.6789H51.1932V80.5488Z" fill="#000072"/>
<path d="M48.9948 79.8518H53.6756C54.049 79.8518 54.3496 79.5481 54.3496 79.1762C54.3496 78.8018 54.0466 78.5005 53.6756 78.5005H48.9948C48.6214 78.5005 48.3208 78.8042 48.3208 79.1762C48.3208 79.5481 48.6214 79.8518 48.9948 79.8518Z" fill="#FFC303"/>
<path d="M48.3208 79.174C48.3208 79.36 48.396 79.5295 48.5181 79.6519C48.6402 79.7743 48.8093 79.8497 48.9948 79.8497H53.6756C54.049 79.8497 54.3496 79.546 54.3496 79.174C54.3496 79.0492 54.3167 78.9362 54.258 78.835C54.1429 79.0374 53.9245 79.174 53.6756 79.174H48.9925C48.807 79.174 48.6379 79.0986 48.5157 78.9762C48.4735 78.9338 48.4382 78.8868 48.41 78.8373C48.3537 78.9362 48.3208 79.0516 48.3208 79.174Z" fill="#FF9F06"/>
<g opacity="0.5">
<path d="M48.3208 79.1742C48.3208 79.2543 48.3349 79.3296 48.3607 79.4002C48.4523 79.1389 48.7013 78.9506 48.9948 78.9506H53.6756C53.8611 78.9506 54.0302 79.0259 54.1523 79.1483C54.2228 79.2189 54.2768 79.3037 54.3097 79.4002C54.3355 79.3296 54.3496 79.2519 54.3496 79.1742C54.3496 78.9882 54.2745 78.8187 54.1523 78.6963C54.0302 78.5739 53.8611 78.4985 53.6756 78.4985H48.9925C48.6214 78.4985 48.3208 78.8022 48.3208 79.1742Z" fill="white"/>
</g>
<path d="M48.9948 80.0873H53.6756C54.1782 80.0873 54.5845 79.6777 54.5845 79.1762C54.5845 78.6724 54.1758 78.2651 53.6756 78.2651H48.9948C48.4922 78.2651 48.0859 78.6748 48.0859 79.1762C48.0859 79.6777 48.4922 80.0873 48.9948 80.0873ZM53.6756 78.7336C53.9175 78.7336 54.1148 78.9314 54.1148 79.1739C54.1148 79.4164 53.9175 79.6141 53.6756 79.6141H48.9948C48.7529 79.6141 48.5557 79.4164 48.5557 79.1739C48.5557 78.9314 48.7529 78.7336 48.9948 78.7336H53.6756Z" fill="#000072"/>
<g opacity="0.15">
<path d="M17.868 78.4761C19.4366 82.4168 22.5286 85.9094 28.0001 87.7029C28.1049 87.7359 28.2008 87.768 28.3017 87.7961L27.118 82.0454C27.118 82.0454 22.4106 82.3346 17.868 78.4761Z" fill="#000072" fill-opacity="0.4"/>
</g>
<g opacity="0.15">
<path d="M20.1904 62.6131C20.1904 62.6131 20.1053 65.6084 23.4759 65.6991C24.4894 66.2845 26.2191 66.3817 27.4646 66.0056C28.6677 66.0951 29.7406 65.7332 30.4632 64.8212C30.8294 64.3612 31.062 63.7522 31.1611 63.0801C30.6064 63.8464 29.4991 64.8191 28.259 63.574C28.259 63.574 25.4429 65.7209 22.8998 62.6915C22.8998 62.6915 21.5987 64.4261 20.1904 62.6131Z" fill="#000072"/>
</g>
<path d="M19.8378 62.6034C19.8209 62.8615 19.8262 63.077 19.857 63.3085C19.8877 63.54 19.9368 63.7689 20.0135 63.9916C20.162 64.441 20.4203 64.8746 20.7771 65.224C21.1286 65.5819 21.576 65.8374 22.0323 66.0043C22.4931 66.1716 22.9677 66.2462 23.4289 66.2747L23.1443 66.1923C23.5012 66.4074 23.875 66.5435 24.2483 66.6393C24.6217 66.7351 24.9941 66.795 25.3697 66.8238C26.1173 66.8722 26.8707 66.8181 27.6227 66.5981L27.3814 66.6231C27.9894 66.6709 28.634 66.6238 29.2544 66.413C29.87 66.2062 30.4494 65.8211 30.8732 65.3262C31.3161 64.8199 31.5807 64.206 31.7221 63.6066C31.8639 63.0028 31.8983 62.3927 31.8551 61.7926C31.8073 61.1921 31.682 60.6017 31.4648 60.0289C31.2471 59.4606 30.9376 58.9099 30.4987 58.4358C29.6137 57.5136 28.5124 56.9952 27.3919 56.6675C26.2661 56.3482 25.0925 56.2346 23.9176 56.3582C23.3297 56.4245 22.7449 56.5492 22.178 56.7654C21.8965 56.8759 21.6132 57.0042 21.3496 57.1613C21.0954 57.3149 20.8447 57.4778 20.6105 57.6558C19.6689 58.3717 18.9145 59.2857 18.3293 60.2659C18.0367 60.756 17.7869 61.2683 17.5638 61.7834C17.3448 62.3033 17.161 62.8312 16.9902 63.3649C16.8844 63.6992 16.5448 65.6684 16.8856 65.7743C17.2219 65.8799 18.1071 64.0865 18.2132 63.7478L18.2137 63.7434L18.2146 63.7345C18.5215 62.7442 18.9194 61.7899 19.444 60.92C19.9681 60.0546 20.6229 59.2784 21.4076 58.69C21.6025 58.5439 21.8095 58.4124 22.016 58.2854C22.2167 58.1712 22.4295 58.0717 22.6499 57.9864C23.0946 57.8206 23.5737 57.7165 24.0652 57.6675C25.0488 57.5649 26.0698 57.6721 27.0243 57.9473C27.5016 58.0849 27.9651 58.2704 28.3875 58.5055C28.8108 58.7317 29.2046 59.0267 29.5017 59.3432C30.0945 59.9896 30.4263 60.9456 30.4981 61.889C30.5704 62.8279 30.3754 63.825 29.8486 64.4483C29.577 64.7748 29.2237 65.0169 28.8218 65.1601C28.415 65.3073 27.9551 65.3551 27.4898 65.3217L27.4809 65.3208C27.4002 65.3172 27.3226 65.3273 27.2485 65.3467C26.6954 65.515 26.0674 65.5772 25.4536 65.5423C24.8434 65.5168 24.2301 65.3879 23.7541 65.1474L23.7028 65.1198C23.6301 65.0811 23.5463 65.0637 23.4695 65.065C23.0908 65.0672 22.726 65.0215 22.3834 64.9333C22.0408 64.8451 21.7322 64.6886 21.4605 64.4776C21.1933 64.2671 20.9739 63.9853 20.8039 63.6591C20.7214 63.494 20.6532 63.3215 20.5988 63.1458C20.5444 62.9701 20.5015 62.7687 20.4815 62.6099L20.4757 62.578C20.4525 62.4055 20.2941 62.2776 20.1206 62.3004C19.9645 62.3295 19.8481 62.4566 19.8378 62.6034Z" fill="#000072"/>
<path d="M22.9158 61.562C22.7643 61.9178 22.664 62.27 22.5895 62.6424C22.5154 63.0104 22.4771 63.3908 22.4842 63.7803C22.4868 64.1693 22.5535 64.5647 22.6761 64.957C22.7941 65.3487 23.0065 65.7235 23.2586 66.0713C23.4415 66.3239 23.8006 66.3909 24.0634 66.2186C24.3261 66.0462 24.393 65.704 24.21 65.4515C24.1939 65.4277 24.1773 65.4084 24.1562 65.3886L24.1308 65.364C23.921 65.1485 23.7179 64.9116 23.5797 64.6282C23.4411 64.3492 23.3285 64.0419 23.2735 63.7139C23.2135 63.3898 23.1919 63.052 23.1987 62.7081C23.2097 62.369 23.2499 62.0153 23.3283 61.6963L23.3297 61.6832C23.3548 61.5708 23.2825 61.462 23.1646 61.4368C23.0605 61.4131 22.953 61.4686 22.9158 61.562Z" fill="#000072"/>
<path d="M28.0012 61.6815C28.0587 62.0439 28.0707 62.4382 28.0422 62.8147C28.0137 63.1913 27.9438 63.5591 27.8288 63.9086C27.7184 64.2586 27.5456 64.5749 27.343 64.8608C27.1492 65.1522 26.8725 65.3803 26.607 65.5913L26.5712 65.6197C26.321 65.8185 26.2846 66.1805 26.4902 66.4252C26.6958 66.6699 27.0679 66.7073 27.3181 66.5085C27.3386 66.4923 27.3594 66.4715 27.3752 66.4548C27.6954 66.1214 27.9946 65.7629 28.1909 65.353C28.3956 64.953 28.5421 64.5244 28.6086 64.0968C28.6798 63.6697 28.6947 63.2415 28.6621 62.8177C28.6249 62.3934 28.5571 61.9934 28.4251 61.5779C28.3895 61.4646 28.2643 61.4017 28.1527 61.4362C28.0463 61.4666 27.9842 61.5701 28.0021 61.6725L28.0012 61.6815Z" fill="#000072"/>
<path opacity="0.5" d="M32.556 77.1825C35.7109 87.9284 46.8091 95.9457 46.8091 95.9457C46.8091 95.9457 57.5157 104.622 67.3871 103.863C69.253 103.722 70.1331 102.749 70.7639 101.143C70.2005 101.756 69.4473 102.122 68.3523 102.208C58.4823 102.977 47.7743 94.2907 47.7743 94.2907C47.7743 94.2907 36.6809 86.2771 33.5211 75.5275C33.1722 74.3348 33.1789 73.3974 33.4574 72.5665C32.4043 73.8484 31.9564 75.1525 32.556 77.1825Z" fill="#B9B9DD"/>
<path d="M68.2564 99.9446C55.028 96.0825 43.6043 86.7724 36.091 73.7303C35.594 72.8679 35.2191 72.1722 34.9681 71.6915C34.8648 71.4936 34.7825 71.3322 34.7213 71.2105C34.0162 71.8974 33.4948 72.5435 33.2051 73.2737C32.8937 74.0588 32.8406 74.9664 33.1624 76.174L33.1624 76.1742C34.5923 81.5493 38.0136 86.3315 41.0947 89.78C42.6331 91.5018 44.0818 92.8858 45.1457 93.8391C45.6775 94.3156 46.1129 94.6843 46.4149 94.9335C46.5659 95.0582 46.6836 95.1529 46.7633 95.2163C46.8031 95.248 46.8334 95.2719 46.8537 95.2877L46.8765 95.3055L46.882 95.3098L46.8834 95.3108L46.8836 95.311L46.7682 95.5086M68.2564 99.9446L68.3019 99.7112M68.2564 99.9446L68.3019 99.7112M68.2564 99.9446C69.1313 100.2 69.8274 100.377 70.3053 100.491C70.5008 100.537 70.6599 100.573 70.7798 100.599C70.4409 101.583 70.0767 102.357 69.5678 102.908C69.0204 103.501 68.2879 103.855 67.1853 103.902L67.1852 103.902C62.2779 104.113 57.2096 101.976 53.3542 99.7713C51.4291 98.6705 49.8125 97.5563 48.6774 96.7174C48.11 96.2981 47.6632 95.9477 47.3586 95.7026C47.2063 95.58 47.0896 95.4838 47.0112 95.4183C46.972 95.3856 46.9423 95.3606 46.9226 95.3439L46.9005 95.3251L46.8951 95.3205L46.8939 95.3194L46.8936 95.3191L46.7682 95.5086M68.3019 99.7112C69.5765 100.084 70.4689 100.288 70.8563 100.371L34.8842 71.054C35.0806 71.4464 35.5441 72.347 36.269 73.6048C43.7515 86.5935 55.1277 95.8649 68.3019 99.7112ZM46.7682 95.5086L46.8936 95.3191L46.8839 95.3107L46.7682 95.5086Z" fill="#FFC303" stroke="#000070" stroke-width="0.456036"/>
<path d="M32.9201 76.2911C35.8377 87.0904 46.7476 95.4924 46.7476 95.4924C46.7476 95.4924 57.2519 104.534 67.1271 104.169C68.9937 104.102 69.8938 103.17 70.5586 101.6C69.9826 102.187 69.2225 102.52 68.127 102.563C58.2531 102.938 47.7474 93.8864 47.7474 93.8864C47.7474 93.8864 36.8424 85.4883 33.92 74.685C33.5974 73.4864 33.6244 72.5555 33.9206 71.741C32.841 72.973 32.3654 74.2508 32.9201 76.2911Z" fill="#FDFDFD" fill-opacity="0.34"/>
<path opacity="0.5" d="M64.3887 65.7493C62.9546 65.7493 61.7921 64.8193 61.7921 63.672C61.7921 62.5248 62.9546 61.5947 64.3887 61.5947C65.8228 61.5947 66.9854 62.5248 66.9854 63.672C66.9854 64.8193 65.8228 65.7493 64.3887 65.7493Z" fill="#FFB6B9"/>
<path d="M62.4886 63.5246C63.0139 63.5988 63.5317 63.7139 64.0457 63.8348C64.3026 63.8953 64.5596 63.9577 64.8166 64.024C65.0736 64.0884 65.3287 64.1586 65.5838 64.2308C65.631 64.2445 65.6594 64.2952 65.6462 64.3459C65.6329 64.3927 65.5895 64.4201 65.5441 64.4123C65.2834 64.3693 65.0226 64.3186 64.7637 64.2659C64.5048 64.2152 64.246 64.1606 63.9871 64.1021C63.4712 63.987 62.9554 63.866 62.4489 63.7041C62.4017 63.6885 62.3752 63.6358 62.3885 63.5871C62.4036 63.5441 62.447 63.5168 62.4886 63.5246Z" fill="#000072"/>
<path d="M62.3077 62.4128C62.842 62.2728 63.3822 62.1833 63.9224 62.1006C64.1935 62.0593 64.4626 62.0203 64.7337 61.9858C65.0048 61.9491 65.2759 61.917 65.5489 61.8917C65.6 61.8871 65.6452 61.933 65.6491 61.9927C65.653 62.0478 65.6196 62.0983 65.5745 62.1098C65.3073 62.1718 65.0382 62.2269 64.7691 62.2774C64.5 62.3302 64.2308 62.3784 63.9617 62.4243C63.4215 62.5161 62.8813 62.5988 62.3352 62.6332C62.2842 62.6355 62.239 62.5896 62.237 62.5299C62.2331 62.4702 62.2645 62.4243 62.3077 62.4128Z" fill="#000072"/>
<path d="M62.277 61.12C62.6714 60.8387 63.0852 60.5941 63.503 60.3556C63.7119 60.2374 63.9228 60.1191 64.1336 60.007C64.3444 59.8929 64.5572 59.7808 64.7739 59.6748C64.8208 59.6523 64.8755 59.6727 64.8989 59.7216C64.9184 59.7665 64.9047 59.8195 64.8657 59.846C64.6646 59.9805 64.4616 60.111 64.2566 60.2353C64.0516 60.3637 63.8466 60.4881 63.6397 60.6083C63.2258 60.853 62.808 61.0894 62.3688 61.2892C62.3219 61.3116 62.2672 61.2892 62.2458 61.2382C62.2262 61.1974 62.2399 61.1465 62.277 61.12Z" fill="#000072"/>
<path opacity="0.5" d="M38.1255 65.7493C36.6914 65.7493 35.5289 64.8193 35.5289 63.672C35.5289 62.5248 36.6914 61.5947 38.1255 61.5947C39.5596 61.5947 40.7222 62.5248 40.7222 63.672C40.7222 64.8193 39.5596 65.7493 38.1255 65.7493Z" fill="#FFB6B9"/>
<path d="M40.5101 64.4461C40.0037 64.6081 39.4877 64.7291 38.9718 64.8443C38.7129 64.9009 38.454 64.9575 38.1951 65.0082C37.9361 65.0609 37.6753 65.1097 37.4145 65.1546C37.3654 65.1624 37.3182 65.1293 37.3106 65.0785C37.303 65.0317 37.3314 64.9868 37.3749 64.9731C37.63 64.8989 37.8851 64.8306 38.1421 64.7662C38.3992 64.6998 38.6562 64.6354 38.9132 64.5769C39.4291 64.4559 39.9451 64.3407 40.4705 64.2665C40.5196 64.2587 40.5649 64.2958 40.5725 64.3466C40.5801 64.3895 40.5517 64.4324 40.5101 64.4461Z" fill="#000072"/>
<path d="M40.6216 63.3749C40.0761 63.3404 39.5364 63.2575 38.9968 63.1654C38.7279 63.1193 38.4571 63.071 38.1903 63.018C37.9214 62.9674 37.6526 62.9121 37.3857 62.8499C37.3347 62.8384 37.3013 62.7809 37.3112 62.721C37.321 62.6657 37.3641 62.6289 37.4112 62.6335C37.684 62.6588 37.9548 62.6911 38.2256 62.7279C38.4964 62.7624 38.7672 62.8016 39.036 62.843C39.5757 62.9259 40.1153 63.018 40.6491 63.1562C40.7001 63.17 40.7315 63.2275 40.7197 63.2874C40.7079 63.3427 40.6667 63.3772 40.6216 63.3749Z" fill="#000072"/>
<path d="M40.5898 62.032C40.1527 61.8319 39.7332 61.5951 39.3196 61.3501C39.1127 61.2276 38.9059 61.1031 38.703 60.9765C38.4981 60.8499 38.2952 60.7213 38.0942 60.5865C38.0513 60.558 38.0376 60.4967 38.0669 60.4518C38.0923 60.411 38.143 60.3967 38.1859 60.4171C38.4006 60.5233 38.6152 60.6355 38.8259 60.7499C39.0386 60.8622 39.2474 60.9806 39.4562 61.099C39.8737 61.3378 40.2874 61.5808 40.6815 61.8646C40.7244 61.8952 40.7342 61.9565 40.7069 62.0014C40.6796 62.0361 40.6308 62.0504 40.5898 62.032Z" fill="#000072"/>
<path d="M52.9656 56.1923C52.9777 56.9478 51.6626 57.5248 50.7344 57.5948C49.8083 57.6641 48.4705 57.0185 48.4584 56.263C48.4462 55.5075 49.4524 55.3433 50.699 55.3234C51.9434 55.304 52.9535 55.4368 52.9656 56.1923Z" fill="#000070"/>
<path d="M51.4657 55.9681C51.4663 56.133 51.1118 56.2646 50.6788 56.266C50.2431 56.2659 49.8912 56.1332 49.8905 55.9684C49.8899 55.8035 50.243 55.7776 50.6787 55.7778C51.1117 55.7764 51.4651 55.8032 51.4657 55.9681Z" fill="white"/>
<g clip-path="url(#clip2_100_1003)">
<path d="M44.0224 53.4733C44.0224 51.5147 42.4482 49.9551 40.4712 49.9551C38.4942 49.9551 36.9199 51.551 36.9199 53.4733C36.9199 55.3957 38.4942 56.9916 40.4712 56.9916C42.4115 56.9916 44.0224 55.3957 44.0224 53.4733Z" fill="#000071"/>
<path d="M43.3998 52.6755C43.3998 51.6599 42.5578 50.8257 41.5327 50.8257C40.5076 50.8257 39.6655 51.6599 39.6655 52.6755C39.6655 53.6911 40.5076 54.5253 41.5327 54.5253C42.5944 54.489 43.3998 53.6911 43.3998 52.6755Z" fill="white"/>
<path d="M37.7185 51.3561C36.9811 51.3063 36.6124 50.7757 36.5957 50.7425C36.5454 50.6596 36.5621 50.5601 36.6459 50.4938C36.7297 50.4441 36.8303 50.4606 36.8973 50.5436C36.8973 50.5601 37.1822 50.9581 37.7352 50.9913C37.8358 50.9913 37.9028 51.0742 37.9028 51.1737C37.9028 51.2732 37.819 51.3561 37.7185 51.3561Z" fill="#000070"/>
<path d="M38.1806 51.0597C38.1642 51.0597 38.1478 51.0597 38.1478 51.0597C37.4426 50.8804 37.1803 50.2939 37.1803 50.2613C37.1311 50.1798 37.1803 50.0821 37.2623 50.0332C37.3443 50.0006 37.459 50.0332 37.4918 50.131C37.5082 50.1473 37.705 50.5872 38.2134 50.7175C38.3118 50.7338 38.361 50.8316 38.3446 50.9293C38.3282 51.0108 38.2626 51.0597 38.1806 51.0597Z" fill="#000070"/>
<g clip-path="url(#clip3_100_1003)">
<path d="M63.7909 55.5111C63.6308 55.5111 63.4708 55.3901 63.4307 55.2287C63.0306 53.817 62.0703 52.1632 59.9497 52.1228H59.9097C57.789 52.1228 56.8687 53.8169 56.4686 55.1884C56.4286 55.3901 56.1885 55.5111 55.9884 55.4707C55.7884 55.4304 55.6683 55.2287 55.7084 54.9867C56.1085 53.6153 57.1488 51.3564 59.9097 51.3564H59.9497C62.7105 51.3968 63.7909 53.6556 64.151 54.9867C64.231 55.1884 64.111 55.3901 63.8709 55.4707C63.8709 55.5111 63.8309 55.5111 63.7909 55.5111Z" fill="#000072"/>
<path d="M64.0938 55.066C63.9815 55.066 63.8916 54.9784 63.8691 54.869C63.8691 54.7595 63.959 54.6501 64.0714 54.6501C64.7455 54.6063 65.0825 54.1465 65.0825 54.1246C65.1499 54.0371 65.2847 53.9933 65.3746 54.059C65.5094 54.1246 65.5319 54.256 65.4645 54.3436C65.442 54.3655 64.9926 55.0003 64.0938 55.066C64.1163 55.066 64.1163 55.066 64.0938 55.066Z" fill="#000072"/>
<path d="M63.7795 54.4721C63.6895 54.4721 63.5996 54.4016 63.5771 54.3075C63.5546 54.1898 63.6221 54.0722 63.7345 54.0252C64.3869 53.8605 64.6344 53.2959 64.6344 53.2724C64.6794 53.1547 64.8143 53.1077 64.9268 53.1547C65.0393 53.2018 65.0843 53.3429 65.0393 53.4606C65.0168 53.4841 64.7019 54.2369 63.847 54.4721C63.8245 54.4721 63.802 54.4721 63.7795 54.4721Z" fill="#000072"/>
</g>
</g>
<g clip-path="url(#clip4_100_1003)">
<path d="M51.7241 61.3787C47.5714 61.3787 44.2585 60.2809 44.0719 60.1854C43.8852 60.1377 43.7919 59.9468 43.8386 59.7559C43.9319 59.5649 44.1185 59.4695 44.3052 59.5172C44.3985 59.5649 51.9108 62.0469 58.2565 59.5172C58.4432 59.4695 58.6298 59.5172 58.6765 59.7081C58.7231 59.8991 58.6765 60.09 58.4898 60.1377C56.2035 61.0923 53.8705 61.3787 51.7241 61.3787Z" fill="#000072"/>
<path d="M54.7104 60.8538V62.6675C54.7104 64.4813 53.1706 65.9609 51.2575 65.9609C49.3445 65.9609 47.8047 64.4813 47.8047 62.6675V60.7583C47.8047 60.7583 51.8175 61.4743 54.7104 60.8538Z" fill="#FFA7AC"/>
<path d="M51.2575 66.3423C49.1578 66.3423 47.478 64.7194 47.478 62.667V60.7578C47.478 60.6624 47.5247 60.5669 47.618 60.4714C47.7113 60.4237 47.8046 60.376 47.898 60.376C47.898 60.376 49.8577 60.7101 52.0041 60.7101C53.0306 60.7101 53.9171 60.6146 54.6637 60.4714C54.757 60.4714 54.897 60.4714 54.9437 60.5669C54.9903 60.6624 55.037 60.7578 55.037 60.8533V62.667C55.037 64.7194 53.3572 66.3423 51.2575 66.3423ZM48.1779 61.1874V62.7148C48.1779 64.3376 49.5777 65.6741 51.2575 65.6741C52.9373 65.6741 54.3371 64.3376 54.3371 62.7148V61.2829C53.6372 61.426 52.8439 61.4738 51.9574 61.4738C50.371 61.4738 48.8778 61.2829 48.1779 61.1874Z" fill="#000072"/>
<path d="M51.2576 64.2426C51.0709 64.2426 50.8843 64.0517 50.8843 63.8608V61.1401C50.8843 60.9492 51.0709 60.7583 51.2576 60.7583C51.4442 60.7583 51.6308 60.9492 51.6308 61.1401V63.9085C51.6308 64.0994 51.4442 64.2426 51.2576 64.2426Z" fill="#000072"/>
</g>
<path d="M69.1605 84.2413L69.0502 85.134V85.1463L67.0258 101.91L66.9864 102.227C66.9116 102.865 66.8013 103.498 66.6359 104.115C65.6276 107.851 63.2921 110.101 59.9798 111.253C55.9665 111.907 53.0953 110.944 51.9177 109.369C50.744 107.805 51.2442 105.641 53.9539 103.872C53.8948 103.638 53.9775 101.519 54.1114 98.7178C54.4107 92.5677 54.9858 83.1265 54.9858 83.1265C54.9858 83.1265 58.6038 89.0605 61.3716 89.2782C64.1394 89.4959 69.1605 84.2413 69.1605 84.2413Z" fill="#00BCFF"/>
<path d="M67.0255 101.91L66.9862 102.227C66.9113 102.864 66.801 103.498 66.6356 104.115C65.6274 107.85 63.2918 110.101 59.9795 111.252C51.9765 112.561 48.5184 107.427 53.9536 103.872C53.8945 103.638 53.9772 101.519 54.1111 98.7177L54.1151 98.7136C57.518 94.9371 64.9972 97.3025 67.0255 101.91Z" fill="#00BCFF"/>
<ellipse cx="56.6572" cy="107.457" rx="4.88571" ry="3.58206" fill="white"/>
<path d="M69.4754 84.2827L69.1288 88.0756L68.7664 91.8644L68.3844 95.6533C68.2584 96.9162 68.1363 98.1791 67.9787 99.438L67.7424 101.326L67.6243 102.268C67.5849 102.593 67.5376 102.922 67.4786 103.247C67.4195 103.576 67.3486 103.901 67.2619 104.231C67.1753 104.551 67.0808 104.872 66.9705 105.189C66.7539 105.819 66.4821 106.436 66.1592 107.024C65.5132 108.2 64.6271 109.241 63.5912 110.056C62.5554 110.874 61.3817 111.467 60.1805 111.886C60.149 111.899 60.1096 111.907 60.0781 111.911C58.7941 112.117 57.4826 112.199 56.1593 112.051C55.5015 111.977 54.8398 111.845 54.19 111.631C53.5441 111.417 52.906 111.117 52.3231 110.681C51.7481 110.249 51.2125 109.661 50.9171 108.9C50.7714 108.525 50.6847 108.114 50.6808 107.703C50.6729 107.291 50.7438 106.888 50.8619 106.514C51.1061 105.765 51.5354 105.14 52.0199 104.621C52.5043 104.099 53.0478 103.675 53.611 103.305L53.3314 104.037C53.3235 104 53.3156 103.959 53.3117 103.922L53.3078 103.881L53.3038 103.852C53.2999 103.811 53.2959 103.77 53.2959 103.741L53.2881 103.556C53.2841 103.441 53.2841 103.326 53.2841 103.214L53.292 102.552C53.2959 102.116 53.3117 101.68 53.3314 101.244C53.3668 100.376 53.4023 99.5079 53.4535 98.644L53.615 96.0482L53.804 93.4565C53.93 91.7287 54.06 90.0009 54.2097 88.2772C54.3515 86.5494 54.5051 84.8257 54.6705 83.102C54.6902 82.9169 54.8438 82.7852 55.021 82.8017C55.1864 82.8181 55.3125 82.9703 55.3085 83.1431C55.2652 84.875 55.2179 86.607 55.1589 88.3348C55.1077 90.0667 55.0407 91.7945 54.9777 93.5264L54.8871 96.1222L54.7808 98.7139C54.7532 99.5778 54.7059 100.442 54.6705 101.302L54.6154 102.589L54.5917 103.227L54.5838 103.535V103.675V103.729V103.741C54.5838 103.745 54.5838 103.749 54.5838 103.737C54.5838 103.725 54.5799 103.712 54.576 103.7L54.2963 104.432C53.8001 104.761 53.3353 105.127 52.9415 105.547C52.5516 105.967 52.2404 106.44 52.0789 106.933C51.9175 107.427 51.9253 107.929 52.1065 108.39C52.2837 108.85 52.6382 109.266 53.0754 109.591C53.5126 109.92 54.0325 110.171 54.5799 110.352C55.1274 110.533 55.7063 110.648 56.2971 110.714C57.4747 110.846 58.6878 110.772 59.8812 110.582L59.7788 110.607C60.8776 110.224 61.9213 109.69 62.8272 108.978C63.733 108.266 64.4932 107.369 65.0603 106.345C65.3439 105.831 65.5841 105.292 65.7771 104.728C65.8756 104.449 65.9622 104.161 66.041 103.873C66.1158 103.589 66.1788 103.297 66.234 103.001C66.2852 102.704 66.3285 102.404 66.3679 102.1L66.4782 101.153L66.6987 99.2652C66.8445 98.0064 67.0296 96.7516 67.2068 95.4928L67.7385 91.7246L68.286 87.9604L68.8531 84.1963C68.8807 84.0153 69.0461 83.8877 69.2194 83.9165C69.3769 83.9494 69.4911 84.1099 69.4754 84.2827Z" fill="#000070"/>
<path d="M53.5596 103.37C54.2646 103.066 55.009 102.856 55.773 102.782C56.5332 102.708 57.313 102.77 58.0495 102.983C58.786 103.197 59.4831 103.568 60.07 104.065C60.6607 104.563 61.1412 105.193 61.4878 105.88C61.5666 106.04 61.5075 106.233 61.3579 106.32C61.2121 106.398 61.0349 106.344 60.9483 106.205C60.5977 105.612 60.1369 105.102 59.6013 104.715C59.0656 104.329 58.4591 104.061 57.829 103.93C57.1988 103.798 56.545 103.798 55.9109 103.909C55.2768 104.02 54.6584 104.246 54.0834 104.551H54.0795C53.7723 104.711 53.3981 104.584 53.2445 104.263C53.0909 103.942 53.213 103.551 53.5202 103.391C53.532 103.383 53.5478 103.374 53.5596 103.37Z" fill="#000070"/>
<path d="M58.278 107.415C58.2032 108.077 58.1717 108.743 58.2622 109.36C58.3095 109.669 58.3883 109.957 58.5064 110.2C58.6207 110.446 58.7821 110.64 58.9633 110.788C59.239 111.014 59.2863 111.43 59.0696 111.718C58.853 112.006 58.4552 112.055 58.1795 111.829C58.1205 111.779 58.0732 111.726 58.0338 111.664L58.0062 111.619C57.7896 111.257 57.6518 110.854 57.6045 110.463C57.5573 110.072 57.5769 109.698 57.636 109.348C57.7621 108.645 58.0062 108.019 58.278 107.415Z" fill="#000070"/>
<path d="M54.651 107.044C54.5762 107.706 54.5447 108.373 54.6353 108.99C54.6826 109.298 54.7613 109.586 54.8795 109.829C54.9937 110.076 55.1552 110.269 55.3363 110.417C55.612 110.644 55.6593 111.059 55.4427 111.347C55.2261 111.635 54.8283 111.684 54.5526 111.458C54.4935 111.409 54.4462 111.355 54.4069 111.294L54.3793 111.248C54.1627 110.886 54.0248 110.483 53.9776 110.092C53.9303 109.701 53.95 109.327 54.0091 108.977C54.1351 108.274 54.3793 107.645 54.651 107.044Z" fill="#000070"/>
<g opacity="0.3">
<path d="M69.05 85.1338V85.1461L67.0256 101.91L66.9863 102.227C66.9114 102.864 66.8011 103.498 66.6357 104.115C65.6275 107.85 63.2919 110.101 59.9796 111.252C55.9663 111.907 53.0951 110.944 51.9175 109.368C60.0545 110.228 63.7409 103.284 64.3199 90.8972C64.4498 88.0793 66.4073 85.7138 69.05 85.1338Z" fill="#000070" fill-opacity="0.4"/>
</g>
<path d="M35.1645 77.346C35.1323 77.3741 35.1034 77.393 35.0779 77.4028C35.0251 77.4231 34.973 77.4197 34.9215 77.3926C34.8718 77.3648 34.8344 77.3186 34.8096 77.2539C34.7742 77.162 34.7802 77.0785 34.8276 77.0036C34.8751 76.9287 34.9477 76.8509 35.0457 76.7703L35.2461 76.6052C35.3112 76.5509 35.3591 76.4924 35.3897 76.4298C35.421 76.3689 35.42 76.2951 35.3866 76.2082L35.3699 76.1648L34.9255 76.3357C34.791 76.3874 34.6899 76.4449 34.6224 76.508C34.5964 76.4965 34.5693 76.4766 34.5408 76.4485C34.5131 76.422 34.491 76.3875 34.4746 76.3449C34.453 76.2887 34.4507 76.2369 34.4676 76.1893C34.4845 76.1418 34.5193 76.1079 34.5721 76.0876L35.8541 75.5945C35.9835 75.5448 36.0846 75.4873 36.1573 75.4223C36.1832 75.4338 36.21 75.4528 36.2378 75.4792C36.2662 75.5074 36.2886 75.5427 36.305 75.5853C36.3266 75.6415 36.3286 75.6925 36.3111 75.7383C36.2942 75.7859 36.2593 75.8198 36.2066 75.8401L35.4925 76.1177L35.5304 76.1705C35.5936 76.2537 35.6726 76.3142 35.7673 76.352C35.8626 76.3916 35.9599 76.4108 36.0592 76.4098C36.1591 76.4105 36.2474 76.3961 36.324 76.3666C36.37 76.3489 36.408 76.3284 36.4381 76.3051C36.4706 76.2828 36.4939 76.2621 36.5081 76.243C36.5475 76.2845 36.5754 76.3266 36.5918 76.3692C36.6514 76.5241 36.5969 76.634 36.4283 76.6988C36.3006 76.7479 36.1598 76.7502 36.006 76.7058C35.8527 76.6631 35.708 76.5664 35.5718 76.4155C35.5989 76.5165 35.603 76.6009 35.5842 76.6687C35.566 76.7382 35.5253 76.8027 35.4622 76.8622L35.2357 77.0812C35.1828 77.1368 35.148 77.1785 35.1313 77.2064C35.1147 77.2343 35.1108 77.2622 35.1196 77.2901L35.1235 77.3003C35.13 77.3173 35.1437 77.3326 35.1645 77.346Z" fill="black"/>
<path d="M35.7644 79.285C35.6516 79.0559 35.6407 78.8458 35.7317 78.6546C35.8234 78.4651 36.0174 78.2975 36.3137 78.1517C36.6083 78.0067 36.8586 77.9557 37.0647 77.9986C37.2717 78.0431 37.4315 78.18 37.5443 78.4091C37.657 78.6383 37.6676 78.8476 37.5758 79.0371C37.4849 79.2282 37.2921 79.3963 36.9975 79.5413C36.7012 79.687 36.4496 79.7377 36.2427 79.6931C36.0366 79.6502 35.8771 79.5142 35.7644 79.285ZM35.8773 79.2295C35.9353 79.3473 36.039 79.403 36.1883 79.3966C36.3393 79.3894 36.5506 79.319 36.8223 79.1853C37.094 79.0516 37.2779 78.9275 37.3741 78.8131C37.4719 78.6979 37.4918 78.5813 37.4338 78.4635C37.3758 78.3457 37.2709 78.2895 37.1192 78.2951C36.9682 78.3023 36.7577 78.3723 36.4876 78.5052C36.2176 78.6381 36.0336 78.7622 35.9358 78.8774C35.8388 78.9943 35.8193 79.1116 35.8773 79.2295Z" fill="black"/>
<path d="M36.9382 81.3607C36.9088 81.3124 36.8965 81.2622 36.9013 81.2103C36.9988 81.1917 37.1154 81.1412 37.2511 81.0589L38.2197 80.4715C38.3491 80.393 38.4535 80.3222 38.5326 80.2593C38.5508 80.2611 38.571 80.2733 38.5933 80.2961C38.6166 80.3204 38.6372 80.3473 38.6552 80.377C38.6788 80.416 38.6888 80.443 38.6851 80.458C38.6526 80.531 38.5698 80.7338 38.4365 81.0664C38.3147 81.3686 38.2204 81.5965 38.1535 81.7501C38.0876 81.9052 38.0277 82.0227 37.9736 82.1024L38.9772 81.3881L39.0086 81.3659C39.06 81.3347 39.1085 81.3213 39.1538 81.3258C39.2002 81.3318 39.2399 81.3568 39.2729 81.4008C39.3063 81.4488 39.3217 81.497 39.3191 81.5455C39.246 81.5622 39.1439 81.6102 39.0129 81.6897L37.9985 82.3017C37.8597 82.3859 37.7565 82.4549 37.6888 82.5087C37.6713 82.5044 37.6514 82.4909 37.629 82.4682C37.6061 82.448 37.5861 82.4238 37.5691 82.3957C37.5492 82.363 37.5389 82.3372 37.5382 82.3185C37.7751 81.6009 37.9988 81.0641 38.2096 80.708L37.2059 81.4064C37.1588 81.4413 37.1082 81.4529 37.054 81.4409C37.0014 81.428 36.9628 81.4013 36.9382 81.3607Z" fill="black"/>
<path d="M38.6535 83.8847C38.6242 83.8363 38.6119 83.7862 38.6166 83.7342C38.7142 83.7156 38.8308 83.6652 38.9665 83.5829L39.935 82.9954C40.0645 82.9169 40.1688 82.8462 40.2479 82.7832C40.2661 82.785 40.2863 82.7973 40.3087 82.82C40.3319 82.8443 40.3525 82.8713 40.3705 82.9009C40.3942 82.9399 40.4042 82.9669 40.4005 82.9819C40.368 83.055 40.2851 83.2578 40.1518 83.5903C40.03 83.8925 39.9357 84.1204 39.8689 84.274C39.803 84.4292 39.743 84.5466 39.6889 84.6263L40.6926 83.912L40.7239 83.8898C40.7754 83.8586 40.8238 83.8452 40.8692 83.8497C40.9155 83.8557 40.9552 83.8807 40.9883 83.9247C41.0217 83.9727 41.0371 84.021 41.0345 84.0695C40.9613 84.0861 40.8593 84.1341 40.7283 84.2136L39.7138 84.8256C39.575 84.9098 39.4718 84.9788 39.4042 85.0327C39.3866 85.0284 39.3667 85.0149 39.3444 84.9921C39.3214 84.9719 39.3015 84.9477 39.2844 84.9197C39.2646 84.8869 39.2543 84.8612 39.2536 84.8424C39.4904 84.1249 39.7142 83.588 39.9249 83.232L38.9212 83.9303C38.8741 83.9653 38.8235 83.9768 38.7693 83.9648C38.7167 83.9519 38.6781 83.9252 38.6535 83.8847Z" fill="black"/>
<path d="M40.8892 86.6885C40.8544 86.6394 40.8393 86.5897 40.8439 86.5394C40.8485 86.4892 40.8739 86.4477 40.92 86.415L42.0404 85.6204C42.1535 85.5402 42.2372 85.4596 42.2916 85.3786C42.3196 85.3833 42.3503 85.3951 42.3837 85.4139C42.4182 85.4341 42.4486 85.4629 42.475 85.5001C42.5098 85.5492 42.5249 85.5988 42.5203 85.6491C42.5157 85.6993 42.4903 85.7408 42.4442 85.7735L41.3238 86.5681C41.2062 86.6515 41.1225 86.7321 41.0726 86.8099C41.0447 86.8052 41.0134 86.7927 40.9789 86.7724C40.9455 86.7536 40.9156 86.7257 40.8892 86.6885Z" fill="black"/>
<path d="M42.3395 88.438C42.1858 88.2503 42.1332 88.0494 42.1817 87.8351C42.2314 87.6223 42.3783 87.4159 42.6225 87.2159C42.8666 87.016 43.0989 86.9153 43.3194 86.9139C43.5413 86.9114 43.7315 87.0068 43.8898 87.2001C43.9545 87.2791 44.0065 87.3627 44.0457 87.4509C44.0849 87.539 44.1039 87.6213 44.1028 87.6976C44.1028 87.7754 44.0774 87.8351 44.0266 87.8767C43.9829 87.9126 43.9286 87.924 43.8638 87.9111C43.8004 87.897 43.7411 87.8548 43.6858 87.7845C43.8774 87.5923 43.9148 87.4249 43.798 87.2823C43.7113 87.1765 43.5914 87.1438 43.4383 87.1843C43.2867 87.2237 43.0979 87.3358 42.8721 87.5208C42.6463 87.7057 42.4979 87.8685 42.4269 88.0092C42.3573 88.1488 42.3652 88.2708 42.4507 88.3752C42.5132 88.4514 42.5922 88.4904 42.688 88.4921C42.7837 88.4939 42.8938 88.4556 43.0183 88.3772C43.0373 88.3947 43.0508 88.4083 43.0589 88.4182C43.1005 88.469 43.1237 88.5232 43.1283 88.5807C43.1341 88.6396 43.1152 88.6869 43.0714 88.7228C43.0093 88.7736 42.9349 88.7921 42.8481 88.7783C42.7613 88.7645 42.6724 88.7265 42.5814 88.6643C42.493 88.6023 42.4123 88.5269 42.3395 88.438Z" fill="black"/>
<path d="M45.1303 90.909C45.027 91.0095 44.9567 91.1021 44.9195 91.1867C44.8911 91.1864 44.8583 91.1788 44.8211 91.1641C44.7852 91.1507 44.7513 91.1277 44.7195 91.095C44.6775 91.0519 44.6549 91.0051 44.6517 90.9548C44.6485 90.9044 44.6672 90.8595 44.7077 90.8201L45.249 90.2934L44.7413 89.7718L44.3727 90.1306C44.2694 90.2311 44.1991 90.3236 44.1619 90.4083C44.1335 90.4079 44.1007 90.4003 44.0635 90.3856C44.0276 90.3722 43.9937 90.3492 43.9619 90.3165C43.9199 90.2734 43.8973 90.2266 43.8941 90.1763C43.8909 90.1259 43.9096 90.081 43.9501 90.0416L44.9345 89.0836C45.0339 88.9869 45.1042 88.8944 45.1454 88.8059C45.1737 88.8063 45.2059 88.8132 45.2418 88.8266C45.279 88.8413 45.3135 88.865 45.3453 88.8977C45.3873 88.9408 45.4099 88.9875 45.4131 89.0379C45.4163 89.0882 45.3976 89.1331 45.3571 89.1726L44.8786 89.6382L45.3862 90.1598L45.6921 89.8621C45.7915 89.7654 45.8618 89.6729 45.9029 89.5844C45.9313 89.5848 45.9635 89.5917 45.9994 89.6051C46.0366 89.6198 46.0711 89.6435 46.1029 89.6761C46.1436 89.718 46.1656 89.7641 46.1688 89.8144C46.1732 89.8661 46.1552 89.9116 46.1147 89.9511L45.1303 90.909Z" fill="black"/>
<path d="M46.2073 92.5103C46.1624 92.4703 46.1365 92.4252 46.1297 92.3752C46.1229 92.3253 46.1383 92.2791 46.1759 92.2369L47.0892 91.2109C47.1814 91.1073 47.2448 91.01 47.2796 90.9188C47.3079 90.9172 47.3405 90.9217 47.3773 90.9325C47.4154 90.9445 47.4516 90.9656 47.4856 90.996C47.5306 91.036 47.5565 91.081 47.5632 91.131C47.57 91.181 47.5546 91.2271 47.517 91.2693L46.6038 92.2954C46.5079 92.403 46.4445 92.5004 46.4134 92.5874C46.385 92.5891 46.3518 92.5839 46.3136 92.5719C46.2768 92.5611 46.2414 92.5406 46.2073 92.5103Z" fill="black"/>
<path d="M50.3321 93.2833C50.389 93.3259 50.4234 93.3653 50.4351 93.4014C50.4483 93.4386 50.4397 93.4776 50.4091 93.5185C50.384 93.5521 50.3361 93.5949 50.2654 93.6468L48.9576 94.6609C48.8736 94.6392 48.8002 94.6049 48.7374 94.5579C48.6395 94.4847 48.6044 94.4175 48.632 94.3561L49.123 93.1826L48.0918 94.014C48.0064 93.9911 47.9345 93.9579 47.876 93.9142C47.7679 93.8334 47.7284 93.7629 47.7575 93.7026L48.4125 92.1495C48.4245 92.1243 48.4338 92.0936 48.4403 92.0575C48.4468 92.0214 48.4486 91.9885 48.4456 91.959C48.5142 91.9465 48.5864 91.9686 48.6624 92.0254C48.7705 92.1062 48.8046 92.1886 48.7646 92.2726L48.0891 93.7113L49.0749 92.9041C49.0982 92.8851 49.1186 92.8639 49.1361 92.8405C49.1612 92.8069 49.1781 92.7706 49.1868 92.7315C49.2244 92.7391 49.2642 92.7529 49.3062 92.7729C49.3507 92.7925 49.3891 92.8143 49.4212 92.8384C49.4607 92.8678 49.4886 92.899 49.5051 92.9318C49.5216 92.9646 49.5235 92.9956 49.5107 93.0248L48.9543 94.3545L50.0394 93.3687C50.0496 93.3581 50.0633 93.3444 50.0804 93.3276C50.099 93.3118 50.1137 93.2967 50.1246 93.2821C50.1454 93.2543 50.1563 93.226 50.1573 93.1972C50.1913 93.2066 50.2208 93.2173 50.246 93.2293C50.2712 93.2413 50.2999 93.2593 50.3321 93.2833Z" fill="black"/>
<path d="M52.1455 96.5342C52.1259 96.6096 52.1218 96.6731 52.1334 96.7247C52.0646 96.7473 51.9903 96.7346 51.9105 96.6868C51.862 96.6577 51.8266 96.6227 51.8044 96.5817C51.7838 96.5417 51.7812 96.4998 51.7969 96.456L51.9276 95.9984L51.3972 95.6805L51.1383 95.9368C51.1029 95.9709 51.0768 96.002 51.06 96.0302C51.0403 96.063 51.0339 96.0932 51.0408 96.1208C51.0045 96.1139 50.9724 96.1053 50.9445 96.095C50.9173 96.0872 50.8865 96.073 50.8521 96.0523C50.7926 96.0167 50.7549 95.9803 50.7389 95.943C50.7245 95.9068 50.7309 95.8659 50.7581 95.8206C50.7806 95.783 50.8227 95.7359 50.8843 95.6793L52.1696 94.5835C52.2726 94.6069 52.3671 94.6444 52.4531 94.696C52.547 94.7523 52.5824 94.8192 52.5593 94.8968L52.1455 96.5342ZM51.9829 95.8051L52.2612 94.8298L51.5393 95.5392L51.9829 95.8051Z" fill="black"/>
<circle cx="51.3426" cy="44.6571" r="2.48571" fill="#FF1212"/>
<defs>
<clipPath id="clip0_100_1003">
<rect width="33.2914" height="39.2229" fill="white" transform="matrix(-1 0 0 1 99.9771 53.6572)"/>
</clipPath>
<clipPath id="clip1_100_1003">
<rect width="55.5429" height="48.8571" fill="white" transform="translate(23.4858 26.0571)"/>
</clipPath>
<clipPath id="clip2_100_1003">
<rect width="30.8629" height="14.6896" fill="white" transform="translate(35.5288 48.6855)"/>
</clipPath>
<clipPath id="clip3_100_1003">
<rect width="10.6833" height="4.15462" fill="white" transform="translate(55.7085 51.3564)"/>
</clipPath>
<clipPath id="clip4_100_1003">
<rect width="14.8379" height="6.82545" fill="white" transform="translate(43.8384 59.5171)"/>
</clipPath>
</defs>
</svg>
